<?xml version="1.0" standalone="no"?>
<!-- Generator: Adobe Fireworks 10, Export SVG Extension by Aaron Beall (http://fireworks.abeall.com) . Version: 0.6.1  -->
<!DOCTYPE svg PUBLIC "-//W3C//DTD SVG 1.1//EN" "http://www.w3.org/Graphics/SVG/1.1/DTD/svg11.dtd">
<svg id="Untitled-%u30DA%u30FC%u30B8%201" viewBox="0 0 110 80" style="background-color:#ffffff00" version="1.1"
	xmlns="http://www.w3.org/2000/svg" xmlns:xlink="http://www.w3.org/1999/xlink" xml:space="preserve"
	x="0px" y="0px" width="110px" height="80px"
>
	<g id="%u30EC%u30A4%u30E4%u30FC%201">
		<g>
			<path d="M 86.8382 33.9844 L 68.456 33.9844 L 68.456 45.3545 L 86.8382 45.3545 L 86.8382 33.9844 ZM 71.5988 62.8413 L 89.9811 62.8413 L 89.9811 48.2566 L 71.5988 48.2566 L 71.5988 62.8413 ZM 41.86 18.2578 C 46.2863 18.2578 49.8729 14.9038 49.8729 10.7668 C 49.8729 6.6299 46.2863 3.2759 41.86 3.2759 C 37.432 3.2759 33.8434 6.6299 33.8434 10.7668 C 33.8434 14.9038 37.432 18.2578 41.86 18.2578 ZM 70.4351 66.3735 L 58.9148 31.5967 L 56.4236 31.6187 C 56.3613 31.5691 56.3096 31.5103 56.2451 31.4624 L 41.1714 20.7573 C 40.5858 20.1472 39.8531 19.6382 38.973 19.3313 C 36.0493 18.3054 32.7866 19.6914 31.6891 22.4277 L 24.2821 39.4956 C 24.2732 39.5212 24.2601 39.5415 24.2527 39.5674 L 24.1846 39.8118 L 24.0208 40.2212 L 16.8347 68.6357 C 16.3098 70.5181 17.5177 72.4458 19.5337 72.9365 C 21.548 73.4292 23.6103 72.3005 24.1349 70.417 L 30.7337 46.7813 L 38.1757 55.4146 L 37.3104 71.1079 C 37.2019 73.0525 38.7999 74.7102 40.8804 74.811 C 42.961 74.9121 44.7359 73.4163 44.8427 71.4736 L 45.7855 54.4314 C 45.8333 53.5605 45.5423 52.7173 44.9568 52.0388 L 36.0455 41.7009 L 40.9522 29.4595 L 51.6808 37.0789 C 53.3379 38.2568 55.7056 37.9556 56.9667 36.4043 C 57.0093 36.353 57.035 36.2942 57.0755 36.2407 L 68.0471 69.3694 L 92.288 69.3694 L 92.288 66.3735 L 70.4351 66.3735 ZM 72.9611 71.1135 C 71.0907 71.1135 69.5809 72.5249 69.5809 74.2634 C 69.5809 76.0054 71.0907 77.4189 72.9611 77.4189 C 74.8281 77.4189 76.3434 76.0054 76.3434 74.2634 C 76.3434 72.5249 74.8281 71.1135 72.9611 71.1135 ZM 87.2488 71.4167 C 85.3818 71.4167 83.8647 72.8281 83.8647 74.5725 C 83.8647 76.3105 85.3818 77.7241 87.2488 77.7241 C 89.1158 77.7241 90.6312 76.3105 90.6312 74.5725 C 90.6312 72.8281 89.1158 71.4167 87.2488 71.4167 Z" fill="#003f97"/>
		</g>
	</g>
</svg>