<?xml version="1.0" standalone="no"?>
<!-- Generator: Adobe Fireworks 10, Export SVG Extension by Aaron Beall (http://fireworks.abeall.com) . Version: 0.6.1  -->
<!DOCTYPE svg PUBLIC "-//W3C//DTD SVG 1.1//EN" "http://www.w3.org/Graphics/SVG/1.1/DTD/svg11.dtd">
<svg id="Untitled-%u30DA%u30FC%u30B8%201" viewBox="0 0 110 80" style="background-color:#ffffff00" version="1.1"
	xmlns="http://www.w3.org/2000/svg" xmlns:xlink="http://www.w3.org/1999/xlink" xml:space="preserve"
	x="0px" y="0px" width="110px" height="80px"
>
	<g id="%u30EC%u30A4%u30E4%u30FC%201">
		<g>
			<g>
				<path d="M 87.5164 15 L 68.7324 15 L 67.2776 15 L 66.2491 16.0187 L 52.0284 30.1049 L 51 31.1236 L 51 32.5647 L 51 61.6053 C 51 66.7853 55.2543 71 60.4844 71 L 87.5162 71 C 92.7457 71 97 66.7853 97 61.6053 L 97 24.3949 C 97.0002 19.2141 92.7457 15 87.5164 15 ZM 93.4883 61.6052 C 93.4883 64.8729 90.8146 67.5214 87.5164 67.5214 L 60.4846 67.5214 C 57.1855 67.5214 54.5119 64.8729 54.5119 61.6052 L 54.5119 32.5646 L 63.7559 32.5646 C 66.5036 32.5646 68.7324 30.3577 68.7324 27.6351 L 68.7324 18.4786 L 87.5164 18.4786 C 90.8146 18.4786 93.4883 21.127 93.4883 24.3949 L 93.4883 61.6052 L 93.4883 61.6052 Z" fill="#003f97"/>
			</g>
			<g>
				<path d="M 58.4996 46.3345 C 58.1751 45.7262 57.6958 45.1945 57.0931 44.8077 L 35.5375 30.9611 L 35.5375 29.0038 C 35.537 28.9365 35.5687 28.8756 35.6158 28.8326 C 35.8085 28.8154 36.0638 28.7839 36.364 28.7238 C 36.9788 28.5991 37.7869 28.3698 38.5983 27.8339 C 39.7884 27.0416 40.7749 25.9627 41.4668 24.6874 C 42.1581 23.4122 42.553 21.9377 42.5526 20.3823 C 42.5533 17.9351 41.5783 15.7033 40.0114 14.1006 C 38.4465 12.4966 36.2664 11.5 33.8764 11.5 C 32.085 11.5 30.4064 12.0595 29.0234 13.0175 C 27.6398 13.9752 26.5425 15.3279 25.8821 16.9241 C 25.5248 17.7889 25.9206 18.7869 26.7653 19.1529 C 27.6104 19.5183 28.5856 19.1142 28.9426 18.2496 C 29.3478 17.2679 30.0292 16.4277 30.8844 15.8365 C 31.7403 15.2455 32.7618 14.9016 33.8763 14.9016 C 35.3589 14.9016 36.6873 15.512 37.6616 16.5071 C 38.6329 17.5037 39.2289 18.8635 39.2292 20.3823 C 39.2289 21.351 38.9872 22.2486 38.5611 23.0359 C 38.1349 23.822 37.5225 24.4926 36.7877 24.9811 C 36.5013 25.1768 36.0751 25.3201 35.7308 25.3859 C 35.5594 25.4196 35.4105 25.4375 35.3137 25.4453 C 35.2647 25.4503 35.2292 25.4526 35.2109 25.4532 L 35.2009 25.4532 L 34.9756 25.4561 L 34.7545 25.5235 C 33.2484 25.9799 32.2147 27.3955 32.2144 29.004 L 32.2144 31.0135 L 12.7416 44.9195 L 12.7421 44.918 C 11.6296 45.7125 10.999 47 11 48.3354 C 11 48.7524 11.0617 49.1744 11.1876 49.5835 C 11.7205 51.3201 13.2917 52.5 15.0687 52.5 L 54.931 52.5 C 56.7449 52.5 58.3389 51.2714 58.8411 49.4867 L 58.8411 49.4859 C 58.9472 49.1055 59 48.7179 59 48.3353 C 59 47.6297 58.8247 46.9434 58.4996 46.3345 ZM 55.6477 48.5475 L 55.6477 48.5467 C 55.556 48.8726 55.2631 49.099 54.931 49.099 L 15.0687 49.099 C 14.743 49.099 14.4548 48.8812 14.3577 48.5646 C 14.3335 48.4874 14.3231 48.4106 14.3231 48.3353 C 14.3237 48.0903 14.4378 47.8539 14.6418 47.7092 L 14.6426 47.7092 L 33.9247 33.9409 L 55.327 47.6884 C 55.4401 47.7615 55.524 47.856 55.5847 47.9679 C 55.6449 48.0797 55.6773 48.2065 55.6773 48.3354 C 55.6773 48.405 55.6675 48.4745 55.6477 48.5475 Z" fill="#003f97"/>
			</g>
		</g>
	</g>
</svg>