<?xml version="1.0" standalone="no"?>
<!-- Generator: Adobe Fireworks 10, Export SVG Extension by Aaron Beall (http://fireworks.abeall.com) . Version: 0.6.1  -->
<!DOCTYPE svg PUBLIC "-//W3C//DTD SVG 1.1//EN" "http://www.w3.org/Graphics/SVG/1.1/DTD/svg11.dtd">
<svg id="Untitled-%u30DA%u30FC%u30B8%201" viewBox="0 0 110 80" style="background-color:#ffffff00" version="1.1"
	xmlns="http://www.w3.org/2000/svg" xmlns:xlink="http://www.w3.org/1999/xlink" xml:space="preserve"
	x="0px" y="0px" width="110px" height="80px"
>
	<g id="%u30EC%u30A4%u30E4%u30FC%201">
		<g>
			<path d="M 76.7529 19.9106 C 71.064 14.3997 63.1806 10.9972 54.5005 11 C 45.8326 10.9989 37.9521 14.386 32.2683 19.8917 C 26.56 25.4156 22.9981 33.0574 23 41.4982 C 22.9989 49.9159 26.528 57.5525 32.2267 63.067 C 37.9209 68.5837 45.8079 72.0011 54.5011 72 C 57.1119 72 59.6375 71.6736 62.0493 71.0962 L 62.588 70.9673 L 62.6092 70.9449 C 62.6092 70.9449 62.6085 70.9464 62.6092 70.9464 L 84.9122 49.3512 C 84.9095 49.3512 84.9078 49.3503 84.9048 49.3503 L 84.9353 49.3229 L 85.0682 48.803 C 85.662 46.4713 86.0011 44.0261 86 41.4982 C 86.0018 33.0696 82.456 25.4312 76.7529 19.9106 ZM 81.7052 47.2179 C 81.5802 47.2429 81.416 47.2686 81.2161 47.285 C 80.8543 47.3187 80.3882 47.3297 79.856 47.3192 L 79.825 47.3187 L 79.8424 47.3187 C 78.2136 47.3068 75.8655 47.0898 73.2174 47.5023 L 73.2211 47.5016 C 70.5536 47.9082 67.5728 49.0721 64.9792 51.5914 L 64.9561 51.6128 L 64.9517 51.6183 L 64.934 51.6353 L 64.9305 51.6389 C 62.9569 53.5479 61.7634 55.6787 61.1414 57.7374 C 60.2098 60.8142 60.459 63.6213 60.4997 65.5665 L 60.501 65.5752 C 60.5328 66.5372 60.507 67.3383 60.4255 67.7444 C 60.4175 67.7858 60.4105 67.8082 60.4021 67.8435 C 58.4907 68.2462 56.5247 68.481 54.5005 68.481 C 46.7999 68.481 39.8448 65.4644 34.7964 60.5789 C 29.7502 55.6907 26.6355 48.9556 26.6336 41.4983 C 26.6355 34.0249 29.7756 27.2853 34.8384 22.3802 C 39.8695 17.511 46.8177 14.5192 54.5005 14.5183 C 62.1914 14.519 69.1429 17.5229 74.1832 22.3998 C 79.2366 27.2964 82.3645 34.0336 82.3666 41.4983 C 82.3652 43.459 82.1232 45.3665 81.7052 47.2179 Z" fill="#003f97"/>
			<path d="M 39.5218 30.4662 C 36.4471 30.4662 34.0175 31.8444 33.1149 34.5942 C 32.728 35.7716 32.6233 36.7224 32.6233 39.2512 C 32.6233 41.7782 32.7276 42.7286 33.1149 43.9043 C 34.0175 46.6564 36.4471 48.0326 39.5218 48.0326 C 42.5966 48.0326 45.0262 46.6564 45.9325 43.9043 C 46.3198 42.7286 46.4203 41.7782 46.4203 39.2512 C 46.4203 36.7224 46.3199 35.772 45.9325 34.5942 C 45.0262 31.8444 42.5966 30.4662 39.5218 30.4662 ZM 42.2888 42.9034 C 41.8994 44.0808 40.9683 44.7799 39.5218 44.7799 C 38.0756 44.7799 37.1459 44.0808 36.759 42.9034 C 36.5498 42.3032 36.4743 41.4784 36.4743 39.2512 C 36.4743 37.0239 36.5501 36.1973 36.759 35.5955 C 37.1459 34.4221 38.0756 33.723 39.5218 33.723 C 40.9677 33.723 41.8994 34.4221 42.2888 35.5955 C 42.4939 36.1976 42.5735 37.0239 42.5735 39.2512 C 42.5731 41.4784 42.4939 42.3032 42.2888 42.9034 Z" fill="#003f97"/>
			<path d="M 60.8138 30.7438 L 49.5475 30.7438 C 49.3904 30.7438 49.2859 30.8451 49.2859 30.9927 L 49.2859 47.5034 C 49.2859 47.6571 49.3904 47.7563 49.5475 47.7563 L 52.8273 47.7563 C 52.9799 47.7563 53.0847 47.6571 53.0847 47.5034 L 53.0847 41.1016 C 53.0847 41.0002 53.1387 40.9534 53.2414 40.9534 L 59.5473 40.9534 C 59.7004 40.9534 59.803 40.8523 59.803 40.7023 L 59.803 38.0494 C 59.803 37.8977 59.7004 37.8 59.5473 37.8 L 53.2414 37.8 C 53.1387 37.8 53.0847 37.7498 53.0847 37.6487 L 53.0847 34.0714 C 53.0847 33.9719 53.1387 33.9196 53.2414 33.9196 L 60.8134 33.9196 C 60.9666 33.9196 61.0711 33.8221 61.0711 33.6705 L 61.0711 30.9932 C 61.0713 30.8451 60.9668 30.7438 60.8138 30.7438 Z" fill="#003f97"/>
			<path d="M 75.7391 30.7438 L 64.473 30.7438 C 64.3161 30.7438 64.2155 30.8451 64.2155 30.9927 L 64.2155 47.5034 C 64.2155 47.6571 64.3161 47.7563 64.473 47.7563 L 67.7567 47.7563 C 67.9096 47.7563 68.0126 47.6571 68.0126 47.5034 L 68.0126 41.1016 C 68.0126 41.0002 68.0628 40.9534 68.1669 40.9534 L 74.4733 40.9534 C 74.6261 40.9534 74.7302 40.8523 74.7302 40.7023 L 74.7302 38.0494 C 74.7302 37.8977 74.6261 37.8 74.4733 37.8 L 68.1669 37.8 C 68.0628 37.8 68.0126 37.7498 68.0126 37.6487 L 68.0126 34.0714 C 68.0126 33.9719 68.0628 33.9196 68.1669 33.9196 L 75.7391 33.9196 C 75.8925 33.9196 75.9966 33.8221 75.9966 33.6705 L 75.9966 30.9932 C 75.9966 30.8451 75.8925 30.7438 75.7391 30.7438 Z" fill="#003f97"/>
		</g>
	</g>
</svg>