<?xml version="1.0" standalone="no"?>
<!-- Generator: Adobe Fireworks 10, Export SVG Extension by Aaron Beall (http://fireworks.abeall.com) . Version: 0.6.1  -->
<!DOCTYPE svg PUBLIC "-//W3C//DTD SVG 1.1//EN" "http://www.w3.org/Graphics/SVG/1.1/DTD/svg11.dtd">
<svg id="Untitled-%u30DA%u30FC%u30B8%201" viewBox="0 0 110 80" style="background-color:#ffffff00" version="1.1"
	xmlns="http://www.w3.org/2000/svg" xmlns:xlink="http://www.w3.org/1999/xlink" xml:space="preserve"
	x="0px" y="0px" width="110px" height="80px"
>
	<g id="%u30EC%u30A4%u30E4%u30FC%201">
		<g>
			<g>
				<path d="M 71.6323 32.312 C 77.3241 32.312 81.9385 27.7593 81.9385 22.1421 C 81.9385 16.5251 77.3241 11.9722 71.6323 11.9722 C 65.9401 11.9722 61.3257 16.5249 61.3257 22.1421 C 61.3257 27.7593 65.9398 32.312 71.6323 32.312 Z" fill="#003f97"/>
				<path d="M 22.788 65.0354 L 88.212 65.0354 L 88.212 71.7559 L 22.788 71.7559 L 22.788 65.0354 Z" fill="#003f97"/>
				<path d="M 68.4955 63.2666 L 82.7452 63.2666 L 82.7452 45.9324 C 82.7452 39.8765 77.7695 34.9658 71.6323 34.9658 C 65.4941 34.9658 60.5187 39.8765 60.5187 45.9324 L 60.5187 56.1907 L 68.4954 56.1907 L 68.4954 63.2666 L 68.4955 63.2666 Z" fill="#003f97"/>
				<path d="M 39.0698 63.2666 L 56.2471 63.2666 L 66.7026 63.2666 L 66.7026 57.9595 L 53.7747 57.9595 L 48.3304 43.3672 L 22.938 43.3672 L 30.8539 63.2666 L 39.0698 63.2666 Z" fill="#003f97"/>
			</g>
			<path id="%u6955%u5186%u5F62" d="M 25.0439 24.9441 C 25.0439 17.1567 31.3567 10.8442 39.144 10.8442 C 46.9313 10.8442 53.244 17.1567 53.244 24.9441 C 53.244 32.7312 46.9313 39.0442 39.144 39.0442 C 31.3567 39.0442 25.0439 32.7312 25.0439 24.9441 Z" fill="#003f97"/>
			<g>
				<path d="M 32.9399 18.74 L 46.476 32.2759 L 46.476 32.2759 " stroke="#ffffff" stroke-width="2" fill="none"/>
				<path d="M 46.476 17.6121 L 32.9399 31.1479 L 32.9399 31.1479 " stroke="#ffffff" stroke-width="2" fill="none"/>
			</g>
		</g>
	</g>
</svg>