<?xml version="1.0" standalone="no"?>
<!-- Generator: Adobe Fireworks 10, Export SVG Extension by Aaron Beall (http://fireworks.abeall.com) . Version: 0.6.1  -->
<!DOCTYPE svg PUBLIC "-//W3C//DTD SVG 1.1//EN" "http://www.w3.org/Graphics/SVG/1.1/DTD/svg11.dtd">
<svg id="Untitled-%u30DA%u30FC%u30B8%201" viewBox="0 0 110 80" style="background-color:#ffffff00" version="1.1"
	xmlns="http://www.w3.org/2000/svg" xmlns:xlink="http://www.w3.org/1999/xlink" xml:space="preserve"
	x="0px" y="0px" width="110px" height="80px"
>
	<g id="%u30EC%u30A4%u30E4%u30FC%201">
		<g>
			<path d="M 77.7156 17.6009 L 65.3677 17.6009 L 71.4532 11.6064 C 72.4071 10.6668 72.4071 9.1421 71.4532 8.2047 C 70.4993 7.2651 68.9537 7.2651 67.9977 8.2047 L 58.4588 17.6009 L 50.5414 17.6009 L 41.0025 8.2047 C 40.0464 7.2651 38.5008 7.2651 37.549 8.2047 C 36.593 9.1423 36.593 10.6668 37.549 11.6064 L 43.6346 17.6009 L 31.2845 17.6009 C 25.0537 17.6009 20 22.5772 20 28.7169 L 20 61.3842 C 20 67.5239 25.0537 72.5 31.2845 72.5 L 77.7154 72.5 C 83.9483 72.5 89 67.5239 89 61.3842 L 89 28.7169 C 89.0002 22.5772 83.9485 17.6009 77.7156 17.6009 ZM 76.8375 54.8689 C 76.8375 58.5591 73.799 61.5521 70.0529 61.5521 L 38.9472 61.5521 C 35.2012 61.5521 32.1626 58.5591 32.1626 54.8689 L 32.1626 35.23 C 32.1626 31.5399 35.2012 28.5489 38.9472 28.5489 L 70.053 28.5489 C 73.799 28.5489 76.8376 31.5399 76.8376 35.23 L 76.8376 54.8689 L 76.8375 54.8689 Z" fill="#004098"/>
		</g>
	</g>
</svg>