<?xml version="1.0" standalone="no"?>
<!-- Generator: Adobe Fireworks 10, Export SVG Extension by Aaron Beall (http://fireworks.abeall.com) . Version: 0.6.1  -->
<!DOCTYPE svg PUBLIC "-//W3C//DTD SVG 1.1//EN" "http://www.w3.org/Graphics/SVG/1.1/DTD/svg11.dtd">
<svg id="Untitled-%u30DA%u30FC%u30B8%201" viewBox="0 0 110 80" style="background-color:#ffffff00" version="1.1"
	xmlns="http://www.w3.org/2000/svg" xmlns:xlink="http://www.w3.org/1999/xlink" xml:space="preserve"
	x="0px" y="0px" width="110px" height="80px"
>
	<g id="%u30EC%u30A4%u30E4%u30FC%201">
		<g>
			<path d="M 82.9039 7 C 82.9039 7 80.5239 10.5924 64.977 15.9086 C 49.1279 21.3281 39.3718 43.3825 39.3718 43.3825 C 37.0219 47.8992 27.7382 66.6727 27.7382 66.6727 C 25.1821 71.5188 29.8679 74.383 32.6143 69.3784 C 37.8866 59.7675 41.2855 50.9858 49.3 50.7359 C 60.9858 50.3709 68.9782 40.0579 66.4642 40.534 C 63.1533 41.9919 55.8594 40.6451 60.157 39.9765 C 70.4735 39.1394 76.8267 31.3059 74.7572 30.7723 C 71.098 32.1966 67.6892 30.8457 67.0207 30.4351 C 85.2278 28.1994 82.9039 7 82.9039 7 Z" fill="#004098"/>
		</g>
	</g>
</svg>