<?xml version="1.0" standalone="no"?>
<!-- Generator: Adobe Fireworks 10, Export SVG Extension by Aaron Beall (http://fireworks.abeall.com) . Version: 0.6.1  -->
<!DOCTYPE svg PUBLIC "-//W3C//DTD SVG 1.1//EN" "http://www.w3.org/Graphics/SVG/1.1/DTD/svg11.dtd">
<svg id="Untitled-%u30DA%u30FC%u30B8%201" viewBox="0 0 110 80" style="background-color:#ffffff00" version="1.1"
	xmlns="http://www.w3.org/2000/svg" xmlns:xlink="http://www.w3.org/1999/xlink" xml:space="preserve"
	x="0px" y="0px" width="110px" height="80px"
>
	<g id="%u30EC%u30A4%u30E4%u30FC%201">
		<g>
			<path d="M 80 22.0466 L 62.4708 22.0466 L 64.1074 15.1583 L 75.9337 12.3355 C 76.8643 12.1043 76.0514 8.7803 75.111 9.0115 L 61.1973 12.3355 L 58.8947 22.0466 L 30 22.0466 L 34.9677 70.6131 L 34.9706 70.6131 C 34.9706 70.6148 34.9684 70.616 34.9684 70.6177 C 34.9684 71.9333 43.9363 73 54.9987 73 C 66.0613 73 75.0291 71.9333 75.0291 70.6177 C 75.0291 70.616 75.0267 70.6148 75.0267 70.6131 L 75.0321 70.6131 L 80 22.0466 ZM 69.6335 64.6304 L 69.6138 64.6304 C 69.6235 64.659 69.6235 64.6879 69.6235 64.7169 C 69.6235 66.0367 63.0787 67.0965 54.995 67.0965 C 46.9117 67.0965 40.3568 66.0367 40.3568 64.7169 C 40.3568 64.6879 40.3568 64.659 40.3661 64.6304 L 36.8585 28.0295 L 57.4741 28.0295 L 55.5731 36.0451 C 53.3392 34.4267 52.0753 31.8738 48.1268 31.8738 C 44.5892 31.8738 43.2079 33.9065 41.3558 35.4963 L 43.4723 60.7863 C 43.4723 62.1016 48.4703 63.1683 54.6356 63.1683 C 60.8013 63.1683 65.7991 62.1016 65.7991 60.7863 C 65.7991 60.7792 65.7947 60.7728 65.7943 60.7659 L 68.2813 32.5192 C 65.2535 33.9738 64.2737 37.3459 59.7175 37.3459 C 59.4139 37.3459 59.12 37.3364 58.8456 37.3074 L 61.0503 28.0295 L 73.1313 28.0295 L 69.6335 64.6304 Z" fill="#003f97"/>
		</g>
	</g>
</svg>