<?xml version="1.0" standalone="no"?>
<!-- Generator: Adobe Fireworks 10, Export SVG Extension by Aaron Beall (http://fireworks.abeall.com) . Version: 0.6.1  -->
<!DOCTYPE svg PUBLIC "-//W3C//DTD SVG 1.1//EN" "http://www.w3.org/Graphics/SVG/1.1/DTD/svg11.dtd">
<svg id="Untitled-%u30DA%u30FC%u30B8%201" viewBox="0 0 110 80" style="background-color:#ffffff00" version="1.1"
	xmlns="http://www.w3.org/2000/svg" xmlns:xlink="http://www.w3.org/1999/xlink" xml:space="preserve"
	x="0px" y="0px" width="110px" height="80px"
>
	<g id="%u30EC%u30A4%u30E4%u30FC%201">
		<g>
			<path d="M 66.0072 45.1894 C 66.1466 44.6576 66.266 44.0735 66.3496 43.6143 C 66.3537 43.6062 66.3537 43.5982 66.3537 43.5921 C 66.7398 43.4975 67.0863 43.3202 67.3849 43.1027 C 68.0539 42.6112 68.5357 41.9344 68.9298 41.2254 C 69.3201 40.5143 69.6087 39.7631 69.8018 39.0985 C 69.9452 38.5908 70.0209 38.1337 70.0209 37.7087 C 70.0209 37.2535 69.9292 36.8245 69.7421 36.4599 C 69.6048 36.186 69.4135 35.9522 69.2045 35.7791 C 69.1766 35.7549 69.1487 35.7388 69.121 35.7187 L 68.9854 30.0991 C 69.0254 29.938 69.0453 29.7728 69.0453 29.6097 L 67.9064 29.6097 L 67.9064 29.523 L 40.9704 29.523 L 40.9704 29.6097 L 39.979 29.6097 C 39.979 29.6459 39.985 29.6823 39.987 29.7204 L 39.9034 29.6841 L 39.7561 35.7186 C 39.5492 35.8758 39.356 36.0731 39.2066 36.327 C 38.9717 36.7177 38.8562 37.1971 38.8562 37.7087 C 38.8562 38.1337 38.9319 38.5909 39.0753 39.0985 C 39.334 39.9867 39.7561 41.024 40.3734 41.9183 C 40.684 42.3634 41.0462 42.7762 41.4922 43.1027 C 41.7908 43.3202 42.1373 43.4975 42.5234 43.5921 C 42.5514 43.7512 42.5851 43.9245 42.623 44.1078 C 42.6947 44.4562 42.7782 44.8349 42.8699 45.1894 C 42.9675 45.5499 43.0649 45.8782 43.2043 46.1844 C 44.0047 47.9024 45.02 49.2541 46.109 50.2954 C 47.7435 51.8604 49.5432 52.7305 51.0643 53.2098 C 52.5892 53.6871 53.8316 53.7778 54.4386 53.7798 C 54.8467 53.7798 55.5276 53.7375 56.3957 53.5683 C 57.6916 53.3165 59.3978 52.7767 61.094 51.6387 C 62.7902 50.5068 64.4704 48.7645 65.6729 46.1843 C 65.8121 45.8782 65.9096 45.5499 66.0072 45.1894 ZM 64.5658 42.5105 L 64.5617 42.5327 C 64.5439 42.6515 64.4503 43.2155 64.3229 43.8318 C 64.2592 44.142 64.1856 44.4602 64.1119 44.7382 C 64.0382 45.0121 63.9566 45.2498 63.9088 45.3424 C 63.2119 46.845 62.348 47.985 61.4302 48.8634 C 60.0545 50.1826 58.5336 50.9198 57.2355 51.3287 C 55.9375 51.7376 54.8544 51.8121 54.4384 51.8121 C 54.1616 51.8121 53.5844 51.7799 52.8518 51.6348 C 51.7468 51.4213 50.2875 50.9561 48.8581 49.9992 C 47.4267 49.0364 46.017 47.5944 44.968 45.3424 C 44.9182 45.2419 44.8286 44.9799 44.7529 44.6818 C 44.6315 44.2306 44.5179 43.6789 44.4383 43.2477 C 44.3984 43.0322 44.3666 42.8471 44.3428 42.716 C 44.3347 42.6495 44.3248 42.5971 44.3188 42.5629 L 44.3108 42.5105 L 44.1594 41.5478 L 43.2059 41.6908 L 43.1182 41.6968 C 42.9869 41.6968 42.8375 41.6525 42.6285 41.5035 C 42.3198 41.2859 41.9496 40.8227 41.647 40.2667 C 41.3443 39.7149 41.0975 39.0803 40.9462 38.5486 C 40.8386 38.176 40.8028 37.898 40.8028 37.7087 C 40.8028 37.5033 40.8407 37.4066 40.8626 37.3622 L 40.9184 37.2938 C 40.9503 37.2655 41.014 37.2293 41.1176 37.2011 C 41.2211 37.1768 41.3525 37.1628 41.4679 37.1628 C 41.5596 37.1628 41.6411 37.1688 41.6949 37.1768 L 41.7506 37.1849 L 41.7546 37.1849 L 42.5868 37.3522 C 42.6863 37.5194 42.7899 37.7046 42.8933 37.9141 C 43.0088 36.8102 43.2557 34.6935 43.4428 33.1324 C 46.1087 34.3047 50.0764 35.0498 54.5119 35.0498 C 58.8699 35.0498 62.7779 34.3309 65.4417 33.1929 C 65.6249 34.7479 65.8695 36.8244 65.9832 37.9141 C 66.0868 37.7046 66.1902 37.5192 66.2897 37.354 L 67.1239 37.1848 L 67.1259 37.1848 C 67.1558 37.1787 67.2732 37.1626 67.4087 37.1626 C 67.5123 37.1626 67.6277 37.1727 67.7233 37.1928 C 67.7949 37.2089 67.8546 37.2311 67.8964 37.2533 C 67.9602 37.2855 67.9781 37.3056 68.004 37.3459 C 68.0259 37.3863 68.0697 37.4748 68.0736 37.7085 C 68.0736 37.898 68.0378 38.1779 67.9303 38.5485 C 67.7293 39.2575 67.3529 40.1498 66.909 40.7862 C 66.688 41.1044 66.4531 41.3562 66.2479 41.5032 C 66.0388 41.6523 65.8875 41.6966 65.7581 41.6966 L 65.6724 41.6905 L 64.7169 41.5455 L 64.5658 42.5105 Z" fill="#003f97"/>
			<path d="M 39.9789 25.5916 L 39.9789 27.8454 L 69.0452 27.8454 L 69.0452 25.511 C 72.4655 24.0247 74.5698 22.3368 74.5698 19.662 C 74.5698 14.1312 65.589 8 54.512 8 C 43.4351 8 34.4563 14.1312 34.4563 19.662 C 34.4563 22.3368 36.5587 24.1375 39.9789 25.5916 ZM 54.512 15.3275 C 57.1598 15.3275 59.3099 17.4989 59.3099 20.1776 C 59.3099 22.8585 57.1598 25.0317 54.512 25.0317 C 51.8642 25.0317 49.7181 22.8585 49.7181 20.1776 C 49.7181 17.4989 51.8642 15.3275 54.512 15.3275 Z" fill="#003f97"/>
			<path d="M 56.1645 22.7518 L 57.1857 19.5714 L 54.512 17.6056 L 51.8403 19.5714 L 52.8596 22.7518 L 56.1645 22.7518 Z" fill="#003f97"/>
			<path d="M 49.539 37.9001 C 48.9337 37.9001 48.444 38.3956 48.444 39.0079 C 48.444 39.6202 48.9337 40.1158 49.539 40.1158 C 50.1442 40.1158 50.634 39.6202 50.634 39.0079 C 50.634 38.3956 50.1442 37.9001 49.539 37.9001 Z" fill="#003f97"/>
			<path d="M 59.5171 37.9001 C 58.9118 37.9001 58.4221 38.3956 58.4221 39.0079 C 58.4221 39.6202 58.9118 40.1158 59.5171 40.1158 C 60.1222 40.1158 60.612 39.6202 60.612 39.0079 C 60.612 38.3956 60.1222 37.9001 59.5171 37.9001 Z" fill="#003f97"/>
			<path d="M 78.434 68.0319 C 78.434 68.0319 77.7332 63.3429 77.343 62.5312 C 76.9966 61.8122 66.3295 55.5299 63.9367 54.1262 L 57.1559 67.3934 L 56.033 60.795 L 57.9522 58.9118 L 56.6103 56.3437 L 54.5001 56.3437 L 52.3897 56.3437 L 51.0459 58.9118 L 52.9652 60.795 L 51.8443 67.3934 L 45.0634 54.1262 C 42.6705 55.5301 32.0035 61.8122 31.6571 62.5312 C 31.2668 63.3429 30.566 68.0319 30.566 68.0319 C 30.3789 68.9644 30.5939 69.9312 31.1553 70.6926 C 31.7168 71.4541 32.5688 71.9394 33.5046 72.026 C 33.5046 72.026 38.7962 74 54.4999 74 C 70.2038 74 75.4953 72.026 75.4953 72.026 C 76.431 71.9394 77.283 71.4539 77.8446 70.6926 C 78.4061 69.9312 78.6211 68.9644 78.434 68.0319 Z" fill="#003f97"/>
		</g>
	</g>
</svg>