<?xml version="1.0" standalone="no"?>
<!-- Generator: Adobe Fireworks 10, Export SVG Extension by Aaron Beall (http://fireworks.abeall.com) . Version: 0.6.1  -->
<!DOCTYPE svg PUBLIC "-//W3C//DTD SVG 1.1//EN" "http://www.w3.org/Graphics/SVG/1.1/DTD/svg11.dtd">
<svg id="Untitled-%u30DA%u30FC%u30B8%201" viewBox="0 0 110 80" style="background-color:#ffffff00" version="1.1"
	xmlns="http://www.w3.org/2000/svg" xmlns:xlink="http://www.w3.org/1999/xlink" xml:space="preserve"
	x="0px" y="0px" width="110px" height="80px"
>
	<g id="%u30EC%u30A4%u30E4%u30FC%201">
		<g>
			<path d="M 3.4 32.5339 L 7.2563 36.4146 C 20.0172 23.5773 40.7828 23.5773 53.5427 36.4146 L 57.4 32.5339 C 42.5151 17.5579 18.2883 17.5526 3.4 32.5339 Z" fill="#003f97"/>
			<path d="M 11.1143 40.2954 L 14.9705 44.1752 C 23.4797 35.6156 37.3228 35.6182 45.8286 44.1752 L 49.6858 40.2954 C 39.0515 29.5952 21.7485 29.5952 11.1143 40.2954 Z" fill="#003f97"/>
			<path d="M 18.8286 48.0566 L 22.6858 51.9375 C 26.9399 47.6565 33.8594 47.6565 38.1145 51.9375 L 41.9717 48.0566 C 35.5923 41.6377 25.2078 41.6377 18.8286 48.0566 Z" fill="#003f97"/>
			<path d="M 26.543 55.8184 L 30.4 59.7 L 34.2562 55.8184 C 32.1271 53.6758 28.6721 53.6758 26.543 55.8184 Z" fill="#003f97"/>
		</g>
		<g>
			<path d="M 81.2148 19.3057 C 81.2148 17.4325 79.6011 15.9 77.6284 15.9 C 75.656 15.9 74.042 17.4324 74.042 19.3057 L 74.042 27.3324 L 81.2148 27.3324 L 81.2148 19.3057 Z" fill="#003f97"/>
			<path d="M 100.3579 19.3057 C 100.3579 17.4325 98.7443 15.9 96.7715 15.9 C 94.7991 15.9 93.1851 17.4324 93.1851 19.3057 L 93.1851 27.3324 L 100.3577 27.3324 L 100.3577 19.3057 L 100.3579 19.3057 Z" fill="#003f97"/>
			<path d="M 106.9276 30.0413 L 67.4724 30.0413 C 67.1027 30.0413 66.8 30.3284 66.8 30.6799 L 66.8 35.0004 C 66.8 35.3517 67.1027 35.6388 67.4724 35.6388 L 70.4454 35.6388 L 70.4454 38.4377 C 70.4454 46.0259 76.116 52.416 83.632 53.9797 L 83.632 62.5818 L 83.632 65.1 L 86.2841 65.1 L 90.7678 65.1 L 90.7678 53.9797 C 98.2837 52.416 103.9543 46.0259 103.9543 38.4377 L 103.9543 35.6388 L 106.9276 35.6388 C 107.2974 35.6388 107.6 35.3517 107.6 35.0004 L 107.6 30.6799 C 107.6 30.3284 107.2974 30.0413 106.9276 30.0413 ZM 100.7334 41.1334 C 99.8008 43.2188 98.4673 45.0928 96.77 46.7042 C 95.0726 48.3158 93.0989 49.5822 90.903 50.4678 C 90.6855 50.5557 90.4591 50.5972 90.2366 50.5972 C 89.5728 50.5972 88.9414 50.2273 88.6653 49.61 C 88.2969 48.7865 88.7013 47.8353 89.5686 47.4852 C 91.3596 46.7628 92.9705 45.729 94.3564 44.4128 C 95.7427 43.0967 96.8315 41.5671 97.5922 39.8667 C 97.9606 39.0427 98.9624 38.6588 99.8302 39.0088 C 100.6975 39.3586 101.1021 40.3101 100.7334 41.1334 Z" fill="#003f97"/>
		</g>
	</g>
</svg>