<?xml version="1.0" standalone="no"?>
<!-- Generator: Adobe Fireworks 10, Export SVG Extension by Aaron Beall (http://fireworks.abeall.com) . Version: 0.6.1  -->
<!DOCTYPE svg PUBLIC "-//W3C//DTD SVG 1.1//EN" "http://www.w3.org/Graphics/SVG/1.1/DTD/svg11.dtd">
<svg id="Untitled-%u30DA%u30FC%u30B8%201" viewBox="0 0 110 80" style="background-color:#ffffff00" version="1.1"
	xmlns="http://www.w3.org/2000/svg" xmlns:xlink="http://www.w3.org/1999/xlink" xml:space="preserve"
	x="0px" y="0px" width="110px" height="80px"
>
	<g id="%u30EC%u30A4%u30E4%u30FC%201">
		<g>
			<path d="M 46.5294 31.7537 C 52.2715 31.7537 56.9264 27.1083 56.9264 21.3769 C 56.9264 15.6456 52.2715 11 46.5294 11 C 40.787 11 36.1321 15.6453 36.1321 21.3769 C 36.1321 27.1083 40.7868 31.7537 46.5294 31.7537 Z" fill="#003f97"/>
			<path d="M 21.5 65.1429 L 87.5 65.1429 L 87.5 72 L 21.5 72 L 21.5 65.1429 Z" fill="#003f97"/>
			<path d="M 43.3649 63.3379 C 43.3649 63.3379 43.5895 63.3379 43.9826 63.3379 C 44.3757 63.3379 44.9373 63.3379 45.6111 63.3379 C 46.2849 63.3379 47.0711 63.3379 47.9134 63.3379 C 48.7557 63.3379 49.6542 63.3379 50.5526 63.3379 C 51.4511 63.3379 52.3495 63.3379 53.1918 63.3379 C 54.0342 63.3379 54.8203 63.3379 55.4941 63.3379 C 56.168 63.3379 56.7296 63.3379 57.1226 63.3379 C 57.5157 63.3379 57.7403 63.3379 57.7403 63.3379 C 57.7403 63.3379 57.7403 63.0616 57.7403 62.5779 C 57.7403 62.0943 57.7403 61.4034 57.7403 60.5743 C 57.7403 59.7453 57.7403 58.778 57.7403 57.7417 C 57.7403 56.7054 57.7403 55.6 57.7403 54.4945 C 57.7403 53.3891 57.7403 52.2837 57.7403 51.2474 C 57.7403 50.211 57.7403 49.2438 57.7403 48.4147 C 57.7403 47.5857 57.7403 46.8948 57.7403 46.4112 C 57.7403 45.9275 57.7403 45.6512 57.7403 45.6512 C 57.7403 44.8788 57.6619 44.1247 57.5125 43.3963 C 57.3631 42.6679 57.1429 41.9653 56.8592 41.2959 C 56.5756 40.6266 56.2285 39.9905 55.8256 39.3952 C 55.4226 38.7999 54.9638 38.2453 54.4566 37.7391 C 53.9494 37.2328 53.3938 36.7748 52.7974 36.3726 C 52.201 35.9704 51.5637 35.624 50.8931 35.3408 C 50.2225 35.0577 49.5185 34.8378 48.7887 34.6887 C 48.0589 34.5396 47.3033 34.4614 46.5294 34.4614 C 45.7554 34.4614 44.9997 34.5396 44.2699 34.6887 C 43.5401 34.8378 42.836 35.0577 42.1654 35.3408 C 41.4948 35.624 40.8574 35.9704 40.261 36.3726 C 39.6646 36.7748 39.1089 37.2328 38.6017 37.7391 C 38.0945 38.2453 37.6357 38.7999 37.2327 39.3952 C 36.8298 39.9905 36.4827 40.6266 36.1991 41.2959 C 35.9154 41.9653 35.6951 42.6679 35.5458 43.3963 C 35.3964 44.1247 35.318 44.8788 35.318 45.6512 C 35.318 45.6512 35.3204 45.9252 35.3247 46.4047 C 35.329 46.8843 35.3351 47.5694 35.3425 48.3915 C 35.3498 49.2135 35.3583 50.1726 35.3675 51.2002 C 35.3767 52.2278 35.3864 53.324 35.3962 54.4201 C 35.406 55.5162 35.4158 56.6122 35.425 57.6398 C 35.4341 58.6675 35.4427 59.6265 35.45 60.4486 C 35.4574 61.2707 35.4635 61.9558 35.4678 62.4353 C 35.472 62.9149 35.4745 63.1889 35.4745 63.1889 C 35.4745 63.1889 35.5978 63.1912 35.8135 63.1953 C 36.0292 63.1994 36.3375 63.2052 36.7073 63.2122 C 37.0772 63.2192 37.5087 63.2273 37.971 63.236 C 38.4333 63.2447 38.9264 63.2541 39.4196 63.2634 C 39.9127 63.2727 40.4058 63.2821 40.8681 63.2908 C 41.3304 63.2995 41.762 63.3076 42.1318 63.3146 C 42.5017 63.3216 42.8099 63.3274 43.0256 63.3315 C 43.2414 63.3356 43.3647 63.3379 43.3647 63.3379 L 43.3647 63.3379 C 43.3647 63.3379 43.3647 63.3379 43.3647 63.3379 C 43.3647 63.3379 43.3647 63.3379 43.3647 63.3379 C 43.3648 63.3379 43.3648 63.3379 43.3648 63.3379 C 43.3648 63.3379 43.3648 63.3379 43.3649 63.3379 L 43.3649 63.3379 L 43.3649 63.3379 C 43.3649 63.3379 43.3649 63.3379 43.3649 63.3379 Z" fill="#003f97"/>
			<g>
				<path d="M 83.8812 16.194 C 83.0185 14.6694 81.6681 13.399 79.9951 12.4776 C 78.3228 11.5602 76.3042 11 74.1133 11 C 71.4128 10.9938 69.169 11.6481 67.4756 12.5541 C 65.7754 13.4569 65.0424 14.5081 65.0424 14.5081 C 64.7566 14.7387 64.5955 15.074 64.6022 15.4249 C 64.6099 15.7763 64.7839 16.1061 65.0785 16.3252 L 67.4317 18.0777 C 67.9113 18.4348 68.5977 18.4214 69.0607 18.0461 C 69.0607 18.0461 69.3497 17.5603 70.2556 17.0792 C 71.1665 16.6011 72.3476 16.2161 74.1133 16.211 C 75.6534 16.2079 76.9962 16.7422 77.9126 17.4725 C 78.3679 17.8342 78.7079 18.2394 78.9164 18.61 C 79.1264 18.9836 79.2032 19.3103 79.2021 19.5584 C 79.1977 20.3966 79.0226 20.9449 78.7696 21.4121 C 78.5768 21.7609 78.3251 22.0705 78.001 22.3708 C 77.5174 22.8204 76.8616 23.2359 76.1259 23.6179 C 75.3895 24.0044 74.5957 24.3445 73.7937 24.7554 C 72.8783 25.2267 71.9097 25.9037 71.1939 26.9198 C 70.837 27.422 70.558 27.9967 70.3807 28.6029 C 70.2012 29.2097 70.1201 29.8459 70.1201 30.495 C 70.1201 31.1874 70.1201 31.756 70.1201 31.756 C 70.1201 32.4087 70.6892 32.9379 71.3912 32.9379 L 74.4535 32.9379 C 75.1555 32.9379 75.7246 32.4087 75.7246 31.756 C 75.7246 31.756 75.7246 31.1874 75.7246 30.495 C 75.7246 30.2449 75.7551 30.0837 75.7847 29.9813 C 75.8353 29.8284 75.8636 29.7901 75.9464 29.697 C 76.0309 29.6086 76.2015 29.4733 76.516 29.3115 C 76.9757 29.0712 77.7143 28.7467 78.5507 28.3264 C 79.8028 27.6898 81.3252 26.8257 82.609 25.3998 C 83.2477 24.6882 83.8123 23.8313 84.2018 22.8442 C 84.5949 21.8571 84.8071 20.7476 84.8061 19.5584 C 84.8049 18.3537 84.4536 17.2094 83.8812 16.194 Z" fill="#003f97"/>
				<path d="M 72.9234 35.7498 C 71.0143 35.7498 69.4664 37.1896 69.4664 38.9643 C 69.4664 40.7385 71.0143 42.1778 72.9234 42.1778 C 74.8314 42.1778 76.3787 40.7385 76.3787 38.9643 C 76.3785 37.1896 74.8314 35.7498 72.9234 35.7498 Z" fill="#003f97"/>
			</g>
		</g>
	</g>
</svg>