<?xml version="1.0" standalone="no"?>
<!-- Generator: Adobe Fireworks 10, Export SVG Extension by Aaron Beall (http://fireworks.abeall.com) . Version: 0.6.1  -->
<!DOCTYPE svg PUBLIC "-//W3C//DTD SVG 1.1//EN" "http://www.w3.org/Graphics/SVG/1.1/DTD/svg11.dtd">
<svg id="Untitled-%u30DA%u30FC%u30B8%201" viewBox="0 0 110 80" style="background-color:#ffffff00" version="1.1"
	xmlns="http://www.w3.org/2000/svg" xmlns:xlink="http://www.w3.org/1999/xlink" xml:space="preserve"
	x="0px" y="0px" width="110px" height="80px"
>
	<g id="%u30EC%u30A4%u30E4%u30FC%201">
		<g>
			<g>
				<path d="M 70.5277 31.9135 C 76.1828 31.9135 80.7672 27.3442 80.7672 21.7068 C 80.7672 16.0694 76.1828 11.5 70.5277 11.5 C 64.8723 11.5 60.288 16.0692 60.288 21.7068 C 60.288 27.3442 64.8721 31.9135 70.5277 31.9135 Z" fill="#003f97"/>
				<path d="M 22 64.7553 L 87 64.7553 L 87 71.5 L 22 71.5 L 22 64.7553 Z" fill="#003f97"/>
				<path d="M 67.4112 62.9799 L 81.5687 62.9799 L 81.5687 45.5831 C 81.5687 39.5053 76.6253 34.5767 70.5277 34.5767 C 64.4297 34.5767 59.4862 39.5053 59.4862 45.5831 L 59.4862 55.8785 L 67.4109 55.8785 L 67.4109 62.9799 L 67.4112 62.9799 Z" fill="#003f97"/>
				<path d="M 38.1764 62.9799 L 55.2423 62.9799 L 65.6299 62.9799 L 65.6299 57.6536 L 52.7858 57.6536 L 47.3768 43.0086 L 22.1489 43.0086 L 30.0136 62.9799 L 38.1764 62.9799 Z" fill="#003f97"/>
			</g>
		</g>
	</g>
</svg>