<?xml version="1.0" encoding="utf-8"?>
<!-- Generator: Adobe Illustrator 15.1.0, SVG Export Plug-In . SVG Version: 6.00 Build 0)  -->
<!DOCTYPE svg PUBLIC "-//W3C//DTD SVG 1.1//EN" "http://www.w3.org/Graphics/SVG/1.1/DTD/svg11.dtd">
<svg version="1.1" id="Untitled-_x25_u30DA_x25_u30FC_x25_u30B8_x25_201"
	 xmlns="http://www.w3.org/2000/svg" xmlns:xlink="http://www.w3.org/1999/xlink" x="0px" y="0px" width="110px" height="80px"
	 viewBox="0 0 110 80" enable-background="new 0 0 110 80" xml:space="preserve">
<path fill="none" d="z"/>
<g id="_x25_u30EC_x25_u30A4_x25_u30E4_x25_u30FC_x25_201" display="none">
	<g display="inline">
		<g>
			<path fill="#003F97" d="M34.345,36.843h-1.31H31.43c-2.976,0-5.399,2.308-5.482,5.186l-0.001,0.09v0.063v5.714v6.965
				c0,1.007,0.839,1.825,1.874,1.825h0.193V70.2h9.453V56.686h0.489c1.035,0,1.874-0.818,1.874-1.825v-6.965v-5.714v-0.063
				l-0.001-0.064C39.758,39.165,37.33,36.843,34.345,36.843z M28.604,32.53c0,2.382,1.984,4.313,4.431,4.313
				c2.447,0,4.431-1.931,4.431-4.313c0-2.382-1.984-4.313-4.431-4.313C30.588,28.217,28.604,30.148,28.604,32.53z"/>
			<path fill="#003F97" d="M9.7,7.8l38.4,7.477v3.738l-32.197-3.451v54.348H9.7V7.8z"/>
		</g>
		<path fill="#003F97" d="M48.117,32.407h1.717v10.792h-1.717c-0.95,0-1.721-0.803-1.721-1.801v-7.196
			C46.396,33.216,47.167,32.407,48.117,32.407L48.117,32.407z M99.687,32.407h-1.72v10.792h1.72c0.946,0,1.718-0.803,1.718-1.801
			v-7.196C101.404,33.216,100.637,32.407,99.687,32.407L99.687,32.407z M94.528,28.809v32.382c0,1.99-1.538,3.599-3.438,3.599v3.597
			c0,1.988-1.537,3.598-3.438,3.598h-3.438c-1.9,0-3.438-1.612-3.438-3.598V64.79H67.025v3.597c0,1.988-1.537,3.598-3.438,3.598
			h-3.437c-1.901,0-3.438-1.612-3.438-3.598V64.79c-1.9,0-3.438-1.612-3.438-3.599V28.809c-0.004-5.959,4.617-10.794,10.313-10.794
			h20.627C89.908,18.015,94.528,22.847,94.528,28.809L94.528,28.809z M67.025,25.21h13.752v-3.597H67.025V25.21z M63.588,57.595
			c0-1.993-1.541-3.599-3.437-3.599c-1.901,0-3.438,1.609-3.438,3.599c0,1.987,1.537,3.597,3.438,3.597
			C62.047,61.191,63.588,59.578,63.588,57.595L63.588,57.595z M91.09,57.595c0-1.993-1.537-3.599-3.438-3.599
			c-1.899,0-3.438,1.609-3.438,3.599c0,1.987,1.538,3.597,3.438,3.597C89.553,61.191,91.09,59.578,91.09,57.595L91.09,57.595z
			 M91.09,28.809H56.709v21.585H91.09V28.809z M91.09,28.809L91.09,28.809z"/>
	</g>
</g>
<path fill="none" d="z"/>
<path id="XMLID_5981_" fill="#FFFFFF" d="M93.072,56.815c-1.822,0.388-3.635,0.82-5.374,1.487c-1.733,0.67-3.452,1.383-5.15,2.14
	c-2.569,1.143-5.138,2.278-7.647,3.539c-2.239,1.128-4.567,1.905-7.039,2.271c-0.278,0.043-0.557,0.043-0.945,0.07
	c-0.019-0.688-0.438-0.948-1.021-1.073c-0.357-0.079-0.684-0.3-1.038-0.401c-0.524-0.149-0.818-0.5-1.071-0.956
	c-1.033-1.851-1.895-3.755-2.281-5.863c-0.169-0.959-0.206-1.892,0.029-2.827c0.229-0.926,0.39-1.857,0.406-2.815
	c0.007-0.225-0.062-0.508,0.234-0.639c0.082,0.004,0.164-0.01,0.243,0.01c0.118,0.035,0.247,0.068,0.344,0.145
	c0.926,0.715,2.024,0.869,3.139,0.991c0.576,0.064,1.157,0.127,1.708,0.27c1.004,0.256,1.997,0.539,2.976,0.862
	c1.482,0.496,2.995,0.594,4.527,0.496c0.21-0.016,0.447-0.096,0.609-0.02c0.974,0.441,1.957,0.191,2.931,0.079
	c1.15-0.138,2.299-0.279,3.389-0.719c1.338-0.539,2.655-1.149,4.118-1.322c0.202-0.028,0.408-0.095,0.583-0.197
	c0.663-0.373,1.411-0.462,2.125-0.656c0.952-0.267,1.895-0.573,2.83-0.897c0.207-0.074,0.368-0.29,0.558-0.45
	c-0.212-0.532-0.537-0.896-0.965-1.157c-0.569-0.346-1.13-0.698-1.718-0.998c-1.473-0.744-2.902-1.583-4.453-2.164
	c-0.271-0.1-0.524-0.257-0.771-0.398c-1.26-0.714-2.518-1.433-3.773-2.145c-0.894-0.515-1.798-0.991-2.576-1.704
	c-0.603-0.55-1.334-0.979-2.059-1.361c-1.428-0.753-2.893-1.429-4.337-2.141c-0.181-0.089-0.399-0.127-0.435-0.475
	c0.179-0.039,0.361-0.104,0.549-0.119c0.782-0.05,1.568-0.11,2.354-0.12c2.271-0.03,4.537-0.08,6.804-0.333
	c1.104-0.125,2.219-0.167,3.33-0.256c0.613-0.045,1.242-0.057,1.842-0.167c1.321-0.249,2.445-0.979,3.634-1.542
	c0.113-0.051,0.213-0.135,0.308-0.216c0.32-0.288,0.325-0.652-0.007-0.963c-0.18-0.165-0.373-0.333-0.593-0.445
	c-0.729-0.383-1.446-0.812-2.212-1.101c-4.11-1.542-8.365-2.607-12.629-3.607c-2.129-0.499-4.311-0.798-6.449-1.245
	c-2.589-0.541-5.191-1.034-7.808-1.404c-0.279-0.039-0.547-0.125-0.789-0.181c-1.341-3.524-2.938-6.802-5.204-9.764
	c-1.917-2.508-4.214-4.514-6.924-6.093c-0.422-0.247-0.847-0.503-1.254-0.744c0.044-0.246,0.072-0.431,0.107-0.661
	c-0.378-0.104-0.688-0.244-1.009-0.261c-0.96-0.054-1.857-0.333-2.763-0.625c-1.978-0.639-3.91-0.484-5.784,0.409
	c-0.635,0.305-1.267,0.614-1.908,0.899c-1.645,0.73-2.978,1.914-4.384,2.992c-1.086,0.838-1.086,0.845-2.466,0.785
	c-2.803-0.125-5.613-0.198-8.404,0.226c-0.207,0.029-0.42,0.058-0.616,0.021c-0.568-0.115-1.021,0.26-1.543,0.336
	c-0.105,0.014-0.239,0.247-0.239,0.376c0.002,0.132,0.123,0.331,0.243,0.383c0.457,0.199,0.945,0.317,1.394,0.516
	c2.003,0.887,3.993,1.785,5.988,2.694c0.128,0.06,0.219,0.193,0.326,0.285c-0.097,0.127-0.132,0.212-0.198,0.248
	c-1.551,0.957-2.351,2.405-2.638,4.152c-0.355,2.174-0.412,4.364-0.103,6.552c0.192,1.388,0.411,2.778,0.68,4.157
	c0.115,0.604,0.067,1.125-0.191,1.677c-0.663,1.399-1.02,2.883-1.133,4.422c-0.25,3.631-0.25,7.268-0.086,10.903
	c0.086,1.97,0.86,3.67,2.102,5.181c0.937,1.145,2.102,1.973,3.419,2.611c1.568,0.751,3.084,1.585,4.413,2.733
	c0.527,0.46,1.116,0.86,1.703,1.241c0.914,0.583,1.881,1.063,2.964,1.22c2.818,0.408,5.646,0.793,8.469,1.191
	c0.24,0.032,0.475,0.095,0.763,0.154c-0.097,0.194-0.149,0.351-0.242,0.481c-0.586,0.802-1.077,1.656-1.436,2.594
	c-0.175,0.457-0.443,0.891-0.721,1.294c-1.076,1.566-2.182,3.117-3.265,4.674c-0.26,0.377-0.518,0.756-0.71,1.165
	c-0.07,0.144-0.005,0.441,0.11,0.557c0.112,0.111,0.377,0.121,0.564,0.096c0.152-0.015,0.29-0.146,0.429-0.232
	c1.759-1.079,3.513-2.169,5.287-3.226c0.458-0.275,0.984-0.43,1.453-0.695c0.695-0.392,0.889-0.854,0.761-1.657
	c-0.033-0.201-0.088-0.403-0.124-0.604c-0.224-1.223-0.452-2.441-0.654-3.663c-0.032-0.224,0.033-0.458,0.052-0.695
	c3.921,0.053,7.751,0.351,11.577,0.708c0.747,0.07,1.452,0.286,2.121,0.633c1.07,0.558,2.209,0.938,3.385,1.172
	c0.457,0.095,0.849,0.236,1.238,0.491c2.018,1.323,4.195,2.307,6.479,3.076c1.142,0.384,2.285,0.416,3.415,0.037
	c0.578-0.196,1.145-0.465,1.678-0.778c2.063-1.226,4.118-2.452,6.144-3.734c1.879-1.192,3.677-2.514,5.574-3.676
	c2.037-1.255,4.136-2.411,6.244-3.552c0.781-0.424,1.089-1.014,1.101-1.86C94.785,56.624,93.936,56.638,93.072,56.815z"/>
<path id="XMLID_5980_" display="none" fill="#FFF000" d="M55.25,42.803c0,0,3.04,4.711,4.274,5.217
	c1.23,0.51,1.881,1.738,1.881,2.245c0,0.509-0.869,6.232-0.576,6.954c0.289,0.726,3.26,7.825,2.75,7.971
	c-0.508,0.146-15.14-4.202-15.14-4.202s-4.129-3.478-4.271-4.418c-0.147-0.943,0.435-10.068,2.319-12.534
	c1.881-2.463,3.546-4.633,5.65-3.26C54.233,42.15,55.25,42.803,55.25,42.803z"/>
<path id="XMLID_5979_" display="none" fill="#46515E" d="M58.289,28.244c0,0-0.07-1.305,1.014-1.523
	c1.09-0.216,19.85,3.841,22.678,4.565c2.826,0.723,7.385,2.535,7.457,3.044c0.079,0.504-2.677,2.172-3.548,2.172
	c-0.869,0-9.706,0.721-9.706,0.721l-9.924-0.144L58.289,28.244z"/>
<path id="XMLID_5978_" display="none" fill="#FFF000" d="M25.261,16.872c0,0,4.924-3.624,5.427-3.477
	c0.513,0.145,3.267,1.159,3.048,1.953c-0.216,0.798-1.74,5.797-1.74,5.797L25.261,16.872z"/>
<path id="XMLID_230_" display="none" fill="#E50012" d="M25.041,29.545c0,0,4.926-2.824,5.647-4.417
	c0.731-1.592,1.455-4.057,1.959-3.911c0.506,0.143,10.142,8.039,10.142,8.039s8.043,10.001,7.534,10.578
	c-0.506,0.579-3.623,2.753-3.836,4.201c-0.219,1.449-2.609,12.171-2.609,12.171s-0.362,0.434-1.591-0.22
	c-1.234-0.649-8.84-7.893-8.84-7.893l-4.998-3.841c0,0-3.694-4.491-4.344-8.403C23.448,31.938,25.041,29.545,25.041,29.545z"/>
<path id="XMLID_218_" fill="#003F97" d="M71.166,37.796c0.035,0.348,0.254,0.386,0.435,0.475c1.444,0.712,2.909,1.388,4.337,2.141
	c0.725,0.382,1.456,0.812,2.059,1.361c0.778,0.713,1.683,1.189,2.576,1.704c1.256,0.712,2.514,1.431,3.773,2.145
	c0.247,0.142,0.5,0.299,0.771,0.398c1.551,0.581,2.98,1.42,4.453,2.164c0.588,0.3,1.148,0.652,1.718,0.998
	c0.428,0.262,0.753,0.625,0.965,1.157c-0.189,0.16-0.351,0.376-0.558,0.45c-0.936,0.324-1.878,0.631-2.83,0.897
	c-0.714,0.194-1.462,0.283-2.125,0.656c-0.175,0.103-0.381,0.169-0.583,0.197c-1.463,0.173-2.78,0.783-4.118,1.322
	c-1.09,0.439-2.238,0.581-3.389,0.719c-0.974,0.112-1.957,0.362-2.931-0.079c-0.162-0.076-0.399,0.004-0.609,0.02
	c-1.532,0.098-3.045,0-4.527-0.496c-0.979-0.323-1.972-0.606-2.976-0.862c-0.551-0.143-1.132-0.205-1.708-0.27
	c-1.114-0.122-2.213-0.276-3.139-0.991c-0.097-0.076-0.226-0.109-0.344-0.145c-0.079-0.02-0.161-0.006-0.243-0.01
	c-0.296,0.131-0.228,0.414-0.234,0.639c-0.017,0.958-0.178,1.89-0.406,2.815c-0.235,0.936-0.198,1.868-0.029,2.827
	c0.387,2.108,1.248,4.013,2.281,5.863c0.253,0.456,0.547,0.807,1.071,0.956c0.354,0.102,0.681,0.322,1.038,0.401
	c0.584,0.125,1.003,0.385,1.021,1.073c0.389-0.027,0.667-0.027,0.945-0.07c2.472-0.366,4.8-1.144,7.039-2.271
	c2.51-1.261,5.078-2.396,7.647-3.539c1.698-0.757,3.417-1.47,5.15-2.14c1.739-0.667,3.552-1.1,5.374-1.487
	c0.863-0.178,1.713-0.191,2.612,0.099c-0.012,0.847-0.319,1.437-1.101,1.86c-2.108,1.141-4.207,2.297-6.244,3.552
	c-1.897,1.162-3.695,2.483-5.574,3.676c-2.025,1.282-4.081,2.509-6.144,3.734c-0.533,0.313-1.1,0.582-1.678,0.778
	c-1.13,0.379-2.273,0.347-3.415-0.037c-2.283-0.77-4.461-1.753-6.479-3.076c-0.39-0.255-0.781-0.396-1.238-0.491
	c-1.176-0.233-2.314-0.614-3.385-1.172c-0.669-0.347-1.374-0.563-2.121-0.633c-3.826-0.357-7.656-0.655-11.577-0.708
	c-0.019,0.237-0.084,0.472-0.052,0.695c0.203,1.222,0.431,2.44,0.654,3.663c0.036,0.201,0.091,0.403,0.124,0.604
	c0.128,0.803-0.066,1.266-0.761,1.657c-0.469,0.266-0.994,0.42-1.453,0.695c-1.774,1.057-3.528,2.146-5.287,3.226
	c-0.139,0.086-0.277,0.218-0.429,0.232c-0.187,0.025-0.452,0.016-0.564-0.096c-0.115-0.115-0.18-0.413-0.11-0.557
	c0.192-0.409,0.45-0.788,0.71-1.165c1.083-1.557,2.189-3.107,3.265-4.674c0.277-0.403,0.546-0.837,0.721-1.294
	c0.359-0.938,0.85-1.792,1.436-2.594c0.093-0.131,0.146-0.287,0.242-0.481c-0.288-0.06-0.522-0.122-0.763-0.154
	c-2.823-0.398-5.65-0.783-8.469-1.191c-1.083-0.157-2.05-0.637-2.964-1.22c-0.587-0.381-1.176-0.781-1.703-1.241
	c-1.329-1.148-2.845-1.982-4.413-2.733c-1.318-0.639-2.483-1.467-3.419-2.611c-1.242-1.511-2.015-3.211-2.102-5.181
	c-0.164-3.635-0.164-7.271,0.086-10.903c0.113-1.539,0.47-3.023,1.133-4.422c0.258-0.552,0.306-1.073,0.191-1.677
	c-0.269-1.378-0.487-2.769-0.68-4.157c-0.31-2.188-0.253-4.377,0.103-6.552c0.287-1.747,1.087-3.195,2.638-4.152
	c0.066-0.036,0.101-0.12,0.198-0.248c-0.107-0.092-0.198-0.226-0.326-0.285c-1.996-0.909-3.985-1.808-5.988-2.694
	c-0.449-0.199-0.937-0.317-1.394-0.516c-0.12-0.052-0.241-0.251-0.243-0.383c0-0.13,0.134-0.362,0.239-0.376
	c0.522-0.076,0.975-0.451,1.543-0.336c0.195,0.037,0.409,0.009,0.616-0.021c2.792-0.423,5.601-0.351,8.404-0.226
	c1.38,0.06,1.38,0.054,2.466-0.785c1.406-1.078,2.739-2.262,4.384-2.992c0.641-0.285,1.273-0.594,1.908-0.899
	c1.874-0.893,3.806-1.048,5.784-0.409c0.905,0.292,1.802,0.572,2.763,0.625c0.321,0.018,0.63,0.158,1.009,0.261
	c-0.035,0.23-0.063,0.416-0.107,0.661c0.407,0.241,0.832,0.498,1.254,0.744c2.71,1.579,5.007,3.585,6.924,6.093
	c2.266,2.962,3.863,6.24,5.204,9.764c0.242,0.056,0.51,0.142,0.789,0.181c2.616,0.37,5.219,0.863,7.808,1.404
	c2.139,0.447,4.32,0.746,6.449,1.245c4.264,1,8.519,2.066,12.629,3.607c0.766,0.289,1.483,0.718,2.212,1.101
	c0.22,0.113,0.413,0.28,0.593,0.445c0.332,0.311,0.327,0.675,0.007,0.963c-0.095,0.081-0.194,0.165-0.308,0.216
	c-1.188,0.563-2.313,1.293-3.634,1.542c-0.6,0.11-1.229,0.122-1.842,0.167c-1.111,0.089-2.226,0.131-3.33,0.256
	c-2.267,0.254-4.533,0.304-6.804,0.333c-0.786,0.01-1.572,0.069-2.354,0.12C71.527,37.691,71.345,37.757,71.166,37.796z
	 M59.899,36.74c-0.089-0.323-0.124-0.475-0.175-0.626c-0.26-0.752-0.422-1.504-0.271-2.311c0.047-0.261-0.063-0.558-0.138-0.827
	c-0.077-0.276-0.208-0.539-0.292-0.816c-0.43-1.446-0.43-1.444-1.855-2.041c-0.839-0.353-1.692-0.679-2.492-1.099
	c-0.881-0.458-1.025-0.894-0.795-1.844c0.292-1.225,1.55-1.944,2.753-1.579c0.354,0.106,0.712,0.203,1.074,0.289
	c0.189,0.045,0.399,0.137,0.571-0.169c-0.211-0.57-0.426-1.191-0.674-1.796c-1.332-3.286-3.186-6.258-5.531-8.91
	c-0.734-0.833-1.573-1.579-2.406-2.322c-0.517-0.467-1.082-0.899-1.677-1.259c-0.955-0.579-1.948-1.092-2.932-1.621
	c-0.25-0.129-0.527-0.258-0.806-0.287c-1.143-0.135-2.301-0.207-3.447-0.35c-1.468-0.186-2.875-0.088-4.185,0.686
	c-0.074,0.038-0.149,0.074-0.231,0.083c-0.906,0.143-1.581,0.687-2.229,1.273c-0.523,0.472-1.038,0.944-1.54,1.437
	c-0.164,0.159-0.267,0.378-0.428,0.603c0.379,0.175,0.684,0.293,0.967,0.456c1.087,0.619,1.326,1.103,1.048,2.332
	c-0.266,1.168-0.606,2.317-0.906,3.477c-0.11,0.432-0.196,0.874-0.298,1.35c0.548,0.398,1.064,0.735,1.539,1.124
	c2.372,1.934,4.733,3.874,7.086,5.831c0.7,0.581,1.408,1.163,2.017,1.831c1.611,1.768,3.204,3.561,4.742,5.397
	c0.843,1.008,1.572,2.124,2.356,3.189c0.164,0.225,0.35,0.444,0.573,0.717C54.02,37.71,56.701,36.528,59.899,36.74z M32.746,22.206
	c-0.075,0.241-0.142,0.434-0.194,0.629c-0.249,0.961-0.495,1.92-0.741,2.879c-0.21,0.836-0.7,1.467-1.383,1.99
	c-0.815,0.628-1.743,1.117-2.382,1.959c-0.075,0.092-0.198,0.155-0.313,0.199c-1.479,0.542-2.349,1.758-3.25,2.941
	c-0.271,0.35-0.336,0.729-0.228,1.165c0.118,0.481,0.224,0.968,0.298,1.457c0.299,1.895,0.933,3.679,1.815,5.374
	c0.675,1.299,1.612,2.381,2.869,3.183c2.383,1.515,4.542,3.29,6.408,5.425c1.967,2.252,4.23,4.177,6.741,5.804
	c0.268,0.176,0.562,0.311,0.912,0.507c0.104-0.618,0.195-1.136,0.278-1.657c0.484-2.976,1.041-5.931,2.011-8.798
	c0.525-1.568,1.369-2.902,2.602-3.995c0.486-0.437,0.966-0.879,1.416-1.294c-0.044-0.194-0.044-0.326-0.102-0.433
	c-0.927-1.75-1.782-3.541-3.212-4.963c-0.148-0.145-0.243-0.331-0.372-0.498c-1.303-1.652-2.542-3.363-4.146-4.75
	c-2.806-2.44-5.692-4.784-8.655-7.034C33.061,22.25,32.964,22.253,32.746,22.206z M90.395,50.301
	c-1.029-0.961-2.546-1.879-3.919-2.427c-0.769-0.302-1.532-0.625-2.257-1.014c-1.232-0.673-2.444-1.388-3.652-2.114
	c-0.813-0.49-1.638-0.976-2.382-1.552c-1.222-0.945-2.518-1.735-3.889-2.429c-1.698-0.854-3.476-1.556-5.017-2.701
	c-0.289-0.221-0.607-0.195-0.943-0.195c-1.697-0.015-3.389-0.05-5.078-0.068c-0.65-0.006-1.304,0.018-1.984,0.029
	c-0.1,0.978,0.097,1.773,0.727,2.461c0.471,0.521,0.918,1.065,1.186,1.729c0.163,0.401,0.059,0.563-0.407,0.656
	c-0.428,0.085-0.57,0.327-0.372,0.642c0.158,0.241,0.332,0.474,0.517,0.696c0.581,0.716,0.904,1.571,1.226,2.42
	c0.173,0.453,0.111,0.723-0.144,0.888c-0.263,0.17-0.553,0.088-0.85-0.268c-0.183-0.223-0.331-0.469-0.511-0.693
	c-0.174-0.207-0.373-0.337-0.688-0.023c0.028,1.209,0.057,2.48,0.088,3.767c1.416,0.997,2.943,1.562,4.619,1.74
	c0.619,0.066,1.219,0.153,1.781,0.442c1.158,0.596,2.409,0.854,3.687,1.007c0.822,0.104,1.643,0.201,2.462,0.3
	c0.941,0.11,1.873,0.094,2.827-0.011c1.676-0.176,3.249-0.548,4.694-1.429c0.902-0.557,1.902-0.791,2.959-0.766
	c0.782,0.016,1.547-0.146,2.324-0.187c0.931-0.046,1.846-0.423,2.76-0.663C90.226,50.523,90.273,50.431,90.395,50.301z
	 M50.522,40.598c-1.597,0.988-2.812,2.196-3.62,3.773c-0.315,0.619-0.525,1.299-0.728,1.971c-0.916,2.976-1.244,6.059-1.7,9.121
	c-0.02,0.119-0.013,0.246-0.017,0.37c-0.007,0.53,0.186,0.916,0.665,1.223c1.386,0.897,2.724,1.864,4.107,2.769
	c1.951,1.274,4.038,2.212,6.362,2.623c2.16,0.383,4.281,0.912,6.304,1.782c0.282,0.122,0.593,0.303,0.923,0.122
	c0.018-0.053,0.053-0.099,0.041-0.131c-0.074-0.188-0.158-0.381-0.249-0.561c-0.929-1.763-1.641-3.607-2.065-5.557
	c-0.296-1.351-0.35-2.702,0.16-4.026c0.338-0.863,0.395-1.77,0.416-2.681c0.02-0.518-0.174-0.932-0.6-0.915
	c-0.761,0.026-1.253-0.863-2.067-0.519c-0.097,0.039-0.31-0.112-0.421-0.223c-0.299-0.285-0.584-0.58-0.851-0.895
	c-0.804-0.943-1.585-1.909-2.396-2.845c-0.675-0.78-1.43-1.489-2.059-2.308c-0.646-0.835-1.374-1.629-1.831-2.605
	C50.832,40.945,50.701,40.826,50.522,40.598z M23.069,35.733c-0.105,0.238-0.218,0.443-0.295,0.67
	c-0.533,1.58-0.708,3.219-0.713,4.877c-0.005,2.064,0.017,4.129,0.071,6.195c0.028,1.194,0.099,2.394,0.418,3.561
	c0.192,0.722,0.515,1.277,1.281,1.535c0.465,0.158,0.899,0.417,1.327,0.667c0.282,0.161,0.569,0.345,0.786,0.586
	c0.853,0.953,1.656,1.951,2.526,2.888c0.497,0.539,1.076,1.014,1.642,1.484c0.667,0.555,1.371,1.069,2.054,1.598
	c0.559,0.426,1.092,0.889,1.677,1.275c0.687,0.455,1.408,0.879,2.229,1.06c2.666,0.577,5.359,0.999,8.079,1.186
	c0.32,0.024,0.638-0.014,1.038-0.031c-0.132-1.44-0.433-2.754-0.918-4.025c-0.144-0.386-0.333-0.737-0.341-1.166
	c-0.007-0.447-0.264-0.765-0.644-0.994c-0.463-0.28-0.908-0.577-1.36-0.868c-2.275-1.455-4.353-3.141-6.175-5.14
	c-0.922-1.004-1.86-1.994-2.838-2.947c-1.311-1.273-2.843-2.263-4.38-3.232c-1.558-0.983-2.634-2.346-3.437-3.971
	c-0.664-1.34-1.177-2.728-1.547-4.177C23.462,36.428,23.494,36.016,23.069,35.733z M88.922,34.461
	c-0.237-0.222-0.386-0.428-0.59-0.529c-0.7-0.346-1.405-0.707-2.136-0.976c-3.463-1.262-7.05-2.128-10.626-2.977
	c-2.406-0.573-4.863-0.965-7.298-1.416c-2.524-0.463-5.048-0.902-7.575-1.34c-0.27-0.048-0.554-0.041-0.926-0.064
	c0.159,0.85,0.252,1.626,0.457,2.371c0.121,0.422,0.336,0.896,0.662,1.167c0.85,0.703,1.678,1.471,2.745,1.876
	c1.515,0.568,2.659,1.59,3.692,2.824c0.72,0.852,1.621,1.485,2.882,1.401c1.646-0.117,3.303-0.126,4.954-0.179
	c0.619-0.02,1.235-0.021,1.854-0.06c1.729-0.109,3.458-0.229,5.19-0.35c0.989-0.071,1.978-0.142,2.968-0.224
	c1.125-0.091,2.17-0.485,3.163-1.01C88.54,34.871,88.689,34.674,88.922,34.461z M67.445,67.453c0.202,0.24,0.262,0.366,0.36,0.423
	c1.582,0.917,3.295,1.523,5.038,2.034c0.769,0.221,1.517,0.052,2.267-0.321c2.224-1.106,4.339-2.384,6.435-3.702
	c2.447-1.533,4.793-3.221,7.319-4.629c1.727-0.964,3.444-1.951,5.157-2.936c0.188-0.11,0.494-0.173,0.384-0.521
	c-0.082-0.021-0.162-0.067-0.231-0.06c-2.326,0.212-4.52,0.942-6.683,1.766c-1.924,0.734-3.8,1.603-5.717,2.361
	c-2.459,0.972-4.842,2.097-7.197,3.294c-0.474,0.24-0.97,0.448-1.459,0.654c-1.569,0.67-3.202,1.085-4.885,1.34
	C68.011,67.191,67.796,67.313,67.445,67.453z M27.566,17.737c0.99,0.542,1.845,1.009,2.695,1.484
	c0.363,0.201,0.704,0.427,1.07,0.621c0.196,0.104,0.426,0.158,0.695,0.253c0.379-1.349,0.72-2.618,1.099-3.881
	c0.18-0.602-0.011-1.035-0.462-1.41c-0.354-0.299-0.74-0.507-1.181-0.528c-0.499,0.269-0.903,0.647-0.931,1.134
	c-0.025,0.544-0.297,0.712-0.709,0.839C28.992,16.511,28.325,17.042,27.566,17.737z M41.357,72.608
	c0.051,0.069,0.098,0.14,0.151,0.208c0.429-0.227,0.861-0.446,1.277-0.692c1-0.57,1.945-1.238,3.024-1.667
	c0.569-0.227,0.666-0.346,0.585-0.918c-0.156-1.102-0.36-2.195-0.559-3.29c-0.009-0.057-0.107-0.1-0.219-0.198
	c-0.267,0.183-0.425,0.472-0.534,0.767c-0.495,1.337-1.383,2.425-2.208,3.558C42.346,71.102,41.861,71.862,41.357,72.608z
	 M31.475,22.235c0.081-0.472,0.199-0.713,0.131-0.891c-0.086-0.234-0.314-0.42-0.73-0.356C31.059,21.37,31.211,21.682,31.475,22.235
	z"/>
</svg>
