<?xml version="1.0" standalone="no"?>
<!-- Generator: Adobe Fireworks 10, Export SVG Extension by Aaron Beall (http://fireworks.abeall.com) . Version: 0.6.1  -->
<!DOCTYPE svg PUBLIC "-//W3C//DTD SVG 1.1//EN" "http://www.w3.org/Graphics/SVG/1.1/DTD/svg11.dtd">
<svg id="Untitled-%u30DA%u30FC%u30B8%201" viewBox="0 0 110 80" style="background-color:#ffffff00" version="1.1"
	xmlns="http://www.w3.org/2000/svg" xmlns:xlink="http://www.w3.org/1999/xlink" xml:space="preserve"
	x="0px" y="0px" width="110px" height="80px"
>
	<g id="%u30EC%u30A4%u30E4%u30FC%201">
		<g>
			<g>
				<path d="M 34.3454 36.8435 L 33.0354 36.8435 L 31.4299 36.8435 C 28.4535 36.8435 26.0304 39.1514 25.9476 42.0293 L 25.9462 42.1187 L 25.9462 42.1819 L 25.9462 47.8955 L 25.9462 54.8604 C 25.9462 55.8679 26.7852 56.6848 27.8203 56.6848 L 28.0139 56.6848 L 28.0139 70.2 L 37.4662 70.2 L 37.4662 56.6848 L 37.955 56.6848 C 38.9901 56.6848 39.8293 55.8679 39.8293 54.8604 L 39.8293 47.8955 L 39.8293 42.1819 L 39.8293 42.1187 L 39.8278 42.054 C 39.7579 39.1646 37.33 36.8435 34.3454 36.8435 ZM 28.6046 32.5298 C 28.6046 34.9121 30.5883 36.8435 33.0354 36.8435 C 35.4824 36.8435 37.4662 34.9121 37.4662 32.5298 C 37.4662 30.1477 35.4824 28.2168 33.0354 28.2168 C 30.5883 28.2168 28.6046 30.1477 28.6046 32.5298 Z" fill="#003f97"/>
				<path d="M 9.7 7.8 L 48.1 15.2764 L 48.1 19.0146 L 15.9031 15.564 L 15.9031 69.9126 L 9.7 69.9126 L 9.7 7.8 Z" fill="#003f97"/>
			</g>
			<path d="M 48.1168 32.4067 L 49.8336 32.4067 L 49.8336 43.1992 L 48.1168 43.1992 C 47.1664 43.1992 46.3962 42.397 46.3962 41.3992 L 46.3962 34.2029 C 46.3962 33.2163 47.1664 32.4067 48.1168 32.4067 L 48.1168 32.4067 ZM 99.6866 32.4067 L 97.9661 32.4067 L 97.9661 43.1992 L 99.6866 43.1992 C 100.6332 43.1992 101.4038 42.397 101.4038 41.3992 L 101.4038 34.2029 C 101.4038 33.2163 100.6367 32.4067 99.6866 32.4067 L 99.6866 32.4067 ZM 94.5283 28.8091 L 94.5283 61.1917 C 94.5283 63.1814 92.9906 64.79 91.0905 64.79 L 91.0905 68.3872 C 91.0905 70.3755 89.5527 71.9849 87.6529 71.9849 L 84.2151 71.9849 C 82.3149 71.9849 80.7773 70.3721 80.7773 68.3872 L 80.7773 64.79 L 67.0257 64.79 L 67.0257 68.3872 C 67.0257 70.3755 65.488 71.9849 63.5884 71.9849 L 60.1512 71.9849 C 58.2507 71.9849 56.7131 70.3721 56.7131 68.3872 L 56.7131 64.79 C 54.8129 64.79 53.2756 63.1775 53.2756 61.1917 L 53.2756 28.8091 C 53.2717 22.8501 57.8922 18.0151 63.5884 18.0151 L 84.2151 18.0151 C 89.9083 18.0151 94.5283 22.8467 94.5283 28.8091 L 94.5283 28.8091 ZM 67.0257 25.2107 L 80.7773 25.2107 L 80.7773 21.6133 L 67.0257 21.6133 L 67.0257 25.2107 ZM 63.5884 57.5947 C 63.5884 55.6016 62.0473 53.9961 60.1512 53.9961 C 58.2507 53.9961 56.7131 55.6055 56.7131 57.5947 C 56.7131 59.5823 58.2507 61.1917 60.1512 61.1917 C 62.0473 61.1917 63.5884 59.5786 63.5884 57.5947 L 63.5884 57.5947 ZM 91.0905 57.5947 C 91.0905 55.6016 89.5527 53.9961 87.6529 53.9961 C 85.7527 53.9961 84.2151 55.6055 84.2151 57.5947 C 84.2151 59.5823 85.7527 61.1917 87.6529 61.1917 C 89.5527 61.1917 91.0905 59.5786 91.0905 57.5947 L 91.0905 57.5947 ZM 91.0905 28.8091 L 56.7095 28.8091 L 56.7095 50.3948 L 91.0905 50.3948 L 91.0905 28.8091 ZM 91.0905 28.8091 L 91.0905 28.8091 Z" fill="#003f97"/>
		</g>
	</g>
</svg>