<?xml version="1.0" standalone="no"?>
<!-- Generator: Adobe Fireworks 10, Export SVG Extension by Aaron Beall (http://fireworks.abeall.com) . Version: 0.6.1  -->
<!DOCTYPE svg PUBLIC "-//W3C//DTD SVG 1.1//EN" "http://www.w3.org/Graphics/SVG/1.1/DTD/svg11.dtd">
<svg id="Untitled-%u30DA%u30FC%u30B8%201" viewBox="0 0 110 80" style="background-color:#ffffff00" version="1.1"
	xmlns="http://www.w3.org/2000/svg" xmlns:xlink="http://www.w3.org/1999/xlink" xml:space="preserve"
	x="0px" y="0px" width="110px" height="80px"
>
	<g id="%u30EC%u30A4%u30E4%u30FC%201">
		<g>
			<path d="M 68.551 51.1958 C 67.6616 51.1958 66.9432 51.9177 66.9432 52.8093 C 66.9432 53.7007 67.6616 54.4243 68.551 54.4243 C 69.4362 54.4243 70.1567 53.7007 70.1567 52.8093 C 70.1567 51.9177 69.4362 51.1958 68.551 51.1958 Z" fill="#003f97"/>
			<path d="M 84.3601 46.1011 L 83.8427 46.1011 L 83.8427 38.4995 C 83.8427 36.5664 83.1927 34.7878 82.1087 33.3621 L 89.3503 28.675 L 88.7795 27.7385 L 74.3881 4.1694 L 44.0487 22.8608 L 32.1523 22.8608 C 25.2378 22.8608 19.6188 28.3423 19.3174 35.2092 L 19.3151 35.2241 L 19.2896 37.4839 L 19.2896 42.394 L 19.2896 61.3086 C 19.2896 68.4463 25.0475 74.2283 32.1523 74.2305 L 75.7008 74.2305 C 80.3683 74.2283 84.1505 70.4287 84.1505 65.7397 L 84.1505 59.5171 L 84.3601 59.5171 C 85.6836 59.5151 86.7548 58.4409 86.7568 57.1116 L 86.7568 48.5071 C 86.7548 47.1772 85.6857 46.1011 84.3601 46.1011 ZM 73.6611 7.1917 L 86.3444 27.9492 L 80.3535 31.6372 C 79.7377 31.186 79.0557 30.8191 78.3287 30.5459 L 80.0413 29.4912 C 79.4042 27.4851 79.9752 25.2576 81.5337 23.8335 L 75.1449 13.3669 C 73.1693 14.1057 70.9415 13.6116 69.4469 12.1318 L 40.4267 30.009 L 36.6379 30.009 L 73.6611 7.1917 ZM 73.1351 24.1646 C 72.1901 24.7402 70.9629 24.4414 70.3813 23.4922 C 69.8083 22.5559 70.1076 21.3098 71.0398 20.7363 C 71.9849 20.1499 73.2251 20.4485 73.7937 21.3979 C 74.3752 22.3455 74.0802 23.5825 73.1351 24.1646 ZM 60.5546 25.1697 L 60.3345 25.0818 C 60.3345 25.0818 59.5777 24.9917 59.0175 25.1592 C 58.6776 25.2578 58.3354 25.3889 57.9977 25.5544 L 57.3925 24.5728 L 56.0092 25.4233 L 56.6249 26.437 C 56.4818 26.5576 56.3385 26.6799 56.2188 26.813 C 55.9323 27.1333 55.7141 27.4749 55.571 27.8484 C 55.4277 28.2241 55.3742 28.6001 55.4064 28.9951 C 55.4342 29.3345 55.554 29.6721 55.7335 30.009 L 51.3569 30.009 C 51.3656 27.1716 52.7744 24.4031 55.3615 22.8093 C 59.3364 20.3606 64.5403 21.6064 66.9651 25.5996 C 67.8096 26.9783 68.2053 28.5034 68.2072 30.009 L 64.0763 30.009 C 64.01 29.8438 63.9395 29.6802 63.839 29.5151 C 63.4199 28.8188 62.8941 28.4216 62.2568 28.323 C 61.6197 28.2134 60.8842 28.3787 60.0269 28.7976 L 58.8744 29.3818 C 58.4574 29.5796 58.1282 29.6589 57.8759 29.6138 C 57.6235 29.5686 57.4162 29.4141 57.2622 29.1499 C 57.0741 28.8535 57.0421 28.5337 57.1639 28.2134 C 57.2729 27.8826 57.5787 27.5735 58.0512 27.2747 C 58.4252 27.0447 58.7974 26.8774 59.193 26.7568 C 59.5778 26.6367 60.1273 26.6797 60.1273 26.6797 C 60.247 26.6689 60.3453 26.5811 60.3689 26.469 L 60.6212 25.4102 L 60.5546 25.1697 ZM 81.9569 65.7397 C 81.9547 67.4773 81.2556 69.043 80.1224 70.1836 C 78.9894 71.322 77.4329 72.0222 75.7008 72.0244 L 32.1523 72.0244 C 29.2039 72.0222 26.5441 70.8259 24.6092 68.8865 C 22.6763 66.9424 21.4874 64.2703 21.4854 61.3086 L 21.4854 42.394 L 21.4854 37.5051 L 21.5132 35.2991 C 21.7634 29.6074 26.4265 25.0642 32.1523 25.0667 L 40.4695 25.0667 L 32.4557 30.009 L 29.2507 30.011 L 29.2507 32.2168 L 75.4142 32.2148 C 77.1354 32.2231 78.6854 32.9216 79.8143 34.0554 C 80.9474 35.196 81.6444 36.7622 81.6467 38.4995 L 81.6467 46.1008 L 67.7771 46.1008 C 65.9341 46.0989 64.2621 46.8525 63.0562 48.0664 L 63.054 48.0688 C 61.8481 49.2803 61.0999 50.9578 61.0999 52.8093 C 61.0999 54.6606 61.8481 56.3379 63.0519 57.5515 L 63.0606 57.5557 L 63.0563 57.5537 C 64.2623 58.7654 65.9342 59.5188 67.7772 59.5168 L 81.9571 59.5168 L 81.9571 65.7397 L 81.9569 65.7397 ZM 84.561 57.1116 C 84.561 57.2188 84.4713 57.311 84.3601 57.311 L 67.7771 57.311 C 66.5284 57.3086 65.4359 56.8149 64.6106 55.9944 L 64.6084 55.9944 C 63.7916 55.1653 63.2979 54.0635 63.2955 52.8093 C 63.2979 51.5569 63.7916 50.4529 64.6084 49.6262 C 65.4336 48.8057 66.5283 48.3093 67.7792 48.3069 L 84.3601 48.3069 C 84.4713 48.3069 84.561 48.3994 84.561 48.5071 L 84.561 57.1116 Z" fill="#003f97"/>
			<path d="M 34.1471 35.8066 L 37.442 35.8066 L 37.442 36.9082 L 34.1471 36.9082 L 34.1471 35.8066 Z" fill="#003f97"/>
			<path d="M 64.8864 35.8066 L 68.1792 35.8066 L 68.1792 36.9082 L 64.8864 36.9082 L 64.8864 35.8066 Z" fill="#003f97"/>
			<path d="M 75.3289 37.7051 L 75.9959 36.8308 C 75.1661 36.1885 74.1187 35.8066 72.9897 35.8066 L 72.5706 35.8066 L 72.5706 36.9082 L 72.9897 36.9082 C 73.8728 36.9082 74.6788 37.2046 75.3289 37.7051 Z" fill="#003f97"/>
			<path d="M 26.745 35.2822 L 26.3196 36.2981 C 27.363 36.7385 28.539 36.9082 29.625 36.9082 L 29.7554 36.9082 L 29.7554 35.8066 L 29.625 35.8066 C 28.6544 35.8066 27.6066 35.6472 26.745 35.2822 Z" fill="#003f97"/>
			<path d="M 57.2021 35.8066 L 60.4949 35.8066 L 60.4949 36.9082 L 57.2021 36.9082 L 57.2021 35.8066 Z" fill="#003f97"/>
			<path d="M 49.5178 35.8066 L 52.8105 35.8066 L 52.8105 36.9082 L 49.5178 36.9082 L 49.5178 35.8066 Z" fill="#003f97"/>
			<path d="M 76.834 41.1353 L 77.9309 41.1353 L 77.9309 44.4429 L 76.834 44.4429 L 76.834 41.1353 Z" fill="#003f97"/>
			<path d="M 41.8314 35.8066 L 45.1262 35.8066 L 45.1262 36.9082 L 41.8314 36.9082 L 41.8314 35.8066 Z" fill="#003f97"/>
			<path d="M 24.7033 64.7966 C 24.945 65.7563 25.5521 66.9702 26.4821 67.8918 L 27.2497 67.1035 C 26.4993 66.3752 25.9475 65.2715 25.768 64.53 L 24.7033 64.7966 Z" fill="#003f97"/>
			<path d="M 46.3385 67.9709 L 49.6333 67.9709 L 49.6333 69.0752 L 46.3385 69.0752 L 46.3385 67.9709 Z" fill="#003f97"/>
			<path d="M 61.7092 67.9709 L 65.0018 67.9709 L 65.0018 69.0752 L 61.7092 69.0752 L 61.7092 67.9709 Z" fill="#003f97"/>
			<path d="M 77.9309 64.1113 L 77.9309 63.6304 L 76.834 63.6304 L 76.834 64.1113 C 76.834 64.9792 76.5516 65.7739 76.0726 66.4182 L 76.9537 67.0776 C 77.5674 66.2529 77.9309 65.2222 77.9309 64.1113 Z" fill="#003f97"/>
			<path d="M 30.9678 67.9709 L 34.2626 67.9709 L 34.2626 69.0752 L 30.9678 69.0752 L 30.9678 67.9709 Z" fill="#003f97"/>
			<path d="M 54.0227 67.9709 L 57.3176 67.9709 L 57.3176 69.0752 L 54.0227 69.0752 L 54.0227 67.9709 Z" fill="#003f97"/>
			<path d="M 69.3935 67.9709 L 72.6861 67.9709 L 72.6861 69.0752 L 69.3935 69.0752 L 69.3935 67.9709 Z" fill="#003f97"/>
			<path d="M 38.6543 67.9709 L 41.947 67.9709 L 41.947 69.0752 L 38.6543 69.0752 L 38.6543 67.9709 Z" fill="#003f97"/>
		</g>
	</g>
</svg>