<?xml version="1.0" standalone="no"?>
<!-- Generator: Adobe Fireworks 10, Export SVG Extension by Aaron Beall (http://fireworks.abeall.com) . Version: 0.6.1  -->
<!DOCTYPE svg PUBLIC "-//W3C//DTD SVG 1.1//EN" "http://www.w3.org/Graphics/SVG/1.1/DTD/svg11.dtd">
<svg id="Untitled-%u30DA%u30FC%u30B8%201" viewBox="0 0 110 80" style="background-color:#ffffff00" version="1.1"
	xmlns="http://www.w3.org/2000/svg" xmlns:xlink="http://www.w3.org/1999/xlink" xml:space="preserve"
	x="0px" y="0px" width="110px" height="80px"
>
	<g id="%u30EC%u30A4%u30E4%u30FC%201">
		<g>
			<g>
				<path d="M 56.7167 39.2698 C 55.5831 39.3037 55.0149 39.314 53.8804 39.3188 C 53.7535 39.321 53.6935 39.3767 53.6923 39.4839 C 53.6913 41.0364 53.6901 41.811 53.6877 43.3623 C 53.6877 43.4714 53.7548 43.5249 53.8851 43.5237 C 55.069 43.5156 55.6598 43.5088 56.8438 43.4739 C 58.6511 43.4189 59.6188 42.5234 59.5447 41.2488 C 59.4706 39.9744 58.449 39.2188 56.7167 39.2698 Z" fill="#003f97"/>
				<path d="M 87.0701 17.5388 L 78.4708 15.2822 C 78.2465 15.2346 78.0635 15.0559 78.0153 14.8325 L 75.745 6.3262 C 75.6862 6.0791 75.4667 5.8999 75.2059 5.8999 C 74.9476 5.8999 74.7257 6.0791 74.6644 6.3262 L 72.3978 14.8325 C 72.3462 15.0559 72.1639 15.2346 71.9398 15.2822 L 63.3417 17.5388 C 63.0878 17.5889 62.9117 17.8062 62.9117 18.064 C 62.9117 18.3198 63.0878 18.5415 63.3417 18.5879 L 71.9398 20.8455 C 72.1639 20.8906 72.3462 21.0723 72.3978 21.2954 L 74.6644 29.8015 C 74.7257 30.0515 74.9476 30.2271 75.2059 30.2271 C 75.4667 30.2271 75.6862 30.0515 75.745 29.8015 L 78.0153 21.2954 C 78.0635 21.0723 78.2465 20.8909 78.4708 20.8455 L 87.0701 18.5879 C 87.3217 18.5415 87.5 18.3198 87.5 18.064 C 87.5 17.8062 87.3217 17.5889 87.0701 17.5388 Z" fill="#003f97"/>
				<path d="M 82.7543 39.8298 C 81.2977 38.1394 79.1073 36.543 76.3438 35.1929 C 70.8196 32.4832 63.0327 30.759 54.4229 30.7637 C 48.7723 30.7637 43.4768 31.5002 38.9423 32.7773 C 34.4065 34.0518 30.6344 35.8748 28.0317 37.9768 C 26.2922 39.3743 25.0851 40.8872 24.4485 42.4126 C 24.0831 43.2864 23.9 44.165 23.9 45.0667 C 23.9 45.9683 24.0831 46.8464 24.4485 47.7207 C 24.8138 48.5918 25.3611 49.4575 26.0902 50.302 C 27.549 51.9949 29.7382 53.5894 32.5004 54.9407 C 38.025 57.6509 45.8129 59.3745 54.4229 59.3708 C 60.0741 59.3708 65.3685 58.6333 69.9033 57.355 C 74.4391 56.0803 78.2123 54.2585 80.8138 52.158 C 82.5519 50.7576 83.7617 49.2451 84.396 47.7207 C 84.7623 46.8464 84.9457 45.9683 84.9457 45.0667 C 84.9457 44.165 84.7623 43.2864 84.396 42.4126 C 84.0321 41.5403 83.4846 40.6746 82.7543 39.8298 ZM 57.3026 47.5029 C 55.9368 47.5464 55.2556 47.5591 53.8875 47.5652 C 53.7512 47.5664 53.6808 47.6226 53.6808 47.7322 C 53.6771 50.021 53.6749 51.1655 53.6713 53.4568 C 53.6713 53.6194 53.5326 53.7322 53.3142 53.731 C 51.0559 53.7334 49.9259 53.71 47.6688 53.6194 C 47.4515 53.6099 47.3129 53.4963 47.3221 53.3325 C 47.7439 46.1719 47.9504 42.5952 48.3722 35.4404 C 48.3817 35.2778 48.5117 35.1775 48.6927 35.1846 C 51.9731 35.3149 53.6173 35.324 56.8965 35.2195 C 61.902 35.0571 64.7806 37.2588 65.1952 40.8201 C 65.6002 44.3252 62.9402 47.3242 57.3026 47.5029 ZM 78.667 45.4104 L 74.7644 46.4329 C 74.6621 46.4541 74.5787 46.5376 74.5566 46.6399 L 73.5277 50.4985 C 73.5009 50.6111 73.4009 50.6917 73.2822 50.6917 C 73.1659 50.6917 73.0652 50.6111 73.037 50.4985 L 72.0079 46.6399 C 71.9847 46.5376 71.9023 46.4541 71.8004 46.4329 L 67.8987 45.4104 C 67.7837 45.3872 67.7026 45.2876 67.7026 45.1714 C 67.7026 45.0549 67.7837 44.9553 67.8987 44.9331 L 71.8004 43.9092 C 71.9023 43.886 71.9847 43.8071 72.0079 43.7046 L 73.037 39.844 C 73.0652 39.7312 73.1659 39.6511 73.2822 39.6511 C 73.4009 39.6511 73.5009 39.7312 73.5277 39.844 L 74.5566 43.7046 C 74.579 43.8071 74.6625 43.8862 74.7644 43.9092 L 78.667 44.9331 C 78.7798 44.9553 78.8619 45.0549 78.8619 45.1714 C 78.8619 45.2876 78.7798 45.3872 78.667 45.4104 Z" fill="#003f97"/>
				<path d="M 24.3641 24.696 L 30.5077 26.3066 C 30.6697 26.3401 30.7977 26.4692 30.8365 26.6299 L 32.455 32.7075 C 32.4995 32.8877 32.6581 33.012 32.8423 33.012 C 33.0281 33.012 33.1855 32.8877 33.2289 32.7075 L 34.8485 26.6299 C 34.8826 26.4692 35.0153 26.3401 35.1761 26.3066 L 41.3208 24.696 C 41.5004 24.6587 41.6284 24.4988 41.6284 24.3174 C 41.6284 24.1362 41.5004 23.9802 41.3208 23.9434 L 35.1761 22.3306 C 35.0153 22.2954 34.8826 22.1704 34.8485 22.0098 L 33.2288 15.9282 C 33.1854 15.752 33.028 15.6262 32.8423 15.6262 C 32.6578 15.6262 32.4995 15.7517 32.4547 15.9282 L 30.8363 22.0098 C 30.7975 22.1704 30.6697 22.2957 30.5074 22.3306 L 24.3639 23.9434 C 24.1807 23.9802 24.0551 24.1362 24.0551 24.3174 C 24.0553 24.4988 24.181 24.6592 24.3641 24.696 Z" fill="#003f97"/>
				<path d="M 23.9001 53.3337 L 23.9001 58.8086 C 23.9001 59.7114 24.0831 60.5908 24.4486 61.4644 C 24.8138 62.3359 25.3612 63.2017 26.0905 64.0476 C 26.3982 64.4021 26.7434 64.7529 27.1134 65.0979 L 27.1134 56.3364 C 26.8715 56.157 26.6366 55.9768 26.4076 55.7944 C 25.4551 55.0254 24.6132 54.2039 23.9001 53.3337 Z" fill="#003f97"/>
				<path d="M 29.6832 67.0952 C 30.5404 67.6519 31.48 68.1851 32.5006 68.6846 C 32.9387 68.9009 33.3954 69.1055 33.8595 69.3052 L 33.8595 59.9888 C 32.3597 59.3894 30.962 58.7236 29.6832 57.9976 L 29.6832 67.0952 L 29.6832 67.0952 Z" fill="#003f97"/>
				<path d="M 36.4315 60.9175 L 36.4315 70.2534 L 36.28 70.2534 C 38.1111 70.9006 40.097 71.4546 42.2134 71.8975 L 42.2134 62.4116 C 40.8416 62.1387 39.5121 61.8247 38.2391 61.467 C 37.6235 61.2925 37.02 61.1104 36.4315 60.9175 Z" fill="#003f97"/>
				<path d="M 44.7842 72.3562 C 47.429 72.7793 50.2264 73.042 53.1368 73.1001 L 53.1368 63.5571 C 50.2417 63.5015 47.4445 63.2632 44.7842 62.8569 L 44.7842 72.3562 Z" fill="#003f97"/>
				<path d="M 55.7089 73.093 C 58.7389 73.0349 61.6444 72.7515 64.3833 72.2996 L 64.3833 62.8135 C 61.6292 63.2456 58.7202 63.5049 55.7089 63.5632 L 55.7089 73.093 Z" fill="#003f97"/>
				<path d="M 66.953 71.823 C 67.9655 71.6047 68.9542 71.3665 69.9033 71.0991 C 70.8864 70.8225 71.8306 70.5205 72.7373 70.1948 L 72.7373 60.8091 C 70.924 61.4146 68.9885 61.9329 66.9532 62.3486 L 66.9532 71.823 L 66.953 71.823 Z" fill="#003f97"/>
				<path d="M 75.307 59.8567 L 75.307 69.168 C 76.8676 68.4707 78.2677 67.7039 79.4844 66.8792 L 79.4844 57.8118 C 78.8469 58.1831 78.1807 58.5425 77.4843 58.8855 C 76.7881 59.2256 76.0586 59.5488 75.307 59.8567 Z" fill="#003f97"/>
				<path d="M 81.9014 56.2034 L 82.0541 56.2034 L 82.0541 64.7947 C 83.1381 63.7173 83.9261 62.5942 84.396 61.4644 C 84.7623 60.5908 84.9457 59.7114 84.9457 58.8086 L 84.9457 53.3359 C 84.8668 53.4309 84.7893 53.5269 84.7081 53.6206 C 83.9132 54.5396 82.9678 55.3982 81.9014 56.2034 Z" fill="#003f97"/>
			</g>
		</g>
	</g>
</svg>