<?xml version="1.0" standalone="no"?>
<!-- Generator: Adobe Fireworks 10, Export SVG Extension by Aaron Beall (http://fireworks.abeall.com) . Version: 0.6.1  -->
<!DOCTYPE svg PUBLIC "-//W3C//DTD SVG 1.1//EN" "http://www.w3.org/Graphics/SVG/1.1/DTD/svg11.dtd">
<svg id="Untitled-%u30DA%u30FC%u30B8%201" viewBox="0 0 110 80" style="background-color:#ffffff00" version="1.1"
	xmlns="http://www.w3.org/2000/svg" xmlns:xlink="http://www.w3.org/1999/xlink" xml:space="preserve"
	x="0px" y="0px" width="110px" height="80px"
>
	<g id="%u30EC%u30A4%u30E4%u30FC%201">
		<g>
			<path d="M 78.4957 57.3741 L 78.4957 9.0714 C 78.4957 8.7041 78.3104 8.3673 77.9988 8.169 C 77.8243 8.0598 77.626 8.0011 77.4233 8.0011 C 77.2676 8.0011 77.1158 8.0345 76.9731 8.1011 L 67.5686 12.4932 L 59.6521 8.7972 L 51.7427 12.4932 L 43.8301 8.7972 L 35.9204 12.4932 L 26.5227 8.0997 C 26.3788 8.0332 26.2269 8 26.0697 8 C 25.8672 8 25.6675 8.0585 25.493 8.169 C 25.1853 8.3673 25 8.7041 25 9.0687 L 25.0013 62.2601 C 25.0026 65.3184 26.1017 68.192 28.0945 70.3494 C 29.826 72.2273 32.1133 73.4718 34.5549 73.8724 L 34.5549 73.9775 L 35.7738 73.9868 L 35.9563 73.9948 C 36.0521 73.9948 36.1346 73.9907 36.333 73.9801 L 77.3672 73.9801 C 77.5166 73.9894 77.6832 74 77.8748 74 C 79.3015 74 80.7373 73.6022 82.0282 72.8501 C 83.8464 71.7908 85.3611 70.0803 86.4067 67.9055 C 87.4645 65.7056 88 63.1741 88 60.3831 L 88 57.3737 L 78.4957 57.3737 L 78.4957 57.3741 ZM 41.3364 60.3833 C 41.3378 63.0531 40.6731 65.4355 39.4636 67.0925 C 38.9561 67.7888 38.3566 68.3464 37.7251 68.7069 C 37.1471 69.0398 36.5516 69.2074 35.9563 69.2074 C 35.8417 69.2074 35.7242 69.2035 35.6006 69.1862 C 34.1326 69.0225 32.6819 68.2651 31.6204 67.1099 C 30.4269 65.8069 29.7941 64.1207 29.7914 62.2319 L 29.7914 14.9116 L 35.9202 17.7756 L 43.8301 14.0811 L 51.7426 17.7756 L 59.6521 14.0811 L 67.5686 17.7756 L 73.7056 14.9116 L 73.7043 58.6064 L 41.3364 58.6064 L 41.3364 60.3833 ZM 81.3477 67.09 C 80.8442 67.7888 80.2473 68.349 79.6228 68.7123 C 79.0486 69.0437 78.4597 69.2115 77.875 69.2128 C 77.7803 69.2128 77.6846 69.2074 77.4915 69.1929 L 42.3289 69.1929 C 42.7351 68.6392 43.0988 68.0337 43.4119 67.3866 C 44.1592 65.8455 44.6281 64.0886 44.8092 62.1614 L 83.1047 62.1614 C 82.8181 64.6129 81.9978 66.1902 81.3477 67.09 Z" fill="#003f97"/>
			<path d="M 35.8684 24.3359 L 67.9258 24.3359 L 67.9258 35.6943 L 35.8684 35.6943 L 35.8684 24.3359 Z" fill="#003f97"/>
			<path d="M 35.8684 42.208 L 67.9258 42.208 L 67.9258 45.2039 L 35.8684 45.2039 L 35.8684 42.208 Z" fill="#003f97"/>
			<path d="M 35.8684 51.2038 L 52.5139 51.2038 L 52.5139 54.1982 L 35.8684 54.1982 L 35.8684 51.2038 Z" fill="#003f97"/>
		</g>
	</g>
</svg>