<?xml version="1.0" standalone="no"?>
<!-- Generator: Adobe Fireworks 10, Export SVG Extension by Aaron Beall (http://fireworks.abeall.com) . Version: 0.6.1  -->
<!DOCTYPE svg PUBLIC "-//W3C//DTD SVG 1.1//EN" "http://www.w3.org/Graphics/SVG/1.1/DTD/svg11.dtd">
<svg id="Untitled-%u30DA%u30FC%u30B8%201" viewBox="0 0 110 80" style="background-color:#ffffff00" version="1.1"
	xmlns="http://www.w3.org/2000/svg" xmlns:xlink="http://www.w3.org/1999/xlink" xml:space="preserve"
	x="0px" y="0px" width="110px" height="80px"
>
	<g id="%u30EC%u30A4%u30E4%u30FC%201">
		<g>
			<g>
				<path d="M 93.6866 37.4067 L 91.9661 37.4067 L 91.9661 48.1992 L 93.6866 48.1992 C 94.6332 48.1992 95.4038 47.397 95.4038 46.3992 L 95.4038 39.2029 C 95.4038 38.2163 94.6367 37.4067 93.6866 37.4067 L 93.6866 37.4067 ZM 88.5283 33.8091 L 88.5283 66.1917 C 88.5283 68.1814 86.9906 69.79 85.0905 69.79 L 85.0905 73.3872 C 85.0905 75.3755 83.5527 76.9849 81.6529 76.9849 L 78.2151 76.9849 C 76.3149 76.9849 74.7773 75.3721 74.7773 73.3872 L 74.7773 69.79 L 61.0257 69.79 L 61.0257 73.3872 C 61.0257 75.3755 59.488 76.9849 57.5884 76.9849 L 54.1512 76.9849 C 52.2507 76.9849 50.7131 75.3721 50.7131 73.3872 L 50.7131 69.79 C 48.8129 69.79 47.2756 68.1775 47.2756 66.1917 L 47.2756 33.8091 C 47.2717 27.8501 51.8922 23.0151 57.5884 23.0151 L 78.2151 23.0151 C 83.9083 23.0151 88.5283 27.8467 88.5283 33.8091 L 88.5283 33.8091 ZM 61.0257 30.2107 L 74.7773 30.2107 L 74.7773 26.6133 L 61.0257 26.6133 L 61.0257 30.2107 ZM 57.5884 62.5947 C 57.5884 60.6016 56.0473 58.9961 54.1512 58.9961 C 52.2507 58.9961 50.7131 60.6055 50.7131 62.5947 C 50.7131 64.5823 52.2507 66.1917 54.1512 66.1917 C 56.0473 66.1917 57.5884 64.5786 57.5884 62.5947 L 57.5884 62.5947 ZM 85.0905 62.5947 C 85.0905 60.6016 83.5527 58.9961 81.6529 58.9961 C 79.7527 58.9961 78.2151 60.6055 78.2151 62.5947 C 78.2151 64.5823 79.7527 66.1917 81.6529 66.1917 C 83.5527 66.1917 85.0905 64.5786 85.0905 62.5947 L 85.0905 62.5947 ZM 85.0905 33.8091 L 50.7095 33.8091 L 50.7095 55.3948 L 85.0905 55.3948 L 85.0905 33.8091 ZM 85.0905 33.8091 L 85.0905 33.8091 Z" fill="#003f97"/>
				<g>
					<path id="%u6955%u5186%u5F62" d="M 35.598 42.2258 C 35.598 40.4442 37.127 39 39.0131 39 C 40.8992 39 42.4281 40.4442 42.4281 42.2258 C 42.4281 44.0073 40.8992 45.4515 39.0131 45.4515 C 37.127 45.4515 35.598 44.0073 35.598 42.2258 Z" fill="#003f97"/>
					<path d="M 48 51.5636 L 45.6634 53.7706 C 45.6634 53.7706 44.6449 55.4119 42.4281 53.7706 C 42.4281 55.525 42.488 59.0338 42.488 59.0338 L 44.7647 74.4836 C 44.7647 74.4836 45.1841 76.6907 42.9074 76.9737 C 40.6307 77.2567 40.2712 75.1627 40.2712 75.1627 L 39.0131 66.8436 L 33.0817 76.1814 C 33.0817 76.1814 31.4041 77.5397 30.086 76.6342 C 28.7494 75.7159 28.7679 74.427 29.4869 73.2952 C 30.2059 72.1633 34.5795 65.2024 34.5795 65.2024 L 36.317 57.6756 L 36.317 48.3378 C 36.317 48.3378 36.9161 46.1307 38.6536 46.0741 C 40.3911 46.0175 41.7092 46.9796 41.7092 46.9796 L 44.2255 49.696 L 48 46.64 L 48 51.5636 Z" fill="#003f97"/>
				</g>
			</g>
			<g>
				<path id="%u6955%u5186%u5F622" d="M 14 18 C 14 10.8202 19.8202 5 27 5 C 34.1798 5 40 10.8202 40 18 C 40 25.1798 34.1798 31 27 31 C 19.8202 31 14 25.1798 14 18 Z" stroke="#003f97" stroke-width="2" fill="none"/>
				<path id="%u6955%u5186%u5F623" d="M 26.4222 7.0222 C 26.4222 6.5436 26.8102 6.1555 27.2889 6.1555 C 27.7675 6.1555 28.1555 6.5436 28.1555 7.0222 C 28.1555 7.5009 27.7675 7.8889 27.2889 7.8889 C 26.8102 7.8889 26.4222 7.5009 26.4222 7.0222 Z" fill="#003f97"/>
				<path id="%u6955%u5186%u5F624" d="M 26.4222 28.9778 C 26.4222 28.4991 26.8102 28.1111 27.2889 28.1111 C 27.7675 28.1111 28.1555 28.4991 28.1555 28.9778 C 28.1555 29.4564 27.7675 29.8444 27.2889 29.8444 C 26.8102 29.8444 26.4222 29.4564 26.4222 28.9778 Z" fill="#003f97"/>
				<path id="%u6955%u5186%u5F625" d="M 37.1111 18 C 37.1111 17.5214 37.4991 17.1333 37.9778 17.1333 C 38.4564 17.1333 38.8445 17.5214 38.8445 18 C 38.8445 18.4786 38.4564 18.8667 37.9778 18.8667 C 37.4991 18.8667 37.1111 18.4786 37.1111 18 Z" fill="#003f97"/>
				<path id="%u6955%u5186%u5F626" d="M 15.4445 18 C 15.4445 17.5214 15.8325 17.1333 16.3111 17.1333 C 16.7898 17.1333 17.1777 17.5214 17.1777 18 C 17.1777 18.4786 16.7898 18.8667 16.3111 18.8667 C 15.8325 18.8667 15.4445 18.4786 15.4445 18 Z" fill="#003f97"/>
				<path id="%u6955%u5186%u5F627" d="M 25.2667 18.4333 C 25.2667 17.3962 26.1074 16.5555 27.1444 16.5555 C 28.1815 16.5555 29.0222 17.3962 29.0222 18.4333 C 29.0222 19.4704 28.1815 20.3111 27.1444 20.3111 C 26.1074 20.3111 25.2667 19.4704 25.2667 18.4333 Z" fill="#003f97"/>
				<path d="M 36.8223 11.9333 C 36.8223 11.9333 25.7482 15.0148 27.5778 17.7111 C 29.4161 20.4203 36.8223 11.9333 36.8223 11.9333 Z" fill="#003f97"/>
				<path d="M 17.7556 13.9556 C 17.7556 13.9556 27.7397 15.1018 26.2618 17.6786 C 24.9325 19.9962 17.7556 13.9556 17.7556 13.9556 Z" fill="#003f97"/>
			</g>
		</g>
	</g>
</svg>