<?xml version="1.0" standalone="no"?>
<!-- Generator: Adobe Fireworks 10, Export SVG Extension by Aaron Beall (http://fireworks.abeall.com) . Version: 0.6.1  -->
<!DOCTYPE svg PUBLIC "-//W3C//DTD SVG 1.1//EN" "http://www.w3.org/Graphics/SVG/1.1/DTD/svg11.dtd">
<svg id="Untitled-%u30DA%u30FC%u30B8%201" viewBox="0 0 110 80" style="background-color:#ffffff00" version="1.1"
	xmlns="http://www.w3.org/2000/svg" xmlns:xlink="http://www.w3.org/1999/xlink" xml:space="preserve"
	x="0px" y="0px" width="110px" height="80px"
>
	<g id="%u30EC%u30A4%u30E4%u30FC%201">
		<g>
			<path d="M 37.8746 27.8845 L 47.3159 37.7025 C 48.9365 36.0893 50.3417 34.6905 51.3956 33.6394 L 41.8714 23.7371 L 40.7062 18.3794 L 32.2078 13.0218 L 29.8757 15.4426 L 27.5436 17.8614 L 32.7091 26.676 L 37.8746 27.8845 Z" fill="#003f97"/>
			<path d="M 66.5654 43.8787 L 80.5259 58.3129 C 83.0999 60.9808 83.0999 65.3076 80.5259 67.9773 C 77.952 70.6451 73.7823 70.6451 71.2083 67.9773 L 57.2478 53.543 L 66.5654 43.8787 Z" fill="#003f97"/>
			<path d="M 78.0438 35.3369 C 82.8509 30.8124 83.6542 25.6708 82.5791 21.3349 C 82.5474 20.9905 82.468 20.7014 82.1783 20.4853 L 81.2109 19.6631 C 81.0432 19.5001 80.8173 19.4213 80.5913 19.4434 C 80.3636 19.4671 80.157 19.588 80.0228 19.7803 L 74.4583 27.2839 C 74.303 27.5055 74.0524 27.6318 73.7893 27.6227 L 71.7697 27.7765 C 71.5967 27.7711 71.429 27.7069 71.2931 27.5934 L 67.3916 24.1638 C 67.2327 24.0301 67.1285 23.8396 67.1021 23.6291 L 66.8602 21.732 C 66.832 21.5233 66.883 21.3108 67.0032 21.1387 L 72.2128 13.798 C 72.4494 13.4611 72.4035 12.9942 72.1104 12.7104 L 70.8463 11.685 C 70.599 11.447 70.3184 11.4799 69.9353 11.5568 C 66.3375 12.2929 60.194 15.9074 58.6352 20.9024 C 57.2617 25.2988 57.7401 28.3988 57.7401 28.3988 C 57.7401 30.8762 56.9545 33.2639 55.9888 34.2655 L 28.8447 61.2956 C 28.7918 61.3451 28.7406 61.3964 28.6894 61.4496 C 26.4473 63.775 26.4508 67.5488 28.6169 69.7955 C 30.7831 72.0422 34.4762 72.1008 36.7183 69.7754 C 36.8224 69.6673 36.923 69.5556 37.0167 69.4402 L 63.1918 40.0922 C 66.4118 37.1184 72.7866 40.2863 78.0438 35.3369 Z" fill="#003f97"/>
		</g>
	</g>
</svg>