<?xml version="1.0" standalone="no"?>
<!-- Generator: Adobe Fireworks 10, Export SVG Extension by Aaron Beall (http://fireworks.abeall.com) . Version: 0.6.1  -->
<!DOCTYPE svg PUBLIC "-//W3C//DTD SVG 1.1//EN" "http://www.w3.org/Graphics/SVG/1.1/DTD/svg11.dtd">
<svg id="Untitled-%u30DA%u30FC%u30B8%201" viewBox="0 0 110 80" style="background-color:#ffffff00" version="1.1"
	xmlns="http://www.w3.org/2000/svg" xmlns:xlink="http://www.w3.org/1999/xlink" xml:space="preserve"
	x="0px" y="0px" width="110px" height="80px"
>
	<g id="%u30EC%u30A4%u30E4%u30FC%201">
		<g>
			<path d="M 75.1472 7.505 C 70.0857 7.3488 65.8458 10.8876 65.6724 15.4116 C 65.4966 19.9355 69.4576 23.727 74.5183 23.8832 C 79.5788 24.0388 83.8214 20.4977 83.9943 15.9749 C 84.1706 11.4527 80.2082 7.6605 75.1472 7.505 Z" fill="#003f97"/>
			<path d="M 72.709 27.2681 C 69.2448 26.045 65.3257 27.5623 63.9597 30.6616 L 63.9597 30.658 L 56.6378 47.0023 L 42.3412 43.2428 C 39.2457 42.189 35.7838 43.5122 34.5009 46.2435 L 25.3677 67.6791 C 24.3633 69.8136 25.4871 72.2742 27.8791 73.1719 C 30.2712 74.0688 33.0229 73.0638 34.0271 70.9278 L 43.5148 55.3749 L 54.5116 59.2636 C 61.0266 61.6623 65.6274 59.2636 68.3099 53.44 L 76.507 35.0903 C 77.875 31.993 76.1774 28.4916 72.709 27.2681 Z" fill="#003f97"/>
			<path d="M 79.2188 47.0631 C 77.7269 46.4079 75.9252 46.9596 75.1964 48.2914 L 68.4308 60.6542 C 67.9339 61.5205 67.4206 62.1792 66.9134 62.6701 C 66.1372 63.4007 65.4233 63.7805 64.4411 64.024 C 63.4653 64.2559 62.1458 64.3025 60.3748 64.0337 C 59.9058 63.9644 59.4082 63.8786 58.8825 63.7646 L 50.6472 61.9167 C 49.0263 61.5772 47.4102 62.4825 47.0349 63.9258 C 46.6605 65.3691 47.6711 66.8112 49.2921 67.1507 L 57.4846 68.9893 C 58.1306 69.129 58.7686 69.233 59.3861 69.3276 C 60.9562 69.5615 62.4454 69.6457 63.8866 69.5348 C 66.0409 69.3754 68.0878 68.7232 69.7711 67.5829 C 71.4638 66.4517 72.7539 64.9127 73.791 63.1118 L 73.8083 63.0833 L 80.608 50.6524 C 81.3371 49.321 80.7153 47.712 79.2188 47.0631 Z" fill="#003f97"/>
		</g>
	</g>
</svg>