<?xml version="1.0" standalone="no"?>
<!-- Generator: Adobe Fireworks 10, Export SVG Extension by Aaron Beall (http://fireworks.abeall.com) . Version: 0.6.1  -->
<!DOCTYPE svg PUBLIC "-//W3C//DTD SVG 1.1//EN" "http://www.w3.org/Graphics/SVG/1.1/DTD/svg11.dtd">
<svg id="Untitled-%u30DA%u30FC%u30B8%201" viewBox="0 0 110 80" style="background-color:#ffffff00" version="1.1"
	xmlns="http://www.w3.org/2000/svg" xmlns:xlink="http://www.w3.org/1999/xlink" xml:space="preserve"
	x="0px" y="0px" width="110px" height="80px"
>
	<g>
		<path d="M 4.3986 27.9567 L 6.293 27.9567 L 6.293 39.9233 L 4.3986 39.9233 C 3.3499 39.9233 2.5 39.0337 2.5 37.9274 L 2.5 29.9487 C 2.5 28.8543 3.3499 27.9567 4.3986 27.9567 L 4.3986 27.9567 ZM 61.3028 27.9567 L 59.4042 27.9567 L 59.4042 39.9233 L 61.3028 39.9233 C 62.3473 39.9233 63.1975 39.0337 63.1975 37.9274 L 63.1975 29.9487 C 63.1975 28.8543 62.3511 27.9567 61.3028 27.9567 L 61.3028 27.9567 ZM 55.6109 23.9682 L 55.6109 59.8726 C 55.6109 62.0785 53.9141 63.8626 51.8174 63.8626 L 51.8174 67.8507 C 51.8174 70.0554 50.1206 71.8397 48.0242 71.8397 L 44.2308 71.8397 C 42.1341 71.8397 40.4375 70.0514 40.4375 67.8507 L 40.4375 63.8626 L 25.2635 63.8626 L 25.2635 67.8507 C 25.2635 70.0554 23.5668 71.8397 21.4705 71.8397 L 17.6778 71.8397 C 15.5807 71.8397 13.884 70.0514 13.884 67.8507 L 13.884 63.8626 C 11.7874 63.8626 10.091 62.0744 10.091 59.8726 L 10.091 23.9682 C 10.0867 17.361 15.1851 12 21.4705 12 L 44.2308 12 C 50.5129 12 55.6109 17.3568 55.6109 23.9682 L 55.6109 23.9682 ZM 25.2635 19.9781 L 40.4375 19.9781 L 40.4375 15.9897 L 25.2635 15.9897 L 25.2635 19.9781 ZM 21.4705 55.8845 C 21.4705 53.6747 19.77 51.8945 17.6778 51.8945 C 15.5807 51.8945 13.884 53.6788 13.884 55.8845 C 13.884 58.0883 15.5807 59.8726 17.6778 59.8726 C 19.77 59.8726 21.4705 58.0843 21.4705 55.8845 L 21.4705 55.8845 ZM 51.8174 55.8845 C 51.8174 53.6747 50.1206 51.8945 48.0242 51.8945 C 45.9276 51.8945 44.2308 53.6788 44.2308 55.8845 C 44.2308 58.0883 45.9276 59.8726 48.0242 59.8726 C 50.1206 59.8726 51.8174 58.0843 51.8174 55.8845 L 51.8174 55.8845 ZM 51.8174 23.9682 L 13.8801 23.9682 L 13.8801 47.9013 L 51.8174 47.9013 L 51.8174 23.9682 ZM 51.8174 23.9682 L 51.8174 23.9682 Z" fill="#004098"/>
		<g>
			<path d="M 84.2655 42.8818 C 81.0555 42.8818 78.444 45.55 78.444 48.8296 C 78.444 49.2852 78.8055 49.6542 79.2515 49.6542 C 79.6972 49.6542 80.0587 49.2852 80.0587 48.8296 C 80.0587 46.4598 81.9458 44.5316 84.2655 44.5316 C 84.7113 44.5316 85.0726 44.1625 85.0726 43.7071 C 85.0726 43.2511 84.7113 42.8818 84.2655 42.8818 Z" stroke="#ffffff" stroke-width="4" fill="#004098"/>
			<path d="M 96.1917 55.8333 C 97.6511 53.4962 98.4968 50.7229 98.4968 47.7506 C 98.4968 39.4382 91.8787 32.6767 83.7426 32.6767 C 80.8335 32.6767 78.119 33.5407 75.831 35.0317 C 74.0082 36.2186 72.4568 37.8039 71.2947 39.6664 C 69.8353 42.004 68.9885 44.7786 68.9885 47.7506 C 68.9885 56.062 75.6076 62.8246 83.7426 62.8246 C 86.6519 62.8246 89.3674 61.9595 91.6553 60.4686 C 93.4784 59.2809 95.0294 57.6964 96.1917 55.8333 ZM 88.527 57.2722 C 87.0921 58.0284 85.465 58.4554 83.7426 58.4554 C 77.9661 58.4554 73.2649 53.6528 73.2649 47.7506 C 73.2649 45.9907 73.6832 44.3288 74.423 42.8624 C 75.4248 40.8766 77.0168 39.2514 78.9604 38.229 C 80.3949 37.473 82.0213 37.0461 83.7426 37.0461 C 89.5201 37.0461 94.2201 41.8474 94.2201 47.7506 C 94.2201 49.509 93.8021 51.1709 93.0623 52.6367 C 92.0616 54.6224 90.4707 56.2488 88.527 57.2722 Z" fill="#004098"/>
			<path d="M 106.561 66.4054 L 98.0434 57.725 C 96.831 59.5336 95.2774 61.1194 93.507 62.3596 L 102.0247 71.0399 C 102.6513 71.6801 103.4723 72 104.2925 72 C 105.1135 72 105.9347 71.6801 106.5613 71.0399 C 107.8129 69.76 107.8129 67.6854 106.561 66.4054 Z" fill="#004098"/>
		</g>
	</g>
</svg>