<?xml version="1.0" standalone="no"?>
<!-- Generator: Adobe Fireworks 10, Export SVG Extension by Aaron Beall (http://fireworks.abeall.com) . Version: 0.6.1  -->
<!DOCTYPE svg PUBLIC "-//W3C//DTD SVG 1.1//EN" "http://www.w3.org/Graphics/SVG/1.1/DTD/svg11.dtd">
<svg id="Untitled-%u30DA%u30FC%u30B8%201" viewBox="0 0 110 80" style="background-color:#ffffff00" version="1.1"
	xmlns="http://www.w3.org/2000/svg" xmlns:xlink="http://www.w3.org/1999/xlink" xml:space="preserve"
	x="0px" y="0px" width="110px" height="80px"
>
	<g id="%u30EC%u30A4%u30E4%u30FC%201">
		<g>
			<path d="M 55.6691 17.3577 C 59.3286 17.3577 62.2963 14.3679 62.2963 10.6803 C 62.2963 6.991 59.3286 4 55.6691 4 C 52.0087 4 49.0424 6.991 49.0424 10.6803 C 49.0424 14.3679 52.0087 17.3577 55.6691 17.3577 Z" fill="#003f97"/>
			<path d="M 65.6525 57.9078 C 64.3935 57.9078 34.1104 57.9078 34.1104 57.9078 C 34.1104 57.9078 34.1104 62.0505 34.1104 64.5018 C 34.1104 66.9532 36.2918 69.7436 36.2918 70.758 C 36.2918 71.7726 36.2918 76 36.2918 76 L 53.9912 76 C 53.9912 76 53.9912 74.9854 53.9912 74.1406 C 53.9912 74.1406 56.8053 71.5909 59.4142 69.1866 C 62.2818 66.5443 65.4003 63.1496 66.5751 61.3751 C 67.7485 59.5991 66.91 57.9078 65.6525 57.9078 Z" fill="#003f97"/>
			<path d="M 34.1104 24.9781 C 34.1104 23.8346 33.1906 22.9062 32.0558 22.9062 C 30.9198 22.9062 30 23.8346 30 24.9781 L 30 54.4003 C 30 55.5439 30.9198 56.4695 32.0558 56.4695 L 34.1104 56.4695 L 34.1104 24.9781 Z" fill="#003f97"/>
			<path d="M 78.9277 69.9685 L 76.9599 53.0925 C 76.7583 50.8941 75.9372 46.9828 71.2875 46.2094 C 66.5469 45.4208 56.7026 43.5357 56.7026 43.5357 L 59.1083 34.0974 L 68.8912 44.2191 C 69.6563 45.1421 71.2849 45.5188 72.433 44.7518 C 73.5836 43.989 73.8134 42.6058 73.0536 41.4473 C 73.0536 41.4473 60.4807 23.72 58.2942 20.7317 C 56.1396 17.7878 48.2162 16.4559 47.068 22.1566 C 47.068 22.1566 42.971 39.4615 42.1634 43.3981 C 41.1569 48.301 41.9965 54.7241 50.3855 54.7241 C 58.7733 54.7241 68.281 54.7241 68.281 54.7241 L 72.7346 71.3242 C 73.1071 73.0464 74.7947 74.139 76.5047 73.7648 C 78.2135 73.3912 79.2973 71.6904 78.9277 69.9685 Z" fill="#003f97"/>
		</g>
	</g>
</svg>