<?xml version="1.0" standalone="no"?>
<!-- Generator: Adobe Fireworks 10, Export SVG Extension by Aaron Beall (http://fireworks.abeall.com) . Version: 0.6.1  -->
<!DOCTYPE svg PUBLIC "-//W3C//DTD SVG 1.1//EN" "http://www.w3.org/Graphics/SVG/1.1/DTD/svg11.dtd">
<svg id="Untitled-%u30DA%u30FC%u30B8%201" viewBox="0 0 500 300" style="background-color:#ffffff00" version="1.1"
	xmlns="http://www.w3.org/2000/svg" xmlns:xlink="http://www.w3.org/1999/xlink" xml:space="preserve"
	x="0px" y="0px" width="500px" height="300px"
>
	<g id="%u30EC%u30A4%u30E4%u30FC%201">
		<g>
			<path d="M 30.75 67.9063 C 34.1406 71.3125 40.25 73 49.0625 73 C 54.0781 73 58.2344 72.2656 61.5313 70.8281 C 64.8281 69.3906 67.3906 67.2656 69.2344 64.4531 C 71.0781 61.6406 72 58.5781 72 55.2656 C 72 52.4375 71.3125 49.875 69.9375 47.5938 C 68.5625 45.3125 66.3594 43.3906 63.3281 41.8438 C 60.2969 40.3125 55.2969 38.7813 48.3125 37.2656 C 45.4844 36.6719 43.8906 36.0313 43.5469 35.3438 C 43.1719 34.6875 43 33.9375 43 33.0938 C 43 31.9688 43.375 31 44.1563 30.2031 C 44.9219 29.4063 46.0625 29 47.5938 29 C 49.4375 29 50.875 29.4844 51.9375 30.4375 C 52.9844 31.3906 53.6719 32.9063 54 35 L 70 34.2031 C 69.3438 28.9219 67.2813 25.0625 63.8438 22.6406 C 60.4063 20.2188 55.3906 19 48.8281 19 C 43.4844 19 39.2656 19.7031 36.2031 21.0781 C 33.125 22.4531 30.8281 24.3438 29.2969 26.75 C 27.7656 29.1563 27 31.7188 27 34.4219 C 27 38.5469 28.5 41.9375 31.5156 44.5938 C 34.5 47.25 39.5 49.375 46.5156 50.9688 C 50.7969 51.9219 53.4375 52.9375 54.4688 54 C 55.4844 55.0625 56 56.2813 56 57.625 C 56 59.0625 55.4219 60.3125 54.2813 61.3906 C 53.125 62.4688 51.5 63 49.4063 63 C 46.5625 63 44.3906 61.9375 42.8594 59.7813 C 41.9219 58.4688 41.2969 56.5313 41 54 L 25 54.9688 C 25.4375 60.2031 27.3594 64.5156 30.75 67.9063 L 30.75 67.9063 Z" fill="#007ac6"/>
			<path d="M 95.1406 45.0156 C 96.2656 44.3438 97.9688 44 100.2344 44 C 102 44 103.2344 44.2969 103.9375 44.8906 C 104.6406 45.4844 105 46.5313 105 48 C 103.2188 48.6875 101.5469 49.2344 99.9688 49.6563 C 98.3906 50.0781 94.9375 50.8125 89.6094 51.8594 C 85.1719 52.7344 82.125 54.0469 80.4844 55.8125 C 78.8281 57.5938 78 59.8438 78 62.5938 C 78 65.5313 79.1406 68 81.4375 70 C 83.7188 72 87.0781 73 91.5 73 C 94.8281 73 97.75 72.3438 100.2656 71.0625 C 102.0938 70.0938 103.9375 68.4688 105.8125 66.2031 C 105.9688 67.5781 106.1406 68.5781 106.2969 69.2188 C 106.4531 69.8594 106.8125 70.7813 107.3594 72 L 120.7969 72 C 120.0469 70.4688 119.5469 69.2031 119.3281 68.2031 C 119.1094 67.2188 119 65.8438 119 64.0938 L 119 47.6875 C 119 45.9375 118.6406 44.1094 117.9375 42.1719 C 117.2344 40.25 116.2813 38.7656 115.0625 37.7031 C 113.3281 36.2031 111.1719 35.2031 108.5781 34.7188 C 105.9844 34.25 102.5469 34 98.2656 34 C 95.5938 34 93.1094 34.2344 90.8281 34.6875 C 88.5313 35.1406 86.7344 35.7656 85.4219 36.5781 C 83.5938 37.7344 82.1875 39.0781 81.2188 40.625 C 80.25 42.1719 79.5 44.2969 79 47 L 93 48 C 93.5313 46.5469 94.25 45.5469 95.1406 45.0156 L 95.1406 45.0156 ZM 105 56.7188 C 105 58.0625 104.7031 59.1563 104.125 60 C 103.5469 60.8438 102.5625 61.5469 101.1875 62.125 C 99.7969 62.7188 98.2969 63 96.6875 63 C 95.1406 63 93.9688 62.7344 93.1875 62.2031 C 92.3906 61.6719 92 60.9688 92 60.1094 C 92 59.375 92.3906 58.7188 93.2031 58.125 C 93.9844 57.5625 95.8438 57 98.7813 56.4063 C 100.9375 56 103 55.5313 105 55 L 105 56.7188 L 105 56.7188 Z" fill="#007ac6"/>
			<path d="M 143.1719 31.7188 C 143.4063 30.7813 143.8125 30.0938 144.3906 29.6563 C 144.9531 29.2188 145.9063 29 147.2344 29 C 148.2969 29 149.7031 29.1406 151.4531 29.4219 L 153 19.9688 C 148.25 19.3281 144.6406 19 142.1719 19 C 139.0469 19 136.6875 19.3906 135.0781 20.1406 C 133.4531 20.9063 132.2031 21.9063 131.3125 23.125 C 130.4063 24.3594 129.7969 25.9375 129.4844 27.875 C 129.1563 29.8125 129 31.5938 129 33.2031 L 129 35 L 124 35 L 124 45 L 129 45 L 129 72 L 143 72 L 143 45 L 150 45 L 150 35 L 143 35 C 143 33.3438 143.0469 32.25 143.1719 31.7188 L 143.1719 31.7188 Z" fill="#007ac6"/>
			<path d="M 197 55.3906 C 197 50.4844 196.1875 46.5 194.5781 43.4375 C 192.9688 40.375 190.625 38.0469 187.5625 36.4219 C 184.4844 34.8125 180.2813 34 174.9688 34 C 168.4219 34 163.2969 35.8125 159.5781 39.4219 C 155.8594 43.0313 154 47.75 154 53.5625 C 154 57.6719 154.9219 61.2344 156.7656 64.2656 C 158.6094 67.2969 160.9219 69.5156 163.7344 70.9063 C 166.5469 72.2969 170.3906 73 175.2969 73 C 180.9219 73 185.25 72.0625 188.2656 70.2188 C 191.2813 68.3594 193.8594 65.2813 196 61 L 182 60 C 181.0938 61 180.25 61.6875 179.4688 62.0781 C 178.1719 62.7031 176.8125 63 175.3906 63 C 173.125 63 171.2969 62.3594 169.8906 61.0781 C 168.8906 60.1875 168.25 58.8281 168 57 L 197 57 L 197 55.3906 L 197 55.3906 ZM 168.0313 50 C 168.2813 48.2813 168.8594 46.9688 169.7813 46.0938 C 171.2188 44.7031 173.1563 44 175.5781 44 C 177.6563 44 179.3438 44.4688 180.625 45.3906 C 181.9063 46.3281 182.6875 47.8594 183 50 L 168.0313 50 L 168.0313 50 Z" fill="#007ac6"/>
			<path d="M 206 27.7656 L 206 35 L 201 35 L 201 45 L 206 45 L 206 58.2656 C 206 62.4844 206.3906 65.5469 207.1719 67.4219 C 207.9531 69.2969 209.1563 70.7031 210.7969 71.625 C 212.4219 72.5313 214.9688 73 218.4063 73 C 221.375 73 224.5625 72.6094 228 71.8594 L 227 62.0625 C 225.1875 62.6875 223.7813 63 222.7813 63 C 221.6563 63 220.875 62.5938 220.4375 61.7813 C 220.1406 61.25 220 60.1719 220 58.5469 L 220 45 L 228 45 L 228 35 L 220 35 L 220 20 L 206 27.7656 L 206 27.7656 Z" fill="#007ac6"/>
			<path d="M 247.4688 72.3281 C 246.75 74.0781 245.875 75.2813 244.8438 75.9844 C 243.8125 76.6563 242.4531 77 240.7969 77 C 238.2969 77 236.0313 76.6875 234 76.0781 L 235.1094 86.1406 C 239.3906 86.7031 242.5469 87 244.6094 87 C 249.6563 87 253.4219 85.875 255.8906 83.625 C 257.625 82.0313 259.3281 78.9531 261.0156 74.4219 L 276 35 L 262.1875 35 L 254.5 59.625 L 247.0938 35 L 232 35 L 247.4688 72.3281 L 247.4688 72.3281 Z" fill="#007ac6"/>
			<path d="M 304 72 L 320 72 L 320 51 L 341 51 L 341 39 L 320 39 L 320 32 L 344 32 L 344 20 L 304 20 L 304 72 L 304 72 Z" fill="#007ac6"/>
			<path d="M 352 30 L 366 30 L 366 20 L 352 20 L 352 30 L 352 30 ZM 352 72 L 366 72 L 366 35 L 352 35 L 352 72 L 352 72 Z" fill="#007ac6"/>
			<path d="M 375 72 L 389 72 L 389 59.5156 C 389 53.5625 389.7344 49.5 391.2188 47.3125 C 392.25 45.7813 393.7031 45 395.5781 45 C 396.5469 45 397.8906 45.3594 399.5781 46.0469 L 404 36.0938 C 401.5 34.7031 399.1875 34 397.0938 34 C 395.0781 34 393.3906 34.5 392.0156 35.5 C 390.6406 36.5 389.3281 38.3125 388.0469 40.9531 L 388.0469 35 L 375 35 L 375 72 L 375 72 Z" fill="#007ac6"/>
			<path d="M 409.75 69.875 C 412.7344 71.9688 417.75 73 424.8125 73 C 429.7969 73 433.7344 72.3906 436.625 71.2188 C 439.5156 70.0313 441.6406 68.4219 442.9844 66.4063 C 444.3281 64.4063 445 62.3281 445 60.1875 C 445 58.0938 444.3594 56.1563 443.1094 54.3906 C 441.8438 52.6406 440.0313 51.2813 437.6563 50.3281 C 435.2813 49.3906 431.6563 48.6563 426.7969 48.125 C 423.5781 47.7656 421.6406 47.3594 420.9844 46.8906 C 420.3281 46.4375 420 45.7656 420 44.875 C 420 44.0781 420.3438 43.4063 421.0469 42.8438 C 421.75 42.2813 422.875 42 424.4219 42 C 425.9531 42 427.25 42.2969 428.3281 42.8906 C 429.1094 43.3438 429.6563 44.0469 430 45 L 444 44 C 443.0313 41.5625 441.8125 39.6406 440.3438 38.2031 C 438.875 36.7656 437.0625 35.7188 434.875 35.0313 C 432.6875 34.3438 429.2969 34 424.7031 34 C 420.3594 34 416.8906 34.4531 414.2969 35.3281 C 411.7031 36.2031 409.6719 37.5313 408.2031 39.3125 C 406.7344 41.0938 406 43.2188 406 45.6875 C 406 47.9375 406.6719 49.9531 408.0313 51.7031 C 409.375 53.4688 411.0469 54.7188 413.0313 55.4531 C 415 56.2031 418.5313 56.9844 423.625 57.8281 C 427.0313 58.3906 429.0469 58.875 429.6875 59.25 C 430.5625 59.8125 431 60.5781 431 61.5781 C 431 62.4688 430.5625 63.2031 429.7031 63.7969 C 428.5938 64.6094 427.0313 65 425.0156 65 C 423.1719 65 421.6875 64.625 420.5781 63.8438 C 419.4688 63.0781 418.6094 61.7969 418 60 L 404 61 C 404.8438 64.8438 406.75 67.7969 409.75 69.875 L 409.75 69.875 Z" fill="#007ac6"/>
			<path d="M 454 27.7656 L 454 35 L 449 35 L 449 45 L 454 45 L 454 58.2656 C 454 62.4844 454.3906 65.5469 455.1719 67.4219 C 455.9531 69.2969 457.1563 70.7031 458.7969 71.625 C 460.4219 72.5313 462.9688 73 466.4063 73 C 469.375 73 472.5625 72.6094 476 71.8594 L 475 62.0625 C 473.1875 62.6875 471.7813 63 470.7813 63 C 469.6563 63 468.875 62.5938 468.4375 61.7813 C 468.1406 61.25 468 60.1719 468 58.5469 L 468 45 L 476 45 L 476 35 L 468 35 L 468 20 L 454 27.7656 L 454 27.7656 Z" fill="#007ac6"/>
		</g>
		<g>
			<path d="M 40.1514 105.0894 C 39.6979 105.5933 38.5228 107 36.4201 107 C 35.1832 107 34.2968 106.4961 32.7714 105.6143 C 31.8437 104.8878 30.4831 104 28.5865 104 C 25.5356 104 23.7833 106.2079 23 107.147 L 24.8759 108.8687 C 26.2571 107 28.03 107 28.4423 107 C 30.009 107 31.0191 107.5879 32.3384 108.3857 C 33.2042 109.1288 34.4824 110 36.3995 110 C 38.7084 110 40.7904 108.548 42 106.79 L 40.1514 105.0894 L 40.1514 105.0894 Z" fill="#000000"/>
			<path d="M 68.9981 102.3857 C 68.7435 103.0714 68.4426 103.7571 67.8176 105 L 62.3251 105 L 62.3251 108 L 66.0352 108 C 64.9016 109.9946 64.2629 110.7715 63.779 111.3804 C 64.921 111.6533 67.0074 112.1572 70.1093 113.0811 C 67.7481 113.7529 65.3661 114.0259 62.64 114.0679 L 63.6241 117.4482 C 70.0861 116.8604 73.1664 115.1387 73.9657 114.5928 C 77.1833 115.7896 79.0643 116.8184 79.9603 117.4063 L 81.892 114.4458 C 81.0902 113.9629 79.9799 113.291 76.9518 112.2412 C 78.5721 110.4565 79.1032 108.7769 79.337 108 L 82.3539 108 L 82.3539 105 L 71.7614 105 C 72.1411 104.0571 72.35 103.4357 72.5399 102.8571 L 68.9981 102.3857 L 68.9981 102.3857 ZM 75.5629 108 C 75.1926 108.7559 74.5907 109.9106 73.3753 111.1284 C 72.1411 110.6875 70.8879 110.2886 68.975 109.8057 C 69.3222 109.3438 69.762 108.7769 70.225 108 L 75.5629 108 L 75.5629 108 ZM 62.85 104.3143 L 65.85 104.3143 L 65.85 102 L 78.85 102 L 78.85 104.3143 L 81.85 104.3143 L 81.85 99 L 73.85 99 L 73.85 97.4463 L 70.85 97.4463 L 70.85 99 L 62.85 99 L 62.85 104.3143 L 62.85 104.3143 Z" fill="#000000"/>
			<path d="M 105.7239 106 L 110.7 106 L 110.7 108 L 104.4012 108 L 104.4012 111 L 110.7 111 L 110.7 114 L 102.4276 114 L 102.4276 117 L 121.9725 117 L 121.9725 114 L 113.7 114 L 113.7 111 L 119.9988 111 L 119.9988 108 L 113.7 108 L 113.7 106 L 118.6971 106 L 118.6971 104.2766 C 119.7049 104.8298 120.3138 105.0851 120.9437 105.3617 L 122.4344 102.0972 C 118.4661 101.0054 115.6946 98.5908 113.973 96.5962 L 110.532 96.5962 C 108.3275 99.1787 105.367 101.0894 101.9866 102.1182 L 103.4144 105.383 C 104.1282 105.0638 104.8001 104.7872 105.7239 104.2979 L 105.7239 106 L 105.7239 106 ZM 107.8865 103 C 109.0833 102.1812 110.4481 101.2363 112.2 99.1367 C 112.9692 100.0186 114.1199 101.2573 116.6605 103 L 107.8865 103 L 107.8865 103 Z" fill="#000000"/>
			<path d="M 144.2078 97.6406 C 143.6661 100.6641 143.55 103.6199 143.55 106.9941 C 143.55 110.2671 143.6854 112.748 144.1111 115.9542 L 147.0652 115.5419 C 146.9288 114.4426 146.55 111.9922 146.55 107.345 C 146.55 103.9 146.6712 100.937 147.1712 97.9136 L 144.2078 97.6406 L 144.2078 97.6406 ZM 148.0283 101 L 148.0283 104 L 154.5246 104 L 154.569 108.16 C 154.152 108.0684 153.8787 108 152.9348 108 C 149.2895 108 147.55 110.1296 147.55 111.9922 C 147.55 113.4348 148.7459 116 153.059 116 C 154.0612 116 156.1532 115.8397 157.0986 114.1906 C 157.5097 113.5035 157.5303 112.937 157.55 112.4961 C 158.1169 112.8268 158.8098 113.3432 159.7966 114.5571 L 161.8752 111.882 C 160.8989 111.2678 159.1982 109.9694 157.5605 109.1677 L 157.5397 104 L 161.0878 104 L 161.0878 101 L 157.5212 101 L 157.5212 97.7666 L 154.55 97.7666 L 154.55 101 L 148.0283 101 L 148.0283 101 ZM 154.55 112.0079 C 154.55 112.4646 154.55 113 152.7201 113 C 151.184 113 150.55 112.5118 150.55 112.0237 C 150.55 111.504 151.3059 111 152.8665 111 C 153.6223 111 154.0369 111.1104 154.55 111.2363 L 154.55 112.0079 L 154.55 112.0079 Z" fill="#000000"/>
			<path d="M 185.424 106 L 190.4 106 L 190.4 108 L 184.1012 108 L 184.1012 111 L 190.4 111 L 190.4 114 L 182.1276 114 L 182.1276 117 L 201.6725 117 L 201.6725 114 L 193.4 114 L 193.4 111 L 199.6989 111 L 199.6989 108 L 193.4 108 L 193.4 106 L 198.3971 106 L 198.3971 104.2766 C 199.4049 104.8298 200.0138 105.0851 200.6437 105.3617 L 202.1344 102.0972 C 198.1661 101.0054 195.3947 98.5908 193.673 96.5962 L 190.2321 96.5962 C 188.0275 99.1787 185.067 101.0894 181.6866 102.1182 L 183.1144 105.383 C 183.8282 105.0638 184.5001 104.7872 185.424 104.2979 L 185.424 106 L 185.424 106 ZM 187.5865 103 C 188.7833 102.1812 190.1481 101.2363 191.9 99.1367 C 192.6693 100.0186 193.8199 101.2573 196.3605 103 L 187.5865 103 L 187.5865 103 Z" fill="#000000"/>
			<path d="M 241.021 98.979 C 240.958 99 240.6641 99 240.6431 99 C 235.1211 99.1495 233.8613 99.2058 222.1768 99.7309 L 222.3657 102.975 C 223.5835 102.8575 229.9529 102.3485 231.3418 102.2311 C 228.5586 103.8951 226.25 106.3422 226.25 109.2983 C 226.25 111.5693 227.9186 113.5815 230.0215 114.5815 C 231.8877 115.5349 233.9243 116 238.7744 116 L 239.1733 112 C 238.2915 112.0468 237.5566 112.07 235.394 111.9413 C 233.7983 111.8434 230.25 111.6085 230.25 108.8285 C 230.25 105.8333 233.8823 103.4253 235.856 102.5834 C 237.1157 102.0353 237.9136 102 239.1104 102 C 239.8872 102 240.6221 102.0353 241.105 102.0549 L 241.021 98.979 L 241.021 98.979 Z" fill="#000000"/>
			<path d="M 263.744 98.6353 C 263.5601 100.4401 263.1 104.6547 263.1 109.2895 C 263.1 113.0747 263.4312 114.9811 263.5968 115.9868 L 266.9331 115.7349 C 266.2944 113.4333 266.1 111.0275 266.1 108.5446 C 266.1 103.434 266.9331 100.1344 267.2108 98.8662 L 263.744 98.6353 L 263.744 98.6353 ZM 269.6919 100 L 269.6919 103 L 280.3304 103 L 280.3304 100 L 269.6919 100 L 269.6919 100 ZM 270.3824 106.8066 C 269.1 108.8343 269.1 110.4068 269.1 110.9448 C 269.1 114.849 273.4647 115 276.9081 115 C 278.9657 115 280.1205 114.8867 280.7294 114.8301 L 280.6664 111.7517 C 279.1967 111.9379 277.223 112 275.7323 112 C 273.6957 112 272.1 111.7517 272.1 110.3447 C 272.1 109.7447 272.2889 108.9584 273.0658 108.0067 L 270.3824 106.8066 L 270.3824 106.8066 Z" fill="#000000"/>
			<path d="M 306.9071 117.084 C 309.472 116.9406 311.8509 116.6039 313.9595 115.9703 C 313.9109 116.1579 316.1995 116.807 321.5457 117 L 322.1965 115 C 320.9368 115.0351 318.74 115.0351 316.8713 114.6664 C 318.2151 113.5446 318.572 113.0291 319.95 112.1801 L 319.95 111.25 C 319.1217 111.275 319.1443 111.3125 319.2123 111.4 L 321.1394 110.368 C 320.9084 110.0313 320.6837 109.7366 319.8914 108.8737 L 320.8875 108.8737 L 320.8875 106.0625 L 319.95 106.0625 L 319.95 100.0625 L 314.6194 100.0625 L 315.4641 98.9375 L 322.1409 98.9375 L 322.1409 97.0625 L 307.1521 97.0625 L 307.1521 98.9375 L 312.5247 98.9375 L 312.3567 100.0625 L 307.95 100.0625 L 307.95 106.0625 L 307.0125 106.0625 L 307.0125 108.8691 L 308.4385 108.8691 C 307.7944 109.499 307.3574 109.793 306.9495 110.0869 L 308.6454 111.6406 C 310.1226 110.8356 310.811 109.4935 311.0125 109 L 311.0125 109.6514 C 311.0125 109.9672 311.0125 110.4803 311.5222 110.7369 C 310.0721 111.9803 308.1165 112.4342 307.0585 112.6514 L 307.8865 114.3487 C 308.5764 114.2105 309.4274 114.0132 310.4248 113.579 C 310.9957 114.2303 311.3583 114.5066 311.5222 114.625 C 309.8644 114.9013 307.9324 114.9605 306.7605 115 L 306.9071 117.084 L 306.9071 117.084 ZM 316.6818 108.2468 L 315.387 107.9034 C 315.2971 108.9552 315.2791 109.0625 314.8296 109.0625 L 313.319 109.0625 C 312.9774 109.0625 312.8875 108.9337 312.8875 108.6118 L 312.8875 107.5814 C 313.4988 108.0966 313.8046 108.3327 314.2181 108.8264 L 315.2971 107.4741 C 315.1353 107.3024 315.0634 107.238 314.6857 106.9375 L 318.0125 106.9375 L 318.0125 107.3239 L 316.6818 108.2468 L 316.6818 108.2468 ZM 316.95 104.9375 L 316.95 106.0625 L 310.95 106.0625 L 310.95 104.9375 L 316.95 104.9375 L 316.95 104.9375 ZM 312.5598 107.79 C 312.7054 107.916 312.7418 107.937 312.8146 108 L 311.0125 108 L 311.0125 108.0322 L 309.8875 107.3668 L 309.8875 106.9375 L 312.8329 106.9375 L 312.5598 107.79 L 312.5598 107.79 ZM 315.7405 109.9375 C 316.9417 109.9375 317.1106 109.5196 317.2231 108.7834 C 318.593 110.5796 318.656 110.6846 318.95 111.0625 L 312.7351 111.0625 C 313.5378 110.3994 313.6528 110.2734 313.9595 109.9375 L 315.7405 109.9375 L 315.7405 109.9375 ZM 316.95 102.9375 L 316.95 104.0625 L 310.95 104.0625 L 310.95 102.9375 L 316.95 102.9375 L 316.95 102.9375 ZM 316.95 100.9375 L 316.95 102.0625 L 310.95 102.0625 L 310.95 100.9375 L 316.95 100.9375 L 316.95 100.9375 ZM 316.4275 111.9375 C 315.8816 112.4713 315.3987 112.9771 314.3069 113.4828 C 313.803 113.2581 313.0051 112.8366 312.0393 111.9375 L 316.4275 111.9375 L 316.4275 111.9375 ZM 303.0125 117 L 305.8875 117 L 305.8875 101.7612 C 306.4963 99.6196 306.7273 98.0659 306.8533 97.1631 L 304.0827 96.9741 C 303.7889 99.0737 303.2223 101.6353 301.5217 104.0078 L 302.2566 108.606 C 302.6135 108.186 302.7815 107.9761 303.0125 107.6821 L 303.0125 117 L 303.0125 117 Z" fill="#000000"/>
			<path d="M 341.425 105 L 341.425 108 L 346.8 108 C 346.7791 111.8906 345.3303 113.6953 341.1101 114.5732 L 342.8948 117.5039 C 347.1188 116.3885 349.7438 113.8594 349.8 108 L 352.8 108 L 352.8 115.2803 C 352.8 116.5988 353.9154 117 354.5116 117 L 359.5947 117 C 359.714 117 360.7272 117 361.2438 115.8344 C 361.5815 115.0701 361.7405 112.9922 361.8 111.75 L 358.8 110.9766 C 358.8 112.1016 358.6196 113.1797 358.597 113.3438 C 358.5519 113.625 358.4166 114 357.8978 114 L 356.3188 114 C 356.0933 114 355.8 114 355.8 113.4141 L 355.8 108 L 361.7007 108 L 361.7007 105 L 352.8 105 L 352.8 102 L 360.8861 102 L 360.8861 99 L 352.8 99 L 352.8 96.6064 L 349.8 96.6064 L 349.8 99 L 347.4065 99 C 347.6584 98.1602 347.7424 97.8032 347.8684 97.2993 L 344.509 96.7744 C 344.1101 98.6851 343.1653 100.7433 341.2546 102.8947 L 343.6062 105 L 341.425 105 L 341.425 105 ZM 344.467 105 C 344.845 104.421 345.4119 103.4737 346.0417 102 L 349.8 102 L 349.8 105 L 344.467 105 L 344.467 105 Z" fill="#000000"/>
			<path d="M 391.5707 100 L 382.1647 100 L 382.1647 103 L 391.6306 103 L 391.6689 103.3506 C 391.2706 103.2007 390.7905 103 390.1704 103 C 386.9536 103 385.65 105.9 385.65 107.9304 C 385.65 110.3081 387.2225 112 389.8702 112 C 390.9105 112 391.3105 111.7778 391.726 111.5215 C 391.5507 111.8975 391.2306 112.9998 389.3302 113.5587 C 387.9674 113.9412 386.6432 114 385.2511 114 L 386.2708 117 C 389.7703 116.9575 395.028 116.0428 395.028 110.3423 C 395.028 109.1262 394.797 108.0684 394.65 107.2866 L 394.65 103 L 400.172 103 L 400.172 100 L 394.65 100 L 394.65 98.0474 L 391.5306 98.0474 L 391.5707 100 L 391.5707 100 ZM 391.7639 108.2754 C 391.7639 109.2872 391.2106 110 390.2704 110 C 388.9501 110 388.65 108.7583 388.65 107.9764 C 388.65 106.0908 390.0903 106 390.3104 106 C 391.6306 106 391.7639 107.3785 391.7639 107.6315 L 391.7639 108.2754 L 391.7639 108.2754 Z" fill="#000000"/>
			<path d="M 423.1694 98 L 423.1694 101.085 L 431.0154 100.9307 C 423.3374 107.6794 422.5396 108.2847 420.8179 109.3895 L 422.8965 111.718 C 426.9282 108.3948 428.8309 107 432.1725 107 C 435.6226 107 436.5 108.7799 436.5 109.8303 C 436.5 111.1353 435.3918 112.0676 433.4484 112.5726 C 433.4829 112.3007 433.5 112.1453 433.5 111.9122 C 433.5 110.4067 432.4656 109 430.0886 109 C 427.928 109 425.5 109.9998 425.5 111.8928 C 425.5 112.3007 425.619 116 431.5344 116 C 437.5413 116 440.5 112.728 440.5 109.7116 C 440.5 107.3126 438.2986 104 433.5461 104 C 432.6207 104 432.2759 104.1572 432 104.269 C 432.5518 103.6599 432.707 103.4656 435.9225 100.4752 L 435.9225 98 L 423.1694 98 L 423.1694 98 ZM 431.4346 112.9223 C 431.1035 112.9806 430.8829 113 430.5961 113 C 430.0886 113 428.5 112.9417 428.5 111.951 C 428.5 111.3683 429.0737 111 429.9121 111 C 431.4565 111 431.5 112.3396 431.5 112.4755 C 431.5 112.6504 431.4786 112.7475 431.4346 112.9223 L 431.4346 112.9223 Z" fill="#000000"/>
			<path d="M 478.5013 105.0894 C 478.0479 105.5933 476.8728 107 474.7701 107 C 473.5332 107 472.6467 106.4961 471.1213 105.6143 C 470.1936 104.8878 468.8331 104 466.9365 104 C 463.8856 104 462.1333 106.2079 461.35 107.147 L 463.226 108.8687 C 464.6071 107 466.3799 107 466.7922 107 C 468.3589 107 469.369 107.5879 470.6884 108.3857 C 471.5542 109.1288 472.8323 110 474.7495 110 C 477.0583 110 479.1404 108.548 480.35 106.79 L 478.5013 105.0894 L 478.5013 105.0894 Z" fill="#000000"/>
		</g>
		<g>
			<path d="M 30 148 L 23 148 C 23.1094 146.3438 23.6563 144.9219 24.6406 143.7031 C 25.625 142.4844 27.4063 141.2656 30 140.0469 L 26.8438 134 C 22.875 135.875 20.0625 138.0469 18.4375 140.4844 C 16.8125 142.9375 16 146.2813 16 150.5 L 16 162 L 30 162 L 30 148 L 30 148 ZM 48 148 L 41 148 C 41.1094 146.3438 41.6563 144.9219 42.6406 143.7031 C 43.625 142.4844 45.4063 141.2656 48 140.0469 L 44.8438 134 C 40.875 135.875 38.0625 138.0469 36.4375 140.4844 C 34.8125 142.9375 34 146.2813 34 150.5 L 34 162 L 48 162 L 48 148 L 48 148 Z" fill="#007ac6"/>
			<path d="M 56 187 L 72 187 L 72 176.5938 L 80.8438 166.8906 L 91.2031 187 L 111 187 L 92.1094 154.5781 L 110 135 L 88.125 135 L 72 154.6563 L 72 135 L 56 135 L 56 187 L 56 187 Z" fill="#007ac6"/>
			<path d="M 117.5938 176.2813 C 119.9844 180.3438 123.1094 183.3125 126.9531 185.1875 C 130.7969 187.0625 135.6719 188 141.5469 188 C 147.3281 188 152.1563 186.9219 156.0313 184.75 C 159.9063 182.5781 162.8594 179.5313 164.9219 175.625 C 166.9688 171.7188 168 166.7188 168 160.6094 C 168 152.2031 165.6406 145.6719 160.9531 141 C 156.2656 136.3438 149.5781 134 140.9063 134 C 132.4375 134 125.8438 136.375 121.1094 141.125 C 116.3594 145.875 114 152.5156 114 161.0313 C 114 167.1406 115.1875 172.2188 117.5938 176.2813 L 117.5938 176.2813 ZM 132.9688 149.5 C 134.9531 147.1719 137.5938 146 140.875 146 C 144.2813 146 147 147.1563 149 149.4375 C 151 151.7344 152 155.3594 152 160.3125 C 152 166.2188 151.0313 170.3125 149.125 172.5938 C 147.2031 174.875 144.5 176 141.0156 176 C 137.6094 176 134.9219 174.8438 132.9531 172.5156 C 130.9844 170.1875 130 166.3594 130 161.0313 C 130 155.6719 130.9844 151.8281 132.9688 149.5 L 132.9688 149.5 Z" fill="#007ac6"/>
			<path d="M 173 147 L 189 147 L 189 187 L 205 187 L 205 147 L 221 147 L 221 135 L 173 135 L 173 147 L 173 147 Z" fill="#007ac6"/>
			<path d="M 229.5938 176.2813 C 231.9844 180.3438 235.1094 183.3125 238.9531 185.1875 C 242.7969 187.0625 247.6719 188 253.5469 188 C 259.3281 188 264.1563 186.9219 268.0313 184.75 C 271.9063 182.5781 274.8594 179.5313 276.9219 175.625 C 278.9688 171.7188 280 166.7188 280 160.6094 C 280 152.2031 277.6406 145.6719 272.9531 141 C 268.2656 136.3438 261.5781 134 252.9063 134 C 244.4375 134 237.8438 136.375 233.1094 141.125 C 228.3594 145.875 226 152.5156 226 161.0313 C 226 167.1406 227.1875 172.2188 229.5938 176.2813 L 229.5938 176.2813 ZM 244.9688 149.5 C 246.9531 147.1719 249.5938 146 252.875 146 C 256.2813 146 259 147.1563 261 149.4375 C 263 151.7344 264 155.3594 264 160.3125 C 264 166.2188 263.0313 170.3125 261.125 172.5938 C 259.2031 174.875 256.5 176 253.0156 176 C 249.6094 176 246.9219 174.8438 244.9531 172.5156 C 242.9844 170.1875 242 166.3594 242 161.0313 C 242 155.6719 242.9844 151.8281 244.9688 149.5 L 244.9688 149.5 Z" fill="#007ac6"/>
			<path d="M 288 187 L 315.7031 187 C 316.875 187 319.2656 186.7656 322.8906 186.2813 C 325.6094 185.9375 327.6406 185.3594 328.9844 184.5625 C 331.1563 183.2969 332.875 181.5781 334.125 179.3906 C 335.375 177.2031 336 174.75 336 172.0156 C 336 168.6719 335.1406 165.8906 333.4219 163.6719 C 331.7031 161.4531 329.0156 159.8906 325.3906 158.9844 C 327.8906 158.1406 329.7813 157 331.0781 155.5625 C 333.0156 153.4063 334 150.7969 334 147.7656 C 334 144.1563 332.6406 141.125 329.9375 138.6719 C 327.2344 136.2344 323.3594 135 318.3125 135 L 288 135 L 288 187 L 288 187 ZM 304 147 L 311.25 147 C 313.7344 147 315.4844 147.3594 316.4844 148.0469 C 317.4844 148.7344 318 149.6875 318 150.9063 C 318 152.25 317.4844 153.2656 316.4844 153.9531 C 315.4844 154.6563 313.7031 155 311.1406 155 L 304 155 L 304 147 L 304 147 ZM 304 165 L 312.2813 165 C 315.1406 165 317.1406 165.4531 318.2813 166.3281 C 319.4219 167.2188 320 168.3906 320 169.8438 C 320 171.4219 319.4219 172.6719 318.2656 173.6094 C 317.1094 174.5469 315.1406 175 312.3281 175 L 304 175 L 304 165 L 304 165 Z" fill="#007ac6"/>
			<path d="M 378 166.9063 C 378 169.8125 377.2031 172.0625 375.6094 173.6406 C 374.0156 175.2188 371.8125 176 369.0156 176 C 366.1875 176 363.9844 175.2031 362.3906 173.5938 C 360.7969 172 360 169.7656 360 166.9063 L 360 135 L 344 135 L 344 166.0469 C 344 168.6094 344.5 171.5469 345.5 174.8594 C 346.1094 176.9219 347.25 178.9219 348.9219 180.8594 C 350.5938 182.7969 352.4375 184.2969 354.4531 185.3594 C 356.4688 186.4219 358.9844 187.1094 361.9844 187.4688 C 364.9844 187.8125 367.75 188 370.2969 188 C 374.6719 188 378.4375 187.4219 381.5781 186.2656 C 383.8281 185.4375 385.9688 184 388.0313 181.9531 C 390.0938 179.9063 391.5938 177.5156 392.5625 174.7813 C 393.5156 172.0469 394 169.1406 394 166.0469 L 394 135 L 378 135 L 378 166.9063 L 378 166.9063 Z" fill="#007ac6"/>
			<path d="M 406.75 182.9063 C 410.1406 186.3125 416.25 188 425.0625 188 C 430.0781 188 434.2344 187.2656 437.5313 185.8281 C 440.8281 184.3906 443.3906 182.2656 445.2344 179.4531 C 447.0781 176.6406 448 173.5781 448 170.2656 C 448 167.4375 447.3125 164.875 445.9375 162.5938 C 444.5625 160.3125 442.3594 158.3906 439.3281 156.8438 C 436.2969 155.3125 431.2969 153.7813 424.3125 152.2656 C 421.4844 151.6719 419.8906 151.0313 419.5469 150.3438 C 419.1719 149.6875 419 148.9375 419 148.0938 C 419 146.9688 419.375 146 420.1563 145.2031 C 420.9219 144.4063 422.0625 144 423.5938 144 C 425.4375 144 426.875 144.4844 427.9375 145.4375 C 428.9844 146.3906 429.6719 147.9063 430 150 L 446 149.2031 C 445.3438 143.9219 443.2813 140.0625 439.8438 137.6406 C 436.4063 135.2188 431.3906 134 424.8281 134 C 419.4844 134 415.2656 134.7031 412.2031 136.0781 C 409.125 137.4531 406.8281 139.3438 405.2969 141.75 C 403.7656 144.1563 403 146.7188 403 149.4219 C 403 153.5469 404.5 156.9375 407.5156 159.5938 C 410.5 162.25 415.5 164.375 422.5156 165.9688 C 426.7969 166.9219 429.4375 167.9375 430.4688 169 C 431.4844 170.0625 432 171.2813 432 172.625 C 432 174.0625 431.4219 175.3125 430.2813 176.3906 C 429.125 177.4688 427.5 178 425.4063 178 C 422.5625 178 420.3906 176.9375 418.8594 174.7813 C 417.9219 173.4688 417.2969 171.5313 417 169 L 401 169.9688 C 401.4375 175.2031 403.3594 179.5156 406.75 182.9063 L 406.75 182.9063 Z" fill="#007ac6"/>
			<path d="M 452 148 L 459 148 C 458.875 149.6563 458.3281 151.0938 457.3594 152.3125 C 456.3906 153.5313 454.5938 154.7344 452 155.9531 L 455.2031 162 C 459.1406 160.1563 461.9219 158 463.5469 155.5313 C 465.1719 153.0781 466 149.7344 466 145.5 L 466 134 L 452 134 L 452 148 L 452 148 ZM 470 148 L 477 148 C 476.875 149.6563 476.3281 151.0938 475.3594 152.3125 C 474.3906 153.5313 472.5938 154.7344 470 155.9531 L 473.2031 162 C 477.1406 160.1563 479.9219 158 481.5469 155.5313 C 483.1719 153.0781 484 149.7344 484 145.5 L 484 134 L 470 134 L 470 148 L 470 148 Z" fill="#007ac6"/>
		</g>
		<g>
			<g>
				<path d="M 235.7676 261.3379 L 235.7676 264.0203 L 233.5928 264.0203 C 231.0105 264.0203 230.5566 265.9045 230.5566 267.9053 C 230.5566 269.9065 230.667 272.2622 233.287 272.2622 L 235.8021 272.2622 L 235.8021 274.9014 L 232.7722 274.9014 C 228.8478 274.9014 227.3116 271.791 227.3116 268.0801 C 227.3116 263.3716 229.7197 261.3379 233.2766 261.3379 L 235.7676 261.3379 Z" fill="#007ac6"/>
				<path d="M 236.7942 274.9353 L 239.6494 274.9353 L 239.6494 261.4092 L 236.7942 261.4092 L 236.7942 274.9353 Z" fill="#007ac6"/>
				<path d="M 272.0439 274.9255 L 274.8992 274.9255 L 274.8992 261.4063 L 272.0439 261.4063 L 272.0439 274.9255 Z" fill="#007ac6"/>
				<path d="M 243.7415 265.0461 L 241.234 265.0461 L 241.234 267.4153 L 243.4675 267.4153 C 244.2351 267.4153 244.415 267.8083 244.415 268.4519 L 243.3599 268.4519 C 241.1382 268.4519 240.4246 270.0894 240.4246 271.7344 C 240.4246 273.3794 241.1267 274.9041 243.0898 274.9041 L 247.2219 274.9041 L 247.2219 268.1633 C 247.181 266.4551 246.1506 265.0461 243.7415 265.0461 L 243.7415 265.0461 ZM 244.4246 272.7739 L 243.8673 272.7739 C 243.3342 272.7739 243.0847 272.2686 243.0847 271.6328 C 243.0847 270.9941 243.2648 270.5039 243.8456 270.5039 L 244.4246 270.5039 L 244.4246 272.7739 Z" fill="#007ac6"/>
				<path d="M 253.6542 265.0474 L 251.0798 265.0474 C 249.6536 265.0474 248.1814 266.0117 248.1814 267.6921 C 248.1814 268.2246 248.3289 268.9612 248.9966 269.6514 L 250.8082 271.5537 C 251.1033 271.8591 250.9558 272.5469 250.3557 272.5469 L 248.1724 272.5469 L 248.1724 274.9211 L 250.8542 274.9211 C 252.2798 274.9211 253.9094 273.9092 253.9094 272.0278 C 253.9094 271.209 253.5264 270.6013 253.0566 270.0645 L 251.3745 268.292 C 250.9238 267.7993 251.1792 267.354 251.6772 267.354 L 253.6542 267.354 L 253.6542 265.0474 Z" fill="#007ac6"/>
				<path d="M 259.9723 265.0474 L 257.3982 265.0474 C 255.9736 265.0474 254.5001 266.0117 254.5001 267.6921 C 254.5001 268.2246 254.6476 268.9612 255.3152 269.6514 L 257.1277 271.5537 C 257.422 271.8591 257.2744 272.5469 256.6738 272.5469 L 254.4897 272.5469 L 254.4897 274.9211 L 257.1724 274.9211 C 258.6003 274.9211 260.2307 273.9092 260.2307 272.0278 C 260.2307 271.209 259.8439 270.6013 259.3748 270.0645 L 257.6932 268.292 C 257.2439 267.7993 257.4991 267.354 257.9963 267.354 L 259.9723 267.354 L 259.9723 265.0474 Z" fill="#007ac6"/>
				<path d="M 261.1576 261.4028 L 261.1576 274.8982 L 264.0348 274.8982 L 264.0348 270.0208 C 264.0348 268.9238 263.6257 265.8242 263.6257 265.8242 L 266.5142 273.4331 C 266.9132 274.2551 267.3295 274.9465 268.8225 274.9465 L 270.5776 274.9465 L 270.5776 261.4297 L 267.6997 261.4297 L 267.6997 266.7134 C 267.6997 267.7942 268.0757 270.4097 268.0757 270.4097 L 265.2223 262.9707 C 264.6458 261.5779 263.8994 261.4028 262.9976 261.4028 L 261.1576 261.4028 Z" fill="#007ac6"/>
				<path d="M 282.0538 261.4248 L 280.2379 261.4248 C 279.0161 261.4248 278.5142 262.0247 278.1095 262.6379 L 275.3459 267.4534 L 278.8464 273.5676 C 279.4551 274.4812 279.9351 274.9373 280.8928 274.9373 L 282.9841 274.9373 L 278.3694 267.4202 L 282.0538 261.4248 Z" fill="#007ac6"/>
			</g>
			<g>
				<path d="M 228.9993 244.2373 L 228.9993 225.3252 L 232.6138 225.3252 L 232.6138 244.2373 L 228.9993 244.2373 Z" fill="#221714"/>
				<path d="M 244.2814 230.5903 C 243.6793 228.8091 242.8936 228.0493 241.6359 228.0493 C 240.3528 228.0493 239.6455 228.8352 239.6455 230.1191 C 239.6455 232.9736 247.7131 233.1831 247.7131 239.1035 C 247.7131 242.3516 245.4866 244.499 241.6882 244.499 C 238.7549 244.499 236.4758 242.9009 235.507 239.1812 L 239.0691 238.4216 C 239.4884 240.7004 240.7976 241.5127 241.8721 241.5127 C 243.129 241.5127 244.0981 240.6748 244.0981 239.2603 C 244.0981 235.6982 236.031 235.6458 236.031 230.3545 C 236.031 227.1064 237.9692 225.063 241.7145 225.063 C 244.9363 225.063 246.9011 226.9756 247.5293 229.6472 L 244.2814 230.5903 Z" fill="#221714"/>
				<path d="M 250.7097 231.4021 C 250.7097 226.7393 253.172 225.063 256.6816 225.063 C 260.1914 225.063 262.6538 226.7393 262.6538 231.4021 L 262.6538 238.1599 C 262.6538 242.8223 260.1914 244.499 256.6816 244.499 C 253.172 244.499 250.7097 242.8223 250.7097 238.1599 L 250.7097 231.4021 ZM 254.3242 238.6316 C 254.3242 240.7275 255.241 241.303 256.6816 241.303 C 258.1221 241.303 259.0386 240.7275 259.0386 238.6316 L 259.0386 230.9309 C 259.0386 228.8352 258.1221 228.2588 256.6816 228.2588 C 255.241 228.2588 254.3242 228.8352 254.3242 230.9309 L 254.3242 238.6316 Z" fill="#221714"/>
				<path d="M 272.0839 238.6841 C 272.0839 240.6221 272.948 241.5127 274.8867 241.5127 C 276.6676 241.5127 277.637 240.334 277.637 238.7102 C 277.637 236.5879 276.4316 235.7764 273.8126 235.7505 L 273.8126 232.7644 C 276.2485 232.7644 277.1914 232.083 277.1914 230.3284 C 277.1914 229.0186 276.3269 228.0493 274.7551 228.0493 C 273.4719 228.0493 272.5292 228.9661 272.4771 230.25 L 269.0195 230.25 C 269.0457 226.7661 271.6125 225.063 274.7814 225.063 C 278.1863 225.063 280.6489 226.844 280.6489 230.1968 C 280.6489 231.8477 279.8629 233.5498 278.3704 234.3091 C 280.387 235.0957 281.0942 236.7451 281.0942 238.8672 C 281.0942 242.613 278.3442 244.499 274.9392 244.499 C 270.6958 244.499 268.6263 242.2461 268.6263 238.6841 L 272.0839 238.6841 Z" fill="#221714"/>
				<path d="M 286.4623 239.2859 C 286.5148 240.5696 287.5616 241.5127 288.8459 241.5127 C 290.7842 241.5127 291.7263 240.6221 291.7263 237.5571 L 291.7263 235.803 C 290.5479 236.6926 289.1602 237.2693 287.6663 237.2693 C 284.366 237.2693 282.6638 234.7024 282.6638 231.6641 C 282.6638 227.7878 284.5498 225.063 288.8459 225.063 C 292.9316 225.063 295.1838 227.5784 295.1838 231.6113 L 295.1838 237.9502 C 295.1838 241.9844 292.9316 244.499 288.8459 244.499 C 285.5713 244.499 283.2664 242.6909 283.0044 239.2859 L 286.4623 239.2859 ZM 291.7263 232.0046 C 291.7263 228.9404 290.7842 228.0493 288.8459 228.0493 C 287.0382 228.0493 286.1213 229.3594 286.1213 231.5337 C 286.1213 233.6287 287.2476 234.5977 288.8459 234.5977 C 289.9451 234.5977 290.8364 233.8643 291.7263 233.052 L 291.7263 232.0046 Z" fill="#221714"/>
				<path d="M 298.7335 231.6113 C 298.7335 227.5784 300.9857 225.063 305.0725 225.063 C 309.158 225.063 311.4102 227.5784 311.4102 231.6113 L 311.4102 237.9502 C 311.4102 241.9844 309.158 244.499 305.0725 244.499 C 300.9857 244.499 298.7335 241.9844 298.7335 237.9502 L 298.7335 231.6113 ZM 302.1907 237.5571 C 302.1907 240.6221 303.1329 241.5127 305.0725 241.5127 C 307.0105 241.5127 307.9526 240.6221 307.9526 237.5571 L 307.9526 232.0046 C 307.9526 228.9404 307.0105 228.0493 305.0725 228.0493 C 303.1329 228.0493 302.1907 228.9404 302.1907 232.0046 L 302.1907 237.5571 Z" fill="#221714"/>
				<path d="M 312.9597 231.6113 C 312.9597 227.5784 315.2119 225.063 319.2988 225.063 C 323.3845 225.063 325.6367 227.5784 325.6367 231.6113 L 325.6367 237.9502 C 325.6367 241.9844 323.3845 244.499 319.2988 244.499 C 315.2119 244.499 312.9597 241.9844 312.9597 237.9502 L 312.9597 231.6113 ZM 316.4172 237.5571 C 316.4172 240.6221 317.3595 241.5127 319.2988 241.5127 C 321.2371 241.5127 322.1792 240.6221 322.1792 237.5571 L 322.1792 232.0046 C 322.1792 228.9404 321.2371 228.0493 319.2988 228.0493 C 317.3595 228.0493 316.4172 228.9404 316.4172 232.0046 L 316.4172 237.5571 Z" fill="#221714"/>
				<path d="M 333.135 229.7781 L 330.228 229.7781 L 330.228 227.709 C 333.0039 227.1592 333.4761 226.2158 334.366 225.063 L 336.4353 225.063 L 336.4353 244.2373 L 333.135 244.2373 L 333.135 229.7781 Z" fill="#221714"/>
			</g>
			<g>
				<path d="M 231.5873 254.7102 L 231.0682 254.7102 L 229.8567 252.3301 L 228.5078 252.3301 L 228.5078 254.7102 L 228.0322 254.7102 L 228.0322 249.5037 L 229.7915 249.5037 C 230.8154 249.5037 231.3926 250.0662 231.3926 250.917 C 231.3926 251.6021 231.0535 252.0559 230.3104 252.2437 L 231.5873 254.7102 ZM 228.5078 251.9409 L 229.7915 251.9409 C 230.4841 251.9409 230.9163 251.5593 230.9163 250.917 C 230.9163 250.2749 230.5417 249.8931 229.7915 249.8931 L 228.5078 249.8931 L 228.5078 251.9409 Z" fill="#221714"/>
				<path d="M 238.3521 252.8352 C 238.3521 253.8521 237.9767 254.7825 236.8086 254.7825 C 235.6403 254.7825 235.2656 253.8521 235.2656 252.8352 C 235.2656 251.8184 235.6403 250.8877 236.8086 250.8877 C 237.9767 250.8877 238.3521 251.8184 238.3521 252.8352 ZM 235.6984 252.8352 C 235.6984 253.8521 236.0366 254.4358 236.8086 254.4358 C 237.5803 254.4358 237.9192 253.8521 237.9192 252.8352 C 237.9192 251.8184 237.5803 251.2344 236.8086 251.2344 C 236.0366 251.2344 235.6984 251.8184 235.6984 252.8352 Z" fill="#221714"/>
				<path d="M 244.1357 254.7102 L 244.0776 254.2559 C 243.6307 254.6094 243.2917 254.7825 242.7148 254.7825 C 242.1307 254.7825 241.6838 254.4216 241.6838 253.8013 C 241.6838 252.7771 242.52 252.5896 244.0854 252.2437 L 244.0854 251.9844 C 244.0854 251.4863 243.8689 251.2344 243.2267 251.2344 C 242.7798 251.2344 242.4121 251.4795 242.1377 251.9121 L 241.8499 251.7393 C 242.1741 251.1328 242.6355 250.8877 243.2413 250.8877 C 244.0923 250.8877 244.4963 251.2344 244.4963 252.0637 L 244.4963 254.0254 C 244.4963 254.2124 244.5105 254.4575 244.5538 254.7102 L 244.1357 254.7102 ZM 244.0635 252.5896 C 242.3469 252.9648 242.1167 253.3186 242.1167 253.7949 C 242.1167 254.2051 242.3975 254.4358 242.787 254.4358 C 243.191 254.4358 243.6882 254.1982 244.0635 253.8159 L 244.0635 252.5896 Z" fill="#221714"/>
				<path d="M 251.3325 254.7102 L 251.0295 254.7102 L 250.9575 254.22 C 250.6836 254.6094 250.2654 254.7825 249.7534 254.7825 C 248.7798 254.7825 248.2462 254.0896 248.2462 252.8137 C 248.2462 251.71 248.8521 250.8877 249.7246 250.8877 C 250.2288 250.8877 250.5322 251.0615 250.8999 251.4509 L 250.8999 249.5037 L 251.3325 249.5037 L 251.3325 254.7102 ZM 250.8999 251.9053 C 250.7557 251.6523 250.2654 251.2344 249.8395 251.2344 C 249.0608 251.2344 248.679 251.9192 248.679 252.8926 C 248.679 253.7583 249.0251 254.4358 249.7751 254.4358 C 250.3088 254.4358 250.6184 254.1409 250.8999 253.7515 L 250.8999 251.9053 Z" fill="#221714"/>
				<path d="M 259.9941 249.5037 L 263.5569 249.5037 L 263.5569 249.8931 L 262.0135 249.8931 L 262.0135 254.7102 L 261.5376 254.7102 L 261.5376 249.8931 L 259.9941 249.8931 L 259.9941 249.5037 Z" fill="#221714"/>
				<path d="M 266.5657 254.7102 L 266.5657 250.9602 L 266.9985 250.9602 L 266.9985 251.6738 L 267.0132 251.6738 C 267.2148 251.2129 267.6182 250.8877 268.0945 250.8877 L 268.2892 250.8877 L 268.2892 251.3066 L 268.0945 251.3066 C 267.6182 251.3066 266.9985 251.8691 266.9985 252.5896 L 266.9985 254.7102 L 266.5657 254.7102 Z" fill="#221714"/>
				<path d="M 273.9285 254.7102 L 273.8704 254.2559 C 273.4236 254.6094 273.0847 254.7825 272.5076 254.7825 C 271.9236 254.7825 271.4767 254.4216 271.4767 253.8013 C 271.4767 252.7771 272.313 252.5896 273.8782 252.2437 L 273.8782 251.9844 C 273.8782 251.4863 273.6616 251.2344 273.0195 251.2344 C 272.5725 251.2344 272.2051 251.4795 271.9304 251.9121 L 271.6426 251.7393 C 271.967 251.1328 272.4285 250.8877 273.0342 250.8877 C 273.885 250.8877 274.2892 251.2344 274.2892 252.0637 L 274.2892 254.0254 C 274.2892 254.2124 274.3032 254.4575 274.3467 254.7102 L 273.9285 254.7102 ZM 273.8564 252.5896 C 272.1398 252.9648 271.9094 253.3186 271.9094 253.7949 C 271.9094 254.2051 272.1902 254.4358 272.5798 254.4358 C 272.9839 254.4358 273.481 254.1982 273.8564 253.8159 L 273.8564 252.5896 Z" fill="#221714"/>
				<path d="M 278.9038 251.3066 L 278.9038 254.7102 L 278.4719 254.7102 L 278.4719 251.3066 L 277.8513 251.3066 L 277.8513 250.9602 L 278.4719 250.9602 L 278.4719 250.4268 C 278.4719 249.7778 278.731 249.4309 279.3733 249.4309 C 279.5314 249.4309 279.6829 249.4602 279.8417 249.489 L 279.8417 249.8496 C 279.7045 249.8062 279.5752 249.7778 279.416 249.7778 C 279.0769 249.7778 278.9038 249.9434 278.9038 250.3755 L 278.9038 250.9602 L 279.6689 250.9602 L 279.6689 251.3066 L 278.9038 251.3066 Z" fill="#221714"/>
				<path d="M 283.7939 251.3066 L 283.7939 254.7102 L 283.3616 254.7102 L 283.3616 251.3066 L 282.7413 251.3066 L 282.7413 250.9602 L 283.3616 250.9602 L 283.3616 250.4268 C 283.3616 249.7778 283.6211 249.4309 284.2632 249.4309 C 284.4214 249.4309 284.5725 249.4602 284.7317 249.489 L 284.7317 249.8496 C 284.5945 249.8062 284.4648 249.7778 284.306 249.7778 C 283.967 249.7778 283.7939 249.9434 283.7939 250.3755 L 283.7939 250.9602 L 284.5588 250.9602 L 284.5588 251.3066 L 283.7939 251.3066 Z" fill="#221714"/>
				<path d="M 287.1428 250.1384 L 287.1428 249.5037 L 287.5757 249.5037 L 287.5757 250.1384 L 287.1428 250.1384 ZM 287.5757 254.7102 L 287.1428 254.7102 L 287.1428 250.9602 L 287.5757 250.9602 L 287.5757 254.7102 Z" fill="#221714"/>
				<path d="M 294.8928 252.0129 C 294.6975 251.5801 294.4167 251.2344 293.9189 251.2344 C 293.2126 251.2344 292.7363 251.6738 292.7363 252.8352 C 292.7363 253.7949 293.1694 254.4358 293.9189 254.4358 C 294.4526 254.4358 294.741 254.1409 295.0435 253.6567 L 295.3911 253.8228 C 295.073 254.3564 294.6338 254.7825 293.9189 254.7825 C 292.8667 254.7825 292.3038 253.967 292.3038 252.8352 C 292.3038 251.5439 292.9523 250.8877 293.9189 250.8877 C 294.626 250.8877 295.0654 251.2847 295.29 251.9053 L 294.8928 252.0129 Z" fill="#221714"/>
				<path d="M 303.0945 253.2534 C 303.2964 254.0466 303.7583 254.3931 304.5803 254.3931 C 305.2292 254.3931 305.6185 253.9817 305.6185 253.3545 C 305.6185 251.9551 302.7982 252.5034 302.7982 250.78 C 302.7982 250.0081 303.332 249.4309 304.2986 249.4309 C 305.1207 249.4309 305.7271 249.8784 305.9645 250.679 L 305.5535 250.8015 C 305.3657 250.2253 304.9623 249.8203 304.2986 249.8203 C 303.6932 249.8203 303.2744 250.167 303.2744 250.78 C 303.2744 251.1328 303.3755 251.3857 304.3354 251.7466 C 305.7986 252.2947 306.0947 252.6545 306.0947 253.4053 C 306.0947 254.292 305.3517 254.7825 304.5076 254.7825 C 303.5132 254.7825 302.9426 254.3428 302.6538 253.3904 L 303.0945 253.2534 Z" fill="#221714"/>
				<path d="M 311.9575 254.7102 L 311.9001 254.2559 C 311.4532 254.6094 311.1138 254.7825 310.5364 254.7825 C 309.9532 254.7825 309.5063 254.4216 309.5063 253.8013 C 309.5063 252.7771 310.3425 252.5896 311.9076 252.2437 L 311.9076 251.9844 C 311.9076 251.4863 311.6907 251.2344 311.0486 251.2344 C 310.6017 251.2344 310.2339 251.4795 309.9595 251.9121 L 309.6724 251.7393 C 309.9963 251.1328 310.4575 250.8877 311.0638 250.8877 C 311.9142 250.8877 312.3176 251.2344 312.3176 252.0637 L 312.3176 254.0254 C 312.3176 254.2124 312.333 254.4575 312.3763 254.7102 L 311.9575 254.7102 ZM 311.886 252.5896 C 310.1689 252.9648 309.9388 253.3186 309.9388 253.7949 C 309.9388 254.2051 310.2201 254.4358 310.6095 254.4358 C 311.0127 254.4358 311.5107 254.1982 311.886 253.8159 L 311.886 252.5896 Z" fill="#221714"/>
				<path d="M 317.9341 251.3066 L 317.9341 254.7102 L 317.5013 254.7102 L 317.5013 251.3066 L 316.8811 251.3066 L 316.8811 250.9602 L 317.5013 250.9602 L 317.5013 250.4268 C 317.5013 249.7778 317.7607 249.4309 318.4028 249.4309 C 318.5613 249.4309 318.7131 249.4602 318.8713 249.489 L 318.8713 249.8496 C 318.7349 249.8062 318.6045 249.7778 318.4463 249.7778 C 318.1067 249.7778 317.9341 249.9434 317.9341 250.3755 L 317.9341 250.9602 L 318.6992 250.9602 L 318.6992 251.3066 L 317.9341 251.3066 Z" fill="#221714"/>
				<path d="M 321.3901 252.8499 C 321.3901 253.7002 321.7439 254.4358 322.5955 254.4358 C 323.0779 254.4358 323.3167 254.2703 323.6907 253.6787 L 324.0444 253.8665 C 323.6411 254.5303 323.2732 254.7825 322.5596 254.7825 C 321.5776 254.7825 320.9585 254.155 320.9585 252.8352 C 320.9585 251.6738 321.5498 250.8877 322.501 250.8877 C 323.5186 250.8877 324.001 251.688 324.001 252.8499 L 321.3901 252.8499 ZM 323.5681 252.5034 C 323.4827 251.7314 323.1432 251.2415 322.4869 251.2344 C 321.7219 251.2275 321.3976 252.0061 321.3901 252.5034 L 323.5681 252.5034 Z" fill="#221714"/>
				<path d="M 328.8239 250.9602 L 328.8239 249.7341 L 329.2563 249.7341 L 329.2563 250.9602 L 330.0789 250.9602 L 330.0789 251.3066 L 329.2563 251.3066 L 329.2563 254.054 C 329.2563 254.3066 329.3713 254.4358 329.6382 254.4358 C 329.7827 254.4358 329.9407 254.3999 330.0789 254.3564 L 330.0789 254.7178 C 329.9346 254.739 329.7827 254.7825 329.6382 254.7825 C 329.0254 254.7825 328.8239 254.5801 328.8239 254.1262 L 328.8239 251.3066 L 328.2607 251.3066 L 328.2607 250.9602 L 328.8239 250.9602 Z" fill="#221714"/>
				<path d="M 334.6726 254.0107 L 334.6863 254.0107 L 335.7319 250.9602 L 336.1941 250.9602 L 334.7952 254.9771 C 334.5422 255.7124 334.2751 256.0369 333.5973 256.0369 C 333.4111 256.0369 333.2947 256.0227 333.1938 255.9941 L 333.1938 255.6409 C 333.3242 255.655 333.4607 255.6909 333.6267 255.6909 C 333.9292 255.6909 334.2614 255.4238 334.4707 254.6528 L 333.1658 250.9602 L 333.6407 250.9602 L 334.6726 254.0107 Z" fill="#221714"/>
			</g>
			<g>
				<path d="M 200.2748 280.7983 C 202.0081 280.6262 203.5728 279.9766 204.8704 279.0762 C 206.1721 278.1738 207.267 277.0627 208.1824 275.8462 C 209.1157 274.6409 209.8982 273.3411 210.5642 271.9951 C 211.2273 270.6484 211.8289 269.2747 212.3138 267.8628 C 214.2507 262.2112 215.0889 256.2725 215.1989 250.3457 C 215.2727 244.3904 214.8373 238.3987 213.6489 232.5415 C 213.3513 231.0764 212.9645 229.6311 212.5378 228.1968 C 212.1104 226.7625 211.5925 225.3508 210.9517 223.9893 C 210.3279 222.6228 209.5581 221.3062 208.5538 220.1467 C 208.0515 219.5662 207.4701 219.0405 206.7932 218.6191 C 206.1229 218.1885 205.3276 217.8921 204.4645 217.8008 C 205.3308 217.7041 206.2405 217.8743 207.0632 218.1982 C 207.8848 218.5313 208.6285 219.0068 209.2926 219.5437 C 210.6255 220.6265 211.6482 221.9458 212.5532 223.2952 C 214.301 226.0364 215.5122 228.991 216.416 231.9905 C 218.2323 238.0015 218.9064 244.2065 218.8335 250.3955 C 218.7028 256.603 217.5996 262.8584 214.9773 268.6931 C 213.6704 271.6008 211.9507 274.4121 209.5811 276.8076 C 208.3763 277.981 207.0122 279.0623 205.4138 279.8164 C 203.8351 280.5779 202.0095 280.9863 200.2748 280.7983 Z" fill="#d8d8d9"/>
				<path d="M 210.469 250.8904 L 210.4631 249.2993 C 210.4524 246.2998 210.2617 243.2974 209.8447 240.3149 C 209.436 237.3325 208.8022 234.3665 207.8748 231.4622 C 206.9639 228.5581 205.7527 225.6997 204.0157 223.0576 C 203.1189 221.7556 202.1121 220.4814 200.7983 219.449 C 200.1416 218.9385 199.4189 218.4802 198.6138 218.1707 C 197.8101 217.8662 196.9268 217.7078 196.0873 217.8008 C 197.7871 217.9802 199.1023 218.9492 200.0867 220.0449 C 201.0773 221.1606 201.8428 222.4285 202.4631 223.75 C 203.7341 226.3848 204.5164 229.2021 205.1636 232.0264 C 206.3585 237.6748 206.8347 243.4456 206.8347 249.2061 L 206.8347 249.2993 C 206.8264 252.354 206.6216 255.4075 206.1768 258.4299 C 205.7495 261.4551 205.0588 264.4465 204.1045 267.3645 C 203.6226 268.8228 203.0371 270.2502 202.3616 271.6389 C 201.6965 273.0322 200.912 274.3801 199.9646 275.6301 C 199.043 276.8955 197.9346 278.0537 196.6082 278.9971 C 195.2848 279.9353 193.6804 280.6184 191.8989 280.7983 C 192.7842 280.8918 193.7067 280.8279 194.6042 280.6504 C 195.4973 280.459 196.3616 280.145 197.1782 279.7515 C 198.8035 278.9482 200.1951 277.8223 201.415 276.5981 C 202.6101 275.3518 203.6346 273.9922 204.5366 272.5815 C 205.4292 271.1628 206.1663 269.6816 206.8271 268.1787 C 208.1564 265.1711 209.0173 262.0325 209.6194 258.8711 C 210.0977 256.2285 210.3573 253.5605 210.4302 250.8904 L 210.469 250.8904 Z" fill="#d8d8d9"/>
				<path d="M 183.5183 280.7983 C 185.2515 280.6262 186.8167 279.9766 188.1138 279.0762 C 189.4176 278.1738 190.511 277.0627 191.4258 275.8462 C 192.3591 274.6409 193.1428 273.3411 193.8096 271.9966 C 194.4707 270.6484 195.0735 269.2754 195.5574 267.8628 C 197.4941 262.2112 198.3323 256.2725 198.4441 250.3457 C 198.5175 244.3904 198.0822 238.3987 196.8942 232.5415 C 196.5967 231.0764 196.2097 229.6311 195.7832 228.1968 C 195.3564 226.7625 194.8373 225.3508 194.1963 223.9893 C 193.5732 222.6228 192.8048 221.3062 191.7986 220.1465 C 191.297 219.5662 190.7153 219.0405 190.0378 218.6191 C 189.3677 218.1885 188.5742 217.8921 187.7097 217.8008 C 188.5754 217.7041 189.4857 217.8743 190.3091 218.1973 C 191.1296 218.5313 191.8738 219.0068 192.5386 219.5437 C 193.8707 220.626 194.8928 221.9453 195.7986 223.2952 C 197.5479 226.0364 198.757 228.991 199.662 231.9905 C 201.4775 238.0015 202.1516 244.2065 202.0769 250.3962 C 201.9467 256.6035 200.845 262.8591 198.2219 268.6936 C 196.9158 271.6008 195.196 274.4121 192.8269 276.8086 C 191.6199 277.981 190.2557 279.0635 188.658 279.8164 C 187.0791 280.5779 185.2527 280.9863 183.5183 280.7983 Z" fill="#d8d8d9"/>
				<path d="M 187.7097 217.8008 C 186.8442 217.8916 186.0513 218.1873 185.3792 218.6174 C 184.7019 219.0393 184.119 219.564 183.6173 220.1443 C 182.6112 221.3044 181.8413 222.6206 181.2163 223.9873 C 179.9402 226.7166 179.1514 229.6238 178.5178 232.5403 C 177.3306 238.4014 176.892 244.384 176.9718 250.3521 C 177.0879 256.2659 177.9263 262.2139 179.8647 267.8613 C 180.3481 269.2734 180.9475 270.6484 181.6121 271.9941 C 182.2786 273.3384 183.0593 274.6396 183.9944 275.8435 C 184.9093 277.0603 186.001 278.1721 187.3052 279.0737 C 188.6029 279.9736 190.1658 280.625 191.8989 280.7983 C 190.1646 280.9873 188.3379 280.5801 186.7566 279.8193 C 185.1602 279.0645 183.7948 277.9834 182.5881 276.8113 C 180.2153 274.415 178.4976 271.6035 177.1895 268.6956 C 174.5677 262.8572 173.4634 256.6104 173.3389 250.3896 C 173.2698 244.2129 173.9434 237.999 175.7615 231.9912 C 176.6642 228.9915 177.8751 226.0378 179.6223 223.2966 C 180.5288 221.9473 181.5496 220.627 182.882 219.5457 C 183.5452 219.0081 184.2888 218.5325 185.1104 218.1987 C 185.9332 217.875 186.8417 217.7046 187.7097 217.8008 Z" fill="#007ac6"/>
				<path d="M 179.3313 217.8008 C 178.467 217.8916 177.6729 218.1873 177.0027 218.6174 C 176.3239 219.0393 175.7423 219.564 175.2405 220.1443 C 174.2351 221.3044 173.4634 222.6206 172.8378 223.9873 C 171.5616 226.7166 170.7744 229.6238 170.1401 232.5403 C 168.9519 238.4014 168.5154 244.384 168.5951 250.3521 C 168.7114 256.2654 169.5482 262.2129 171.4871 267.8613 C 171.9707 269.2734 172.5696 270.6472 173.2341 271.9941 C 173.9006 273.3384 174.6814 274.6396 175.616 275.8435 C 176.5314 277.0603 177.6235 278.1721 178.9271 279.0737 C 180.2229 279.9736 181.7876 280.625 183.5183 280.7983 C 181.7844 280.9873 179.9595 280.5801 178.3789 279.8193 C 176.7804 279.0645 175.4148 277.9834 174.2089 276.8098 C 171.8373 274.415 170.1194 271.6021 168.8108 268.6951 C 166.1897 262.8564 165.0867 256.6104 164.9602 250.3889 C 164.892 244.2129 165.566 237.9983 167.3829 231.9905 C 168.2881 228.9915 169.4983 226.0378 171.2457 223.2966 C 172.1509 221.9473 173.1716 220.627 174.5039 219.5457 C 175.1685 219.0081 175.9121 218.5325 176.7332 218.1987 C 177.5559 217.875 178.4658 217.7046 179.3313 217.8008 Z" fill="#007ac6"/>
				<path d="M 196.0873 217.8008 C 195.2214 217.8916 194.4287 218.1873 193.7571 218.6174 C 193.0803 219.0388 192.4971 219.564 191.9952 220.1443 C 190.9893 221.3044 190.2197 222.6201 189.5942 223.9873 C 188.3169 226.7158 187.5298 229.6238 186.8967 232.5396 C 185.7085 238.4014 185.272 244.384 185.3499 250.3521 C 185.4661 256.2654 186.3048 262.2139 188.241 267.8613 C 188.7261 269.2734 189.3262 270.6484 189.9907 271.9941 C 190.6559 273.3384 191.4373 274.6396 192.3726 275.8435 C 193.2866 277.0603 194.3794 278.1721 195.6832 279.0737 C 196.979 279.9736 198.5435 280.625 200.2748 280.7983 C 198.541 280.9873 196.7153 280.5801 195.1348 279.8193 C 193.537 279.0645 192.1714 277.9834 190.9641 276.8113 C 188.594 274.415 186.8755 271.6021 185.5676 268.6951 C 182.9458 262.8564 181.8413 256.6104 181.7168 250.3889 C 181.6486 244.2129 182.3213 237.9983 184.1382 231.9905 C 185.0427 228.9915 186.2539 226.0371 188.0005 223.2966 C 188.9067 221.9465 189.9282 220.627 191.2605 219.5449 C 191.9238 219.0081 192.6667 218.5325 193.489 218.1987 C 194.3113 217.875 195.2202 217.7046 196.0873 217.8008 Z" fill="#007ac6"/>
			</g>
		</g>
	</g>
</svg>