<?xml version="1.0" standalone="no"?>
<!-- Generator: Adobe Fireworks 10, Export SVG Extension by Aaron Beall (http://fireworks.abeall.com) . Version: 0.6.1  -->
<!DOCTYPE svg PUBLIC "-//W3C//DTD SVG 1.1//EN" "http://www.w3.org/Graphics/SVG/1.1/DTD/svg11.dtd">
<svg id="Untitled-%u30DA%u30FC%u30B8%201" viewBox="0 0 110 80" style="background-color:#ffffff00" version="1.1"
	xmlns="http://www.w3.org/2000/svg" xmlns:xlink="http://www.w3.org/1999/xlink" xml:space="preserve"
	x="0px" y="0px" width="110px" height="80px"
>
	<g id="%u30EC%u30A4%u30E4%u30FC%201">
		<g>
			<path d="M 105.5448 40.9677 C 105.5448 57.1184 92.833 70.2104 77.152 70.2104 C 61.4709 70.2104 48.7592 57.1184 48.7592 40.9677 C 48.7592 24.8174 61.4709 11.725 77.152 11.725 C 92.833 11.725 105.5448 24.8174 105.5448 40.9677 L 105.5448 40.9677 Z" fill="#ffffff"/>
			<path d="M 104.9493 40.9675 C 104.9493 57.1183 92.2375 70.2109 76.5565 70.2109 C 60.8752 70.2109 48.1639 57.1183 48.1639 40.9675 C 48.1639 24.8174 60.8752 11.7256 76.5565 11.7256 C 92.2375 11.7256 104.9493 24.8174 104.9493 40.9675 L 104.9493 40.9675 ZM 76.5565 14.4917 C 62.359 14.4917 50.8499 26.3462 50.8499 40.9675 C 50.8499 55.5905 62.359 67.4446 76.5565 67.4446 C 90.754 67.4446 102.2633 55.5905 102.2633 40.9675 C 102.2633 26.3462 90.754 14.4917 76.5565 14.4917 L 76.5565 14.4917 Z" fill="#003f97"/>
			<path d="M 67.7743 59.4761 L 80.6107 32.2664 L 66.1504 32.2664 L 66.1504 26.7068 L 89.0587 26.7068 L 89.0587 28.786 L 74.6424 59.4761 L 67.7743 59.4761 Z" fill="#003f97"/>
			<path d="M 60.1903 40.9678 C 60.1903 57.1183 47.4783 70.2109 31.7977 70.2109 C 16.1168 70.2109 3.4045 57.1183 3.4045 40.9678 C 3.4045 24.8174 16.1168 11.7256 31.7977 11.7256 C 47.4783 11.7256 60.1903 24.8174 60.1903 40.9678 L 60.1903 40.9678 Z" fill="#ffffff"/>
			<path d="M 60.1903 40.9678 C 60.1903 57.1183 47.4783 70.2109 31.7977 70.2109 C 16.1168 70.2109 3.4045 57.1183 3.4045 40.9678 C 3.4045 24.8174 16.1168 11.7256 31.7977 11.7256 C 47.4783 11.7256 60.1903 24.8174 60.1903 40.9678 L 60.1903 40.9678 Z" fill="#003f97"/>
			<path d="M 18.4282 42.0244 L 11.3805 42.0244 L 11.3805 30.1348 L 29.621 30.1348 L 29.621 42.0244 L 22.3622 42.0244 L 22.3622 43.5437 L 31.5881 43.5437 L 31.5881 47.3047 L 22.3622 47.3047 L 22.3622 52.3704 L 18.4282 52.3704 L 18.4282 47.3047 L 9.3898 47.3047 L 9.3898 43.5437 L 18.4282 43.5437 L 18.4282 42.0244 ZM 15.2214 34.7886 L 25.6869 34.7886 L 25.6869 33.5588 L 15.2214 33.5588 L 15.2214 34.7886 ZM 15.2214 38.938 L 25.6869 38.938 L 25.6869 37.6593 L 15.2214 37.6593 L 15.2214 38.938 Z" fill="#ffffff"/>
			<path d="M 34.1357 36.8459 L 32.848 36.8459 L 32.848 31.542 L 37.2733 31.542 L 37.2733 30.0703 L 41.1598 30.0703 L 41.1598 31.542 L 45.6565 31.542 L 45.6565 36.8459 L 44.5547 36.8459 L 44.5547 37.8115 L 40.9027 37.8115 L 40.9027 38.583 L 45.1394 38.583 L 45.1394 41.0669 L 40.9027 41.0669 L 40.9027 41.8157 L 46.2408 41.8157 L 46.2408 31.2046 L 49.2848 31.2046 L 49.2848 47.1689 L 46.2408 47.1689 L 46.2408 44.636 L 32.426 44.636 L 32.426 41.8157 L 37.5077 41.8157 L 37.5077 41.0669 L 33.5974 41.0669 L 33.5974 38.583 L 37.5077 38.583 L 37.5077 37.8115 L 34.1357 37.8115 L 34.1357 36.8459 ZM 33.5505 45.3606 L 44.9306 45.3606 L 44.9306 51.9436 L 37.2959 51.9436 L 37.2959 52.9332 L 33.5505 52.9332 L 33.5505 45.3606 ZM 37.5077 34.4353 L 36.1496 34.4353 L 36.1496 35.5437 L 37.5077 35.5437 L 37.5077 34.4353 ZM 37.2959 49.2422 L 41.1832 49.2422 L 41.1832 47.9155 L 37.2959 47.9155 L 37.2959 49.2422 ZM 40.9027 35.5437 L 42.4474 35.5437 L 42.4474 34.4353 L 40.9027 34.4353 L 40.9027 35.5437 ZM 50.3145 30.0703 L 53.8979 30.0703 L 53.8979 49.5564 C 53.8979 52.5227 52.7968 52.9332 50.9244 52.9332 L 47.4823 52.9332 L 46.6624 48.7841 L 49.6133 48.7841 C 50.2213 48.7841 50.3145 48.592 50.3145 48.0134 L 50.3145 30.0703 Z" fill="#ffffff"/>
		</g>
	</g>
</svg>