<?xml version="1.0" standalone="no"?>
<!-- Generator: Adobe Fireworks 10, Export SVG Extension by Aaron Beall (http://fireworks.abeall.com) . Version: 0.6.1  -->
<!DOCTYPE svg PUBLIC "-//W3C//DTD SVG 1.1//EN" "http://www.w3.org/Graphics/SVG/1.1/DTD/svg11.dtd">
<svg id="Untitled-%u30DA%u30FC%u30B8%201" viewBox="0 0 110 80" style="background-color:#ffffff00" version="1.1"
	xmlns="http://www.w3.org/2000/svg" xmlns:xlink="http://www.w3.org/1999/xlink" xml:space="preserve"
	x="0px" y="0px" width="110px" height="80px"
>
	<g id="%u30EC%u30A4%u30E4%u30FC%201">
		<rect x="5" y="15" width="100" height="50" fill="#003f97" rx="5" ry="5"/>
		<g>
			<path d="M 22.5571 42.186 C 24.583 40.1169 26.5422 36.8741 27.0954 34.1311 L 30.0454 35.2195 C 30.0901 35.2415 30.1117 35.3555 30.1117 35.4248 C 30.1117 35.5576 30.024 35.6528 29.826 35.8301 C 29.4727 36.4215 28.9891 37.1936 28.1488 38.3484 L 28.1488 50.9434 L 25.2861 50.9434 L 25.2861 41.6641 C 24.4277 42.5022 24.0099 42.8218 23.5692 43.1825 L 22.5571 42.186 ZM 29.3408 30.5686 C 29.4067 30.5907 29.451 30.635 29.451 30.7488 C 29.451 30.9326 29.2976 30.999 29.1427 31.1129 C 27.7771 33.1089 25.5287 35.3333 23.6583 36.6493 L 22.6417 35.719 C 23.3051 35.0834 25.4626 32.679 26.3688 29.5469 L 29.3408 30.5686 ZM 43.0197 34.5137 L 43.0197 35.7637 L 37.8212 35.7637 L 37.8212 41.3221 L 42.4039 41.3221 L 42.4039 42.5687 L 37.8212 42.5687 L 37.8212 48.969 L 43.5264 48.969 L 43.5264 50.2185 L 29.0764 50.2185 L 29.0764 48.969 L 34.782 48.969 L 34.782 42.5687 L 30.3972 42.5687 L 30.3972 41.3221 L 34.782 41.3221 L 34.782 35.7637 L 30.1331 35.7637 L 30.1331 34.5137 L 36.3023 34.5137 C 35.7294 33.6976 34.1217 31.7927 32.5779 30.5466 L 33.4581 29.5879 C 35.2672 30.2047 37.9087 31.4988 39.3431 32.5397 L 36.9397 34.5137 L 43.0197 34.5137 Z" fill="#ffffff"/>
			<path d="M 57.3717 30.2047 C 57.3948 30.2047 57.416 30.2935 57.416 30.3408 C 57.416 30.4551 57.3503 30.5686 57.1967 30.7046 C 57.1077 30.7742 56.822 31.2932 56.7559 31.385 L 65.6759 31.385 L 65.6759 32.6345 L 55.8973 32.6345 C 55.3 33.4065 54.9915 33.7672 54.6612 34.1089 L 64.4641 34.1089 L 64.4641 41.1639 L 58.1873 41.1639 C 57.9232 41.6196 57.702 41.958 57.3948 42.3442 L 64.5531 42.3442 C 63.65 44.6569 62.4829 46.1089 60.7628 47.4946 C 61.1589 47.7671 62.9022 48.9248 66.0718 49.6051 L 65.5225 50.8323 C 62.8363 50.4656 60.4541 49.5608 58.8691 48.6779 C 57.5698 49.3108 55.0129 50.421 51.7555 50.8989 L 50.9615 49.719 C 52.0195 49.491 54.6612 48.969 57.0645 47.4283 C 55.6069 46.1785 55.1235 45.2957 54.9038 44.8625 C 53.692 45.8433 52.7673 46.3147 52.0854 46.6785 L 51.0934 45.7009 C 53.8026 43.8184 54.6394 41.5725 54.7963 41.1639 L 53.7136 41.1639 L 53.7136 35.0834 C 53.142 35.6528 52.8336 35.8773 52.4819 36.1716 L 52.173 35.9249 C 52.1287 36.0135 52.1072 36.0135 51.9536 36.1494 C 51.6006 36.6493 51.1381 37.3293 50.2581 38.462 L 50.2581 50.9434 L 47.48 50.9434 L 47.48 41.5725 C 46.6212 42.3665 46.1803 42.73 45.7183 43.0939 L 44.7063 42.186 C 47.2603 39.5315 48.9772 36.3108 49.329 34.4475 L 51.5127 35.2856 C 52.3268 34.403 53.9114 31.6792 54.2205 29.4771 L 57.3717 30.2047 ZM 51.6233 30.4551 C 51.6663 30.4771 51.7108 30.5686 51.7108 30.635 C 51.7108 30.6604 49.7296 33.9504 45.8734 36.7412 L 44.8352 35.8994 C 46.5553 34.2417 48.2062 31.3187 48.713 29.5024 L 51.6233 30.4551 ZM 61.7087 35.3774 L 56.5763 35.3774 L 56.5763 36.9657 L 61.7087 36.9657 L 61.7087 35.3774 ZM 56.5763 39.9175 L 61.7087 39.9175 L 61.7087 38.2156 L 56.5763 38.2156 L 56.5763 39.9175 ZM 57.5482 43.6128 C 58.032 44.8403 58.8907 45.8148 59.0013 45.9291 C 60.0579 44.8848 60.4109 44.1572 60.6753 43.6128 L 57.5482 43.6128 Z" fill="#ffffff"/>
			<path d="M 78.5533 35.8553 L 78.5533 37.1274 L 75.1375 37.1274 L 75.1375 38.5317 L 78.9943 38.5317 L 78.9943 39.7815 L 75.1375 39.7815 L 75.1375 41.3 L 80.2258 41.3 L 80.2258 42.5497 L 67.2085 42.5497 L 67.2085 41.3 L 72.3827 41.3 L 72.3827 39.7815 L 68.5078 39.7815 L 68.5078 38.5317 L 72.3827 38.5317 L 72.3827 37.1274 L 68.9916 37.1274 L 68.9916 35.8553 L 72.3827 35.8553 L 72.3827 35.2195 C 72.3827 35.1053 72.3164 34.356 72.2717 34.017 L 75.0271 34.0391 C 75.0718 34.0837 75.2036 34.1531 75.2036 34.3114 C 75.2036 34.403 75.1593 34.5613 75.1375 34.6564 L 75.1375 35.8553 L 78.5533 35.8553 ZM 79.871 32.0208 L 79.871 35.3555 L 77.2064 35.3555 L 77.2064 33.2926 L 70.3337 33.2926 L 70.3337 35.3555 L 67.6707 35.3555 L 67.6707 32.0208 L 72.338 32.0208 L 72.338 30.8848 C 72.338 30.7046 72.2717 29.8884 72.2717 29.7051 L 75.1375 29.7301 C 75.2252 29.7301 75.3358 29.8884 75.3358 30.0212 C 75.3358 30.1606 75.2915 30.2493 75.2468 30.3408 L 75.2468 32.0208 L 79.871 32.0208 ZM 71.59 50.9434 L 68.7057 50.9434 L 68.7057 43.98 L 78.8619 43.98 L 78.8619 50.0352 L 71.59 50.0352 L 71.59 50.9434 ZM 75.9965 45.2261 L 71.59 45.2261 L 71.59 48.7634 L 75.9965 48.7634 L 75.9965 45.2261 ZM 82.9351 31.0212 C 83.0226 31.0908 83.0669 31.1572 83.0669 31.2708 C 83.0669 31.407 83.0226 31.4988 82.9351 31.635 L 82.9351 46.0426 L 80.7539 46.0426 L 80.7539 32.451 C 80.7539 32.2676 80.7111 31.4323 80.688 30.999 L 82.9351 31.0212 ZM 87.0108 29.7301 C 87.0769 29.7301 87.1875 29.8442 87.1875 30.0022 C 87.1875 30.1606 87.1428 30.3408 87.1214 30.4551 L 87.1214 48.3333 C 87.1214 50.4497 86.4825 50.807 84.7841 50.807 L 81.7892 50.807 L 81.3501 49.3774 C 81.8782 49.469 82.7798 49.5608 83.5737 49.5608 C 84.1267 49.5608 84.3003 49.4023 84.3003 48.447 L 84.3003 31.0461 C 84.3003 30.7932 84.2589 30.2493 84.2344 29.7051 L 87.0108 29.7301 Z" fill="#ffffff"/>
		</g>
	</g>
</svg>