<?xml version="1.0" standalone="no"?>
<!-- Generator: Adobe Fireworks 10, Export SVG Extension by Aaron Beall (http://fireworks.abeall.com) . Version: 0.6.1  -->
<!DOCTYPE svg PUBLIC "-//W3C//DTD SVG 1.1//EN" "http://www.w3.org/Graphics/SVG/1.1/DTD/svg11.dtd">
<svg id="Untitled-%u30DA%u30FC%u30B8%201" viewBox="0 0 110 80" style="background-color:#ffffff00" version="1.1"
	xmlns="http://www.w3.org/2000/svg" xmlns:xlink="http://www.w3.org/1999/xlink" xml:space="preserve"
	x="0px" y="0px" width="110px" height="80px"
>
	<g id="%u30EC%u30A4%u30E4%u30FC%201">
		<g>
			<path d="M 105.1594 40.2957 C 105.1594 56.4462 92.4478 69.5381 76.7666 69.5381 C 61.0854 69.5381 48.3739 56.4462 48.3739 40.2957 C 48.3739 24.1448 61.0854 11.0527 76.7666 11.0527 C 92.4478 11.0527 105.1594 24.1448 105.1594 40.2957 L 105.1594 40.2957 Z" fill="#ffffff"/>
			<path d="M 105.1594 40.9064 C 105.1594 57.0564 92.4478 70.1492 76.7666 70.1492 C 61.0854 70.1492 48.374 57.0564 48.374 40.9064 C 48.374 24.7559 61.0854 11.663 76.7666 11.663 C 92.4478 11.663 105.1594 24.7559 105.1594 40.9064 L 105.1594 40.9064 ZM 76.7666 14.4304 C 62.5693 14.4304 51.0601 26.2847 51.0601 40.9064 C 51.0601 55.5288 62.5693 67.3831 76.7666 67.3831 C 90.9644 67.3831 102.4736 55.5288 102.4736 40.9064 C 102.4736 26.2847 90.9644 14.4304 76.7666 14.4304 L 76.7666 14.4304 Z" fill="#003f97"/>
			<path d="M 80.1797 51.4531 L 80.1797 56.9224 L 57.9299 56.9224 L 69.3402 41.5098 C 70.9199 39.3848 72.0208 37.7124 72.6426 36.4924 C 73.2644 35.272 73.5754 34.1951 73.5754 33.2603 C 73.5754 31.9648 73.1985 30.9484 72.4448 30.2097 C 71.6914 29.4719 70.6565 29.1021 69.3402 29.1021 C 68.1116 29.1021 67.1311 29.5657 66.3999 30.4927 C 65.668 31.4189 65.3027 32.666 65.3027 34.2325 L 65.3027 34.3901 L 58.8298 34.3901 L 58.8298 33.8262 C 58.8298 30.5415 59.7437 27.9983 61.5725 26.1986 C 63.4009 24.3979 65.99 23.4978 69.3402 23.4978 C 72.7632 23.4978 75.4255 24.3037 77.3271 25.9158 C 79.2285 27.5286 80.1797 29.78 80.1797 32.6729 C 80.1797 35.9274 77.7075 40.7334 72.7632 47.0917 L 72.3021 47.6563 L 69.3402 51.4531 L 80.1797 51.4531 Z" fill="#003f97"/>
			<path d="M 87.7571 56.9221 L 87.7571 29.7128 L 81.3276 29.7128 L 84.0267 24.1526 L 94.2295 24.1526 L 94.2295 56.9221 L 87.7571 56.9221 Z" fill="#003f97"/>
			<path d="M 59.8047 40.2959 C 59.8047 56.446 47.0929 69.5386 31.4124 69.5386 C 15.7313 69.5386 3.0193 56.446 3.0193 40.2959 C 3.0193 24.1449 15.7313 11.0529 31.4124 11.0529 C 47.0929 11.0529 59.8047 24.1449 59.8047 40.2959 L 59.8047 40.2959 Z" fill="#ffffff"/>
			<path d="M 59.8047 40.2959 C 59.8047 56.446 47.0929 69.5386 31.4124 69.5386 C 15.7313 69.5386 3.0193 56.446 3.0193 40.2959 C 3.0193 24.1449 15.7313 11.0529 31.4124 11.0529 C 47.0929 11.0529 59.8047 24.1449 59.8047 40.2959 L 59.8047 40.2959 Z" fill="#003f97"/>
			<path d="M 18.0428 41.9624 L 10.9951 41.9624 L 10.9951 30.073 L 29.2356 30.073 L 29.2356 41.9624 L 21.9768 41.9624 L 21.9768 43.4817 L 31.2029 43.4817 L 31.2029 47.2427 L 21.9768 47.2427 L 21.9768 52.3086 L 18.0428 52.3086 L 18.0428 47.2427 L 9.0046 47.2427 L 9.0046 43.4817 L 18.0428 43.4817 L 18.0428 41.9624 ZM 14.8362 34.7269 L 25.3015 34.7269 L 25.3015 33.4966 L 14.8362 33.4966 L 14.8362 34.7269 ZM 14.8362 38.8767 L 25.3015 38.8767 L 25.3015 37.5981 L 14.8362 37.5981 L 14.8362 38.8767 Z" fill="#ffffff"/>
			<path d="M 33.7505 36.7839 L 32.4624 36.7839 L 32.4624 31.4801 L 36.8881 31.4801 L 36.8881 30.0081 L 40.7747 30.0081 L 40.7747 31.4801 L 45.2715 31.4801 L 45.2715 36.7839 L 44.1694 36.7839 L 44.1694 37.75 L 40.5172 37.75 L 40.5172 38.5212 L 44.7542 38.5212 L 44.7542 41.0054 L 40.5172 41.0054 L 40.5172 41.7537 L 45.8555 41.7537 L 45.8555 31.1428 L 48.8997 31.1428 L 48.8997 47.1071 L 45.8555 47.1071 L 45.8555 44.5743 L 32.0405 44.5743 L 32.0405 41.7537 L 37.1224 41.7537 L 37.1224 41.0054 L 33.2124 41.0054 L 33.2124 38.5212 L 37.1224 38.5212 L 37.1224 37.75 L 33.7505 37.75 L 33.7505 36.7839 ZM 33.1653 45.2988 L 44.5452 45.2988 L 44.5452 51.8818 L 36.9106 51.8818 L 36.9106 52.8713 L 33.1653 52.8713 L 33.1653 45.2988 ZM 37.1224 34.3738 L 35.7645 34.3738 L 35.7645 35.4821 L 37.1224 35.4821 L 37.1224 34.3738 ZM 36.9106 49.1807 L 40.7979 49.1807 L 40.7979 47.8535 L 36.9106 47.8535 L 36.9106 49.1807 ZM 40.5172 35.4821 L 42.062 35.4821 L 42.062 34.3738 L 40.5172 34.3738 L 40.5172 35.4821 ZM 49.929 30.0081 L 53.5125 30.0081 L 53.5125 49.4948 C 53.5125 52.4612 52.4116 52.8713 50.5391 52.8713 L 47.0969 52.8713 L 46.2773 48.7227 L 49.228 48.7227 C 49.8359 48.7227 49.929 48.53 49.929 47.9521 L 49.929 30.0081 Z" fill="#ffffff"/>
		</g>
	</g>
</svg>