<?xml version="1.0" standalone="no"?>
<!-- Generator: Adobe Fireworks 10, Export SVG Extension by Aaron Beall (http://fireworks.abeall.com) . Version: 0.6.1  -->
<!DOCTYPE svg PUBLIC "-//W3C//DTD SVG 1.1//EN" "http://www.w3.org/Graphics/SVG/1.1/DTD/svg11.dtd">
<svg id="Untitled-%u30DA%u30FC%u30B8%201" viewBox="0 0 110 80" style="background-color:#ffffff00" version="1.1"
	xmlns="http://www.w3.org/2000/svg" xmlns:xlink="http://www.w3.org/1999/xlink" xml:space="preserve"
	x="0px" y="0px" width="110px" height="80px"
>
	<g id="%u30EC%u30A4%u30E4%u30FC%201">
		<rect x="5" y="15" width="100" height="50" fill="#003f97" rx="5" ry="5"/>
		<g>
			<path d="M 19.303 31.4353 L 17.1439 38.2217 C 18.7964 41.031 19.1925 42.5337 19.1925 44.0083 C 19.1925 47.2065 17.7397 47.2065 16.8582 47.2065 L 15.3591 47.2065 L 14.9846 45.6625 C 15.2058 45.7322 15.4482 45.7986 15.866 45.7986 C 16.3301 45.7986 16.7908 45.7986 16.7908 43.7327 C 16.7908 41.2617 15.866 39.3574 15.2946 38.2437 L 16.594 31.5934 L 14.8093 31.5934 L 14.8093 50.9052 L 12.2107 50.9052 L 12.2107 30.3245 L 19.303 30.3245 L 19.303 31.4353 ZM 32.2559 35.8835 L 32.2559 37.155 L 18.7749 37.155 L 18.7749 35.8835 L 21.7479 35.8835 C 21.5483 34.9091 21.3517 34.251 21.066 33.3208 L 21.9017 32.8652 L 19.6561 32.8652 L 19.6561 31.6187 L 24.1497 31.6187 L 24.1497 30.7584 C 24.1497 30.3468 24.1497 30.2109 24.0397 29.6667 L 26.9695 29.689 C 27.1233 29.689 27.3875 29.7141 27.3875 29.9863 C 27.3875 30.1666 27.2554 30.2582 27.0807 30.3689 L 27.0807 31.6187 L 31.6172 31.6187 L 31.6172 32.8652 L 28.5117 32.8652 L 30.6462 33.6624 C 30.8245 33.7288 30.4929 34.0228 30.4711 34.0228 C 30.1426 34.3203 28.6868 35.6334 28.3582 35.8835 L 32.2559 35.8835 ZM 27.0807 46.21 L 32.2559 46.21 L 32.2559 47.4568 L 27.0807 47.4568 L 27.0807 50.9052 L 24.1497 50.9052 L 24.1497 47.4568 L 18.8638 47.4568 L 18.8638 46.21 L 24.1497 46.21 L 24.1497 44.6884 L 20.1172 44.6884 L 20.1172 38.3132 L 31.0673 38.3132 L 31.0673 44.6884 L 27.0807 44.6884 L 27.0807 46.21 ZM 27.9373 35.8835 L 26.7056 35.3396 C 27.1233 34.2954 27.3875 33.343 27.4763 32.8652 L 22.4086 32.8652 C 23.4406 33.7065 24.1497 34.2954 24.8748 35.0894 L 23.0688 35.8835 L 27.9373 35.8835 ZM 28.2258 39.5598 L 23.0259 39.5598 L 23.0259 40.8064 L 28.2258 40.8064 L 28.2258 39.5598 ZM 23.0259 43.4165 L 28.2258 43.4165 L 28.2258 42.0781 L 23.0259 42.0781 L 23.0259 43.4165 Z" fill="#ffffff"/>
			<path d="M 37.5083 36.8389 L 37.5083 35.5669 L 42.4872 35.5669 L 42.4872 34.9977 C 42.4872 34.6812 42.4473 34.2068 42.3979 33.6624 L 45.2854 33.6814 C 45.4573 33.6814 45.614 33.7288 45.614 33.9093 C 45.614 34.0228 45.5713 34.1814 45.5281 34.3203 L 45.5281 35.5669 L 50.4824 35.5669 L 50.4824 36.8389 L 45.5281 36.8389 L 45.5281 38.3132 L 51.4963 38.3132 L 51.4963 39.5819 L 45.5281 39.5819 L 45.5281 41.3031 L 54.2513 41.3031 L 54.2513 42.5781 L 33.7854 42.5781 L 33.7854 41.3031 L 42.4872 41.3031 L 42.4872 39.5819 L 36.4945 39.5819 L 36.4945 38.3132 L 42.4872 38.3132 L 42.4872 36.8389 L 37.5083 36.8389 ZM 53.7664 31.9351 L 53.7664 36.5415 L 50.8328 36.5415 L 50.8328 33.2039 L 37.1797 33.2039 L 37.1797 36.5415 L 34.2278 36.5415 L 34.2278 31.9351 L 42.5304 31.9351 L 42.5304 30.9829 C 42.5304 30.5969 42.5088 30.2109 42.4656 29.6667 L 45.4176 29.689 C 45.614 29.689 45.614 29.8722 45.614 29.9167 C 45.614 29.9863 45.5494 30.3025 45.5494 30.3468 L 45.5494 31.9351 L 53.7664 31.9351 ZM 39.5356 49.9493 L 39.5356 50.8608 L 36.4734 50.8608 L 36.4734 43.7582 L 51.5853 43.7582 L 51.5853 50.8608 L 48.5229 50.8608 L 48.5229 49.9493 L 39.5356 49.9493 ZM 48.5229 45.0269 L 39.5356 45.0269 L 39.5356 48.7031 L 48.5229 48.7031 L 48.5229 45.0269 Z" fill="#ffffff"/>
			<path d="M 75.0551 31.9794 C 75.144 32.0269 75.0796 32.3463 74.8369 32.5046 C 74.7266 32.6184 74.6592 32.6851 74.4625 32.9568 C 73.0737 34.8175 71.7072 36.0859 71.0466 36.6775 L 76.2468 36.6775 L 76.2468 37.9497 L 69.5046 37.9497 C 68.095 39.0377 66.7527 39.8318 65.475 40.4932 L 73.6699 40.4932 L 73.6699 50.9052 L 70.6077 50.9052 L 70.6077 49.9971 L 63.0054 49.9971 L 63.0054 50.9052 L 59.9893 50.9052 L 59.9893 42.6665 C 58.3799 43.1221 57.3905 43.2805 56.5305 43.4385 L 55.6057 42.1035 C 59.2825 41.5117 62.7871 40.1481 65.8037 37.9497 L 55.781 37.9497 L 55.781 36.6775 L 62.8734 36.6775 L 62.8734 33.4788 L 57.6975 33.4788 L 57.6975 32.2322 L 62.8734 32.2322 L 62.8734 31.1411 C 62.8734 30.847 62.8734 30.1191 62.809 29.6005 L 65.8713 29.6445 C 65.9141 29.6445 66.0249 29.8469 66.0249 29.9863 C 66.0249 30.1447 65.9817 30.2582 65.9358 30.3911 L 65.9358 32.2322 L 69.6798 32.2322 L 69.6798 33.4788 L 65.9358 33.4788 L 65.9358 36.6775 L 67.4131 36.6775 C 69.1514 35.1809 71.3999 32.7769 72.1277 30.3689 L 75.0551 31.9794 ZM 70.6077 41.7617 L 63.0054 41.7617 L 63.0054 44.5742 L 70.6077 44.5742 L 70.6077 41.7617 ZM 70.6077 45.843 L 63.0054 45.843 L 63.0054 48.7474 L 70.6077 48.7474 L 70.6077 45.843 Z" fill="#ffffff"/>
			<path d="M 89.1199 35.8391 L 89.1199 37.1111 L 85.7074 37.1111 L 85.7074 38.5156 L 89.5623 38.5156 L 89.5623 39.7651 L 85.7074 39.7651 L 85.7074 41.2839 L 90.7937 41.2839 L 90.7937 42.5337 L 77.7764 42.5337 L 77.7764 41.2839 L 82.9521 41.2839 L 82.9521 39.7651 L 79.0759 39.7651 L 79.0759 38.5156 L 82.9521 38.5156 L 82.9521 37.1111 L 79.5581 37.1111 L 79.5581 35.8391 L 82.9521 35.8391 L 82.9521 35.2031 C 82.9521 35.0894 82.8877 34.3396 82.8416 34.0009 L 85.5967 34.0228 C 85.6399 34.0674 85.7719 34.1371 85.7719 34.2954 C 85.7719 34.387 85.729 34.545 85.7074 34.6401 L 85.7074 35.8391 L 89.1199 35.8391 ZM 90.4434 32.0046 L 90.4434 35.3396 L 87.7778 35.3396 L 87.7778 33.2764 L 80.9034 33.2764 L 80.9034 35.3396 L 78.2374 35.3396 L 78.2374 32.0046 L 82.9092 32.0046 L 82.9092 30.8689 C 82.9092 30.6887 82.8416 29.8722 82.8416 29.689 L 85.7074 29.7141 C 85.7935 29.7141 85.9043 29.8722 85.9043 30.0054 C 85.9043 30.1447 85.8606 30.2329 85.818 30.3245 L 85.818 32.0046 L 90.4434 32.0046 ZM 82.1599 50.9271 L 79.2753 50.9271 L 79.2753 43.9639 L 89.4302 43.9639 L 89.4302 50.0225 L 82.1599 50.0225 L 82.1599 50.9271 ZM 86.5642 45.2102 L 82.1599 45.2102 L 82.1599 48.7474 L 86.5642 48.7474 L 86.5642 45.2102 ZM 93.5061 31.0049 C 93.5919 31.0747 93.6382 31.1411 93.6382 31.2549 C 93.6382 31.394 93.5919 31.4827 93.5061 31.6187 L 93.5061 46.0265 L 91.3252 46.0265 L 91.3252 32.4351 C 91.3252 32.2512 91.2791 31.4161 91.2573 30.9829 L 93.5061 31.0049 ZM 97.5791 29.7141 C 97.6433 29.7141 97.7571 29.8279 97.7571 29.9863 C 97.7571 30.1447 97.7107 30.3245 97.6897 30.4387 L 97.6897 48.3169 C 97.6897 50.4335 97.0505 50.7909 95.3552 50.7909 L 92.3606 50.7909 L 91.9177 49.3612 C 92.4463 49.4528 93.3495 49.5444 94.1453 49.5444 C 94.6948 49.5444 94.8699 49.3865 94.8699 48.431 L 94.8699 31.0303 C 94.8699 30.7773 94.8269 30.2329 94.8052 29.689 L 97.5791 29.7141 Z" fill="#ffffff"/>
		</g>
	</g>
</svg>