<?xml version="1.0" standalone="no"?>
<!-- Generator: Adobe Fireworks 10, Export SVG Extension by Aaron Beall (http://fireworks.abeall.com) . Version: 0.6.1  -->
<!DOCTYPE svg PUBLIC "-//W3C//DTD SVG 1.1//EN" "http://www.w3.org/Graphics/SVG/1.1/DTD/svg11.dtd">
<svg id="Untitled-%u30DA%u30FC%u30B8%201" viewBox="0 0 110 80" style="background-color:#ffffff00" version="1.1"
	xmlns="http://www.w3.org/2000/svg" xmlns:xlink="http://www.w3.org/1999/xlink" xml:space="preserve"
	x="0px" y="0px" width="110px" height="80px"
>
	<g id="%u30EC%u30A4%u30E4%u30FC%201">
		<rect x="5" y="15" width="100" height="50" fill="#003f97" rx="5" ry="5"/>
		<g>
			<path d="M 31.614 48.7274 C 29.0586 49.1135 25.9529 49.2527 24.3004 49.2527 C 22.2764 49.2527 16.0197 49.2527 16.0197 45.4373 C 16.0197 43.3306 17.5618 41.8118 18.1113 41.2864 L 19.3464 42.0139 C 19.0361 42.4224 18.2004 43.5104 18.2004 44.6907 C 18.2004 46.2344 19.8561 46.7345 22.6079 46.7345 C 25.5352 46.7345 28.2876 46.4148 31.614 45.5068 L 31.614 48.7274 ZM 17.9575 31.4854 C 18.8395 31.3491 20.8665 31.0295 23.7078 31.0295 C 27.0558 31.0295 28.9509 31.4408 30.2288 31.7349 L 29.6112 34.959 C 26.2847 33.3231 21.613 32.8899 18.001 33.0037 L 17.9575 31.4854 Z" fill="#ffffff"/>
			<path d="M 49.8655 38.6321 C 48.4771 38.7239 45.8783 38.9042 42.7729 39.8376 C 40.9453 40.3816 37.573 41.4003 37.573 44.6465 C 37.573 47.959 41.363 48.2529 43.4547 48.2529 C 46.4956 48.2529 48.6337 47.709 49.5796 47.4814 L 49.5796 49.6831 C 47.5094 49.9297 44.7109 49.9551 43.6084 49.9551 C 40.3281 49.9551 34.1787 49.9297 34.1787 44.9883 C 34.1787 43.2383 34.9528 41.1062 39.5786 39.2236 C 39.0718 37.7495 39.0718 37.2495 39.0718 32.6431 C 39.0718 31.8491 39.0718 30.9156 39.0254 30.1246 L 41.8485 30.397 C 42.6194 30.4666 42.6194 30.6436 42.6194 30.7576 C 42.6194 30.8491 42.377 31.3712 42.3553 31.4854 C 42.177 32.1875 42.0667 34.864 42.0667 35.6361 C 42.0667 36.4363 42.0667 37.1577 42.3553 38.2239 C 43.3442 37.9077 48.3235 36.5 49.4261 36.1611 L 49.8655 38.6321 ZM 49.2263 31.0769 C 50.0648 32.0073 50.7255 32.9592 51.2964 34.0476 L 49.733 34.8892 C 49.5579 34.345 49.0944 32.9846 48.1268 31.599 L 49.2263 31.0769 ZM 51.9354 33.801 C 51.7356 33.2571 51.2319 32.0293 50.3721 30.9156 L 51.4749 30.3271 C 52.2885 31.1436 52.9277 31.985 53.5234 32.9373 L 51.9354 33.801 Z" fill="#ffffff"/>
			<path d="M 61.6664 30.6436 C 62.2556 30.7384 62.4802 30.827 62.4802 31.0548 C 62.4802 31.1436 62.2556 31.5073 62.2158 31.599 C 62.1057 31.8269 61.7737 34.1868 61.7092 34.6868 C 62.8333 34.6393 65.0569 34.5476 67.235 34.3199 L 67.235 35.9553 C 65.9387 35.9998 63.6689 36.0696 61.5095 36.1357 C 61.2454 38.2019 61.1594 38.8375 61.027 40.1096 C 62.6799 40.062 64.6825 39.9705 66.7311 39.7427 L 66.7311 41.4003 C 64.8145 41.4448 62.8119 41.4919 60.8706 41.5586 C 60.7845 42.5806 60.6311 44.1245 60.6311 44.9883 C 60.6311 47.2341 61.5095 48.5693 64.8606 48.5693 C 66.3562 48.5693 69.5081 48.2754 69.5081 44.7603 C 69.5081 43.4188 69.1978 42.1282 68.5586 40.584 L 69.8152 39.9956 C 70.4541 40.9734 71.9958 43.3525 71.9958 45.5068 C 71.9958 48.1832 69.8826 50.1387 64.7717 50.1387 C 58.4929 50.1387 57.5011 47.709 57.5011 45.0071 C 57.5011 44.1465 57.6329 42.7607 57.7437 41.6724 C 56.6655 41.7168 55.6949 41.7419 54.1531 41.856 L 54.1531 40.1758 C 55.2991 40.2423 56.8192 40.2203 57.876 40.1984 C 58.0078 38.9739 58.0508 38.5879 58.2936 36.2498 C 57.7222 36.2498 56.1128 36.3195 54.6814 36.3857 L 54.6814 34.7535 C 55.2313 34.7754 55.9807 34.8196 58.4503 34.7754 C 58.8005 31.4854 58.8464 31.1245 58.8896 30.2609 L 61.6664 30.6436 Z" fill="#ffffff"/>
			<path d="M 85.2437 35.6833 L 85.2437 36.9523 L 81.8308 36.9523 L 81.8308 38.36 L 85.6855 38.36 L 85.6855 39.613 L 81.8308 39.613 L 81.8308 41.1284 L 86.9177 41.1284 L 86.9177 42.3745 L 73.9004 42.3745 L 73.9004 41.1284 L 79.0759 41.1284 L 79.0759 39.613 L 75.1993 39.613 L 75.1993 38.36 L 79.0759 38.36 L 79.0759 36.9523 L 75.6848 36.9523 L 75.6848 35.6833 L 79.0759 35.6833 L 79.0759 35.0476 C 79.0759 34.9337 79.0112 34.1868 78.9648 33.8453 L 81.7202 33.8673 C 81.7634 33.915 81.8958 33.9814 81.8958 34.1398 C 81.8958 34.2313 81.8523 34.3894 81.8308 34.4812 L 81.8308 35.6833 L 85.2437 35.6833 ZM 86.5674 31.8491 L 86.5674 35.1836 L 83.9012 35.1836 L 83.9012 33.1174 L 77.0269 33.1174 L 77.0269 35.1836 L 74.3607 35.1836 L 74.3607 31.8491 L 79.0328 31.8491 L 79.0328 30.7134 C 79.0328 30.533 78.9648 29.7134 78.9648 29.5332 L 81.8308 29.5552 C 81.917 29.5552 82.0276 29.7134 82.0276 29.8525 C 82.0276 29.9855 81.9849 30.0807 81.9414 30.1693 L 81.9414 31.8491 L 86.5674 31.8491 ZM 78.2834 50.7715 L 75.3992 50.7715 L 75.3992 43.8048 L 85.554 43.8048 L 85.554 49.8634 L 78.2834 49.8634 L 78.2834 50.7715 ZM 82.688 45.0544 L 78.2834 45.0544 L 78.2834 48.5945 L 82.688 48.5945 L 82.688 45.0544 ZM 89.6299 30.8491 C 89.7156 30.9156 89.7617 30.9854 89.7617 31.1023 C 89.7617 31.2354 89.7156 31.3269 89.6299 31.4629 L 89.6299 45.8708 L 87.4487 45.8708 L 87.4487 32.2791 C 87.4487 32.0991 87.403 31.2573 87.3813 30.827 L 89.6299 30.8491 ZM 93.7025 29.5552 C 93.77 29.5552 93.8806 29.6691 93.8806 29.8273 C 93.8806 29.9855 93.835 30.1693 93.8132 30.2828 L 93.8132 48.1648 C 93.8132 50.2749 93.1743 50.6354 91.4785 50.6354 L 88.4839 50.6354 L 88.0417 49.2086 C 88.5701 49.2969 89.4734 49.3857 90.2686 49.3857 C 90.8184 49.3857 90.9933 49.2275 90.9933 48.2754 L 90.9933 30.8711 C 90.9933 30.6248 90.9504 30.0807 90.9288 29.5332 L 93.7025 29.5552 Z" fill="#ffffff"/>
		</g>
	</g>
</svg>