<?xml version="1.0" standalone="no"?>
<!-- Generator: Adobe Fireworks 10, Export SVG Extension by Aaron Beall (http://fireworks.abeall.com) . Version: 0.6.1  -->
<!DOCTYPE svg PUBLIC "-//W3C//DTD SVG 1.1//EN" "http://www.w3.org/Graphics/SVG/1.1/DTD/svg11.dtd">
<svg id="Untitled-%u30DA%u30FC%u30B8%201" viewBox="0 0 110 80" style="background-color:#ffffff00" version="1.1"
	xmlns="http://www.w3.org/2000/svg" xmlns:xlink="http://www.w3.org/1999/xlink" xml:space="preserve"
	x="0px" y="0px" width="110px" height="80px"
>
	<g id="%u30EC%u30A4%u30E4%u30FC%201">
		<rect x="5" y="15" width="100" height="50" fill="#003f97" rx="5" ry="5"/>
		<g>
			<path d="M 54.4858 43.0679 L 54.4858 44.3365 L 45.7427 44.3365 L 45.7427 48.0792 C 45.7427 49.9646 44.9718 50.4838 43.1626 50.4838 L 39.3108 50.4838 L 38.936 49.0347 C 39.839 49.1487 40.4995 49.2371 41.3794 49.2371 C 42.3929 49.2371 42.6127 49.1011 42.6127 48.0571 L 42.6127 44.3365 L 33.9753 44.3365 L 33.9753 43.0679 L 42.6127 43.0679 L 42.6127 40.5938 L 44.8396 40.774 C 45.1036 40.5239 46.1158 39.5244 46.6458 38.7085 L 37.8102 38.7085 L 37.8102 37.4614 L 50.6555 37.4614 L 50.6555 39.0499 C 48.825 40.3661 48.1644 40.774 45.7427 42.1377 L 45.7427 43.0679 L 54.4858 43.0679 ZM 42.7449 33.8994 C 42.3699 32.4692 41.9077 31.0835 41.2258 29.7925 L 42.3699 29.0901 C 43.3835 29.8813 45.0377 31.4028 45.9175 32.6273 L 43.6908 33.8994 L 48.7145 33.8994 L 47.4382 33.2634 C 48.4948 31.3367 48.8679 29.9509 49 29.1348 L 52.4169 30.5205 C 52.4601 30.5392 52.4832 30.5872 52.4832 30.6313 C 52.4832 30.745 52.351 30.998 52.021 31.1089 C 51.9316 31.1975 49.8848 33.241 48.8679 33.8994 L 53.9791 33.8994 L 53.9791 38.278 L 50.9597 38.278 L 50.9597 35.1458 L 37.4143 35.1458 L 37.4143 38.3223 L 34.4407 38.3223 L 34.4407 33.8994 L 37.6337 33.8994 C 37.5677 33.7412 36.5769 31.3809 35.6956 30.1343 L 36.7537 29.3848 C 38.2065 30.0649 39.9481 31.6973 40.7637 32.6273 L 38.936 33.8994 L 42.7449 33.8994 Z" fill="#ffffff"/>
			<path d="M 67.2975 35.4655 L 67.2975 36.7339 L 63.8818 36.7339 L 63.8818 38.1417 L 67.738 38.1417 L 67.738 39.3945 L 63.8818 39.3945 L 63.8818 40.9102 L 68.97 40.9102 L 68.97 42.1569 L 55.9524 42.1569 L 55.9524 40.9102 L 61.1265 40.9102 L 61.1265 39.3945 L 57.2517 39.3945 L 57.2517 38.1417 L 61.1265 38.1417 L 61.1265 36.7339 L 57.7356 36.7339 L 57.7356 35.4655 L 61.1265 35.4655 L 61.1265 34.8296 C 61.1265 34.7155 61.0605 33.969 61.0159 33.6271 L 63.7712 33.6494 C 63.8157 33.6968 63.9478 33.7634 63.9478 33.9214 C 63.9478 34.0131 63.9033 34.1713 63.8818 34.2632 L 63.8818 35.4655 L 67.2975 35.4655 ZM 68.615 31.6309 L 68.615 34.9653 L 65.9504 34.9653 L 65.9504 32.8998 L 59.0779 32.8998 L 59.0779 34.9653 L 56.4148 34.9653 L 56.4148 31.6309 L 61.082 31.6309 L 61.082 30.4951 C 61.082 30.3145 61.0159 29.4955 61.0159 29.3149 L 63.8818 29.3372 C 63.9692 29.3372 64.08 29.4955 64.08 29.6346 C 64.08 29.7676 64.0353 29.8623 63.9906 29.9509 L 63.9906 31.6309 L 68.615 31.6309 ZM 60.3342 50.5532 L 57.45 50.5532 L 57.45 43.5867 L 67.606 43.5867 L 67.606 49.6453 L 60.3342 49.6453 L 60.3342 50.5532 ZM 64.7402 44.8367 L 60.3342 44.8367 L 60.3342 48.3767 L 64.7402 48.3767 L 64.7402 44.8367 ZM 71.6788 30.6313 C 71.7666 30.6974 71.811 30.7671 71.811 30.8812 C 71.811 31.0168 71.7666 31.1089 71.6788 31.2449 L 71.6788 45.6526 L 69.498 45.6526 L 69.498 32.061 C 69.498 31.8806 69.4551 31.0393 69.4321 30.6091 L 71.6788 30.6313 ZM 75.7549 29.3372 C 75.821 29.3372 75.9316 29.4509 75.9316 29.6091 C 75.9316 29.7676 75.887 29.9509 75.8654 30.0649 L 75.8654 47.9463 C 75.8654 50.0566 75.2267 50.4171 73.5281 50.4171 L 70.5333 50.4171 L 70.094 48.9905 C 70.6223 49.0791 71.5239 49.1677 72.3179 49.1677 C 72.8706 49.1677 73.0442 49.0094 73.0442 48.0571 L 73.0442 30.6534 C 73.0442 30.4066 73.0027 29.8623 72.9781 29.3149 L 75.7549 29.3372 Z" fill="#ffffff"/>
		</g>
	</g>
</svg>