<?xml version="1.0" standalone="no"?>
<!-- Generator: Adobe Fireworks 10, Export SVG Extension by Aaron Beall (http://fireworks.abeall.com) . Version: 0.6.1  -->
<!DOCTYPE svg PUBLIC "-//W3C//DTD SVG 1.1//EN" "http://www.w3.org/Graphics/SVG/1.1/DTD/svg11.dtd">
<svg id="Untitled-%u30DA%u30FC%u30B8%201" viewBox="0 0 42 42" style="background-color:#ffffff00" version="1.1"
	xmlns="http://www.w3.org/2000/svg" xmlns:xlink="http://www.w3.org/1999/xlink" xml:space="preserve"
	x="0px" y="0px" width="42px" height="42px"
>
	<g id="%u30EC%u30A4%u30E4%u30FC%201">
		<path id="%u6955%u5186%u5F62" d="M 8 21 C 8 13.8202 13.8202 8 21 8 C 28.1798 8 34 13.8202 34 21 C 34 28.1798 28.1798 34 21 34 C 13.8202 34 8 28.1798 8 21 Z" fill="#ffffff"/>
		<path d="M 21 0 C 9.4019 0 0 9.4019 0 21 C 0 32.5981 9.4019 42 21 42 C 32.5981 42 42 32.5981 42 21 C 42 9.4019 32.5981 0 21 0 ZM 30.7147 23.9004 C 29.7476 24.8203 28.2167 24.7822 27.2979 23.8159 L 23.4174 19.7363 L 23.4174 29.3994 C 23.4174 30.7354 22.3357 31.8164 21 31.8164 C 19.6644 31.8164 18.5834 30.7349 18.5834 29.3994 L 18.5834 19.7363 L 14.7021 23.8159 C 13.7838 24.7822 12.2523 24.8203 11.286 23.9004 C 10.3181 22.98 10.2797 21.4507 11.2013 20.4834 L 20.7216 10.4761 C 20.7942 10.3999 20.8948 10.3569 21 10.3569 C 21.1051 10.3569 21.2057 10.3999 21.2787 10.4761 L 30.7994 20.4834 C 31.7203 21.4507 31.6826 22.9805 30.7147 23.9004 Z" fill="#003f97"/>
	</g>
</svg>