<?xml version="1.0" standalone="no"?>
<!-- Generator: Adobe Fireworks 10, Export SVG Extension by Aaron Beall (http://fireworks.abeall.com) . Version: 0.6.1  -->
<!DOCTYPE svg PUBLIC "-//W3C//DTD SVG 1.1//EN" "http://www.w3.org/Graphics/SVG/1.1/DTD/svg11.dtd">
<svg id="Untitled-%u30DA%u30FC%u30B8%201" viewBox="0 0 172 64" style="background-color:#ffffff00" version="1.1"
	xmlns="http://www.w3.org/2000/svg" xmlns:xlink="http://www.w3.org/1999/xlink" xml:space="preserve"
	x="0px" y="0px" width="172px" height="64px"
>
	<g id="%u30EC%u30A4%u30E4%u30FC%201">
		<g>
			<g>
				<path d="M 71.2676 44.3379 L 71.2676 47.0203 L 69.0928 47.0203 C 66.5105 47.0203 66.0566 48.9045 66.0566 50.9053 C 66.0566 52.9065 66.167 55.2622 68.787 55.2622 L 71.3021 55.2622 L 71.3021 57.9014 L 68.2722 57.9014 C 64.3478 57.9014 62.8116 54.791 62.8116 51.0801 C 62.8116 46.3716 65.2197 44.3379 68.7766 44.3379 L 71.2676 44.3379 Z" fill="#007ac6"/>
				<path d="M 72.2942 57.9353 L 75.1494 57.9353 L 75.1494 44.4092 L 72.2942 44.4092 L 72.2942 57.9353 Z" fill="#007ac6"/>
				<path d="M 107.5439 57.9255 L 110.3992 57.9255 L 110.3992 44.4063 L 107.5439 44.4063 L 107.5439 57.9255 Z" fill="#007ac6"/>
				<path d="M 79.2415 48.0461 L 76.734 48.0461 L 76.734 50.4153 L 78.9675 50.4153 C 79.7351 50.4153 79.915 50.8083 79.915 51.4519 L 78.8599 51.4519 C 76.6382 51.4519 75.9246 53.0894 75.9246 54.7344 C 75.9246 56.3794 76.6267 57.9041 78.5898 57.9041 L 82.7219 57.9041 L 82.7219 51.1633 C 82.681 49.4551 81.6506 48.0461 79.2415 48.0461 L 79.2415 48.0461 ZM 79.9246 55.7739 L 79.3673 55.7739 C 78.8342 55.7739 78.5847 55.2686 78.5847 54.6328 C 78.5847 53.9941 78.7648 53.5039 79.3456 53.5039 L 79.9246 53.5039 L 79.9246 55.7739 Z" fill="#007ac6"/>
				<path d="M 89.1542 48.0474 L 86.5798 48.0474 C 85.1536 48.0474 83.6814 49.0117 83.6814 50.6921 C 83.6814 51.2246 83.8289 51.9612 84.4966 52.6514 L 86.3082 54.5537 C 86.6033 54.8591 86.4558 55.5469 85.8557 55.5469 L 83.6724 55.5469 L 83.6724 57.9211 L 86.3542 57.9211 C 87.7798 57.9211 89.4094 56.9092 89.4094 55.0278 C 89.4094 54.209 89.0264 53.6013 88.5566 53.0645 L 86.8745 51.292 C 86.4238 50.7993 86.6792 50.354 87.1772 50.354 L 89.1542 50.354 L 89.1542 48.0474 Z" fill="#007ac6"/>
				<path d="M 95.4723 48.0474 L 92.8982 48.0474 C 91.4736 48.0474 90.0001 49.0117 90.0001 50.6921 C 90.0001 51.2246 90.1476 51.9612 90.8152 52.6514 L 92.6277 54.5537 C 92.922 54.8591 92.7744 55.5469 92.1738 55.5469 L 89.9897 55.5469 L 89.9897 57.9211 L 92.6724 57.9211 C 94.1003 57.9211 95.7307 56.9092 95.7307 55.0278 C 95.7307 54.209 95.3439 53.6013 94.8748 53.0645 L 93.1932 51.292 C 92.7439 50.7993 92.9991 50.354 93.4963 50.354 L 95.4723 50.354 L 95.4723 48.0474 Z" fill="#007ac6"/>
				<path d="M 96.6576 44.4028 L 96.6576 57.8982 L 99.5348 57.8982 L 99.5348 53.0208 C 99.5348 51.9238 99.1257 48.8242 99.1257 48.8242 L 102.0142 56.4331 C 102.4132 57.2551 102.8295 57.9465 104.3225 57.9465 L 106.0776 57.9465 L 106.0776 44.4297 L 103.1997 44.4297 L 103.1997 49.7134 C 103.1997 50.7942 103.5757 53.4097 103.5757 53.4097 L 100.7223 45.9707 C 100.1458 44.5779 99.3994 44.4028 98.4976 44.4028 L 96.6576 44.4028 Z" fill="#007ac6"/>
				<path d="M 117.5538 44.4248 L 115.7379 44.4248 C 114.5161 44.4248 114.0142 45.0247 113.6095 45.6379 L 110.8459 50.4534 L 114.3464 56.5676 C 114.9551 57.4812 115.4351 57.9373 116.3928 57.9373 L 118.4841 57.9373 L 113.8694 50.4202 L 117.5538 44.4248 Z" fill="#007ac6"/>
			</g>
			<g>
				<path d="M 64.4993 27.2373 L 64.4993 8.3252 L 68.1138 8.3252 L 68.1138 27.2373 L 64.4993 27.2373 Z" fill="#221714"/>
				<path d="M 79.7814 13.5903 C 79.1793 11.8091 78.3936 11.0493 77.1359 11.0493 C 75.8528 11.0493 75.1455 11.8352 75.1455 13.1191 C 75.1455 15.9736 83.2131 16.1831 83.2131 22.1035 C 83.2131 25.3516 80.9866 27.499 77.1882 27.499 C 74.2549 27.499 71.9758 25.9009 71.007 22.1812 L 74.5691 21.4216 C 74.9884 23.7004 76.2976 24.5127 77.3721 24.5127 C 78.629 24.5127 79.5981 23.6748 79.5981 22.2603 C 79.5981 18.6982 71.531 18.6458 71.531 13.3545 C 71.531 10.1064 73.4692 8.063 77.2145 8.063 C 80.4363 8.063 82.4011 9.9756 83.0293 12.6472 L 79.7814 13.5903 Z" fill="#221714"/>
				<path d="M 86.2097 14.4021 C 86.2097 9.7393 88.672 8.063 92.1816 8.063 C 95.6914 8.063 98.1538 9.7393 98.1538 14.4021 L 98.1538 21.1599 C 98.1538 25.8223 95.6914 27.499 92.1816 27.499 C 88.672 27.499 86.2097 25.8223 86.2097 21.1599 L 86.2097 14.4021 ZM 89.8242 21.6316 C 89.8242 23.7275 90.741 24.303 92.1816 24.303 C 93.6221 24.303 94.5386 23.7275 94.5386 21.6316 L 94.5386 13.9309 C 94.5386 11.8352 93.6221 11.2588 92.1816 11.2588 C 90.741 11.2588 89.8242 11.8352 89.8242 13.9309 L 89.8242 21.6316 Z" fill="#221714"/>
				<path d="M 107.5839 21.6841 C 107.5839 23.6221 108.448 24.5127 110.3867 24.5127 C 112.1676 24.5127 113.137 23.334 113.137 21.7102 C 113.137 19.5879 111.9316 18.7764 109.3126 18.7505 L 109.3126 15.7644 C 111.7485 15.7644 112.6914 15.083 112.6914 13.3284 C 112.6914 12.0186 111.8269 11.0493 110.2551 11.0493 C 108.9719 11.0493 108.0292 11.9661 107.9771 13.25 L 104.5195 13.25 C 104.5457 9.7661 107.1125 8.063 110.2814 8.063 C 113.6863 8.063 116.1489 9.844 116.1489 13.1968 C 116.1489 14.8477 115.3629 16.5498 113.8704 17.3091 C 115.887 18.0957 116.5942 19.7451 116.5942 21.8672 C 116.5942 25.613 113.8442 27.499 110.4392 27.499 C 106.1958 27.499 104.1263 25.2461 104.1263 21.6841 L 107.5839 21.6841 Z" fill="#221714"/>
				<path d="M 121.9623 22.2859 C 122.0148 23.5696 123.0616 24.5127 124.3459 24.5127 C 126.2842 24.5127 127.2263 23.6221 127.2263 20.5571 L 127.2263 18.803 C 126.0479 19.6926 124.6602 20.2693 123.1663 20.2693 C 119.866 20.2693 118.1638 17.7024 118.1638 14.6641 C 118.1638 10.7878 120.0498 8.063 124.3459 8.063 C 128.4316 8.063 130.6838 10.5784 130.6838 14.6113 L 130.6838 20.9502 C 130.6838 24.9844 128.4316 27.499 124.3459 27.499 C 121.0713 27.499 118.7664 25.6909 118.5044 22.2859 L 121.9623 22.2859 ZM 127.2263 15.0046 C 127.2263 11.9404 126.2842 11.0493 124.3459 11.0493 C 122.5382 11.0493 121.6213 12.3594 121.6213 14.5337 C 121.6213 16.6287 122.7476 17.5977 124.3459 17.5977 C 125.4451 17.5977 126.3364 16.8643 127.2263 16.052 L 127.2263 15.0046 Z" fill="#221714"/>
				<path d="M 134.2335 14.6113 C 134.2335 10.5784 136.4857 8.063 140.5725 8.063 C 144.658 8.063 146.9102 10.5784 146.9102 14.6113 L 146.9102 20.9502 C 146.9102 24.9844 144.658 27.499 140.5725 27.499 C 136.4857 27.499 134.2335 24.9844 134.2335 20.9502 L 134.2335 14.6113 ZM 137.6907 20.5571 C 137.6907 23.6221 138.6329 24.5127 140.5725 24.5127 C 142.5105 24.5127 143.4526 23.6221 143.4526 20.5571 L 143.4526 15.0046 C 143.4526 11.9404 142.5105 11.0493 140.5725 11.0493 C 138.6329 11.0493 137.6907 11.9404 137.6907 15.0046 L 137.6907 20.5571 Z" fill="#221714"/>
				<path d="M 148.4597 14.6113 C 148.4597 10.5784 150.7119 8.063 154.7988 8.063 C 158.8845 8.063 161.1367 10.5784 161.1367 14.6113 L 161.1367 20.9502 C 161.1367 24.9844 158.8845 27.499 154.7988 27.499 C 150.7119 27.499 148.4597 24.9844 148.4597 20.9502 L 148.4597 14.6113 ZM 151.9172 20.5571 C 151.9172 23.6221 152.8595 24.5127 154.7988 24.5127 C 156.7371 24.5127 157.6792 23.6221 157.6792 20.5571 L 157.6792 15.0046 C 157.6792 11.9404 156.7371 11.0493 154.7988 11.0493 C 152.8595 11.0493 151.9172 11.9404 151.9172 15.0046 L 151.9172 20.5571 Z" fill="#221714"/>
				<path d="M 168.635 12.7781 L 165.728 12.7781 L 165.728 10.709 C 168.5039 10.1592 168.9761 9.2158 169.866 8.063 L 171.9353 8.063 L 171.9353 27.2373 L 168.635 27.2373 L 168.635 12.7781 Z" fill="#221714"/>
			</g>
			<g>
				<path d="M 67.0873 37.7102 L 66.5682 37.7102 L 65.3567 35.3301 L 64.0078 35.3301 L 64.0078 37.7102 L 63.5322 37.7102 L 63.5322 32.5037 L 65.2915 32.5037 C 66.3154 32.5037 66.8926 33.0662 66.8926 33.917 C 66.8926 34.6021 66.5535 35.0559 65.8104 35.2437 L 67.0873 37.7102 ZM 64.0078 34.9409 L 65.2915 34.9409 C 65.9841 34.9409 66.4163 34.5593 66.4163 33.917 C 66.4163 33.2749 66.0417 32.8931 65.2915 32.8931 L 64.0078 32.8931 L 64.0078 34.9409 Z" fill="#221714"/>
				<path d="M 73.8521 35.8352 C 73.8521 36.8521 73.4767 37.7825 72.3086 37.7825 C 71.1403 37.7825 70.7656 36.8521 70.7656 35.8352 C 70.7656 34.8184 71.1403 33.8877 72.3086 33.8877 C 73.4767 33.8877 73.8521 34.8184 73.8521 35.8352 ZM 71.1984 35.8352 C 71.1984 36.8521 71.5366 37.4358 72.3086 37.4358 C 73.0803 37.4358 73.4192 36.8521 73.4192 35.8352 C 73.4192 34.8184 73.0803 34.2344 72.3086 34.2344 C 71.5366 34.2344 71.1984 34.8184 71.1984 35.8352 Z" fill="#221714"/>
				<path d="M 79.6357 37.7102 L 79.5776 37.2559 C 79.1307 37.6094 78.7917 37.7825 78.2148 37.7825 C 77.6307 37.7825 77.1838 37.4216 77.1838 36.8013 C 77.1838 35.7771 78.02 35.5896 79.5854 35.2437 L 79.5854 34.9844 C 79.5854 34.4863 79.3689 34.2344 78.7267 34.2344 C 78.2798 34.2344 77.9121 34.4795 77.6377 34.9121 L 77.3499 34.7393 C 77.6741 34.1328 78.1355 33.8877 78.7413 33.8877 C 79.5923 33.8877 79.9963 34.2344 79.9963 35.0637 L 79.9963 37.0254 C 79.9963 37.2124 80.0105 37.4575 80.0538 37.7102 L 79.6357 37.7102 ZM 79.5635 35.5896 C 77.8469 35.9648 77.6167 36.3186 77.6167 36.7949 C 77.6167 37.2051 77.8975 37.4358 78.287 37.4358 C 78.691 37.4358 79.1882 37.1982 79.5635 36.8159 L 79.5635 35.5896 Z" fill="#221714"/>
				<path d="M 86.8325 37.7102 L 86.5295 37.7102 L 86.4575 37.22 C 86.1836 37.6094 85.7654 37.7825 85.2534 37.7825 C 84.2798 37.7825 83.7462 37.0896 83.7462 35.8137 C 83.7462 34.71 84.3521 33.8877 85.2246 33.8877 C 85.7288 33.8877 86.0322 34.0615 86.3999 34.4509 L 86.3999 32.5037 L 86.8325 32.5037 L 86.8325 37.7102 ZM 86.3999 34.9053 C 86.2557 34.6523 85.7654 34.2344 85.3395 34.2344 C 84.5608 34.2344 84.179 34.9192 84.179 35.8926 C 84.179 36.7583 84.5251 37.4358 85.2751 37.4358 C 85.8088 37.4358 86.1184 37.1409 86.3999 36.7515 L 86.3999 34.9053 Z" fill="#221714"/>
				<path d="M 95.4941 32.5037 L 99.0569 32.5037 L 99.0569 32.8931 L 97.5135 32.8931 L 97.5135 37.7102 L 97.0376 37.7102 L 97.0376 32.8931 L 95.4941 32.8931 L 95.4941 32.5037 Z" fill="#221714"/>
				<path d="M 102.0657 37.7102 L 102.0657 33.9602 L 102.4985 33.9602 L 102.4985 34.6738 L 102.5132 34.6738 C 102.7148 34.2129 103.1182 33.8877 103.5945 33.8877 L 103.7892 33.8877 L 103.7892 34.3066 L 103.5945 34.3066 C 103.1182 34.3066 102.4985 34.8691 102.4985 35.5896 L 102.4985 37.7102 L 102.0657 37.7102 Z" fill="#221714"/>
				<path d="M 109.4285 37.7102 L 109.3704 37.2559 C 108.9236 37.6094 108.5847 37.7825 108.0076 37.7825 C 107.4236 37.7825 106.9767 37.4216 106.9767 36.8013 C 106.9767 35.7771 107.813 35.5896 109.3782 35.2437 L 109.3782 34.9844 C 109.3782 34.4863 109.1616 34.2344 108.5195 34.2344 C 108.0725 34.2344 107.7051 34.4795 107.4304 34.9121 L 107.1426 34.7393 C 107.467 34.1328 107.9285 33.8877 108.5342 33.8877 C 109.385 33.8877 109.7892 34.2344 109.7892 35.0637 L 109.7892 37.0254 C 109.7892 37.2124 109.8032 37.4575 109.8467 37.7102 L 109.4285 37.7102 ZM 109.3564 35.5896 C 107.6398 35.9648 107.4094 36.3186 107.4094 36.7949 C 107.4094 37.2051 107.6902 37.4358 108.0798 37.4358 C 108.4839 37.4358 108.981 37.1982 109.3564 36.8159 L 109.3564 35.5896 Z" fill="#221714"/>
				<path d="M 114.4038 34.3066 L 114.4038 37.7102 L 113.9719 37.7102 L 113.9719 34.3066 L 113.3513 34.3066 L 113.3513 33.9602 L 113.9719 33.9602 L 113.9719 33.4268 C 113.9719 32.7778 114.231 32.4309 114.8733 32.4309 C 115.0314 32.4309 115.1829 32.4602 115.3417 32.489 L 115.3417 32.8496 C 115.2045 32.8062 115.0752 32.7778 114.916 32.7778 C 114.5769 32.7778 114.4038 32.9434 114.4038 33.3755 L 114.4038 33.9602 L 115.1689 33.9602 L 115.1689 34.3066 L 114.4038 34.3066 Z" fill="#221714"/>
				<path d="M 119.2939 34.3066 L 119.2939 37.7102 L 118.8616 37.7102 L 118.8616 34.3066 L 118.2413 34.3066 L 118.2413 33.9602 L 118.8616 33.9602 L 118.8616 33.4268 C 118.8616 32.7778 119.1211 32.4309 119.7632 32.4309 C 119.9214 32.4309 120.0725 32.4602 120.2317 32.489 L 120.2317 32.8496 C 120.0945 32.8062 119.9648 32.7778 119.806 32.7778 C 119.467 32.7778 119.2939 32.9434 119.2939 33.3755 L 119.2939 33.9602 L 120.0588 33.9602 L 120.0588 34.3066 L 119.2939 34.3066 Z" fill="#221714"/>
				<path d="M 122.6428 33.1384 L 122.6428 32.5037 L 123.0757 32.5037 L 123.0757 33.1384 L 122.6428 33.1384 ZM 123.0757 37.7102 L 122.6428 37.7102 L 122.6428 33.9602 L 123.0757 33.9602 L 123.0757 37.7102 Z" fill="#221714"/>
				<path d="M 130.3928 35.0129 C 130.1975 34.5801 129.9167 34.2344 129.4189 34.2344 C 128.7126 34.2344 128.2363 34.6738 128.2363 35.8352 C 128.2363 36.7949 128.6694 37.4358 129.4189 37.4358 C 129.9526 37.4358 130.241 37.1409 130.5435 36.6567 L 130.8911 36.8228 C 130.573 37.3564 130.1338 37.7825 129.4189 37.7825 C 128.3667 37.7825 127.8038 36.967 127.8038 35.8352 C 127.8038 34.5439 128.4523 33.8877 129.4189 33.8877 C 130.126 33.8877 130.5654 34.2847 130.79 34.9053 L 130.3928 35.0129 Z" fill="#221714"/>
				<path d="M 138.5945 36.2534 C 138.7964 37.0466 139.2583 37.3931 140.0803 37.3931 C 140.7292 37.3931 141.1185 36.9817 141.1185 36.3545 C 141.1185 34.9551 138.2982 35.5034 138.2982 33.78 C 138.2982 33.0081 138.832 32.4309 139.7986 32.4309 C 140.6207 32.4309 141.2271 32.8784 141.4645 33.679 L 141.0535 33.8015 C 140.8657 33.2253 140.4623 32.8203 139.7986 32.8203 C 139.1932 32.8203 138.7744 33.167 138.7744 33.78 C 138.7744 34.1328 138.8755 34.3857 139.8354 34.7466 C 141.2986 35.2947 141.5947 35.6545 141.5947 36.4053 C 141.5947 37.292 140.8517 37.7825 140.0076 37.7825 C 139.0132 37.7825 138.4426 37.3428 138.1538 36.3904 L 138.5945 36.2534 Z" fill="#221714"/>
				<path d="M 147.4575 37.7102 L 147.4001 37.2559 C 146.9532 37.6094 146.6138 37.7825 146.0364 37.7825 C 145.4532 37.7825 145.0063 37.4216 145.0063 36.8013 C 145.0063 35.7771 145.8425 35.5896 147.4076 35.2437 L 147.4076 34.9844 C 147.4076 34.4863 147.1907 34.2344 146.5486 34.2344 C 146.1017 34.2344 145.7339 34.4795 145.4595 34.9121 L 145.1724 34.7393 C 145.4963 34.1328 145.9575 33.8877 146.5638 33.8877 C 147.4142 33.8877 147.8176 34.2344 147.8176 35.0637 L 147.8176 37.0254 C 147.8176 37.2124 147.833 37.4575 147.8763 37.7102 L 147.4575 37.7102 ZM 147.386 35.5896 C 145.6689 35.9648 145.4388 36.3186 145.4388 36.7949 C 145.4388 37.2051 145.7201 37.4358 146.1095 37.4358 C 146.5127 37.4358 147.0107 37.1982 147.386 36.8159 L 147.386 35.5896 Z" fill="#221714"/>
				<path d="M 153.4341 34.3066 L 153.4341 37.7102 L 153.0013 37.7102 L 153.0013 34.3066 L 152.3811 34.3066 L 152.3811 33.9602 L 153.0013 33.9602 L 153.0013 33.4268 C 153.0013 32.7778 153.2607 32.4309 153.9028 32.4309 C 154.0613 32.4309 154.2131 32.4602 154.3713 32.489 L 154.3713 32.8496 C 154.2349 32.8062 154.1045 32.7778 153.9463 32.7778 C 153.6067 32.7778 153.4341 32.9434 153.4341 33.3755 L 153.4341 33.9602 L 154.1992 33.9602 L 154.1992 34.3066 L 153.4341 34.3066 Z" fill="#221714"/>
				<path d="M 156.8901 35.8499 C 156.8901 36.7002 157.2439 37.4358 158.0955 37.4358 C 158.5779 37.4358 158.8167 37.2703 159.1907 36.6787 L 159.5444 36.8665 C 159.1411 37.5303 158.7732 37.7825 158.0596 37.7825 C 157.0776 37.7825 156.4585 37.155 156.4585 35.8352 C 156.4585 34.6738 157.0498 33.8877 158.001 33.8877 C 159.0186 33.8877 159.501 34.688 159.501 35.8499 L 156.8901 35.8499 ZM 159.0681 35.5034 C 158.9827 34.7314 158.6432 34.2415 157.9869 34.2344 C 157.2219 34.2275 156.8976 35.0061 156.8901 35.5034 L 159.0681 35.5034 Z" fill="#221714"/>
				<path d="M 164.3239 33.9602 L 164.3239 32.7341 L 164.7563 32.7341 L 164.7563 33.9602 L 165.5789 33.9602 L 165.5789 34.3066 L 164.7563 34.3066 L 164.7563 37.054 C 164.7563 37.3066 164.8713 37.4358 165.1382 37.4358 C 165.2827 37.4358 165.4407 37.3999 165.5789 37.3564 L 165.5789 37.7178 C 165.4346 37.739 165.2827 37.7825 165.1382 37.7825 C 164.5254 37.7825 164.3239 37.5801 164.3239 37.1262 L 164.3239 34.3066 L 163.7607 34.3066 L 163.7607 33.9602 L 164.3239 33.9602 Z" fill="#221714"/>
				<path d="M 170.1726 37.0107 L 170.1863 37.0107 L 171.2319 33.9602 L 171.6941 33.9602 L 170.2952 37.9771 C 170.0422 38.7124 169.7751 39.0369 169.0973 39.0369 C 168.9111 39.0369 168.7947 39.0227 168.6938 38.9941 L 168.6938 38.6409 C 168.8242 38.655 168.9607 38.6909 169.1267 38.6909 C 169.4292 38.6909 169.7614 38.4238 169.9707 37.6528 L 168.6658 33.9602 L 169.1407 33.9602 L 170.1726 37.0107 Z" fill="#221714"/>
			</g>
			<g>
				<path d="M 35.7748 63.7983 C 37.5081 63.6262 39.0728 62.9766 40.3704 62.0762 C 41.6721 61.1738 42.767 60.0627 43.6824 58.8462 C 44.6157 57.6409 45.3982 56.3411 46.0642 54.9951 C 46.7273 53.6484 47.3289 52.2747 47.8138 50.8628 C 49.7507 45.2112 50.5889 39.2725 50.6989 33.3457 C 50.7727 27.3904 50.3373 21.3987 49.1489 15.5415 C 48.8513 14.0764 48.4645 12.6311 48.0378 11.1968 C 47.6104 9.7625 47.0925 8.3508 46.4517 6.9893 C 45.8279 5.6228 45.0581 4.3062 44.0538 3.1467 C 43.5515 2.5662 42.9701 2.0405 42.2932 1.6191 C 41.6229 1.1885 40.8276 0.8921 39.9645 0.8008 C 40.8308 0.7041 41.7405 0.8743 42.5632 1.1982 C 43.3848 1.5313 44.1285 2.0068 44.7926 2.5437 C 46.1255 3.6265 47.1482 4.9458 48.0532 6.2952 C 49.801 9.0364 51.0122 11.991 51.916 14.9905 C 53.7323 21.0015 54.4064 27.2065 54.3335 33.3955 C 54.2028 39.603 53.0996 45.8584 50.4773 51.6931 C 49.1704 54.6008 47.4507 57.4121 45.0811 59.8076 C 43.8763 60.981 42.5122 62.0623 40.9138 62.8164 C 39.3351 63.5779 37.5095 63.9863 35.7748 63.7983 Z" fill="#d8d8d9"/>
				<path d="M 45.969 33.8904 L 45.9631 32.2993 C 45.9524 29.2998 45.7617 26.2974 45.3447 23.3149 C 44.936 20.3325 44.3022 17.3665 43.3748 14.4622 C 42.4639 11.5581 41.2527 8.6997 39.5157 6.0576 C 38.6189 4.7556 37.6121 3.4814 36.2983 2.449 C 35.6416 1.9385 34.9189 1.4802 34.1138 1.1707 C 33.3101 0.8662 32.4268 0.7078 31.5873 0.8008 C 33.2871 0.9802 34.6023 1.9492 35.5867 3.0449 C 36.5773 4.1606 37.3428 5.4285 37.9631 6.75 C 39.2341 9.3848 40.0164 12.2021 40.6636 15.0264 C 41.8585 20.6748 42.3347 26.4456 42.3347 32.2061 L 42.3347 32.2993 C 42.3264 35.354 42.1216 38.4075 41.6768 41.4299 C 41.2495 44.4551 40.5588 47.4465 39.6045 50.3645 C 39.1226 51.8228 38.5371 53.2502 37.8616 54.6389 C 37.1965 56.0322 36.412 57.3801 35.4646 58.6301 C 34.543 59.8955 33.4346 61.0537 32.1082 61.9971 C 30.7848 62.9353 29.1804 63.6184 27.3989 63.7983 C 28.2842 63.8918 29.2067 63.8279 30.1042 63.6504 C 30.9973 63.459 31.8616 63.145 32.6782 62.7515 C 34.3035 61.9482 35.6951 60.8223 36.915 59.5981 C 38.1101 58.3518 39.1346 56.9922 40.0366 55.5815 C 40.9292 54.1628 41.6663 52.6816 42.3271 51.1787 C 43.6564 48.1711 44.5173 45.0325 45.1194 41.8711 C 45.5977 39.2285 45.8573 36.5605 45.9302 33.8904 L 45.969 33.8904 Z" fill="#d8d8d9"/>
				<path d="M 19.0183 63.7983 C 20.7515 63.6262 22.3167 62.9766 23.6138 62.0762 C 24.9176 61.1738 26.011 60.0627 26.9258 58.8462 C 27.8591 57.6409 28.6428 56.3411 29.3096 54.9966 C 29.9707 53.6484 30.5735 52.2754 31.0574 50.8628 C 32.9941 45.2112 33.8323 39.2725 33.9441 33.3457 C 34.0175 27.3904 33.5822 21.3987 32.3942 15.5415 C 32.0967 14.0764 31.7097 12.6311 31.2832 11.1968 C 30.8564 9.7625 30.3373 8.3508 29.6963 6.9893 C 29.0732 5.6228 28.3048 4.3062 27.2986 3.1465 C 26.797 2.5662 26.2153 2.0405 25.5378 1.6191 C 24.8677 1.1885 24.0742 0.8921 23.2097 0.8008 C 24.0754 0.7041 24.9857 0.8743 25.8091 1.1973 C 26.6296 1.5313 27.3738 2.0068 28.0386 2.5437 C 29.3707 3.626 30.3928 4.9453 31.2986 6.2952 C 33.0479 9.0364 34.257 11.991 35.162 14.9905 C 36.9775 21.0015 37.6516 27.2065 37.5769 33.3962 C 37.4467 39.6035 36.345 45.8591 33.7219 51.6936 C 32.4158 54.6008 30.696 57.4121 28.3269 59.8086 C 27.1199 60.981 25.7557 62.0635 24.158 62.8164 C 22.5791 63.5779 20.7527 63.9863 19.0183 63.7983 Z" fill="#d8d8d9"/>
				<path d="M 23.2097 0.8008 C 22.3442 0.8916 21.5513 1.1873 20.8792 1.6174 C 20.2019 2.0393 19.619 2.564 19.1173 3.1443 C 18.1112 4.3044 17.3413 5.6206 16.7163 6.9873 C 15.4402 9.7166 14.6514 12.6238 14.0178 15.5403 C 12.8306 21.4014 12.392 27.384 12.4718 33.3521 C 12.5879 39.2659 13.4263 45.2139 15.3647 50.8613 C 15.8481 52.2734 16.4475 53.6484 17.1121 54.9941 C 17.7786 56.3384 18.5593 57.6396 19.4944 58.8435 C 20.4093 60.0603 21.501 61.1721 22.8052 62.0737 C 24.1029 62.9736 25.6658 63.625 27.3989 63.7983 C 25.6646 63.9873 23.8379 63.5801 22.2566 62.8193 C 20.6602 62.0645 19.2948 60.9834 18.0881 59.8113 C 15.7153 57.415 13.9976 54.6035 12.6895 51.6956 C 10.0677 45.8572 8.9634 39.6104 8.8389 33.3896 C 8.7698 27.2129 9.4434 20.999 11.2615 14.9912 C 12.1642 11.9915 13.3751 9.0378 15.1223 6.2966 C 16.0288 4.9473 17.0496 3.627 18.382 2.5457 C 19.0452 2.0081 19.7888 1.5325 20.6104 1.1987 C 21.4332 0.875 22.3417 0.7046 23.2097 0.8008 Z" fill="#007ac6"/>
				<path d="M 14.8313 0.8008 C 13.967 0.8916 13.1729 1.1873 12.5027 1.6174 C 11.8239 2.0393 11.2423 2.564 10.7405 3.1443 C 9.7351 4.3044 8.9634 5.6206 8.3378 6.9873 C 7.0616 9.7166 6.2744 12.6238 5.6401 15.5403 C 4.4519 21.4014 4.0154 27.384 4.0951 33.3521 C 4.2114 39.2654 5.0482 45.2129 6.9871 50.8613 C 7.4707 52.2734 8.0696 53.6472 8.7341 54.9941 C 9.4006 56.3384 10.1814 57.6396 11.116 58.8435 C 12.0314 60.0603 13.1235 61.1721 14.4271 62.0737 C 15.7229 62.9736 17.2876 63.625 19.0183 63.7983 C 17.2844 63.9873 15.4595 63.5801 13.8789 62.8193 C 12.2804 62.0645 10.9148 60.9834 9.7089 59.8098 C 7.3373 57.415 5.6194 54.6021 4.3108 51.6951 C 1.6897 45.8564 0.5867 39.6104 0.4602 33.3889 C 0.392 27.2129 1.066 20.9983 2.8829 14.9905 C 3.7881 11.9915 4.9983 9.0378 6.7457 6.2966 C 7.6509 4.9473 8.6716 3.627 10.0039 2.5457 C 10.6685 2.0081 11.4121 1.5325 12.2332 1.1987 C 13.0559 0.875 13.9658 0.7046 14.8313 0.8008 Z" fill="#007ac6"/>
				<path d="M 31.5873 0.8008 C 30.7214 0.8916 29.9287 1.1873 29.2571 1.6174 C 28.5803 2.0388 27.9971 2.564 27.4952 3.1443 C 26.4893 4.3044 25.7197 5.6201 25.0942 6.9873 C 23.8169 9.7158 23.0298 12.6238 22.3967 15.5396 C 21.2085 21.4014 20.772 27.384 20.8499 33.3521 C 20.9661 39.2654 21.8048 45.2139 23.741 50.8613 C 24.2261 52.2734 24.8262 53.6484 25.4907 54.9941 C 26.1559 56.3384 26.9373 57.6396 27.8726 58.8435 C 28.7866 60.0603 29.8794 61.1721 31.1832 62.0737 C 32.479 62.9736 34.0435 63.625 35.7748 63.7983 C 34.041 63.9873 32.2153 63.5801 30.6348 62.8193 C 29.037 62.0645 27.6714 60.9834 26.4641 59.8113 C 24.094 57.415 22.3755 54.6021 21.0676 51.6951 C 18.4458 45.8564 17.3413 39.6104 17.2168 33.3889 C 17.1486 27.2129 17.8213 20.9983 19.6382 14.9905 C 20.5427 11.9915 21.7539 9.0371 23.5005 6.2966 C 24.4067 4.9465 25.4282 3.627 26.7605 2.5449 C 27.4238 2.0081 28.1667 1.5325 28.989 1.1987 C 29.8113 0.875 30.7202 0.7046 31.5873 0.8008 Z" fill="#007ac6"/>
			</g>
		</g>
	</g>
</svg>