<?xml version="1.0" standalone="no"?>
<!-- Generator: Adobe Fireworks 10, Export SVG Extension by Aaron Beall (http://fireworks.abeall.com) . Version: 0.6.1  -->
<!DOCTYPE svg PUBLIC "-//W3C//DTD SVG 1.1//EN" "http://www.w3.org/Graphics/SVG/1.1/DTD/svg11.dtd">
<svg id="Untitled-%u30DA%u30FC%u30B8%201" viewBox="0 0 203 11" style="background-color:#ffffff00" version="1.1"
	xmlns="http://www.w3.org/2000/svg" xmlns:xlink="http://www.w3.org/1999/xlink" xml:space="preserve"
	x="0px" y="0px" width="203px" height="11px"
>
	<g id="%u30EC%u30A4%u30E4%u30FC%201">
		<g>
			<g>
				<path d="M 27.7728 1.0596 L 25.8915 9.5571 L 20.7753 9.5571 L 22.6566 1.0596 L 27.7728 1.0596 ZM 37.642 1.0596 L 32.0568 4.4233 L 36.5519 9.5571 L 30.3221 9.5571 L 26.964 5.1206 L 32.5551 1.0596 L 37.642 1.0596 Z" fill="#ffffff"/>
				<path d="M 50.84 5.3784 C 50.2382 8.2617 47.515 9.7036 42.6703 9.7036 C 38.3607 9.7036 36.2062 8.5566 36.2062 6.2637 C 36.2062 5.9863 36.2394 5.6914 36.3058 5.3784 C 36.9034 2.499 39.6246 1.0596 44.4696 1.0596 C 48.7789 1.0596 50.9337 2.2061 50.9337 4.4995 C 50.9337 4.7769 50.9025 5.0698 50.84 5.3784 ZM 45.4952 5.3784 C 45.5731 5.019 45.6124 4.7007 45.6124 4.4233 C 45.6124 3.4424 45.1063 2.9521 44.0944 2.9521 C 43.4147 2.9521 42.8812 3.1484 42.4945 3.541 C 42.1078 3.9336 41.8243 4.5464 41.6447 5.3784 C 41.5704 5.7422 41.5333 6.0625 41.5333 6.3398 C 41.5333 7.3203 42.0375 7.8105 43.0453 7.8105 C 43.7252 7.8105 44.2623 7.6113 44.6571 7.2129 C 45.036 6.8262 45.3153 6.2148 45.4952 5.3784 Z" fill="#ffffff"/>
				<path d="M 65.7494 1.0713 L 65.3041 3.1279 L 60.3695 3.1279 L 58.951 9.5513 L 54.3917 9.5513 L 55.8158 3.1279 L 51.1097 3.1279 L 51.5492 1.0713 L 65.7494 1.0713 Z" fill="#ffffff"/>
				<path d="M 79.3224 5.3784 C 78.7206 8.2617 75.9974 9.7036 71.1527 9.7036 C 66.8431 9.7036 64.6886 8.5566 64.6886 6.2637 C 64.6886 5.9863 64.7218 5.6914 64.7882 5.3784 C 65.3859 2.499 68.1071 1.0596 72.952 1.0596 C 77.2614 1.0596 79.4161 2.2061 79.4161 4.4995 C 79.4161 4.7769 79.3849 5.0698 79.3224 5.3784 ZM 73.9777 5.3784 C 74.0555 5.019 74.0948 4.7007 74.0948 4.4233 C 74.0948 3.4424 73.5887 2.9521 72.5768 2.9521 C 71.8971 2.9521 71.3636 3.1484 70.9769 3.541 C 70.5902 3.9336 70.3068 4.5464 70.1271 5.3784 C 70.0529 5.7422 70.0157 6.0625 70.0157 6.3398 C 70.0157 7.3203 70.5199 7.8105 71.5277 7.8105 C 72.2076 7.8105 72.7448 7.6113 73.1395 7.2129 C 73.5184 6.8262 73.7977 6.2148 73.9777 5.3784 Z" fill="#ffffff"/>
				<path d="M 94.4486 3.1807 C 94.3116 4.064 93.5792 4.6753 92.2509 5.0151 C 93.5909 5.3398 94.2609 5.9121 94.2609 6.7324 C 94.2609 6.8145 94.255 6.8965 94.2433 6.9785 C 93.9855 8.6934 91.9889 9.5513 88.2538 9.5513 L 79.5509 9.5513 L 81.4323 1.0654 L 89.5724 1.0654 C 91.1705 1.0654 92.3483 1.1826 93.1063 1.417 C 94.0167 1.7021 94.472 2.1924 94.472 2.8877 C 94.472 2.9814 94.464 3.0791 94.4486 3.1807 ZM 89.2443 6.8203 C 89.2482 6.7891 89.2501 6.7578 89.2501 6.7266 C 89.2501 6.4609 89.0353 6.2813 88.6056 6.1875 C 88.3046 6.125 87.7909 6.0938 87.0641 6.0938 L 85.4349 6.0938 L 85.0834 7.6875 L 87.5975 7.6875 C 88.1288 7.6875 88.5155 7.6289 88.7579 7.5117 C 89.0275 7.3789 89.1896 7.1484 89.2443 6.8203 ZM 89.6134 3.7256 C 89.629 3.6436 89.6368 3.5713 89.6368 3.5088 C 89.6368 3.2354 89.4669 3.0576 89.1271 2.9756 C 88.9786 2.9443 88.6993 2.9287 88.2889 2.9287 L 86.1383 2.9287 L 85.8041 4.4233 L 87.4979 4.4233 C 88.2245 4.4233 88.7189 4.3882 88.9806 4.3179 C 89.3439 4.2241 89.5548 4.0269 89.6134 3.7256 Z" fill="#ffffff"/>
				<path d="M 110.4596 1.0596 L 109.5394 5.2847 C 109.2426 6.6484 108.549 7.6816 107.4589 8.3848 C 106.1344 9.2446 104.1652 9.6743 101.5514 9.6743 C 97.3671 9.6743 95.2748 8.5547 95.2748 6.3164 C 95.2748 6 95.3158 5.6563 95.3978 5.2847 L 96.318 1.0596 L 101.4401 1.0596 L 100.514 5.2847 C 100.432 5.6523 100.391 5.9766 100.391 6.2578 C 100.391 7.2539 100.9069 7.752 101.9384 7.752 C 102.6259 7.752 103.1691 7.5488 103.5675 7.1426 C 103.9503 6.752 104.2357 6.1328 104.4232 5.2847 L 105.3431 1.0596 L 110.4596 1.0596 Z" fill="#ffffff"/>
				<path d="M 123.599 1.0596 L 123.1593 3.1162 L 118.424 3.1162 C 118.213 3.1162 118.0372 3.1514 117.8966 3.2217 C 117.7443 3.2998 117.6681 3.3994 117.6681 3.5205 C 117.6681 3.7744 117.9884 4.0459 118.629 4.3354 C 120.1061 5.0073 121.161 5.584 121.7938 6.0645 C 122.4464 6.5527 122.7726 7.0273 122.7726 7.4883 C 122.7726 7.5703 122.7628 7.6523 122.7433 7.7344 C 122.5792 8.4609 121.9501 8.9556 120.8561 9.2173 C 119.9069 9.4399 118.2462 9.5513 115.8746 9.5513 L 109.7855 9.5513 L 110.225 7.4941 L 115.277 7.4941 C 115.5231 7.4941 115.7223 7.4502 115.8746 7.3623 C 116.027 7.2744 116.1031 7.1621 116.1031 7.0254 C 116.1031 6.7832 115.8746 6.5566 115.4176 6.3457 C 114.1202 5.752 113.2355 5.3125 112.7628 5.0269 C 111.7157 4.3862 111.192 3.792 111.192 3.2451 C 111.192 3.1826 111.1979 3.1221 111.2096 3.0635 C 111.3151 2.5557 111.5319 2.1748 111.8602 1.9209 C 112.2469 1.6162 112.8837 1.3975 113.7706 1.2646 C 114.6888 1.1279 116.0153 1.0596 117.7501 1.0596 L 123.599 1.0596 Z" fill="#ffffff"/>
				<path d="M 142.2177 1.0596 L 141.7665 3.2275 L 135.976 3.2275 C 134.6908 3.2275 133.8993 3.9189 133.6024 5.3022 C 133.5438 5.5645 133.5145 5.7988 133.5145 6.0059 C 133.5145 6.8848 134.0341 7.3242 135.0736 7.3242 L 135.847 7.3242 L 136.3568 5.0503 L 141.4677 5.0503 L 140.4594 9.5513 L 133.9423 9.5513 C 131.7035 9.5513 130.0902 9.2251 129.1014 8.5723 C 128.2772 8.0293 127.8651 7.2363 127.8651 6.1934 C 127.8651 5.9199 127.8925 5.623 127.9471 5.3022 C 128.4315 2.4736 131.0355 1.0596 135.7592 1.0596 L 142.2177 1.0596 Z" fill="#ffffff"/>
				<path d="M 156.9037 3.79 C 156.806 4.5562 156.4896 5.1323 155.9545 5.5195 C 155.4584 5.875 154.7216 6.1016 153.745 6.1992 L 156.8392 9.5513 L 151.4066 9.5513 L 148.1542 4.9507 L 149.9764 4.9507 C 150.598 4.9507 151.0531 4.8721 151.3422 4.7158 C 151.6312 4.5586 151.8109 4.3003 151.8812 3.9395 C 151.8929 3.8691 151.8988 3.8027 151.8988 3.7402 C 151.8988 3.1914 151.4242 2.917 150.475 2.917 L 148.5116 2.917 L 147.0404 9.5513 L 141.9242 9.5513 L 143.8055 1.0654 L 152.391 1.0654 C 153.8915 1.0654 155.0048 1.2373 155.7318 1.5811 C 156.5326 1.96 156.933 2.5654 156.933 3.3975 C 156.933 3.5225 156.9232 3.6533 156.9037 3.79 Z" fill="#ffffff"/>
				<path d="M 171.7782 5.3784 C 171.1766 8.2617 168.453 9.7036 163.6088 9.7036 C 159.2992 9.7036 157.1444 8.5566 157.1444 6.2637 C 157.1444 5.9863 157.1776 5.6914 157.244 5.3784 C 157.8417 2.499 160.5629 1.0596 165.4076 1.0596 C 169.7172 1.0596 171.8719 2.2061 171.8719 4.4995 C 171.8719 4.7769 171.8407 5.0698 171.7782 5.3784 ZM 166.4335 5.3784 C 166.5116 5.019 166.5507 4.7007 166.5507 4.4233 C 166.5507 3.4424 166.0443 2.9521 165.0326 2.9521 C 164.3529 2.9521 163.8197 3.1484 163.4325 3.541 C 163.0458 3.9336 162.7626 4.5464 162.5829 5.3784 C 162.5087 5.7422 162.4716 6.0625 162.4716 6.3398 C 162.4716 7.3203 162.9755 7.8105 163.9838 7.8105 C 164.6635 7.8105 165.2006 7.6113 165.5951 7.2129 C 165.974 6.8262 166.2538 6.2148 166.4335 5.3784 Z" fill="#ffffff"/>
				<path d="M 187.6073 1.0596 L 186.6874 5.2847 C 186.3905 6.6484 185.6971 7.6816 184.6068 8.3848 C 183.2826 9.2446 181.3134 9.6743 178.6996 9.6743 C 174.515 9.6743 172.4227 8.5547 172.4227 6.3164 C 172.4227 6 172.4637 5.6563 172.5458 5.2847 L 173.4657 1.0596 L 178.5883 1.0596 L 177.662 5.2847 C 177.58 5.6523 177.5389 5.9766 177.5389 6.2578 C 177.5389 7.2539 178.0546 7.752 179.0863 7.752 C 179.7738 7.752 180.3168 7.5488 180.7152 7.1426 C 181.0985 6.752 181.3837 6.1328 181.5712 5.2847 L 182.4911 1.0596 L 187.6073 1.0596 Z" fill="#ffffff"/>
				<path d="M 202.1063 3.9248 C 201.9735 4.9604 201.5341 5.707 200.788 6.1641 C 199.9281 6.6914 198.514 6.9551 196.5448 6.9551 L 192.8348 6.9551 L 192.2606 9.5513 L 187.1444 9.5513 L 189.0258 1.0654 L 197.6112 1.0654 C 200.6278 1.0654 202.1356 1.8857 202.1356 3.5264 C 202.1356 3.6553 202.1259 3.7881 202.1063 3.9248 ZM 197.1132 3.8867 C 197.1249 3.8203 197.1307 3.7559 197.1307 3.6929 C 197.1307 3.3872 196.9784 3.1758 196.6737 3.0581 C 196.4354 2.9639 196.0507 2.917 195.5194 2.917 L 193.7318 2.917 L 193.2513 5.0913 L 195.1263 5.0913 C 195.8143 5.0913 196.2987 5.0044 196.58 4.8301 C 196.8612 4.6553 197.0389 4.3413 197.1132 3.8867 Z" fill="#ffffff"/>
			</g>
			<g>
				<path d="M 12.9794 0.4561 C 12.8646 0.4561 12.5763 0.4717 12.4547 0.4873 C 10.5668 0.6143 9.0419 2.2461 8.6891 4.3379 C 8.3373 2.2461 6.8104 0.6143 4.9247 0.4873 C 4.8024 0.4717 4.5131 0.4561 4.4042 0.4561 L 0.1959 0.4561 L 1.5695 2.1797 L 2.8519 3.7012 L 3.4249 3.7012 L 4.3365 3.7012 C 4.3571 3.6997 4.4286 3.6997 4.4469 3.7012 C 5.1593 3.7368 5.7321 4.395 5.7362 5.2144 C 5.7362 5.2168 5.7374 5.2192 5.7374 5.2227 C 5.7374 6.0728 5.1344 6.7549 4.392 6.7549 C 4.3888 6.7549 3.9178 6.7544 3.9178 6.7544 L 2.9081 6.7544 L 2.9081 9.4702 L 2.9081 10.0166 L 4.6039 10.0166 L 4.6039 10.001 C 4.6239 10.001 4.6432 10.0166 4.6642 10.0166 C 6.671 10.0166 8.3326 8.3467 8.6891 6.1528 C 9.0511 8.3467 10.7076 10.0166 12.7147 10.0166 C 12.7355 10.0166 12.7601 10.001 12.7765 10.001 L 12.7765 10.0166 L 14.4703 10.0166 L 14.4703 9.4702 L 14.4703 6.7544 L 13.4645 6.7544 C 13.4645 6.7544 12.9923 6.7549 12.9869 6.7549 C 12.2448 6.7549 11.6398 6.0728 11.6398 5.2227 C 11.6398 5.2192 11.6427 5.2168 11.6427 5.2144 C 11.649 4.395 12.2201 3.7368 12.9323 3.7012 C 12.9532 3.6997 13.0221 3.6997 13.0421 3.7012 L 13.9557 3.7012 L 14.5272 3.7012 L 15.809 2.1797 L 17.184 0.4561 L 12.9794 0.4561 Z" fill="#ffffff"/>
			</g>
		</g>
	</g>
</svg>