<?xml version="1.0" standalone="no"?>
<!-- Generator: Adobe Fireworks 10, Export SVG Extension by Aaron Beall (http://fireworks.abeall.com) . Version: 0.6.1  -->
<!DOCTYPE svg PUBLIC "-//W3C//DTD SVG 1.1//EN" "http://www.w3.org/Graphics/SVG/1.1/DTD/svg11.dtd">
<svg id="Untitled-%u30DA%u30FC%u30B8%201" viewBox="0 0 213 34" style="background-color:#ffffff" version="1.1"
	xmlns="http://www.w3.org/2000/svg" xmlns:xlink="http://www.w3.org/1999/xlink" xml:space="preserve"
	x="0px" y="0px" width="213px" height="34px"
>
	<g id="%u30EC%u30A4%u30E4%u30FC%201">
		<g>
			<g>
				<path d="M 68.9737 0 L 66.1461 13.419 L 58.4565 13.419 L 61.2841 0 L 68.9737 0 ZM 83.807 0 L 75.4125 5.3125 L 82.1686 13.419 L 72.8053 13.419 L 67.758 6.4133 L 76.1614 0 L 83.807 0 Z" fill="#004098"/>
				<path d="M 102.8917 6.8206 C 101.9871 11.3733 97.8943 13.6502 90.6127 13.6502 C 84.1354 13.6502 80.8972 11.8399 80.8972 8.2186 C 80.8972 7.7804 80.947 7.3147 81.0469 6.8206 C 81.9452 2.2736 86.0351 0 93.317 0 C 99.7939 0 103.0327 1.8111 103.0327 5.4327 C 103.0327 5.8706 102.9856 6.3331 102.8917 6.8206 ZM 94.8586 6.8206 C 94.9756 6.253 95.0347 5.7504 95.0347 5.3125 C 95.0347 3.7635 94.274 2.9892 92.7532 2.9892 C 91.7314 2.9892 90.9297 3.2992 90.3485 3.9192 C 89.7673 4.5397 89.3413 5.5067 89.0712 6.8206 C 88.9598 7.3941 88.9038 7.9007 88.9038 8.3387 C 88.9038 9.8871 89.6616 10.6611 91.1764 10.6611 C 92.1983 10.6611 93.0056 10.3465 93.5989 9.7173 C 94.1683 9.1065 94.5883 8.1412 94.8586 6.8206 Z" fill="#004098"/>
				<path d="M 124.571 0.0185 L 123.9017 3.2668 L 116.485 3.2668 L 114.3531 13.4097 L 107.5004 13.4097 L 109.6409 3.2668 L 102.5677 3.2668 L 103.2283 0.0185 L 124.571 0.0185 Z" fill="#004098"/>
				<path d="M 146.4525 6.8206 C 145.548 11.3733 141.4551 13.6502 134.1735 13.6502 C 127.6962 13.6502 124.458 11.8399 124.458 8.2186 C 124.458 7.7804 124.5079 7.3147 124.6077 6.8206 C 125.506 2.2736 129.5959 0 136.8778 0 C 143.3548 0 146.5935 1.8111 146.5935 5.4327 C 146.5935 5.8706 146.5465 6.3331 146.4525 6.8206 ZM 138.4194 6.8206 C 138.5365 6.253 138.5956 5.7504 138.5956 5.3125 C 138.5956 3.7635 137.8348 2.9892 136.314 2.9892 C 135.2922 2.9892 134.4905 3.2992 133.9093 3.9192 C 133.3281 4.5397 132.902 5.5067 132.6321 6.8206 C 132.5204 7.3941 132.4645 7.9007 132.4645 8.3387 C 132.4645 9.8871 133.2224 10.6611 134.7371 10.6611 C 135.759 10.6611 136.5663 10.3465 137.1597 9.7173 C 137.7291 9.1065 138.1489 8.1412 138.4194 6.8206 Z" fill="#004098"/>
				<path d="M 168.4354 3.3502 C 168.2295 4.7448 167.1286 5.7101 165.1321 6.2468 C 167.1463 6.7589 168.1532 7.6625 168.1532 8.9585 C 168.1532 9.0882 168.1443 9.2176 168.1267 9.3473 C 167.7393 12.0557 164.7384 13.4097 159.1245 13.4097 L 146.0441 13.4097 L 148.8718 0.0092 L 161.1063 0.0092 C 163.5084 0.0092 165.2784 0.1942 166.4178 0.5653 C 167.7862 1.0156 168.4705 1.7896 168.4705 2.8875 C 168.4705 3.0356 168.4584 3.1897 168.4354 3.3502 ZM 160.6132 9.0973 C 160.619 9.048 160.6221 8.9986 160.6221 8.9492 C 160.6221 8.53 160.299 8.2462 159.6533 8.0982 C 159.2009 7.9994 158.4288 7.9501 157.3364 7.9501 L 154.8878 7.9501 L 154.3594 10.4667 L 158.1381 10.4667 C 158.9366 10.4667 159.5179 10.3741 159.8821 10.1891 C 160.2874 9.9795 160.5311 9.6155 160.6132 9.0973 ZM 161.1681 4.2114 C 161.1914 4.0819 161.2034 3.9678 161.2034 3.8683 C 161.2034 3.4365 160.9479 3.1558 160.437 3.0265 C 160.214 2.977 159.7942 2.9522 159.1772 2.9522 L 155.9448 2.9522 L 155.4427 5.3125 L 157.9884 5.3125 C 159.0804 5.3125 159.8235 5.2569 160.2168 5.1457 C 160.7628 4.9979 161.0798 4.6862 161.1681 4.2114 Z" fill="#004098"/>
				<path d="M 193.2512 0 L 191.8685 6.6726 C 191.4224 8.8259 190.3802 10.4575 188.7415 11.5684 C 186.7507 12.9255 183.7911 13.6041 179.8625 13.6041 C 173.5735 13.6041 170.429 11.8368 170.429 8.3017 C 170.429 7.8019 170.4905 7.2585 170.6138 6.6726 L 171.9968 0 L 179.6953 0 L 178.3035 6.6726 C 178.1802 7.2523 178.1185 7.7642 178.1185 8.2093 C 178.1185 9.7821 178.8939 10.5684 180.4441 10.5684 C 181.4774 10.5684 182.2939 10.2478 182.8928 9.6062 C 183.4681 8.9893 183.8971 8.0117 184.1789 6.6726 L 185.5615 0 L 193.2512 0 Z" fill="#004098"/>
				<path d="M 213 0 L 212.3394 3.2483 L 205.2224 3.2483 C 204.9052 3.2483 204.6404 3.3038 204.4291 3.4149 C 204.2001 3.5383 204.0854 3.6963 204.0854 3.8868 C 204.0854 4.2885 204.567 4.7171 205.5306 5.1736 C 207.7499 6.2345 209.3358 7.1443 210.2869 7.9038 C 211.2672 8.6749 211.7576 9.4243 211.7576 10.1523 C 211.7576 10.2817 211.7429 10.4111 211.7136 10.5408 C 211.467 11.6887 210.5217 12.469 208.8778 12.8824 C 207.4504 13.234 204.9545 13.4097 201.3907 13.4097 L 192.2384 13.4097 L 192.8989 10.1613 L 200.4916 10.1613 C 200.8616 10.1613 201.1611 10.0921 201.3907 9.9532 C 201.6198 9.8145 201.7343 9.6371 201.7343 9.4212 C 201.7343 9.0387 201.3907 8.681 200.7031 8.3479 C 198.7539 7.4096 197.4235 6.7157 196.7129 6.2654 C 195.1395 5.2538 194.3528 4.3162 194.3528 3.452 C 194.3528 3.3531 194.3616 3.2576 194.3792 3.1651 C 194.5377 2.3633 194.8635 1.7617 195.3567 1.3609 C 195.938 0.8798 196.8948 0.5345 198.2284 0.3246 C 199.6082 0.1088 201.6021 0 204.2089 0 L 213 0 Z" fill="#004098"/>
				<path d="M 80.4686 20.5903 L 79.8082 23.8387 L 68.2866 23.8387 L 67.9078 25.6527 L 78.7245 25.6527 L 78.108 28.707 L 67.2649 28.707 L 66.8334 30.7517 L 78.4955 30.7517 L 77.835 34 L 58.4565 34 L 61.2841 20.5903 L 80.4686 20.5903 Z" fill="#004098"/>
				<path d="M 104.7095 20.6088 L 95.6633 27.6607 L 102.1465 34 L 94.4388 34 L 91.6379 30.8072 L 87.5245 34 L 78.4428 34 L 87.6478 26.8379 L 81.4112 20.6088 L 89.4008 20.6088 L 91.7347 23.6443 L 95.628 20.6088 L 104.7095 20.6088 Z" fill="#004098"/>
				<path d="M 125.2333 25.1162 C 125.0334 26.7508 124.3728 27.9289 123.2511 28.6513 C 121.9595 29.4841 119.8337 29.9003 116.8741 29.9003 L 111.2984 29.9003 L 110.4349 34 L 102.7452 34 L 105.5729 20.5995 L 118.4772 20.5995 C 123.0104 20.5995 125.2773 21.8958 125.2773 24.4864 C 125.2773 24.6907 125.2623 24.9004 125.2333 25.1162 ZM 117.7283 25.0553 C 117.7458 24.9505 117.7546 24.8479 117.7546 24.7492 C 117.7546 24.2664 117.5258 23.9326 117.0677 23.7469 C 116.7096 23.5989 116.131 23.524 115.3325 23.524 L 112.6461 23.524 L 111.9236 26.9576 L 114.7424 26.9576 C 115.7759 26.9576 116.5041 26.8202 116.9269 26.545 C 117.3495 26.2697 117.6167 25.773 117.7283 25.0553 Z" fill="#004098"/>
				<path d="M 146.7314 24.9035 C 146.5843 26.1124 146.1086 27.0223 145.3044 27.6329 C 144.5584 28.1948 143.4513 28.5527 141.9835 28.707 L 146.6345 34 L 138.469 34 L 133.5802 26.7353 L 136.3197 26.7353 C 137.2533 26.7353 137.9371 26.6119 138.3721 26.3645 C 138.8066 26.1172 139.0765 25.7084 139.1821 25.1394 C 139.1998 25.0277 139.2087 24.9227 139.2087 24.8233 C 139.2087 23.9572 138.4954 23.524 137.0683 23.524 L 134.1178 23.524 L 131.9066 34 L 124.2169 34 L 127.0446 20.5995 L 139.9489 20.5995 C 142.2036 20.5995 143.8772 20.8717 144.9697 21.4145 C 146.1733 22.0128 146.7755 22.9691 146.7755 24.2828 C 146.7755 24.481 146.7604 24.6874 146.7314 24.9035 Z" fill="#004098"/>
				<path d="M 170.0499 20.5903 L 169.3894 23.8387 L 157.8677 23.8387 L 157.489 25.6527 L 168.3059 25.6527 L 167.6893 28.707 L 156.8462 28.707 L 156.4146 30.7517 L 168.0768 30.7517 L 167.4163 34 L 148.0377 34 L 150.8653 20.5903 L 170.0499 20.5903 Z" fill="#004098"/>
				<path d="M 189.4908 20.5903 L 188.8295 23.8387 L 181.7123 23.8387 C 181.3953 23.8387 181.1311 23.8942 180.9199 24.005 C 180.6908 24.1285 180.5763 24.2866 180.5763 24.4771 C 180.5763 24.8787 181.0578 25.3075 182.0206 25.7639 C 184.2405 26.8249 185.8262 27.7346 186.7772 28.4941 C 187.7581 29.2653 188.2483 30.0147 188.2483 30.7424 C 188.2483 30.8719 188.2335 31.0015 188.2043 31.1312 C 187.9578 32.2791 187.012 33.0594 185.3678 33.4727 C 183.9411 33.8242 181.4453 34 177.8806 34 L 168.7288 34 L 169.3894 30.7517 L 176.9824 30.7517 C 177.3523 30.7517 177.6517 30.6823 177.8806 30.5436 C 178.1097 30.4048 178.2242 30.2274 178.2242 30.0115 C 178.2242 29.6291 177.8806 29.2714 177.1938 28.9382 C 175.2439 27.9998 173.9141 27.306 173.2037 26.8557 C 171.6299 25.8441 170.8427 24.9065 170.8427 24.0423 C 170.8427 23.9435 170.8515 23.8477 170.8692 23.7553 C 171.0278 22.9536 171.3536 22.3521 171.8472 21.9512 C 172.4283 21.4701 173.3853 21.1246 174.7184 20.9147 C 176.0984 20.6989 178.0921 20.5903 180.6996 20.5903 L 189.4908 20.5903 Z" fill="#004098"/>
				<path d="M 209.2382 20.5903 L 208.5777 23.8387 L 201.4604 23.8387 C 201.1434 23.8387 200.8785 23.8942 200.6671 24.005 C 200.4382 24.1285 200.3237 24.2866 200.3237 24.4771 C 200.3237 24.8787 200.8051 25.3075 201.7687 25.7639 C 203.9881 26.8249 205.5739 27.7346 206.5248 28.4941 C 207.5055 29.2653 207.9956 30.0147 207.9956 30.7424 C 207.9956 30.8719 207.9809 31.0015 207.9517 31.1312 C 207.705 32.2791 206.7598 33.0594 205.1158 33.4727 C 203.6885 33.8242 201.1925 34 197.6289 34 L 188.4766 34 L 189.137 30.7517 L 196.7299 30.7517 C 197.0996 30.7517 197.3991 30.6823 197.6289 30.5436 C 197.8578 30.4048 197.9723 30.2274 197.9723 30.0115 C 197.9723 29.6291 197.6289 29.2714 196.9412 28.9382 C 194.9919 27.9998 193.6615 27.306 192.9511 26.8557 C 191.3776 25.8441 190.5908 24.9065 190.5908 24.0423 C 190.5908 23.9435 190.5996 23.8477 190.6174 23.7553 C 190.7758 22.9536 191.1017 22.3521 191.5947 21.9512 C 192.176 21.4701 193.1331 21.1246 194.4666 20.9147 C 195.8461 20.6989 197.8401 20.5903 200.4469 20.5903 L 209.2382 20.5903 Z" fill="#004098"/>
			</g>
			<g>
				<path d="M 39.4301 1.5103 C 39.0761 1.5103 38.187 1.5614 37.8116 1.6136 C 31.9882 2.0217 27.2855 7.3124 26.1956 14.0898 C 25.1105 7.3124 20.4028 2.0217 14.5863 1.6136 C 14.2084 1.5614 13.316 1.5103 12.981 1.5103 L 0 1.5103 L 4.2363 7.0959 L 8.1924 12.0266 L 9.9599 12.0266 L 12.7729 12.0266 C 12.8353 12.0218 13.0554 12.0218 13.112 12.0266 C 15.3088 12.1429 17.0764 14.2749 17.0892 16.9303 C 17.0892 16.9387 17.0936 16.9464 17.0936 16.9587 C 17.0936 19.7122 15.2317 21.9228 12.9432 21.9228 C 12.9329 21.9228 11.4798 21.9203 11.4798 21.9203 L 8.3655 21.9203 L 8.3655 30.7216 L 8.3655 32.4925 L 13.5952 32.4925 L 13.5952 32.4418 C 13.6576 32.4418 13.7174 32.4925 13.7823 32.4925 C 19.9727 32.4925 25.0967 27.0832 26.1956 19.9705 C 27.313 27.0832 32.4231 32.4925 38.6129 32.4925 C 38.6765 32.4925 38.7538 32.4418 38.8034 32.4418 L 38.8034 32.4925 L 44.029 32.4925 L 44.029 30.7216 L 44.029 21.9203 L 40.9261 21.9203 C 40.9261 21.9203 39.4693 21.9228 39.4529 21.9228 C 37.1635 21.9228 35.2979 19.7122 35.2979 16.9587 C 35.2979 16.9464 35.3072 16.9387 35.3072 16.9303 C 35.3262 14.2749 37.088 12.1429 39.2841 12.0266 C 39.3501 12.0218 39.5615 12.0218 39.6239 12.0266 L 42.4405 12.0266 L 44.2044 12.0266 L 48.1564 7.0959 L 52.3983 1.5103 L 39.4301 1.5103 Z" fill="#004098"/>
			</g>
		</g>
	</g>
</svg>