<?xml version="1.0" standalone="no"?>
<!-- Generator: Adobe Fireworks 10, Export SVG Extension by Aaron Beall (http://fireworks.abeall.com) . Version: 0.6.1  -->
<!DOCTYPE svg PUBLIC "-//W3C//DTD SVG 1.1//EN" "http://www.w3.org/Graphics/SVG/1.1/DTD/svg11.dtd">
<svg id="Untitled-%u30DA%u30FC%u30B8%201" viewBox="0 0 51 35" style="background-color:#ffffff00" version="1.1"
	xmlns="http://www.w3.org/2000/svg" xmlns:xlink="http://www.w3.org/1999/xlink" xml:space="preserve"
	x="0px" y="0px" width="51px" height="35px"
>
	<g id="%u30EC%u30A4%u30E4%u30FC%201">
		<g>
			<path d="M 0.9403 11.0914 L 1.8454 11.0914 L 1.8454 16.6908 L 0.9403 16.6908 C 0.4393 16.6908 0.0332 16.2745 0.0332 15.7568 L 0.0332 12.0235 C 0.0332 11.5114 0.4393 11.0914 0.9403 11.0914 L 0.9403 11.0914 ZM 28.1279 11.0914 L 27.2208 11.0914 L 27.2208 16.6908 L 28.1279 16.6908 C 28.627 16.6908 29.0332 16.2745 29.0332 15.7568 L 29.0332 12.0235 C 29.0332 11.5114 28.6288 11.0914 28.1279 11.0914 L 28.1279 11.0914 ZM 25.4084 9.2251 L 25.4084 26.0254 C 25.4084 27.0576 24.5978 27.8924 23.596 27.8924 L 23.596 29.7585 C 23.596 30.7901 22.7853 31.625 21.7837 31.625 L 19.9713 31.625 C 18.9695 31.625 18.1589 30.7882 18.1589 29.7585 L 18.1589 27.8924 L 10.9091 27.8924 L 10.9091 29.7585 C 10.9091 30.7901 10.0984 31.625 9.0969 31.625 L 7.2849 31.625 C 6.2829 31.625 5.4722 30.7882 5.4722 29.7585 L 5.4722 27.8924 C 4.4705 27.8924 3.66 27.0557 3.66 26.0254 L 3.66 9.2251 C 3.658 6.1335 6.0939 3.625 9.0969 3.625 L 19.9713 3.625 C 22.9727 3.625 25.4084 6.1315 25.4084 9.2251 L 25.4084 9.2251 ZM 10.9091 7.3581 L 18.1589 7.3581 L 18.1589 5.4918 L 10.9091 5.4918 L 10.9091 7.3581 ZM 9.0969 24.1593 C 9.0969 23.1253 8.2844 22.2923 7.2849 22.2923 C 6.2829 22.2923 5.4722 23.1272 5.4722 24.1593 C 5.4722 25.1905 6.2829 26.0254 7.2849 26.0254 C 8.2844 26.0254 9.0969 25.1886 9.0969 24.1593 L 9.0969 24.1593 ZM 23.596 24.1593 C 23.596 23.1253 22.7853 22.2923 21.7837 22.2923 C 20.782 22.2923 19.9713 23.1272 19.9713 24.1593 C 19.9713 25.1905 20.782 26.0254 21.7837 26.0254 C 22.7853 26.0254 23.596 25.1886 23.596 24.1593 L 23.596 24.1593 ZM 23.596 9.2251 L 5.4704 9.2251 L 5.4704 20.4238 L 23.596 20.4238 L 23.596 9.2251 ZM 23.596 9.2251 L 23.596 9.2251 Z" fill="#ffffff"/>
			<g>
				<path d="M 39.099 18.0751 C 37.5654 18.0751 36.3176 19.3236 36.3176 20.8582 C 36.3176 21.0713 36.4904 21.244 36.7034 21.244 C 36.9164 21.244 37.0891 21.0713 37.0891 20.8582 C 37.0891 19.7493 37.9907 18.8471 39.099 18.8471 C 39.312 18.8471 39.4846 18.6744 39.4846 18.4613 C 39.4846 18.2479 39.312 18.0751 39.099 18.0751 Z" stroke="#ffffff" stroke-width="2" fill="#ffffff"/>
				<path d="M 44.7971 24.1354 C 45.4944 23.0418 45.8984 21.7441 45.8984 20.3533 C 45.8984 16.4638 42.7365 13.3 38.8492 13.3 C 37.4593 13.3 36.1624 13.7043 35.0692 14.4019 C 34.1983 14.9573 33.4571 15.6991 32.9019 16.5706 C 32.2046 17.6644 31.8 18.9626 31.8 20.3533 C 31.8 24.2424 34.9625 27.4067 38.8492 27.4067 C 40.2392 27.4067 41.5366 27.0019 42.6297 26.3043 C 43.5007 25.7486 44.2418 25.0071 44.7971 24.1354 ZM 41.1351 24.8087 C 40.4495 25.1625 39.6721 25.3622 38.8492 25.3622 C 36.0893 25.3622 33.8432 23.115 33.8432 20.3533 C 33.8432 19.5298 34.043 18.7522 34.3965 18.0661 C 34.8751 17.1369 35.6357 16.3764 36.5643 15.898 C 37.2498 15.5442 38.0268 15.3445 38.8492 15.3445 C 41.6096 15.3445 43.8551 17.5911 43.8551 20.3533 C 43.8551 21.1761 43.6554 21.9537 43.3019 22.6396 C 42.8239 23.5688 42.0637 24.3298 41.1351 24.8087 Z" fill="#ffffff"/>
				<path d="M 49.7513 29.0822 L 45.6818 25.0205 C 45.1025 25.8667 44.3603 26.6088 43.5144 27.1891 L 47.584 31.2508 C 47.8834 31.5503 48.2756 31.7 48.6675 31.7 C 49.0598 31.7 49.4521 31.5503 49.7515 31.2508 C 50.3495 30.6519 50.3495 29.6812 49.7513 29.0822 Z" fill="#ffffff"/>
			</g>
		</g>
	</g>
</svg>