<?xml version="1.0" standalone="no"?>
<!-- Generator: Adobe Fireworks 10, Export SVG Extension by Aaron Beall (http://fireworks.abeall.com) . Version: 0.6.1  -->
<!DOCTYPE svg PUBLIC "-//W3C//DTD SVG 1.1//EN" "http://www.w3.org/Graphics/SVG/1.1/DTD/svg11.dtd">
<svg id="Untitled-%u30DA%u30FC%u30B8%201" viewBox="0 0 51 35" style="background-color:#ffffff00" version="1.1"
	xmlns="http://www.w3.org/2000/svg" xmlns:xlink="http://www.w3.org/1999/xlink" xml:space="preserve"
	x="0px" y="0px" width="51px" height="35px"
>
	<g id="%u30EC%u30A4%u30E4%u30FC%201">
		<g>
			<g>
				<path d="M 32.9644 13.0779 C 35.598 13.0779 37.733 10.9702 37.733 8.3698 C 37.733 5.7694 35.598 3.6616 32.9644 3.6616 C 30.3306 3.6616 28.1956 5.7693 28.1956 8.3698 C 28.1956 10.9702 30.3304 13.0779 32.9644 13.0779 Z" fill="#ffffff"/>
				<path d="M 10.3643 28.2272 L 40.6357 28.2272 L 40.6357 31.3384 L 10.3643 31.3384 L 10.3643 28.2272 Z" fill="#ffffff"/>
				<path d="M 31.5129 27.4083 L 38.1063 27.4083 L 38.1063 19.3835 C 38.1063 16.5799 35.8041 14.3065 32.9644 14.3065 C 30.1244 14.3065 27.8221 16.5799 27.8221 19.3835 L 27.8221 24.1325 L 31.5128 24.1325 L 31.5128 27.4083 L 31.5129 27.4083 Z" fill="#ffffff"/>
				<path d="M 17.8978 27.4083 L 25.8457 27.4083 L 30.6833 27.4083 L 30.6833 24.9513 L 24.7017 24.9513 L 22.1826 18.1959 L 10.4336 18.1959 L 14.0963 27.4083 L 17.8978 27.4083 Z" fill="#ffffff"/>
			</g>
		</g>
	</g>
</svg>