<?xml version="1.0" standalone="no"?>
<!-- Generator: Adobe Fireworks 10, Export SVG Extension by Aaron Beall (http://fireworks.abeall.com) . Version: 0.6.1  -->
<!DOCTYPE svg PUBLIC "-//W3C//DTD SVG 1.1//EN" "http://www.w3.org/Graphics/SVG/1.1/DTD/svg11.dtd">
<svg id="Untitled-%u30DA%u30FC%u30B8%201" viewBox="0 0 51 35" style="background-color:#ffffff00" version="1.1"
	xmlns="http://www.w3.org/2000/svg" xmlns:xlink="http://www.w3.org/1999/xlink" xml:space="preserve"
	x="0px" y="0px" width="51px" height="35px"
>
	<g id="%u30EC%u30A4%u30E4%u30FC%201">
		<g>
			<path d="M 33.7874 3.0022 C 31.6332 2.9339 29.8287 4.4798 29.7549 6.4559 C 29.6801 8.432 31.3659 10.0883 33.5197 10.1565 C 35.6734 10.2244 37.479 8.6776 37.5526 6.702 C 37.6277 4.7266 35.9413 3.0701 33.7874 3.0022 Z" fill="#ffffff"/>
			<path d="M 32.7496 11.6351 C 31.2753 11.1008 29.6074 11.7635 29.026 13.1174 L 29.026 13.1158 L 25.9099 20.2553 L 19.8253 18.6131 C 18.5079 18.1528 17.0345 18.7308 16.4885 19.9239 L 12.6015 29.2873 C 12.1741 30.2197 12.6523 31.2945 13.6703 31.6866 C 14.6884 32.0785 15.8595 31.6394 16.2869 30.7064 L 20.3248 23.9126 L 25.0049 25.6113 C 27.7777 26.6591 29.7358 25.6113 30.8774 23.0674 L 34.3661 15.0519 C 34.9482 13.6989 34.2258 12.1695 32.7496 11.6351 Z" fill="#ffffff"/>
			<path d="M 35.5201 20.2819 C 34.8853 19.9957 34.1185 20.2367 33.8083 20.8184 L 30.9289 26.2187 C 30.7174 26.5971 30.499 26.8849 30.2831 27.0993 C 29.9528 27.4185 29.6489 27.5844 29.2309 27.6907 C 28.8156 27.792 28.254 27.8124 27.5003 27.6949 C 27.3007 27.6647 27.0889 27.6272 26.8652 27.5774 L 23.3603 26.7702 C 22.6705 26.6219 21.9827 27.0174 21.8229 27.6478 C 21.6636 28.2783 22.0937 28.9082 22.7836 29.0565 L 26.2703 29.8596 C 26.5452 29.9207 26.8167 29.9661 27.0795 30.0074 C 27.7477 30.1096 28.3815 30.1464 28.9949 30.098 C 29.9117 30.0283 30.7829 29.7434 31.4993 29.2453 C 32.2197 28.7512 32.7688 28.0789 33.2101 27.2922 L 33.2175 27.2798 L 36.1115 21.8498 C 36.4217 21.2682 36.1571 20.5653 35.5201 20.2819 Z" fill="#ffffff"/>
		</g>
	</g>
</svg>