<?xml version="1.0" standalone="no"?>
<!-- Generator: Adobe Fireworks 10, Export SVG Extension by Aaron Beall (http://fireworks.abeall.com) . Version: 0.6.1  -->
<!DOCTYPE svg PUBLIC "-//W3C//DTD SVG 1.1//EN" "http://www.w3.org/Graphics/SVG/1.1/DTD/svg11.dtd">
<svg id="Untitled-%u30DA%u30FC%u30B8%201" viewBox="0 0 51 35" style="background-color:#ffffff00" version="1.1"
	xmlns="http://www.w3.org/2000/svg" xmlns:xlink="http://www.w3.org/1999/xlink" xml:space="preserve"
	x="0px" y="0px" width="51px" height="35px"
>
	<g id="%u30EC%u30A4%u30E4%u30FC%201">
		<g>
			<g>
				<path d="M 13.9436 15.2971 L 13.2355 15.2971 L 12.3676 15.2971 C 10.7588 15.2971 9.4487 16.5128 9.4041 18.0287 L 9.4033 18.0757 L 9.4033 18.109 L 9.4033 21.1184 L 9.4033 24.7867 C 9.4033 25.3175 9.8568 25.7477 10.4164 25.7477 L 10.521 25.7477 L 10.521 32.8662 L 15.6306 32.8662 L 15.6306 25.7477 L 15.8948 25.7477 C 16.4543 25.7477 16.9078 25.3175 16.9078 24.7867 L 16.9078 21.1184 L 16.9078 18.109 L 16.9078 18.0757 L 16.9072 18.0416 C 16.8694 16.5198 15.557 15.2971 13.9436 15.2971 ZM 10.8403 13.0253 C 10.8403 14.28 11.9126 15.2971 13.2355 15.2971 C 14.5583 15.2971 15.6306 14.28 15.6306 13.0253 C 15.6306 11.7706 14.5583 10.7534 13.2355 10.7534 C 11.9126 10.7534 10.8403 11.7706 10.8403 13.0253 Z" fill="#ffffff"/>
				<path d="M 0.6212 0 L 21.3788 3.9379 L 21.3788 5.9068 L 3.9744 4.0893 L 3.9744 32.7148 L 0.6212 32.7148 L 0.6212 0 Z" fill="#ffffff"/>
			</g>
			<path d="M 23.8918 14.9819 L 24.7336 14.9819 L 24.7336 20.1893 L 23.8918 20.1893 C 23.4258 20.1893 23.0482 19.8022 23.0482 19.3207 L 23.0482 15.8487 C 23.0482 15.3725 23.4258 14.9819 23.8918 14.9819 L 23.8918 14.9819 ZM 49.1763 14.9819 L 48.3326 14.9819 L 48.3326 20.1893 L 49.1763 20.1893 C 49.6404 20.1893 50.0182 19.8022 50.0182 19.3207 L 50.0182 15.8487 C 50.0182 15.3725 49.6421 14.9819 49.1763 14.9819 L 49.1763 14.9819 ZM 46.6472 13.2462 L 46.6472 28.8705 C 46.6472 29.8304 45.8933 30.6068 44.9615 30.6068 L 44.9615 32.3422 C 44.9615 33.3016 44.2078 34.0781 43.2761 34.0781 L 41.5907 34.0781 C 40.6589 34.0781 39.9052 33.2999 39.9052 32.3422 L 39.9052 30.6068 L 33.1628 30.6068 L 33.1628 32.3422 C 33.1628 33.3016 32.4088 34.0781 31.4774 34.0781 L 29.7922 34.0781 C 28.8605 34.0781 28.1064 33.2999 28.1064 32.3422 L 28.1064 30.6068 C 27.1748 30.6068 26.4211 29.8286 26.4211 28.8705 L 26.4211 13.2462 C 26.4192 10.371 28.6846 8.0381 31.4774 8.0381 L 41.5907 8.0381 C 44.3818 8.0381 46.6472 10.3692 46.6472 13.2462 L 46.6472 13.2462 ZM 33.1628 11.5099 L 39.9052 11.5099 L 39.9052 9.7742 L 33.1628 9.7742 L 33.1628 11.5099 ZM 31.4774 27.135 C 31.4774 26.1734 30.7218 25.3987 29.7922 25.3987 C 28.8605 25.3987 28.1064 26.1751 28.1064 27.135 C 28.1064 28.094 28.8605 28.8705 29.7922 28.8705 C 30.7218 28.8705 31.4774 28.0923 31.4774 27.135 L 31.4774 27.135 ZM 44.9615 27.135 C 44.9615 26.1734 44.2078 25.3987 43.2761 25.3987 C 42.3446 25.3987 41.5907 26.1751 41.5907 27.135 C 41.5907 28.094 42.3446 28.8705 43.2761 28.8705 C 44.2078 28.8705 44.9615 28.0923 44.9615 27.135 L 44.9615 27.135 ZM 44.9615 13.2462 L 28.1049 13.2462 L 28.1049 23.661 L 44.9615 23.661 L 44.9615 13.2462 ZM 44.9615 13.2462 L 44.9615 13.2462 Z" fill="#ffffff"/>
		</g>
	</g>
</svg>