<?xml version="1.0" standalone="no"?>
<!-- Generator: Adobe Fireworks 10, Export SVG Extension by Aaron Beall (http://fireworks.abeall.com) . Version: 0.6.1  -->
<!DOCTYPE svg PUBLIC "-//W3C//DTD SVG 1.1//EN" "http://www.w3.org/Graphics/SVG/1.1/DTD/svg11.dtd">
<svg id="Untitled-%u30DA%u30FC%u30B8%201" viewBox="0 0 22 22" style="background-color:#ffffff" version="1.1"
	xmlns="http://www.w3.org/2000/svg" xmlns:xlink="http://www.w3.org/1999/xlink" xml:space="preserve"
	x="0px" y="0px" width="22px" height="22px"
>
	<g id="%u30EC%u30A4%u30E4%u30FC%201">
		<rect x="0" y="0" width="22" height="22" fill="#003e97"/>
		<path d="M 7.8214 8 L 7.1786 8 C 7.0801 8 7 8.1103 7 8.2458 L 7 13.7543 C 7 13.8901 7.0801 14 7.1786 14 L 7.8214 14 C 7.92 14 8 13.8901 8 13.7543 L 8 8.2458 C 8 8.1103 7.92 8 7.8214 8 L 7.8214 8 Z" fill="#ffffff"/>
		<path d="M 14.7653 8 L 13.9193 8 C 13.7895 8 13.6842 8.1103 13.6842 8.2458 L 13.6842 11.5184 L 11.2763 8.1093 C 11.2707 8.1006 11.2644 8.0923 11.258 8.0844 L 11.2565 8.0828 C 11.2519 8.0773 11.2471 8.0724 11.2424 8.0676 C 11.2408 8.0662 11.2395 8.065 11.2379 8.0636 C 11.234 8.0597 11.2298 8.056 11.2253 8.0526 C 11.2235 8.0507 11.2215 8.0492 11.2195 8.0475 C 11.2152 8.0446 11.2113 8.0414 11.2072 8.0388 C 11.2049 8.037 11.2024 8.0356 11.2 8.0345 C 11.1958 8.0317 11.1917 8.0291 11.1875 8.0269 C 11.1849 8.0257 11.1827 8.0243 11.1802 8.0233 C 11.1757 8.0211 11.1713 8.0189 11.1667 8.0172 C 11.1639 8.0162 11.1616 8.0153 11.1591 8.0143 C 11.1544 8.0125 11.1498 8.0109 11.1449 8.0097 C 11.1425 8.0088 11.1395 8.0083 11.1368 8.0073 C 11.1324 8.0063 11.1279 8.0051 11.1235 8.0042 C 11.1202 8.0037 11.1169 8.0032 11.1135 8.003 C 11.1094 8.0019 11.1052 8.0017 11.101 8.0012 C 11.0972 8.0007 11.0933 8.0007 11.089 8.0005 C 11.0861 8.0005 11.0837 8 11.0807 8 L 10.2351 8 C 10.1054 8 10 8.1103 10 8.2458 L 10 13.7543 C 10 13.8901 10.1054 14 10.2351 14 L 11.0807 14 C 11.2106 14 11.3159 13.8901 11.3159 13.7543 L 11.3159 10.4827 L 13.7269 13.8961 C 13.7437 13.9208 13.7641 13.9409 13.7866 13.9569 C 13.7872 13.9574 13.7881 13.9581 13.7888 13.9588 C 13.7937 13.962 13.7985 13.9652 13.8034 13.968 C 13.8057 13.9695 13.8077 13.9705 13.8099 13.9717 C 13.8136 13.9739 13.8174 13.9759 13.8213 13.9775 C 13.8252 13.9792 13.8286 13.981 13.8328 13.9826 C 13.8351 13.9836 13.8373 13.9845 13.8396 13.9853 C 13.8452 13.9875 13.8504 13.9891 13.8555 13.9909 C 13.8566 13.9909 13.8578 13.9914 13.8592 13.9916 C 13.8782 13.9969 13.8984 14 13.9193 14 L 14.7653 14 C 14.8951 14 15 13.8901 15 13.7543 L 15 8.2458 C 15 8.1103 14.8951 8 14.7653 8 L 14.7653 8 Z" fill="#ffffff"/>
		<path d="M 5.7564 12.6206 L 3.3676 12.6206 L 3.3676 8.2462 C 3.3676 8.1103 3.2581 8 3.1236 8 L 2.2442 8 C 2.1094 8 2 8.1103 2 8.2462 L 2 13.7535 L 2 13.754 C 2 13.8203 2.0264 13.8801 2.0683 13.9241 C 2.0693 13.9253 2.0703 13.9266 2.0717 13.9278 C 2.0728 13.929 2.074 13.9299 2.0754 13.9312 C 2.1193 13.9739 2.1784 14 2.244 14 L 2.2442 14 L 5.7564 14 C 5.8911 14 6 13.8895 6 13.7535 L 6 12.8669 C 6 12.7309 5.8911 12.6206 5.7564 12.6206 L 5.7564 12.6206 Z" fill="#ffffff"/>
		<path d="M 19.7564 9.3794 C 19.8911 9.3794 20 9.2693 20 9.1331 L 20 8.2465 C 20 8.1105 19.8911 8 19.7564 8 L 16.2441 8 L 16.2436 8 C 16.1776 8 16.1183 8.0266 16.0744 8.0696 C 16.0734 8.0705 16.0723 8.0712 16.0716 8.0722 C 16.0702 8.0736 16.069 8.0751 16.0676 8.0766 C 16.0258 8.1207 16 8.1802 16 8.2462 L 16 8.2465 L 16 13.7538 L 16 13.754 C 16 13.8203 16.026 13.8801 16.0681 13.9241 C 16.0692 13.9253 16.0704 13.9269 16.0716 13.9278 C 16.0725 13.929 16.0739 13.9302 16.0751 13.9312 C 16.1187 13.9736 16.178 14 16.2436 14 L 16.2441 14 L 19.7564 14 C 19.8911 14 20 13.8895 20 13.7538 L 20 12.8669 C 20 12.7311 19.8911 12.6206 19.7564 12.6206 L 17.3676 12.6206 L 17.3676 11.6896 L 19.7564 11.6896 C 19.8911 11.6896 20 11.5793 20 11.4434 L 20 10.5566 C 20 10.4207 19.8911 10.3102 19.7564 10.3102 L 17.3676 10.3102 L 17.3676 9.3794 L 19.7564 9.3794 Z" fill="#ffffff"/>
	</g>
</svg>