<?xml version="1.0" standalone="no"?>
<!-- Generator: Adobe Fireworks 10, Export SVG Extension by Aaron Beall (http://fireworks.abeall.com) . Version: 0.6.1  -->
<!DOCTYPE svg PUBLIC "-//W3C//DTD SVG 1.1//EN" "http://www.w3.org/Graphics/SVG/1.1/DTD/svg11.dtd">
<svg id="Untitled-%u30DA%u30FC%u30B8%201" viewBox="0 0 22 22" style="background-color:#ffffff" version="1.1"
	xmlns="http://www.w3.org/2000/svg" xmlns:xlink="http://www.w3.org/1999/xlink" xml:space="preserve"
	x="0px" y="0px" width="22px" height="22px"
>
	<g id="%u30EC%u30A4%u30E4%u30FC%201">
		<rect x="0" y="0" width="22" height="22" fill="#003e97"/>
		<path d="M 14.0416 11.0056 L 12.0515 11.0056 C 12.0515 14.4543 12.0515 18.7 12.0515 18.7 L 9.1025 18.7 C 9.1025 18.7 9.1025 14.4966 9.1025 11.0056 L 7.7 11.0056 L 7.7 8.2873 L 9.1025 8.2873 L 9.1025 6.5278 C 9.1025 5.2692 9.6538 3.3 12.0782 3.3 L 14.2626 3.3094 L 14.2626 5.9488 C 14.2626 5.9488 12.9347 5.9488 12.6771 5.9488 C 12.4189 5.9488 12.0515 6.0888 12.0515 6.6894 L 12.0515 8.2873 L 14.3 8.2873 L 14.0416 11.0056 Z" fill="#ffffff"/>
	</g>
</svg>