<?xml version="1.0" standalone="no"?>
<!-- Generator: Adobe Fireworks 10, Export SVG Extension by Aaron Beall (http://fireworks.abeall.com) . Version: 0.6.1  -->
<!DOCTYPE svg PUBLIC "-//W3C//DTD SVG 1.1//EN" "http://www.w3.org/Graphics/SVG/1.1/DTD/svg11.dtd">
<svg id="Untitled-%u30DA%u30FC%u30B8%201" viewBox="0 0 22 22" style="background-color:#ffffff" version="1.1"
	xmlns="http://www.w3.org/2000/svg" xmlns:xlink="http://www.w3.org/1999/xlink" xml:space="preserve"
	x="0px" y="0px" width="22px" height="22px"
>
	<g id="%u30EC%u30A4%u30E4%u30FC%201">
		<rect x="0" y="0" width="22" height="22" fill="#003e97"/>
		<path d="M 16.2489 8.5157 C 16.2545 8.6228 16.257 8.7299 16.257 8.8384 C 16.257 12.1414 13.5332 15.95 8.5516 15.95 C 7.0217 15.95 5.5986 15.5366 4.4 14.8272 C 4.6127 14.8502 4.8278 14.8614 5.0461 14.8614 C 6.3159 14.8614 7.4824 14.4628 8.4089 13.7921 C 7.2246 13.7721 6.224 13.0493 5.8799 12.0566 C 6.0452 12.0856 6.2144 12.1012 6.3892 12.1012 C 6.6365 12.1012 6.8756 12.0708 7.1023 12.0135 C 5.8647 11.7837 4.9302 10.7732 4.9302 9.5627 C 4.9302 9.5523 4.9302 9.5418 4.9302 9.5314 C 5.2958 9.7188 5.7131 9.8311 6.1571 9.8437 C 5.4305 9.3961 4.9528 8.6302 4.9528 7.7632 C 4.9528 7.3052 5.0864 6.8761 5.3192 6.5066 C 6.6541 8.019 8.6506 9.0139 10.9009 9.118 C 10.855 8.9351 10.8308 8.7447 10.8308 8.5484 C 10.8308 7.1683 12.0433 6.05 13.5394 6.05 C 14.3177 6.05 15.0219 6.3534 15.5157 6.8382 C 16.1321 6.7267 16.7122 6.5185 17.2358 6.2322 C 17.0327 6.8159 16.6041 7.3059 16.0452 7.6145 C 16.5929 7.555 17.115 7.4204 17.6 7.2219 C 17.2374 7.723 16.7782 8.1633 16.2489 8.5157 Z" fill="#ffffff"/>
	</g>
</svg>