<?xml version="1.0" standalone="no"?>
<!-- Generator: Adobe Fireworks 10, Export SVG Extension by Aaron Beall (http://fireworks.abeall.com) . Version: 0.6.1  -->
<!DOCTYPE svg PUBLIC "-//W3C//DTD SVG 1.1//EN" "http://www.w3.org/Graphics/SVG/1.1/DTD/svg11.dtd">
<svg id="Untitled-%u30DA%u30FC%u30B8%201" viewBox="0 0 19 19" style="background-color:#ffffff00" version="1.1"
	xmlns="http://www.w3.org/2000/svg" xmlns:xlink="http://www.w3.org/1999/xlink" xml:space="preserve"
	x="0px" y="0px" width="19px" height="19px"
>
	<g id="%u30EC%u30A4%u30E4%u30FC%201">
		<g>
			<path d="M 16.9064 4.0438 C 16.7415 3.8032 16.5686 3.5721 16.3833 3.3496 C 14.6851 1.3016 12.1225 0 9.256 0 C 6.3895 0 3.8269 1.3016 2.1287 3.3496 C 1.9434 3.5721 1.7705 3.8032 1.6056 4.0438 C 0.5932 5.5274 0 7.3205 0 9.256 C 0 11.1881 0.5932 12.9812 1.6022 14.4653 C 1.7672 14.7054 1.9412 14.9371 2.1264 15.1596 C 3.8235 17.207 6.3867 18.512 9.256 18.512 C 12.1253 18.512 14.6885 17.207 16.3861 15.1596 C 16.5709 14.9371 16.7449 14.7054 16.9098 14.4653 C 17.9188 12.9812 18.512 11.1881 18.512 9.256 C 18.512 7.3205 17.9188 5.5274 16.9064 4.0438 ZM 16.7596 8.821 L 13.945 8.821 C 13.9145 7.7589 13.771 6.7511 13.5371 5.8302 C 14.2382 5.6121 14.8902 5.3443 15.472 5.0302 C 16.2195 6.1234 16.6793 7.4222 16.7596 8.821 ZM 9.6893 1.8361 C 10.4638 2.0214 11.2073 2.6948 11.8197 3.7828 C 12.066 4.2201 12.2739 4.7071 12.4513 5.2246 C 11.5892 5.428 10.6582 5.55 9.6893 5.5794 L 9.6893 1.8361 ZM 8.8215 1.8361 L 8.8215 5.5793 C 7.8533 5.5499 6.9216 5.4279 6.0595 5.2245 C 6.2369 4.707 6.4448 4.2201 6.6912 3.7828 C 7.3036 2.6948 8.0476 2.0214 8.8215 1.8361 ZM 8.8215 6.4471 L 8.8215 8.821 L 5.4392 8.821 C 5.4686 7.8521 5.5952 6.9205 5.8121 6.0618 C 6.7488 6.2861 7.7629 6.4172 8.8215 6.4471 ZM 8.8215 9.6887 L 8.8215 12.0649 C 7.7634 12.0943 6.7499 12.2254 5.8121 12.4502 C 5.5952 11.5903 5.4686 10.6582 5.4392 9.6887 L 8.8215 9.6887 ZM 8.8215 12.9326 L 8.8215 16.6737 C 8.0476 16.4884 7.3036 15.8144 6.6912 14.7269 C 6.4454 14.2902 6.2375 13.8043 6.0607 13.2874 C 6.9228 13.084 7.8527 12.962 8.8215 12.9326 ZM 9.6893 16.6737 L 9.6893 12.9326 C 10.6571 12.962 11.5881 13.0841 12.4501 13.288 C 12.2733 13.8049 12.0654 14.2908 11.8197 14.7269 C 11.2073 15.815 10.4638 16.4884 9.6893 16.6737 ZM 9.6893 12.0649 L 9.6893 9.6887 L 13.0716 9.6887 C 13.0422 10.6576 12.9157 11.5892 12.6987 12.4491 C 11.7621 12.2242 10.748 12.0943 9.6893 12.0649 ZM 9.6893 8.821 L 9.6893 6.4471 C 10.7474 6.4177 11.7621 6.2867 12.6993 6.0624 C 12.9157 6.9217 13.0422 7.8527 13.0716 8.821 L 9.6893 8.821 ZM 14.9314 4.3297 C 14.4365 4.5862 13.8829 4.8065 13.2914 4.9918 C 12.9027 3.8337 12.3609 2.8563 11.7146 2.1496 C 12.9711 2.5863 14.0783 3.3456 14.9314 4.3297 ZM 6.7962 2.1491 C 6.1499 2.8564 5.6082 3.8337 5.2195 4.9918 C 4.6274 4.8065 4.0733 4.5862 3.5783 4.3297 C 4.4331 3.3456 5.5398 2.5858 6.7962 2.1491 ZM 4.9743 5.8291 C 4.7404 6.7499 4.5964 7.7589 4.5659 8.821 L 1.7525 8.821 C 1.8327 7.4199 2.2926 6.1206 3.0371 5.0268 C 3.6196 5.3415 4.2721 5.6099 4.9743 5.8291 ZM 1.7525 9.6887 L 4.5659 9.6887 C 4.5964 10.752 4.7404 11.761 4.9749 12.6824 C 4.2733 12.901 3.6219 13.1699 3.04 13.4852 C 2.2925 12.3909 1.8321 11.0887 1.7525 9.6887 ZM 3.5806 14.1817 C 4.0755 13.9258 4.6291 13.7055 5.2201 13.5202 C 5.6099 14.6794 6.1522 15.6568 6.7991 16.363 C 5.5421 15.9268 4.4365 15.1664 3.5806 14.1817 ZM 11.7124 16.363 C 12.3587 15.6568 12.901 14.6794 13.2908 13.5208 C 13.8806 13.7061 14.4337 13.9258 14.928 14.1818 C 14.075 15.1664 12.9688 15.9268 11.7124 16.363 ZM 13.5366 12.6807 C 13.7704 11.7598 13.9145 10.7508 13.945 9.6887 L 16.7596 9.6887 C 16.6793 11.0887 16.2172 12.388 15.4692 13.4818 C 14.8873 13.1671 14.2365 12.8987 13.5366 12.6807 Z" fill="#ffffff"/>
		</g>
	</g>
</svg>