<?xml version="1.0" standalone="no"?>
<!-- Generator: Adobe Fireworks 10, Export SVG Extension by Aaron Beall (http://fireworks.abeall.com) . Version: 0.6.1  -->
<!DOCTYPE svg PUBLIC "-//W3C//DTD SVG 1.1//EN" "http://www.w3.org/Graphics/SVG/1.1/DTD/svg11.dtd">
<svg id="Untitled-%u30DA%u30FC%u30B8%201" viewBox="0 0 51 35" style="background-color:#ffffff00" version="1.1"
	xmlns="http://www.w3.org/2000/svg" xmlns:xlink="http://www.w3.org/1999/xlink" xml:space="preserve"
	x="0px" y="0px" width="51px" height="35px"
>
	<g id="%u30EC%u30A4%u30E4%u30FC%201">
		<g>
			<path d="M 35.0509 7.1567 C 32.4814 4.5859 28.9207 2.9987 25.0002 3 C 21.0852 2.9995 17.5259 4.5795 14.9587 7.1478 C 12.3804 9.7246 10.7716 13.2893 10.7724 17.2268 C 10.772 21.1535 12.3659 24.7157 14.9399 27.2881 C 17.5118 29.8616 21.074 31.4557 25.0005 31.4552 C 26.1797 31.4552 27.3204 31.3029 28.4098 31.0336 L 28.6531 30.9734 L 28.6627 30.963 C 28.6627 30.963 28.6624 30.9637 28.6627 30.9637 L 38.7363 20.89 C 38.735 20.89 38.7342 20.8896 38.7329 20.8896 L 38.7466 20.8768 L 38.8067 20.6344 C 39.0749 19.5466 39.228 18.4059 39.2276 17.2267 C 39.2284 13.295 37.6268 9.7318 35.0509 7.1567 ZM 37.2877 19.8949 C 37.2313 19.9066 37.1571 19.9185 37.0668 19.9262 C 36.9034 19.9419 36.6929 19.947 36.4525 19.9422 L 36.4385 19.9419 L 36.4464 19.9419 C 35.7107 19.9363 34.6501 19.8351 33.454 20.0276 L 33.4557 20.0272 C 32.2509 20.2168 30.9046 20.7598 29.7332 21.935 L 29.7227 21.945 L 29.7207 21.9475 L 29.7127 21.9554 L 29.7111 21.9571 C 28.8197 22.8476 28.2806 23.8417 27.9997 24.802 C 27.5789 26.2372 27.6915 27.5467 27.7099 28.4541 L 27.7104 28.4581 C 27.7249 28.9069 27.7132 29.2806 27.6763 29.4701 C 27.6727 29.4893 27.6696 29.4998 27.6658 29.5162 C 26.8025 29.7042 25.9145 29.8136 25.0002 29.8136 C 21.5221 29.8136 18.3807 28.4064 16.1005 26.1275 C 13.8213 23.8473 12.4145 20.7054 12.4137 17.2268 C 12.4145 13.7407 13.8328 10.5968 16.1194 8.3086 C 18.3919 6.0373 21.5302 4.6417 25.0002 4.6412 C 28.4739 4.6416 31.6138 6.0428 33.8903 8.3178 C 36.1728 10.6019 37.5855 13.7447 37.5864 17.2268 C 37.5859 18.1414 37.4765 19.0312 37.2877 19.8949 Z" fill="#ffffff"/>
			<path d="M 18.2348 12.0805 C 16.8461 12.0805 15.7487 12.7234 15.3411 14.0062 C 15.1663 14.5554 15.119 14.9989 15.119 16.1786 C 15.119 17.3574 15.1661 17.8007 15.3411 18.3492 C 15.7487 19.6329 16.8461 20.2748 18.2348 20.2748 C 19.6235 20.2748 20.721 19.6329 21.1303 18.3492 C 21.3052 17.8007 21.3507 17.3574 21.3507 16.1786 C 21.3507 14.9989 21.3054 14.5556 21.1303 14.0062 C 20.721 12.7234 19.6235 12.0805 18.2348 12.0805 ZM 19.4846 17.8822 C 19.3087 18.4314 18.8881 18.7576 18.2348 18.7576 C 17.5816 18.7576 17.1617 18.4314 16.9869 17.8822 C 16.8925 17.6023 16.8583 17.2175 16.8583 16.1786 C 16.8583 15.1396 16.8926 14.754 16.9869 14.4733 C 17.1617 13.9259 17.5816 13.5998 18.2348 13.5998 C 18.8879 13.5998 19.3087 13.9259 19.4846 14.4733 C 19.5772 14.7542 19.6132 15.1396 19.6132 16.1786 C 19.613 17.2175 19.5772 17.6023 19.4846 17.8822 Z" fill="#ffffff"/>
			<path d="M 27.8517 12.2101 L 22.7631 12.2101 C 22.6922 12.2101 22.645 12.2573 22.645 12.3262 L 22.645 20.0281 C 22.645 20.0998 22.6921 20.1461 22.7631 20.1461 L 24.2445 20.1461 C 24.3134 20.1461 24.3607 20.0998 24.3607 20.0281 L 24.3607 17.0417 C 24.3607 16.9944 24.3851 16.9727 24.4315 16.9727 L 27.2797 16.9727 C 27.3489 16.9727 27.3952 16.9254 27.3952 16.8555 L 27.3952 15.618 C 27.3952 15.5473 27.3489 15.5016 27.2797 15.5016 L 24.4315 15.5016 C 24.3851 15.5016 24.3607 15.4782 24.3607 15.431 L 24.3607 13.7623 C 24.3607 13.7159 24.3851 13.6915 24.4315 13.6915 L 27.8516 13.6915 C 27.9208 13.6915 27.968 13.646 27.968 13.5753 L 27.968 12.3264 C 27.968 12.2573 27.9208 12.2101 27.8517 12.2101 Z" fill="#ffffff"/>
			<path d="M 34.5931 12.2101 L 29.5045 12.2101 C 29.4336 12.2101 29.3882 12.2573 29.3882 12.3262 L 29.3882 20.0281 C 29.3882 20.0998 29.4336 20.1461 29.5045 20.1461 L 30.9877 20.1461 C 31.0567 20.1461 31.1031 20.0998 31.1031 20.0281 L 31.1031 17.0417 C 31.1031 16.9944 31.1259 16.9727 31.173 16.9727 L 34.0213 16.9727 C 34.0903 16.9727 34.1374 16.9254 34.1374 16.8555 L 34.1374 15.618 C 34.1374 15.5473 34.0903 15.5016 34.0213 15.5016 L 31.173 15.5016 C 31.1259 15.5016 31.1031 15.4782 31.1031 15.431 L 31.1031 13.7623 C 31.1031 13.7159 31.1259 13.6915 31.173 13.6915 L 34.5931 13.6915 C 34.6624 13.6915 34.7094 13.646 34.7094 13.5753 L 34.7094 12.3264 C 34.7094 12.2573 34.6624 12.2101 34.5931 12.2101 Z" fill="#ffffff"/>
		</g>
	</g>
</svg>