<?xml version="1.0" standalone="no"?>
<!-- Generator: Adobe Fireworks 10, Export SVG Extension by Aaron Beall (http://fireworks.abeall.com) . Version: 0.6.1  -->
<!DOCTYPE svg PUBLIC "-//W3C//DTD SVG 1.1//EN" "http://www.w3.org/Graphics/SVG/1.1/DTD/svg11.dtd">
<svg id="Untitled-%u30DA%u30FC%u30B8%201" viewBox="0 0 51 35" style="background-color:#ffffff00" version="1.1"
	xmlns="http://www.w3.org/2000/svg" xmlns:xlink="http://www.w3.org/1999/xlink" xml:space="preserve"
	x="0px" y="0px" width="51px" height="35px"
>
	<g id="%u30EC%u30A4%u30E4%u30FC%201">
		<g>
			<path d="M 32.1468 6.3258 L 32.5556 6.3258 L 32.5556 8.9033 L 32.1468 8.9033 C 31.9204 8.9033 31.7371 8.7117 31.7371 8.4734 L 31.7371 6.7549 C 31.7371 6.5191 31.9204 6.3258 32.1468 6.3258 L 32.1468 6.3258 ZM 44.4263 6.3258 L 44.0164 6.3258 L 44.0164 8.9033 L 44.4263 8.9033 C 44.6516 8.9033 44.8351 8.7117 44.8351 8.4734 L 44.8351 6.7549 C 44.8351 6.5191 44.6525 6.3258 44.4263 6.3258 L 44.4263 6.3258 ZM 43.1979 5.4667 L 43.1979 13.2002 C 43.1979 13.6753 42.8318 14.0596 42.3794 14.0596 L 42.3794 14.9186 C 42.3794 15.3934 42.0131 15.7778 41.5608 15.7778 L 40.7422 15.7778 C 40.2897 15.7778 39.9236 15.3926 39.9236 14.9186 L 39.9236 14.0596 L 36.6493 14.0596 L 36.6493 14.9186 C 36.6493 15.3934 36.2832 15.7778 35.8308 15.7778 L 35.0123 15.7778 C 34.5599 15.7778 34.1936 15.3926 34.1936 14.9186 L 34.1936 14.0596 C 33.7412 14.0596 33.3751 13.6744 33.3751 13.2002 L 33.3751 5.4667 C 33.3742 4.0436 34.4744 2.8889 35.8308 2.8889 L 40.7422 2.8889 C 42.0977 2.8889 43.1979 4.0427 43.1979 5.4667 L 43.1979 5.4667 ZM 36.6493 4.6073 L 39.9236 4.6073 L 39.9236 3.7482 L 36.6493 3.7482 L 36.6493 4.6073 ZM 35.8308 12.3412 C 35.8308 11.8652 35.4637 11.4818 35.0123 11.4818 C 34.5599 11.4818 34.1936 11.8661 34.1936 12.3412 C 34.1936 12.8159 34.5599 13.2002 35.0123 13.2002 C 35.4637 13.2002 35.8308 12.815 35.8308 12.3412 L 35.8308 12.3412 ZM 42.3794 12.3412 C 42.3794 11.8652 42.0131 11.4818 41.5608 11.4818 C 41.1084 11.4818 40.7422 11.8661 40.7422 12.3412 C 40.7422 12.8159 41.1084 13.2002 41.5608 13.2002 C 42.0131 13.2002 42.3794 12.815 42.3794 12.3412 L 42.3794 12.3412 ZM 42.3794 5.4667 L 34.1929 5.4667 L 34.1929 10.6217 L 42.3794 10.6217 L 42.3794 5.4667 ZM 42.3794 5.4667 L 42.3794 5.4667 Z" fill="#ffffff"/>
		</g>
		<path id="%u6955%u5186%u5F62" d="M 29.6804 8.8889 C 29.6804 3.9796 33.5574 0 38.3403 0 C 43.123 0 47 3.9796 47 8.8889 C 47 13.7981 43.123 17.7778 38.3403 17.7778 C 33.5574 17.7778 29.6804 13.7981 29.6804 8.8889 Z" stroke="#ffffff" stroke-width="1" fill="none"/>
		<path d="M 5.2166 33.2222 L 5.2166 35 L 46.0257 35 L 46.0257 33.2222 L 38.9897 33.2222 L 38.9897 18.2222 L 37.6907 18.2222 L 37.6907 33.2222 L 27.8403 33.2222 L 5.2166 33.2222 Z" fill="#ffffff"/>
		<g>
			<path d="M 30.8227 17.2802 L 25.1215 11.4299 L 19.9381 6.1111 L 14.7548 11.4299 L 9.0518 17.283 L 5 21.4398 L 7.3331 23.834 L 11.3841 19.6772 L 17.088 13.8241 L 19.9381 10.8995 L 22.7883 13.8241 L 28.4885 19.6743 L 32.5432 23.834 L 34.8763 21.4398 L 30.8227 17.2802 Z" fill="#ffffff"/>
			<path d="M 10.002 24.0089 L 10.002 33 L 21.0323 33 L 21.0323 25.8755 L 25.0485 25.8755 L 25.0485 33 L 29.8745 33 L 29.8745 24.0062 L 19.939 13.811 L 10.002 24.0089 Z" fill="#ffffff"/>
		</g>
	</g>
</svg>