<?xml version="1.0" standalone="no"?>
<!-- Generator: Adobe Fireworks 10, Export SVG Extension by Aaron Beall (http://fireworks.abeall.com) . Version: 0.6.1  -->
<!DOCTYPE svg PUBLIC "-//W3C//DTD SVG 1.1//EN" "http://www.w3.org/Graphics/SVG/1.1/DTD/svg11.dtd">
<svg id="Untitled-%u30DA%u30FC%u30B8%201" viewBox="0 0 300 300" style="background-color:#e5e5e5" version="1.1"
	xmlns="http://www.w3.org/2000/svg" xmlns:xlink="http://www.w3.org/1999/xlink" xml:space="preserve"
	x="0px" y="0px" width="300px" height="300px"
>
	<g id="%u30EC%u30A4%u30E4%u30FC%201">
		<g>
			<g>
				<path d="M 112.9737 133 L 110.1461 146.4191 L 102.4565 146.4191 L 105.2841 133 L 112.9737 133 ZM 127.807 133 L 119.4125 138.3125 L 126.1686 146.4191 L 116.8053 146.4191 L 111.758 139.4133 L 120.1614 133 L 127.807 133 Z" fill="#cccccc"/>
				<path d="M 146.8917 139.8206 C 145.9871 144.3733 141.8943 146.6501 134.6127 146.6501 C 128.1354 146.6501 124.8972 144.8399 124.8972 141.2186 C 124.8972 140.7804 124.947 140.3147 125.0469 139.8206 C 125.9452 135.2736 130.0351 133 137.317 133 C 143.7939 133 147.0327 134.811 147.0327 138.4327 C 147.0327 138.8706 146.9856 139.3331 146.8917 139.8206 ZM 138.8586 139.8206 C 138.9756 139.2531 139.0347 138.7504 139.0347 138.3125 C 139.0347 136.7635 138.274 135.9892 136.7532 135.9892 C 135.7314 135.9892 134.9297 136.2992 134.3485 136.9192 C 133.7673 137.5397 133.3413 138.5067 133.0712 139.8206 C 132.9598 140.3942 132.9038 140.9008 132.9038 141.3387 C 132.9038 142.8871 133.6616 143.6611 135.1764 143.6611 C 136.1983 143.6611 137.0056 143.3464 137.5989 142.7173 C 138.1683 142.1066 138.5883 141.1412 138.8586 139.8206 Z" fill="#cccccc"/>
				<path d="M 168.571 133.0184 L 167.9017 136.2668 L 160.485 136.2668 L 158.3531 146.4097 L 151.5004 146.4097 L 153.6409 136.2668 L 146.5677 136.2668 L 147.2283 133.0184 L 168.571 133.0184 Z" fill="#cccccc"/>
				<path d="M 190.4525 139.8206 C 189.548 144.3733 185.4551 146.6501 178.1735 146.6501 C 171.6962 146.6501 168.458 144.8399 168.458 141.2186 C 168.458 140.7804 168.5079 140.3147 168.6077 139.8206 C 169.506 135.2736 173.5959 133 180.8778 133 C 187.3548 133 190.5935 134.811 190.5935 138.4327 C 190.5935 138.8706 190.5465 139.3331 190.4525 139.8206 ZM 182.4194 139.8206 C 182.5365 139.2531 182.5956 138.7504 182.5956 138.3125 C 182.5956 136.7635 181.8348 135.9892 180.314 135.9892 C 179.2922 135.9892 178.4905 136.2992 177.9093 136.9192 C 177.3281 137.5397 176.902 138.5067 176.6321 139.8206 C 176.5204 140.3942 176.4645 140.9008 176.4645 141.3387 C 176.4645 142.8871 177.2224 143.6611 178.7371 143.6611 C 179.759 143.6611 180.5663 143.3464 181.1597 142.7173 C 181.7291 142.1066 182.1489 141.1412 182.4194 139.8206 Z" fill="#cccccc"/>
				<path d="M 212.4354 136.3502 C 212.2295 137.7448 211.1286 138.7101 209.1321 139.2468 C 211.1463 139.7589 212.1532 140.6625 212.1532 141.9585 C 212.1532 142.0881 212.1443 142.2175 212.1267 142.3473 C 211.7393 145.0557 208.7384 146.4097 203.1245 146.4097 L 190.0441 146.4097 L 192.8718 133.0092 L 205.1063 133.0092 C 207.5084 133.0092 209.2784 133.1942 210.4178 133.5653 C 211.7862 134.0156 212.4705 134.7897 212.4705 135.8875 C 212.4705 136.0355 212.4584 136.1897 212.4354 136.3502 ZM 204.6132 142.0973 C 204.619 142.048 204.6221 141.9987 204.6221 141.9492 C 204.6221 141.53 204.299 141.2462 203.6533 141.0983 C 203.2009 140.9994 202.4288 140.9501 201.3364 140.9501 L 198.8878 140.9501 L 198.3594 143.4667 L 202.1381 143.4667 C 202.9366 143.4667 203.5179 143.3741 203.8821 143.1891 C 204.2874 142.9795 204.5311 142.6155 204.6132 142.0973 ZM 205.1681 137.2114 C 205.1914 137.0819 205.2034 136.9678 205.2034 136.8683 C 205.2034 136.4365 204.9479 136.1558 204.437 136.0265 C 204.214 135.977 203.7942 135.9521 203.1772 135.9521 L 199.9448 135.9521 L 199.4427 138.3125 L 201.9884 138.3125 C 203.0804 138.3125 203.8235 138.257 204.2168 138.1456 C 204.7628 137.9979 205.0798 137.6863 205.1681 137.2114 Z" fill="#cccccc"/>
				<path d="M 237.2512 133 L 235.8685 139.6726 C 235.4224 141.8259 234.3802 143.4575 232.7415 144.5684 C 230.7507 145.9255 227.7911 146.6041 223.8625 146.6041 C 217.5735 146.6041 214.429 144.8368 214.429 141.3017 C 214.429 140.8019 214.4905 140.2584 214.6138 139.6726 L 215.9968 133 L 223.6953 133 L 222.3035 139.6726 C 222.1802 140.2523 222.1185 140.7642 222.1185 141.2092 C 222.1185 142.7821 222.8939 143.5684 224.4441 143.5684 C 225.4774 143.5684 226.2939 143.2478 226.8928 142.6062 C 227.4681 141.9894 227.8971 141.0117 228.1789 139.6726 L 229.5615 133 L 237.2512 133 Z" fill="#cccccc"/>
				<path d="M 257 133 L 256.3394 136.2483 L 249.2224 136.2483 C 248.9052 136.2483 248.6404 136.3038 248.4291 136.4149 C 248.2001 136.5383 248.0854 136.6963 248.0854 136.8868 C 248.0854 137.2885 248.567 137.7172 249.5306 138.1736 C 251.7499 139.2345 253.3358 140.1443 254.2869 140.9038 C 255.2672 141.6749 255.7576 142.4243 255.7576 143.1522 C 255.7576 143.2817 255.7429 143.4111 255.7136 143.5408 C 255.467 144.6887 254.5217 145.469 252.8778 145.8823 C 251.4504 146.234 248.9545 146.4097 245.3907 146.4097 L 236.2384 146.4097 L 236.8989 143.1614 L 244.4916 143.1614 C 244.8616 143.1614 245.1611 143.092 245.3907 142.9532 C 245.6198 142.8145 245.7343 142.6371 245.7343 142.4211 C 245.7343 142.0387 245.3907 141.681 244.7031 141.3479 C 242.7539 140.4096 241.4235 139.7157 240.7129 139.2654 C 239.1395 138.2538 238.3528 137.3162 238.3528 136.452 C 238.3528 136.3531 238.3616 136.2576 238.3792 136.165 C 238.5377 135.3633 238.8635 134.7617 239.3567 134.3608 C 239.938 133.8798 240.8948 133.5345 242.2284 133.3246 C 243.6082 133.1088 245.6021 133 248.2089 133 L 257 133 Z" fill="#cccccc"/>
				<path d="M 124.4686 153.5903 L 123.8082 156.8386 L 112.2866 156.8386 L 111.9078 158.6527 L 122.7245 158.6527 L 122.108 161.707 L 111.2649 161.707 L 110.8334 163.7517 L 122.4955 163.7517 L 121.835 167 L 102.4565 167 L 105.2841 153.5903 L 124.4686 153.5903 Z" fill="#cccccc"/>
				<path d="M 148.7095 153.6088 L 139.6633 160.6606 L 146.1465 167 L 138.4388 167 L 135.6379 163.8072 L 131.5245 167 L 122.4428 167 L 131.6478 159.8379 L 125.4112 153.6088 L 133.4008 153.6088 L 135.7347 156.6443 L 139.628 153.6088 L 148.7095 153.6088 Z" fill="#cccccc"/>
				<path d="M 169.2333 158.1162 C 169.0334 159.7507 168.3728 160.9289 167.2511 161.6514 C 165.9595 162.4841 163.8337 162.9003 160.8741 162.9003 L 155.2984 162.9003 L 154.4349 167 L 146.7452 167 L 149.5729 153.5995 L 162.4772 153.5995 C 167.0104 153.5995 169.2773 154.8958 169.2773 157.4864 C 169.2773 157.6907 169.2623 157.9004 169.2333 158.1162 ZM 161.7283 158.0553 C 161.7458 157.9504 161.7546 157.8479 161.7546 157.7493 C 161.7546 157.2665 161.5258 156.9326 161.0677 156.7469 C 160.7096 156.5989 160.131 156.524 159.3325 156.524 L 156.6461 156.524 L 155.9236 159.9576 L 158.7424 159.9576 C 159.7759 159.9576 160.5041 159.8202 160.9269 159.545 C 161.3495 159.2697 161.6167 158.7731 161.7283 158.0553 Z" fill="#cccccc"/>
				<path d="M 190.7314 157.9035 C 190.5843 159.1124 190.1086 160.0223 189.3044 160.6329 C 188.5584 161.1948 187.4513 161.5527 185.9835 161.707 L 190.6345 167 L 182.469 167 L 177.5802 159.7354 L 180.3197 159.7354 C 181.2533 159.7354 181.9371 159.6119 182.3721 159.3645 C 182.8066 159.1172 183.0765 158.7084 183.1821 158.1394 C 183.1998 158.0277 183.2087 157.9227 183.2087 157.8232 C 183.2087 156.9573 182.4954 156.524 181.0683 156.524 L 178.1178 156.524 L 175.9066 167 L 168.2169 167 L 171.0446 153.5995 L 183.9489 153.5995 C 186.2036 153.5995 187.8772 153.8717 188.9697 154.4146 C 190.1733 155.0128 190.7755 155.9691 190.7755 157.2828 C 190.7755 157.481 190.7604 157.6874 190.7314 157.9035 Z" fill="#cccccc"/>
				<path d="M 214.0499 153.5903 L 213.3894 156.8386 L 201.8677 156.8386 L 201.489 158.6527 L 212.3059 158.6527 L 211.6893 161.707 L 200.8462 161.707 L 200.4146 163.7517 L 212.0768 163.7517 L 211.4163 167 L 192.0377 167 L 194.8653 153.5903 L 214.0499 153.5903 Z" fill="#cccccc"/>
				<path d="M 233.4908 153.5903 L 232.8295 156.8386 L 225.7123 156.8386 C 225.3953 156.8386 225.1311 156.8942 224.9199 157.005 C 224.6908 157.1285 224.5763 157.2866 224.5763 157.4772 C 224.5763 157.8787 225.0578 158.3075 226.0206 158.7639 C 228.2405 159.8248 229.8262 160.7346 230.7772 161.4941 C 231.7581 162.2653 232.2483 163.0147 232.2483 163.7424 C 232.2483 163.8719 232.2335 164.0015 232.2043 164.1312 C 231.9578 165.2791 231.012 166.0593 229.3678 166.4727 C 227.9411 166.8242 225.4453 167 221.8806 167 L 212.7288 167 L 213.3894 163.7517 L 220.9824 163.7517 C 221.3523 163.7517 221.6517 163.6824 221.8806 163.5436 C 222.1097 163.4048 222.2242 163.2274 222.2242 163.0115 C 222.2242 162.629 221.8806 162.2714 221.1938 161.9382 C 219.2439 160.9998 217.9141 160.306 217.2037 159.8557 C 215.6299 158.8441 214.8427 157.9065 214.8427 157.0423 C 214.8427 156.9435 214.8515 156.8478 214.8692 156.7554 C 215.0278 155.9536 215.3536 155.3521 215.8472 154.9512 C 216.4283 154.4701 217.3853 154.1246 218.7184 153.9147 C 220.0984 153.6989 222.0921 153.5903 224.6996 153.5903 L 233.4908 153.5903 Z" fill="#cccccc"/>
				<path d="M 253.2382 153.5903 L 252.5777 156.8386 L 245.4604 156.8386 C 245.1434 156.8386 244.8785 156.8942 244.6671 157.005 C 244.4382 157.1285 244.3237 157.2866 244.3237 157.4772 C 244.3237 157.8787 244.8051 158.3075 245.7687 158.7639 C 247.9881 159.8248 249.5739 160.7346 250.5248 161.4941 C 251.5055 162.2653 251.9956 163.0147 251.9956 163.7424 C 251.9956 163.8719 251.9809 164.0015 251.9517 164.1312 C 251.705 165.2791 250.7598 166.0593 249.1158 166.4727 C 247.6885 166.8242 245.1925 167 241.6289 167 L 232.4766 167 L 233.137 163.7517 L 240.7299 163.7517 C 241.0996 163.7517 241.3991 163.6824 241.6289 163.5436 C 241.8578 163.4048 241.9723 163.2274 241.9723 163.0115 C 241.9723 162.629 241.6289 162.2714 240.9412 161.9382 C 238.9919 160.9998 237.6615 160.306 236.9511 159.8557 C 235.3776 158.8441 234.5908 157.9065 234.5908 157.0423 C 234.5908 156.9435 234.5996 156.8478 234.6174 156.7554 C 234.7758 155.9536 235.1017 155.3521 235.5947 154.9512 C 236.176 154.4701 237.1331 154.1246 238.4666 153.9147 C 239.8461 153.6989 241.8401 153.5903 244.4469 153.5903 L 253.2382 153.5903 Z" fill="#cccccc"/>
			</g>
			<g>
				<path d="M 83.4301 134.5104 C 83.0761 134.5104 82.187 134.5614 81.8116 134.6136 C 75.9882 135.0217 71.2855 140.3124 70.1956 147.0897 C 69.1105 140.3124 64.4028 135.0217 58.5863 134.6136 C 58.2084 134.5614 57.316 134.5104 56.981 134.5104 L 44 134.5104 L 48.2363 140.0959 L 52.1924 145.0266 L 53.9599 145.0266 L 56.7729 145.0266 C 56.8353 145.0219 57.0554 145.0219 57.112 145.0266 C 59.3088 145.1429 61.0764 147.2749 61.0892 149.9303 C 61.0892 149.9387 61.0936 149.9464 61.0936 149.9587 C 61.0936 152.7122 59.2317 154.9227 56.9432 154.9227 C 56.9329 154.9227 55.4798 154.9203 55.4798 154.9203 L 52.3655 154.9203 L 52.3655 163.7217 L 52.3655 165.4926 L 57.5952 165.4926 L 57.5952 165.4418 C 57.6576 165.4418 57.7174 165.4926 57.7823 165.4926 C 63.9727 165.4926 69.0967 160.0831 70.1956 152.9705 C 71.313 160.0831 76.4231 165.4926 82.6129 165.4926 C 82.6765 165.4926 82.7538 165.4418 82.8034 165.4418 L 82.8034 165.4926 L 88.029 165.4926 L 88.029 163.7217 L 88.029 154.9203 L 84.9261 154.9203 C 84.9261 154.9203 83.4693 154.9227 83.4529 154.9227 C 81.1635 154.9227 79.2979 152.7122 79.2979 149.9587 C 79.2979 149.9464 79.3072 149.9387 79.3072 149.9303 C 79.3262 147.2749 81.088 145.1429 83.2841 145.0266 C 83.3501 145.0219 83.5615 145.0219 83.6239 145.0266 L 86.4405 145.0266 L 88.2044 145.0266 L 92.1564 140.0959 L 96.3983 134.5104 L 83.4301 134.5104 Z" fill="#cccccc"/>
			</g>
		</g>
	</g>
</svg>