<?xml version="1.0" standalone="no"?>
<!-- Generator: Adobe Fireworks 10, Export SVG Extension by Aaron Beall (http://fireworks.abeall.com) . Version: 0.6.1  -->
<!DOCTYPE svg PUBLIC "-//W3C//DTD SVG 1.1//EN" "http://www.w3.org/Graphics/SVG/1.1/DTD/svg11.dtd">
<svg id="Untitled-%u30DA%u30FC%u30B8%201" viewBox="0 0 50 50" style="background-color:#ffffff" version="1.1"
	xmlns="http://www.w3.org/2000/svg" xmlns:xlink="http://www.w3.org/1999/xlink" xml:space="preserve"
	x="0px" y="0px" width="50px" height="50px"
>
	<g id="%u30EC%u30A4%u30E4%u30FC%201">
		<rect x="0" y="0" width="50" height="50" stroke="#26b9eb" stroke-width="1" fill="#ffffff"/>
		<path d="M 50 50 L 0 50 L 0 34 L 50 34 L 50 50 Z" fill="#26b9eb"/>
		<path d="M 28.9636 10.1545 C 28.9636 10.1545 17.9556 10.1545 13.8226 10.1545 C 9.6898 10.1545 9.6898 12.681 9.6898 13.6182 C 9.6898 14.5557 9.6898 17.775 15.3723 17.0822 C 21.0552 16.3896 26.506 16.4441 30.5135 15.9414 C 32.4861 15.6935 34.9048 15.7987 34.9048 16.125 C 34.9048 16.4509 32.6992 16.6343 30.5135 16.3896 C 28.3279 16.145 14.0214 17.2045 12.3917 17.7344 C 10.7627 18.2642 9.6635 19.2422 9.6635 21.1572 C 9.6635 23.073 9.5703 28.0313 14.4584 28.0313 C 19.3463 28.0313 34.2092 28.0313 36.5541 28.0313 C 38.8986 28.0313 40.2896 27.5553 40.2896 25.2589 C 40.2896 22.6244 39.8525 21.4835 33.3749 21.6873 C 26.8971 21.8909 27.5729 21.9725 23.0422 21.9725 C 20.2209 21.9725 15.2928 22.7872 15.2928 21.8909 C 15.2928 20.6685 21.1349 21.6465 23.5591 21.6465 C 24.95 21.6465 34.9644 21.4835 37.1898 21.4835 C 39.4153 21.4835 40.2896 20.4238 40.2896 16.5527 C 40.2896 11.5403 39.7332 10.1545 36.5541 10.1545 C 31.5072 10.1545 28.9636 10.1545 28.9636 10.1545 Z" stroke="#6c7b94" stroke-width="1" fill="#99aed3"/>
		<g>
			<path d="M 17.6563 44.6094 L 17.6563 46.9531 C 17.6563 47.3594 17.8125 47.625 18.125 47.7813 C 18.4375 47.9219 19.3438 48 20.8125 48 C 21.2656 48 21.7813 47.9844 22.375 47.9531 C 22.9531 47.9219 23.3281 47.875 23.5 47.8438 C 23.6719 47.7969 23.8281 47.7344 23.9531 47.6406 C 24.0781 47.5469 24.1719 47.4219 24.2344 47.2969 C 24.2969 47.1406 24.3438 46.9844 24.3438 46.7813 L 24.3438 45.1406 L 23.5 45 C 23.5 45.6875 23.4688 46.1406 23.4219 46.3438 C 23.375 46.5469 23.3125 46.6875 23.25 46.75 C 23.1719 46.8281 23.0781 46.875 22.9844 46.9063 C 22.875 46.9375 22.5469 46.9531 22 46.9688 C 21.4531 47 21.0469 47 20.7656 47 C 20.625 47 20.2969 47 19.7656 46.9844 C 19.2344 46.9688 18.9219 46.9219 18.7969 46.8281 C 18.6719 46.75 18.6094 46.625 18.6094 46.4531 L 18.6094 44.5156 L 24.125 44 L 24.0625 43 L 18.6094 43.5156 L 18.6094 41.5156 L 23.75 41 L 23.6875 40 L 18.6094 40.5 L 18.6094 38.3594 L 18.6563 38.3594 C 20.3125 38.0938 21.625 37.8125 22.5938 37.5 L 22.1406 36.75 C 21.2813 37 19.875 37.2656 17.9063 37.5469 C 15.9375 37.8281 14.625 37.9844 13.9844 38 L 14.1563 39 C 14.9531 38.9375 16.125 38.7813 17.6563 38.5313 L 17.6563 40.6094 L 13.7188 41 L 13.7969 42 L 17.6563 41.6094 L 17.6563 43.6094 L 13.4688 44 L 13.5781 45 L 17.6563 44.6094 L 17.6563 44.6094 Z" fill="#ffffff"/>
			<path d="M 27.5781 47 L 28.5 47 L 28.5 42 L 31.1719 42 L 31.1719 48 L 32.1094 48 L 32.1094 42 L 34.7969 42 L 34.7969 45.5625 C 34.7969 45.8594 34.625 46 34.2969 46 L 33.1406 46 L 33.2969 47 L 34.6563 47 C 34.9688 47 35.2188 46.9063 35.4219 46.7031 C 35.625 46.5156 35.7344 46.25 35.7344 45.9375 L 35.7344 41 L 32.1094 41 L 32.1094 40 L 31.1719 40 L 31.1719 41 L 28.375 41 C 28.8906 40.3281 29.3281 39.6563 29.6719 39 L 36.5625 39 L 36.5625 38 L 30.0313 38 C 30.2188 37.375 30.375 36.75 30.5 36.1563 L 29.5469 36 C 29.4531 36.5625 29.2813 37.2188 29.0313 38 L 25.6094 38 L 25.6094 39 L 28.6719 39 C 28.2969 39.6875 27.7656 40.4531 27.0781 41.2813 C 26.3906 42.125 25.7344 42.7813 25.0938 43.25 L 25.6094 44 C 26.2969 43.5 26.9531 42.9219 27.5781 42.2656 L 27.5781 47 L 27.5781 47 Z" fill="#ffffff"/>
		</g>
	</g>
</svg>