<?xml version="1.0" standalone="no"?>
<!-- Generator: Adobe Fireworks 10, Export SVG Extension by Aaron Beall (http://fireworks.abeall.com) . Version: 0.6.1  -->
<!DOCTYPE svg PUBLIC "-//W3C//DTD SVG 1.1//EN" "http://www.w3.org/Graphics/SVG/1.1/DTD/svg11.dtd">
<svg id="Untitled-%u30DA%u30FC%u30B8%201" viewBox="0 0 50 50" style="background-color:#ffffff" version="1.1"
	xmlns="http://www.w3.org/2000/svg" xmlns:xlink="http://www.w3.org/1999/xlink" xml:space="preserve"
	x="0px" y="0px" width="50px" height="50px"
>
	<g id="%u30EC%u30A4%u30E4%u30FC%201">
		<rect x="0" y="0" width="50" height="50" stroke="#26b9eb" stroke-width="1" fill="#ffffff"/>
		<path d="M 50 50 L 0 50 L 0 34 L 50 34 L 50 50 Z" fill="#26b9eb"/>
		<g>
			<path d="M 43.5505 9.5181 L 5.3671 9.5181 L 5.3671 7.9332 L 43.5505 7.9332 L 43.5505 9.5181 Z" stroke="#b3b3a9" stroke-width="1" fill="#9e9f9f"/>
			<path d="M 33.1381 7.8767 C 33.1381 7.8767 37.1838 6.3875 39.2056 6.3875 C 41.2244 6.3875 41.8334 8.8076 41.8334 10.1125 C 41.8334 11.4119 41.4275 16.6295 41.8334 20.3514 C 42.234 24.0769 43.8524 30.4095 43.8524 30.4095 C 43.8524 30.4095 41.6305 29.2886 39.2056 29.2886 C 36.7781 29.2886 33.5438 27.9896 33.5438 27.9896 L 33.1381 7.8767 Z" stroke="#b3b3a9" stroke-width="1" fill="#fdfcee"/>
			<path d="M 25.9971 7.8767 C 25.9971 7.8767 30.0403 6.3875 32.0592 6.3875 C 34.0833 6.3875 34.6897 8.8076 34.6897 10.1125 C 34.6897 11.4119 34.2866 16.6295 34.6897 20.3514 C 35.0928 24.0769 36.7111 30.4095 36.7111 30.4095 C 36.7111 30.4095 34.4869 29.2886 32.0592 29.2886 C 29.6344 29.2886 26.403 27.3651 26.403 27.3651 L 25.9971 7.8767 Z" stroke="#b3b3a9" stroke-width="1" fill="#fdfcee"/>
			<path d="M 19.3436 7.8767 C 19.3436 7.8767 23.3879 6.3875 25.4095 6.3875 C 27.4282 6.3875 28.0374 8.8076 28.0374 10.1125 C 28.0374 11.4119 27.6315 16.6295 28.0374 20.3514 C 28.4404 24.0769 30.0588 30.4095 30.0588 30.4095 C 30.0588 30.4095 27.8344 29.2886 25.4095 29.2886 C 22.9833 29.2886 19.7491 27.5225 19.7491 27.5225 L 19.3436 7.8767 Z" stroke="#b3b3a9" stroke-width="1" fill="#fdfcee"/>
			<path d="M 12.6202 7.8767 C 12.6202 7.8767 16.6661 6.3875 18.6863 6.3875 C 20.7069 6.3875 21.3154 8.8076 21.3154 10.1125 C 21.3154 11.4119 20.9098 16.6295 21.3154 20.3514 C 21.7174 24.0769 23.3357 30.4095 23.3357 30.4095 C 23.3357 30.4095 21.1129 29.2886 18.6863 29.2886 C 16.2601 29.2886 13.026 27.2908 13.026 27.2908 L 12.6202 7.8767 Z" stroke="#b3b3a9" stroke-width="1" fill="#fdfcee"/>
			<path d="M 6.8813 7.8767 C 6.8813 7.8767 10.9232 6.3875 12.9434 6.3875 C 14.9677 6.3875 15.5724 8.8076 15.5724 10.1125 C 15.5724 11.4119 15.1693 16.6295 15.5724 20.3514 C 15.9774 24.0769 17.5928 30.4095 17.5928 30.4095 C 17.5928 30.4095 15.3696 29.2886 12.9434 29.2886 C 10.5171 29.2886 7.4583 27.9896 7.4583 27.9896 L 6.8813 7.8767 Z" stroke="#b3b3a9" stroke-width="1" fill="#fdfcee"/>
		</g>
		<g>
			<path d="M 8 37 L 8 39 L 5 39 L 5 40 L 7.9688 40 C 7.875 41.7656 7.5781 43.2031 7.0938 44.3281 C 6.5938 45.4531 5.9063 46.4375 5 47.25 L 5.4063 48 C 6.4063 47.2344 7.2344 46.2344 7.8594 44.9531 C 8.4844 43.6875 8.8438 42.0313 8.9375 40 L 12 40 L 12.0156 40.875 C 12.0156 42.0625 11.9688 43.1094 11.8906 44 C 11.7969 44.8906 11.6875 45.5625 11.5469 46.0156 C 11.4063 46.4688 11.2344 46.75 11.0469 46.8438 C 10.8594 46.9531 10.6563 47 10.4531 47 L 9.0156 47 L 9 47.7969 C 9.6563 47.9219 10.2031 48 10.6406 48 C 11.0469 48 11.3594 47.9219 11.5938 47.8125 C 11.8125 47.6719 12 47.4688 12.1563 47.2344 C 12.2969 46.9844 12.4219 46.625 12.5469 46.1719 C 12.6563 45.7188 12.75 45.1719 12.8125 44.5469 C 12.875 43.9219 12.9219 43.3125 12.9531 42.75 C 12.9844 42.1875 13 41.125 13 39.5313 L 13 39 L 9 39 L 9 37 L 8 37 L 8 37 Z" fill="#ffffff"/>
			<path d="M 24 42 L 15.9219 42 L 15.9219 43 L 24 43 L 24 42 L 24 42 Z" fill="#ffffff"/>
			<path d="M 35 38 L 27 38 L 27 39 L 35 39 L 35 38 L 35 38 ZM 32 42 L 36 42 L 36 41 L 26 41 L 26 42 L 31 42 L 31 42.6719 C 31 43.9531 30.6406 44.9219 29.9219 45.5781 C 29.2031 46.2344 28.2188 46.7188 27 47 L 27.2656 48 C 28.3594 47.75 29.25 47.375 29.9531 46.9063 C 30.6563 46.4219 31.1719 45.8281 31.5 45.1406 C 31.8281 44.4531 32 43.5469 32 42.4375 L 32 42 L 32 42 Z" fill="#ffffff"/>
			<path d="M 38.4219 38 L 38 38.75 C 39.1406 39.375 40.2969 40.125 41.4531 41 L 42 40.25 C 40.8125 39.3281 39.625 38.5781 38.4219 38 L 38.4219 38 ZM 45.3281 41 C 44.9219 41.9375 44.5313 42.6719 44.1563 43.2031 C 43.7813 43.7344 43.3125 44.2813 42.75 44.8125 C 42.1875 45.3594 41.5156 45.8281 40.7188 46.2031 C 39.9063 46.5938 39 46.8594 38 47 L 38.1719 48 C 39.3906 47.8125 40.4375 47.4844 41.3438 47.0313 C 42.25 46.5625 43.1094 45.8594 43.9531 44.9063 C 44.7969 43.9531 45.4688 42.8281 46 41.5156 L 45.3281 41 L 45.3281 41 Z" fill="#ffffff"/>
		</g>
	</g>
</svg>