<?xml version="1.0" standalone="no"?>
<!-- Generator: Adobe Fireworks 10, Export SVG Extension by Aaron Beall (http://fireworks.abeall.com) . Version: 0.6.1  -->
<!DOCTYPE svg PUBLIC "-//W3C//DTD SVG 1.1//EN" "http://www.w3.org/Graphics/SVG/1.1/DTD/svg11.dtd">
<svg id="Untitled-%u30DA%u30FC%u30B8%201" viewBox="0 0 50 50" style="background-color:#ffffff" version="1.1"
	xmlns="http://www.w3.org/2000/svg" xmlns:xlink="http://www.w3.org/1999/xlink" xml:space="preserve"
	x="0px" y="0px" width="50px" height="50px"
>
	<rect x="0" y="0" width="50" height="50" stroke="#f8688f" stroke-width="1" fill="#ffffff"/>
	<path d="M 50 50 L 0 50 L 0 34 L 50 34 L 50 50 Z" fill="#f8688f"/>
	<g>
		<g>
			<path d="M 29.826 29.1715 C 29.826 29.7228 27.599 30.1698 24.5643 30.1698 C 21.5298 30.1698 19.3026 29.7228 19.3026 29.1715 L 19.2736 28.895 L 17.6698 13.6285 L 17.646 13.3986 C 17.646 12.8762 20.5741 12.4531 24.5643 12.4531 C 28.5548 12.4531 31.4824 12.8762 31.4824 13.3986 L 31.4575 13.6382 L 29.848 28.9624 L 29.826 29.1715 Z" fill="#ff7f00"/>
			<path d="M 31.4824 13.3986 C 31.4824 13.9202 28.5548 14.3441 24.5643 14.3441 C 20.5741 14.3441 17.646 13.9202 17.646 13.3986 C 17.646 12.8762 20.5741 12.4531 24.5643 12.4531 C 28.5548 12.4531 31.4824 12.8762 31.4824 13.3986 Z" fill="#e65d00"/>
		</g>
		<path d="M 32.094 7.5779 C 32.094 8.3666 28.9072 9.0062 24.5643 9.0062 C 20.2216 9.0062 17.0345 8.3666 17.0345 7.5779 L 17.0345 7.5779 " stroke="#ff7f00" stroke-width="1" fill="none"/>
		<path d="M 32.0643 7.8627 L 29.796 29.4556 L 29.826 29.1715 C 29.826 29.7228 27.599 30.1698 24.5643 30.1698 C 21.5298 30.1698 19.3026 29.7228 19.3026 29.1715 L 19.3026 29.171 L 17.0345 7.5779 C 17.0345 6.7876 20.2216 6.1477 24.5643 6.1477 C 28.9072 6.1477 32.094 6.7876 32.094 7.5779 L 32.0643 7.8627 Z" stroke="#ff7f00" stroke-width="1" fill="none"/>
	</g>
	<g>
		<path d="M 9.0156 39.75 L 9.0156 37 L 8 37 L 8 48 L 9 48 L 9 40.75 C 9.5313 41.0625 10.125 41.5313 10.7969 42.1406 C 11.4688 42.75 12.0469 43.375 12.5469 44 L 13 43.25 C 11.75 41.7656 10.4219 40.5938 9.0156 39.75 L 9.0156 39.75 ZM 12.3281 37 L 11.375 37.2969 C 11.5938 37.8281 11.8125 38.3906 12 39 L 13 38.7031 C 12.7813 38.0781 12.5469 37.5 12.3281 37 L 12.3281 37 ZM 10.3281 37 L 9.3594 37.2969 C 9.5625 37.7656 9.7813 38.3438 10 39 L 11 38.6875 C 10.8125 38.125 10.5781 37.5625 10.3281 37 L 10.3281 37 Z" fill="#ffffff"/>
		<path d="M 23 38 L 22 38 L 22 42.4375 C 22 43.8438 21.6719 44.9063 21.0469 45.6406 C 20.4063 46.3906 19.3906 46.8438 18 47 L 18.1719 48 C 19.3281 47.8906 20.2656 47.5938 20.9844 47.125 C 21.7031 46.6406 22.2188 46.0156 22.5313 45.2656 C 22.8438 44.5156 23 43.6719 23 42.7344 L 23 38 L 23 38 ZM 18 38 L 17 38 L 17 44 L 18 44 L 18 38 L 18 38 Z" fill="#ffffff"/>
		<path d="M 26.375 38 L 26 38.75 C 27.1563 39.375 28.3281 40.125 29.5 41 L 30 40.25 C 28.7969 39.3281 27.5938 38.5781 26.375 38 L 26.375 38 ZM 33.4063 41 C 33 41.9375 32.6094 42.6719 32.2344 43.2031 C 31.8438 43.7344 31.375 44.2813 30.8125 44.8125 C 30.25 45.3594 29.5625 45.8281 28.75 46.2031 C 27.9375 46.5938 27.0156 46.8594 26 47 L 26.1563 48 C 27.375 47.8125 28.4375 47.4844 29.3438 47.0313 C 30.25 46.5625 31.1094 45.8594 31.9531 44.9063 C 32.7969 43.9531 33.4688 42.8281 34 41.5156 L 33.4063 41 L 33.4063 41 Z" fill="#ffffff"/>
		<path d="M 38.2031 37 C 37.9844 38.0313 37.5938 39.1406 37.0313 40.3281 C 36.4531 41.5156 35.7813 42.5 35 43.25 L 35.6094 44 C 36.1719 43.5625 36.7031 42.9844 37.2188 42.2656 C 37.7188 41.5469 38.1563 40.7969 38.5 40 L 42.1406 40 C 41.9219 41.9375 41.4063 43.4844 40.5938 44.6406 C 39.7656 45.7969 38.5625 46.5781 37 47 L 37.25 48 C 37.8281 47.8281 38.375 47.6094 38.875 47.3438 C 39.375 47.0625 39.8281 46.7656 40.2031 46.4219 C 40.5781 46.0781 40.9219 45.7031 41.2031 45.2813 C 41.4844 44.8594 41.7344 44.4063 41.9375 43.9219 C 42.1406 43.4531 42.3125 42.9844 42.4375 42.5469 C 42.5625 42.1094 42.6563 41.6563 42.75 41.2188 C 42.875 40.5313 42.9531 40.0781 42.9688 39.8281 L 43 39 L 38.8438 39 C 39 38.375 39.1094 37.7656 39.2031 37.2031 L 38.2031 37 L 38.2031 37 Z" fill="#ffffff"/>
	</g>
</svg>