<?xml version="1.0" standalone="no"?>
<!-- Generator: Adobe Fireworks 10, Export SVG Extension by Aaron Beall (http://fireworks.abeall.com) . Version: 0.6.1  -->
<!DOCTYPE svg PUBLIC "-//W3C//DTD SVG 1.1//EN" "http://www.w3.org/Graphics/SVG/1.1/DTD/svg11.dtd">
<svg id="Untitled-%u30DA%u30FC%u30B8%201" viewBox="0 0 50 50" style="background-color:#ffffff" version="1.1"
	xmlns="http://www.w3.org/2000/svg" xmlns:xlink="http://www.w3.org/1999/xlink" xml:space="preserve"
	x="0px" y="0px" width="50px" height="50px"
>
	<defs>
		<linearGradient id="gradient1" x1="50.0023%" y1="-0.0043%" x2="50.0023%" y2="99.9992%">
			<stop stop-color="#525faa" stop-opacity="1" offset="0%"/>
			<stop stop-color="#525faa" stop-opacity="1" offset="1%"/>
			<stop stop-color="#292f54" stop-opacity="1" offset="99%"/>
			<stop stop-color="#292f54" stop-opacity="1" offset="100%"/>
		</linearGradient>
		<linearGradient id="gradient2" x1="50.0021%" y1="-0.0022%" x2="50.0021%" y2="99.998%">
			<stop stop-color="#6978b7" stop-opacity="1" offset="0%"/>
			<stop stop-color="#6978b7" stop-opacity="1" offset="1%"/>
			<stop stop-color="#292f54" stop-opacity="1" offset="99%"/>
			<stop stop-color="#292f54" stop-opacity="1" offset="100%"/>
		</linearGradient>
		<linearGradient id="gradient3" x1="50%" y1="0%" x2="50%" y2="100%">
			<stop stop-color="#525faa" stop-opacity="1" offset="0%"/>
			<stop stop-color="#525faa" stop-opacity="1" offset="1%"/>
			<stop stop-color="#292f54" stop-opacity="1" offset="99%"/>
			<stop stop-color="#292f54" stop-opacity="1" offset="100%"/>
		</linearGradient>
	</defs>
	<g id="%u30EC%u30A4%u30E4%u30FC%201">
		<rect x="0" y="0" width="50" height="50" stroke="#26b9eb" stroke-width="1" fill="#ffffff"/>
		<path d="M 50 50 L 0 50 L 0 34 L 50 34 L 50 50 Z" fill="#26b9eb"/>
		<g>
			<path d="M 11.5402 30.3651 C 11.1217 30.6362 10.5615 30.5068 10.2971 30.077 L 9.2749 28.4171 C 9.0106 27.9874 9.1357 27.4136 9.5544 27.1421 L 18.676 21.2336 C 19.0944 20.9624 19.6548 21.0912 19.9193 21.5212 L 20.941 23.1809 C 21.2057 23.6106 21.079 24.1851 20.6606 24.4561 L 11.5402 30.3651 Z" fill="url(#gradient1)"/>
			<path d="M 33.9735 21.6917 C 33.6198 22.6412 32.5714 23.121 31.6462 22.7577 L 30.1674 22.178 C 29.2421 21.8143 28.7737 20.7407 29.1277 19.7914 L 33.986 6.7662 C 34.34 5.8169 35.3878 5.3374 36.3132 5.7 L 37.7922 6.2803 C 38.7177 6.6439 39.1854 7.7174 38.8317 8.6666 L 33.9735 21.6917 Z" fill="url(#gradient2)"/>
			<path d="M 33.776 28.809 C 33.776 29.8257 32.9652 30.6566 31.9742 30.6566 L 21.1139 30.6566 C 20.1216 30.6566 19.3107 29.8257 19.3107 28.809 L 19.3107 20.524 C 19.3107 19.5074 20.1216 18.6759 21.1139 18.6759 L 31.9742 18.6759 C 32.9652 18.6759 33.776 19.5074 33.776 20.524 L 33.776 28.809 Z" fill="url(#gradient3)"/>
		</g>
		<g>
			<path d="M 8.5156 42 C 7.9375 43.125 7.1563 44.1719 6.1563 45.125 C 5.1563 46.0938 4.1094 46.7656 3 47.1719 L 3 38 L 2 38 L 2 47.7188 L 2.6406 48.25 C 3.9375 47.8438 5.1875 47.0781 6.4063 45.9688 C 7.6094 44.8594 8.4688 43.7344 9 42.5938 L 8.5156 42 L 8.5156 42 Z" fill="#ffffff"/>
			<path d="M 13.4844 41.7969 C 13.4063 41.4844 13.2188 40.8906 12.9375 40 L 12 40.3438 C 12.4531 41.75 12.7656 42.9688 12.9531 44 L 13.9531 43.6563 C 13.7031 42.7344 13.5469 42.1094 13.4844 41.7969 L 13.4844 41.7969 ZM 15 40 C 14.9063 41.8594 14.5781 43.4063 14 44.6563 C 13.4063 45.9063 12.4063 46.6875 11 47 L 11.1875 48 C 12.5938 47.7031 13.6875 46.9688 14.5 45.75 C 15.2969 44.5313 15.7969 42.6563 16 40.0938 L 15 40 L 15 40 ZM 11.4219 42.4844 C 11.3281 42.1406 11.1563 41.6563 10.9375 41 L 10 41.3281 C 10.4063 42.5938 10.7344 43.8125 10.9531 45 L 11.9531 44.6719 C 11.6875 43.5469 11.5156 42.8281 11.4219 42.4844 L 11.4219 42.4844 Z" fill="#ffffff"/>
			<path d="M 19.8594 37 C 19.6719 38.0313 19.3125 39.1406 18.8125 40.3281 C 18.2969 41.5156 17.6875 42.5 17 43.25 L 17.6563 44 C 18.1406 43.5625 18.6094 42.9844 19.0781 42.2656 C 19.5313 41.5469 19.9063 40.7969 20.2188 40 L 23.2344 40 C 23.0469 41.9375 22.625 43.4844 21.9531 44.6406 C 21.2656 45.7969 20.2813 46.5781 19 47 L 19.2344 48 C 19.7188 47.8281 20.1719 47.6094 20.5938 47.3438 C 21 47.0625 21.375 46.7656 21.6875 46.4219 C 22 46.0781 22.2656 45.7031 22.5156 45.2813 C 22.75 44.8594 22.9531 44.4063 23.125 43.9219 C 23.2813 43.4531 23.4219 42.9844 23.5313 42.5469 C 23.625 42.1094 23.7188 41.6563 23.7969 41.2188 C 23.9063 40.5313 23.9688 40.0781 23.9688 39.8281 L 24 39 L 20.5313 39 C 20.6719 38.375 20.7813 37.7656 20.8594 37.2031 L 19.8594 37 L 19.8594 37 ZM 24.4063 37 L 23.4375 37.2969 C 23.625 37.7969 23.8125 38.375 24 39 L 25 38.7031 C 24.8125 38.0781 24.6094 37.5 24.4063 37 L 24.4063 37 ZM 22.4063 37 L 21.4375 37.2969 C 21.6406 37.8281 21.8281 38.4063 22 39 L 23 38.6875 C 22.8281 38.125 22.625 37.5625 22.4063 37 L 22.4063 37 Z" fill="#ffffff"/>
			<path d="M 32.5156 42 C 31.9375 43.125 31.1563 44.1719 30.1563 45.125 C 29.1563 46.0938 28.1094 46.7656 27 47.1719 L 27 38 L 26 38 L 26 47.7188 L 26.6406 48.25 C 27.9375 47.8438 29.1875 47.0781 30.4063 45.9688 C 31.6094 44.8594 32.4688 43.7344 33 42.5938 L 32.5156 42 L 32.5156 42 Z" fill="#ffffff"/>
			<path d="M 38.0469 43.1094 C 38.9375 41.6563 39.5938 40.0469 40 38.2656 L 39.8125 38 L 34 38 L 34 39 L 39.1406 39 C 38.6563 40.7969 37.8125 42.4531 36.6094 43.9531 C 35.4063 45.4531 34.2031 46.5625 33 47.25 L 33.2969 48 C 34.7188 47.1719 36.1563 45.7813 37.6094 43.7813 C 38.7969 45.4375 39.75 46.8438 40.4531 48 L 41 47.3281 C 39.7813 45.5 38.7969 44.0938 38.0469 43.1094 L 38.0469 43.1094 Z" fill="#ffffff"/>
			<path d="M 45 39.75 L 45 37 L 44 37 L 44 48 L 45 48 L 45 40.75 C 45.5313 41.0625 46.1406 41.5313 46.8281 42.1406 C 47.5156 42.75 48.0938 43.375 48.5938 44 L 49 43.25 C 47.75 41.7656 46.4063 40.5938 45 39.75 L 45 39.75 Z" fill="#ffffff"/>
		</g>
	</g>
</svg>