<?xml version="1.0" standalone="no"?>
<!-- Generator: Adobe Fireworks 10, Export SVG Extension by Aaron Beall (http://fireworks.abeall.com) . Version: 0.6.1  -->
<!DOCTYPE svg PUBLIC "-//W3C//DTD SVG 1.1//EN" "http://www.w3.org/Graphics/SVG/1.1/DTD/svg11.dtd">
<svg id="Untitled-%u30DA%u30FC%u30B8%201" viewBox="0 0 50 50" style="background-color:#ffffff" version="1.1"
	xmlns="http://www.w3.org/2000/svg" xmlns:xlink="http://www.w3.org/1999/xlink" xml:space="preserve"
	x="0px" y="0px" width="50px" height="50px"
>
	<defs>
		<linearGradient id="gradient1" x1="49.9891%" y1="0%" x2="49.9891%" y2="100%">
			<stop stop-color="#525faa" stop-opacity="1" offset="0%"/>
			<stop stop-color="#525faa" stop-opacity="1" offset="1%"/>
			<stop stop-color="#292f54" stop-opacity="1" offset="99%"/>
			<stop stop-color="#292f54" stop-opacity="1" offset="100%"/>
		</linearGradient>
		<linearGradient id="gradient2" x1="49.9997%" y1="0%" x2="49.9997%" y2="100%">
			<stop stop-color="#525faa" stop-opacity="1" offset="0%"/>
			<stop stop-color="#525faa" stop-opacity="1" offset="1%"/>
			<stop stop-color="#292f54" stop-opacity="1" offset="99%"/>
			<stop stop-color="#292f54" stop-opacity="1" offset="100%"/>
		</linearGradient>
		<linearGradient id="gradient3" x1="49.999%" y1="0%" x2="49.999%" y2="100%">
			<stop stop-color="#525faa" stop-opacity="1" offset="0%"/>
			<stop stop-color="#525faa" stop-opacity="1" offset="1%"/>
			<stop stop-color="#292f54" stop-opacity="1" offset="99%"/>
			<stop stop-color="#292f54" stop-opacity="1" offset="100%"/>
		</linearGradient>
		<linearGradient id="gradient4" x1="49.9891%" y1="0%" x2="49.9891%" y2="100%">
			<stop stop-color="#525faa" stop-opacity="1" offset="0%"/>
			<stop stop-color="#525faa" stop-opacity="1" offset="1%"/>
			<stop stop-color="#292f54" stop-opacity="1" offset="99%"/>
			<stop stop-color="#292f54" stop-opacity="1" offset="100%"/>
		</linearGradient>
		<linearGradient id="gradient5" x1="49.9996%" y1="0%" x2="49.9996%" y2="100%">
			<stop stop-color="#525faa" stop-opacity="1" offset="0%"/>
			<stop stop-color="#525faa" stop-opacity="1" offset="1%"/>
			<stop stop-color="#292f54" stop-opacity="1" offset="99%"/>
			<stop stop-color="#292f54" stop-opacity="1" offset="100%"/>
		</linearGradient>
		<linearGradient id="gradient6" x1="49.999%" y1="0%" x2="49.999%" y2="100%">
			<stop stop-color="#525faa" stop-opacity="1" offset="0%"/>
			<stop stop-color="#525faa" stop-opacity="1" offset="1%"/>
			<stop stop-color="#292f54" stop-opacity="1" offset="99%"/>
			<stop stop-color="#292f54" stop-opacity="1" offset="100%"/>
		</linearGradient>
		<linearGradient id="gradient7" x1="49.9927%" y1="0%" x2="49.9927%" y2="100%">
			<stop stop-color="#525faa" stop-opacity="1" offset="0%"/>
			<stop stop-color="#525faa" stop-opacity="1" offset="1%"/>
			<stop stop-color="#292f54" stop-opacity="1" offset="99%"/>
			<stop stop-color="#292f54" stop-opacity="1" offset="100%"/>
		</linearGradient>
		<linearGradient id="gradient8" x1="50.0015%" y1="0%" x2="50.0015%" y2="100%">
			<stop stop-color="#525faa" stop-opacity="1" offset="0%"/>
			<stop stop-color="#525faa" stop-opacity="1" offset="1%"/>
			<stop stop-color="#292f54" stop-opacity="1" offset="99%"/>
			<stop stop-color="#292f54" stop-opacity="1" offset="100%"/>
		</linearGradient>
		<linearGradient id="gradient9" x1="50.001%" y1="0%" x2="50.001%" y2="100%">
			<stop stop-color="#525faa" stop-opacity="1" offset="0%"/>
			<stop stop-color="#525faa" stop-opacity="1" offset="1%"/>
			<stop stop-color="#292f54" stop-opacity="1" offset="99%"/>
			<stop stop-color="#292f54" stop-opacity="1" offset="100%"/>
		</linearGradient>
		<linearGradient id="gradient10" x1="49.9927%" y1="0%" x2="49.9927%" y2="100%">
			<stop stop-color="#525faa" stop-opacity="1" offset="0%"/>
			<stop stop-color="#525faa" stop-opacity="1" offset="1%"/>
			<stop stop-color="#292f54" stop-opacity="1" offset="99%"/>
			<stop stop-color="#292f54" stop-opacity="1" offset="100%"/>
		</linearGradient>
		<linearGradient id="gradient11" x1="50.0015%" y1="0%" x2="50.0015%" y2="100%">
			<stop stop-color="#525faa" stop-opacity="1" offset="0%"/>
			<stop stop-color="#525faa" stop-opacity="1" offset="1%"/>
			<stop stop-color="#292f54" stop-opacity="1" offset="99%"/>
			<stop stop-color="#292f54" stop-opacity="1" offset="100%"/>
		</linearGradient>
		<linearGradient id="gradient12" x1="50.001%" y1="0%" x2="50.001%" y2="100%">
			<stop stop-color="#525faa" stop-opacity="1" offset="0%"/>
			<stop stop-color="#525faa" stop-opacity="1" offset="1%"/>
			<stop stop-color="#292f54" stop-opacity="1" offset="99%"/>
			<stop stop-color="#292f54" stop-opacity="1" offset="100%"/>
		</linearGradient>
	</defs>
	<g id="%u30EC%u30A4%u30E4%u30FC%201">
		<rect x="0" y="0" width="50" height="50" stroke="#26b9eb" stroke-width="1" fill="#ffffff"/>
		<path d="M 50 50 L 0 50 L 0 34 L 50 34 L 50 50 Z" fill="#26b9eb"/>
		<g>
			<g>
				<path d="M 22.0181 13.8047 C 22.0181 14.3135 21.6125 14.729 21.1172 14.729 L 17.8853 14.729 C 17.3894 14.729 16.9843 14.3135 16.9843 13.8047 L 16.9843 11.4421 C 16.9843 10.9336 17.3894 10.5176 17.8853 10.5176 L 21.1172 10.5176 C 21.6125 10.5176 22.0181 10.9336 22.0181 11.4421 L 22.0181 13.8047 Z" fill="url(#gradient1)"/>
				<path d="M 23.6859 22 C 23.7562 23.0137 23.0023 23.8435 22.0107 23.8435 L 16.9923 23.8435 C 16.0005 23.8435 15.2469 23.0137 15.3168 22 L 15.6981 16.4775 C 15.7682 15.4636 16.6362 14.6338 17.6281 14.6338 L 21.3749 14.6338 C 22.3663 14.6338 23.2345 15.4636 23.3046 16.4775 L 23.6859 22 Z" fill="url(#gradient2)"/>
				<path d="M 25.3433 26.0977 C 25.3433 26.6067 24.9375 27.0225 24.4423 27.0225 L 14.5605 27.0225 C 14.0651 27.0225 13.6597 26.6067 13.6597 26.0977 L 13.6597 22.6689 C 13.6597 22.1604 14.0651 21.7446 14.5605 21.7446 L 24.4423 21.7446 C 24.9375 21.7446 25.3433 22.1604 25.3433 22.6689 L 25.3433 26.0977 Z" fill="url(#gradient3)"/>
			</g>
			<g>
				<path d="M 11.0181 13.8047 C 11.0181 14.3135 10.6125 14.729 10.1172 14.729 L 6.8853 14.729 C 6.3894 14.729 5.9843 14.3135 5.9843 13.8047 L 5.9843 11.4421 C 5.9843 10.9336 6.3894 10.5176 6.8853 10.5176 L 10.1172 10.5176 C 10.6125 10.5176 11.0181 10.9336 11.0181 11.4421 L 11.0181 13.8047 Z" fill="url(#gradient4)"/>
				<path d="M 12.6859 22 C 12.7562 23.0137 12.0023 23.8435 11.0107 23.8435 L 5.9923 23.8435 C 5.0005 23.8435 4.2469 23.0137 4.3168 22 L 4.6981 16.4775 C 4.7682 15.4636 5.6362 14.6338 6.6281 14.6338 L 10.3749 14.6338 C 11.3663 14.6338 12.2345 15.4636 12.3046 16.4775 L 12.6859 22 Z" fill="url(#gradient5)"/>
				<path d="M 14.3433 26.0977 C 14.3433 26.6067 13.9375 27.0225 13.4423 27.0225 L 3.5605 27.0225 C 3.0651 27.0225 2.6597 26.6067 2.6597 26.0977 L 2.6597 22.6689 C 2.6597 22.1604 3.0651 21.7446 3.5605 21.7446 L 13.4423 21.7446 C 13.9375 21.7446 14.3433 22.1604 14.3433 22.6689 L 14.3433 26.0977 Z" fill="url(#gradient6)"/>
			</g>
			<g>
				<path d="M 33.2914 13.8047 C 33.2914 14.3135 32.8859 14.729 32.3903 14.729 L 29.1586 14.729 C 28.6627 14.729 28.2574 14.3135 28.2574 13.8047 L 28.2574 11.4421 C 28.2574 10.9336 28.6627 10.5176 29.1586 10.5176 L 32.3903 10.5176 C 32.8859 10.5176 33.2914 10.9336 33.2914 11.4421 L 33.2914 13.8047 Z" fill="url(#gradient7)"/>
				<path d="M 34.9591 22 C 35.0293 23.0137 34.2754 23.8435 33.2839 23.8435 L 28.2654 23.8435 C 27.2737 23.8435 26.5199 23.0137 26.5902 22 L 26.9716 16.4775 C 27.0415 15.4636 27.9095 14.6338 28.9014 14.6338 L 32.6479 14.6338 C 33.6396 14.6338 34.5078 15.4636 34.5781 16.4775 L 34.9591 22 Z" fill="url(#gradient8)"/>
				<path d="M 36.6166 26.0977 C 36.6166 26.6067 36.2111 27.0225 35.7155 27.0225 L 25.8336 27.0225 C 25.3384 27.0225 24.9327 26.6067 24.9327 26.0977 L 24.9327 22.6689 C 24.9327 22.1604 25.3384 21.7446 25.8336 21.7446 L 35.7155 21.7446 C 36.2111 21.7446 36.6166 22.1604 36.6166 22.6689 L 36.6166 26.0977 Z" fill="url(#gradient9)"/>
			</g>
			<g>
				<path d="M 44.2914 13.8047 C 44.2914 14.3135 43.8859 14.729 43.3903 14.729 L 40.1586 14.729 C 39.6627 14.729 39.2574 14.3135 39.2574 13.8047 L 39.2574 11.4421 C 39.2574 10.9336 39.6627 10.5176 40.1586 10.5176 L 43.3903 10.5176 C 43.8859 10.5176 44.2914 10.9336 44.2914 11.4421 L 44.2914 13.8047 Z" fill="url(#gradient10)"/>
				<path d="M 45.9591 22 C 46.0293 23.0137 45.2754 23.8435 44.2839 23.8435 L 39.2654 23.8435 C 38.2737 23.8435 37.5199 23.0137 37.5902 22 L 37.9716 16.4775 C 38.0415 15.4636 38.9095 14.6338 39.9014 14.6338 L 43.6479 14.6338 C 44.6396 14.6338 45.5078 15.4636 45.5781 16.4775 L 45.9591 22 Z" fill="url(#gradient11)"/>
				<path d="M 47.6166 26.0977 C 47.6166 26.6067 47.2111 27.0225 46.7155 27.0225 L 36.8336 27.0225 C 36.3384 27.0225 35.9327 26.6067 35.9327 26.0977 L 35.9327 22.6689 C 35.9327 22.1604 36.3384 21.7446 36.8336 21.7446 L 46.7155 21.7446 C 47.2111 21.7446 47.6166 22.1604 47.6166 22.6689 L 47.6166 26.0977 Z" fill="url(#gradient12)"/>
			</g>
		</g>
		<g>
			<path d="M 21 43 L 20 43 L 20 38 L 19.0469 38 L 15 42.6719 L 15 44 L 19 44 L 19 47 L 20 47 L 20 44 L 21 44 L 21 43 L 21 43 ZM 15.6875 43 L 19 39.1875 L 19 43 L 15.6875 43 L 15.6875 43 Z" fill="#ffffff"/>
			<path d="M 33.4375 47.7188 C 33.625 47.5313 33.7188 47.2656 33.7188 46.9531 L 33.7188 37 L 32.75 37 L 32.75 46.5625 C 32.75 46.8594 32.5781 47 32.2656 47 L 31.0313 47 L 31.1719 48 L 32.7188 48 C 33.0156 48 33.25 47.9063 33.4375 47.7188 L 33.4375 47.7188 ZM 27.6875 44.7188 C 28.5938 43.2656 29.0625 41.6875 29.0938 40 L 26.0469 40 C 26.2031 39.3438 26.3281 38.6875 26.4219 38 L 29.4063 38 L 29.4063 37 L 23.7031 37 L 23.7031 38 L 25.4688 38 C 25.3438 38.9688 25.0781 39.9688 24.7031 41.0156 C 24.3281 42.0625 23.9063 42.9063 23.4531 43.5625 L 24.0938 44 C 24.3438 43.7031 24.6094 43.3438 24.875 42.9063 C 25.7344 43.3438 26.4375 43.7344 27 44.0781 L 26.9844 44.0938 C 26.1406 45.3281 25.0313 46.2969 23.6719 47 L 24.125 48 C 25.5938 47.25 26.7813 46.1719 27.6875 44.7188 L 27.6875 44.7188 ZM 25.25 42.25 C 25.4375 41.8594 25.625 41.4375 25.7969 41 L 28.0938 41 C 28.0625 41.7188 27.8438 42.5 27.4063 43.375 C 26.7344 43 26.0156 42.625 25.25 42.25 L 25.25 42.25 ZM 31.0469 45 L 31.0469 38 L 30.125 38 L 30.125 45 L 31.0469 45 L 31.0469 45 Z" fill="#ffffff"/>
		</g>
	</g>
</svg>