<?xml version="1.0" standalone="no"?>
<!-- Generator: Adobe Fireworks 10, Export SVG Extension by Aaron Beall (http://fireworks.abeall.com) . Version: 0.6.1  -->
<!DOCTYPE svg PUBLIC "-//W3C//DTD SVG 1.1//EN" "http://www.w3.org/Graphics/SVG/1.1/DTD/svg11.dtd">
<svg id="Untitled-%u30DA%u30FC%u30B8%201" viewBox="0 0 50 50" style="background-color:#ffffff" version="1.1"
	xmlns="http://www.w3.org/2000/svg" xmlns:xlink="http://www.w3.org/1999/xlink" xml:space="preserve"
	x="0px" y="0px" width="50px" height="50px"
>
	<defs>
		<linearGradient id="gradient1" x1="49.9891%" y1="0%" x2="49.9891%" y2="100%">
			<stop stop-color="#525faa" stop-opacity="1" offset="0%"/>
			<stop stop-color="#525faa" stop-opacity="1" offset="1%"/>
			<stop stop-color="#292f54" stop-opacity="1" offset="99%"/>
			<stop stop-color="#292f54" stop-opacity="1" offset="100%"/>
		</linearGradient>
		<linearGradient id="gradient2" x1="49.9996%" y1="0%" x2="49.9996%" y2="100%">
			<stop stop-color="#525faa" stop-opacity="1" offset="0%"/>
			<stop stop-color="#525faa" stop-opacity="1" offset="1%"/>
			<stop stop-color="#292f54" stop-opacity="1" offset="99%"/>
			<stop stop-color="#292f54" stop-opacity="1" offset="100%"/>
		</linearGradient>
		<linearGradient id="gradient3" x1="49.999%" y1="0%" x2="49.999%" y2="100%">
			<stop stop-color="#525faa" stop-opacity="1" offset="0%"/>
			<stop stop-color="#525faa" stop-opacity="1" offset="1%"/>
			<stop stop-color="#292f54" stop-opacity="1" offset="99%"/>
			<stop stop-color="#292f54" stop-opacity="1" offset="100%"/>
		</linearGradient>
		<linearGradient id="gradient4" x1="49.9891%" y1="0%" x2="49.9891%" y2="100%">
			<stop stop-color="#525faa" stop-opacity="1" offset="0%"/>
			<stop stop-color="#525faa" stop-opacity="1" offset="1%"/>
			<stop stop-color="#292f54" stop-opacity="1" offset="99%"/>
			<stop stop-color="#292f54" stop-opacity="1" offset="100%"/>
		</linearGradient>
		<linearGradient id="gradient5" x1="49.9996%" y1="0%" x2="49.9996%" y2="100%">
			<stop stop-color="#525faa" stop-opacity="1" offset="0%"/>
			<stop stop-color="#525faa" stop-opacity="1" offset="1%"/>
			<stop stop-color="#292f54" stop-opacity="1" offset="99%"/>
			<stop stop-color="#292f54" stop-opacity="1" offset="100%"/>
		</linearGradient>
		<linearGradient id="gradient6" x1="49.999%" y1="0%" x2="49.999%" y2="100%">
			<stop stop-color="#525faa" stop-opacity="1" offset="0%"/>
			<stop stop-color="#525faa" stop-opacity="1" offset="1%"/>
			<stop stop-color="#292f54" stop-opacity="1" offset="99%"/>
			<stop stop-color="#292f54" stop-opacity="1" offset="100%"/>
		</linearGradient>
		<linearGradient id="gradient7" x1="49.9927%" y1="0%" x2="49.9927%" y2="100%">
			<stop stop-color="#525faa" stop-opacity="1" offset="0%"/>
			<stop stop-color="#525faa" stop-opacity="1" offset="1%"/>
			<stop stop-color="#292f54" stop-opacity="1" offset="99%"/>
			<stop stop-color="#292f54" stop-opacity="1" offset="100%"/>
		</linearGradient>
		<linearGradient id="gradient8" x1="50.0015%" y1="0%" x2="50.0015%" y2="100%">
			<stop stop-color="#525faa" stop-opacity="1" offset="0%"/>
			<stop stop-color="#525faa" stop-opacity="1" offset="1%"/>
			<stop stop-color="#292f54" stop-opacity="1" offset="99%"/>
			<stop stop-color="#292f54" stop-opacity="1" offset="100%"/>
		</linearGradient>
		<linearGradient id="gradient9" x1="50.001%" y1="0%" x2="50.001%" y2="100%">
			<stop stop-color="#525faa" stop-opacity="1" offset="0%"/>
			<stop stop-color="#525faa" stop-opacity="1" offset="1%"/>
			<stop stop-color="#292f54" stop-opacity="1" offset="99%"/>
			<stop stop-color="#292f54" stop-opacity="1" offset="100%"/>
		</linearGradient>
	</defs>
	<g id="%u30EC%u30A4%u30E4%u30FC%201">
		<rect x="0" y="0" width="50" height="50" stroke="#26b9eb" stroke-width="1" fill="#ffffff"/>
		<path d="M 50 50 L 0 50 L 0 34 L 50 34 L 50 50 Z" fill="#26b9eb"/>
		<g>
			<g>
				<path d="M 27.0181 15.8048 C 27.0181 16.3134 26.6125 16.7289 26.1172 16.7289 L 22.8853 16.7289 C 22.3894 16.7289 21.9843 16.3134 21.9843 15.8048 L 21.9843 13.4421 C 21.9843 12.9336 22.3894 12.5175 22.8853 12.5175 L 26.1172 12.5175 C 26.6125 12.5175 27.0181 12.9336 27.0181 13.4421 L 27.0181 15.8048 Z" fill="url(#gradient1)"/>
				<path d="M 28.6859 23.9999 C 28.7562 25.0137 28.0023 25.8435 27.0107 25.8435 L 21.9923 25.8435 C 21.0005 25.8435 20.2469 25.0137 20.3168 23.9999 L 20.6981 18.4774 C 20.7682 17.4636 21.6362 16.6338 22.6281 16.6338 L 26.3749 16.6338 C 27.3663 16.6338 28.2345 17.4636 28.3046 18.4774 L 28.6859 23.9999 Z" fill="url(#gradient2)"/>
				<path d="M 30.3433 28.0977 C 30.3433 28.6067 29.9375 29.0223 29.4423 29.0223 L 19.5605 29.0223 C 19.0651 29.0223 18.6597 28.6067 18.6597 28.0977 L 18.6597 24.6689 C 18.6597 24.1604 19.0651 23.7448 19.5605 23.7448 L 29.4423 23.7448 C 29.9375 23.7448 30.3433 24.1604 30.3433 24.6689 L 30.3433 28.0977 Z" fill="url(#gradient3)"/>
			</g>
			<g>
				<path d="M 14.0181 15.8048 C 14.0181 16.3134 13.6125 16.7289 13.1172 16.7289 L 9.8853 16.7289 C 9.3894 16.7289 8.9843 16.3134 8.9843 15.8048 L 8.9843 13.4421 C 8.9843 12.9336 9.3894 12.5175 9.8853 12.5175 L 13.1172 12.5175 C 13.6125 12.5175 14.0181 12.9336 14.0181 13.4421 L 14.0181 15.8048 Z" fill="url(#gradient4)"/>
				<path d="M 15.6859 23.9999 C 15.7562 25.0137 15.0023 25.8435 14.0107 25.8435 L 8.9923 25.8435 C 8.0005 25.8435 7.2469 25.0137 7.3168 23.9999 L 7.6981 18.4774 C 7.7682 17.4636 8.6362 16.6338 9.6281 16.6338 L 13.3749 16.6338 C 14.3663 16.6338 15.2345 17.4636 15.3046 18.4774 L 15.6859 23.9999 Z" fill="url(#gradient5)"/>
				<path d="M 17.3433 28.0977 C 17.3433 28.6067 16.9375 29.0223 16.4423 29.0223 L 6.5605 29.0223 C 6.0651 29.0223 5.6597 28.6067 5.6597 28.0977 L 5.6597 24.6689 C 5.6597 24.1604 6.0651 23.7448 6.5605 23.7448 L 16.4423 23.7448 C 16.9375 23.7448 17.3433 24.1604 17.3433 24.6689 L 17.3433 28.0977 Z" fill="url(#gradient6)"/>
			</g>
			<g>
				<path d="M 40.2914 15.8048 C 40.2914 16.3134 39.8859 16.7289 39.3903 16.7289 L 36.1586 16.7289 C 35.6627 16.7289 35.2574 16.3134 35.2574 15.8048 L 35.2574 13.4421 C 35.2574 12.9336 35.6627 12.5175 36.1586 12.5175 L 39.3903 12.5175 C 39.8859 12.5175 40.2914 12.9336 40.2914 13.4421 L 40.2914 15.8048 Z" fill="url(#gradient7)"/>
				<path d="M 41.9591 23.9999 C 42.0293 25.0137 41.2754 25.8435 40.2839 25.8435 L 35.2654 25.8435 C 34.2737 25.8435 33.5199 25.0137 33.5902 23.9999 L 33.9716 18.4774 C 34.0415 17.4636 34.9095 16.6338 35.9014 16.6338 L 39.6479 16.6338 C 40.6396 16.6338 41.5078 17.4636 41.5781 18.4774 L 41.9591 23.9999 Z" fill="url(#gradient8)"/>
				<path d="M 43.6166 28.0977 C 43.6166 28.6067 43.2111 29.0223 42.7155 29.0223 L 32.8336 29.0223 C 32.3384 29.0223 31.9327 28.6067 31.9327 28.0977 L 31.9327 24.6689 C 31.9327 24.1604 32.3384 23.7448 32.8336 23.7448 L 42.7155 23.7448 C 43.2111 23.7448 43.6166 24.1604 43.6166 24.6689 L 43.6166 28.0977 Z" fill="url(#gradient9)"/>
			</g>
		</g>
		<g>
			<path d="M 18.25 47 C 19.0469 47 19.7031 46.7656 20.2188 46.2969 C 20.7344 45.8281 21 45.2188 21 44.4844 C 21 43.3594 20.5 42.6875 19.5156 42.4688 L 19.5156 42.3594 C 19.9375 42.2656 20.2969 42.0156 20.5781 41.6094 C 20.8594 41.2031 21 40.75 21 40.25 C 21 39.5625 20.7656 39.0156 20.2969 38.6094 C 19.8281 38.2031 19.1563 38 18.3125 38 C 17.5 38 16.7344 38.2188 16 38.6563 L 16 40 L 16.0625 40 C 16.7969 39.3438 17.5469 39 18.3125 39 C 18.8281 39 19.2344 39.125 19.5469 39.3594 C 19.8438 39.6094 20 39.9375 20 40.375 C 20 40.8906 19.8438 41.2969 19.5469 41.5781 C 19.25 41.8594 18.8438 42 18.3281 42 L 18 42 L 18 43 L 18.3906 43 C 18.9531 43 19.375 43.125 19.625 43.3438 C 19.875 43.5625 20 43.9063 20 44.375 C 20 44.8906 19.8281 45.2969 19.5 45.5781 C 19.1719 45.8594 18.7344 46 18.2031 46 C 17.4688 46 16.7656 45.6719 16.0781 45 L 16 45 L 16 46.3594 C 16.7188 46.7969 17.4688 47 18.25 47 L 18.25 47 Z" fill="#ffffff"/>
			<path d="M 33.4375 47.7188 C 33.625 47.5313 33.7188 47.2656 33.7188 46.9531 L 33.7188 37 L 32.75 37 L 32.75 46.5625 C 32.75 46.8594 32.5781 47 32.2656 47 L 31.0313 47 L 31.1719 48 L 32.7188 48 C 33.0156 48 33.25 47.9063 33.4375 47.7188 L 33.4375 47.7188 ZM 27.6875 44.7188 C 28.5938 43.2656 29.0625 41.6875 29.0938 40 L 26.0469 40 C 26.2031 39.3438 26.3281 38.6875 26.4219 38 L 29.4063 38 L 29.4063 37 L 23.7031 37 L 23.7031 38 L 25.4688 38 C 25.3438 38.9688 25.0781 39.9688 24.7031 41.0156 C 24.3281 42.0625 23.9063 42.9063 23.4531 43.5625 L 24.0938 44 C 24.3438 43.7031 24.6094 43.3438 24.875 42.9063 C 25.7344 43.3438 26.4375 43.7344 27 44.0781 L 26.9844 44.0938 C 26.1406 45.3281 25.0313 46.2969 23.6719 47 L 24.125 48 C 25.5938 47.25 26.7813 46.1719 27.6875 44.7188 L 27.6875 44.7188 ZM 25.25 42.25 C 25.4375 41.8594 25.625 41.4375 25.7969 41 L 28.0938 41 C 28.0625 41.7188 27.8438 42.5 27.4063 43.375 C 26.7344 43 26.0156 42.625 25.25 42.25 L 25.25 42.25 ZM 31.0469 45 L 31.0469 38 L 30.125 38 L 30.125 45 L 31.0469 45 L 31.0469 45 Z" fill="#ffffff"/>
		</g>
	</g>
</svg>