<?xml version="1.0" standalone="no"?>
<!-- Generator: Adobe Fireworks 10, Export SVG Extension by Aaron Beall (http://fireworks.abeall.com) . Version: 0.6.1  -->
<!DOCTYPE svg PUBLIC "-//W3C//DTD SVG 1.1//EN" "http://www.w3.org/Graphics/SVG/1.1/DTD/svg11.dtd">
<svg id="Untitled-%u30DA%u30FC%u30B8%201" viewBox="0 0 50 50" style="background-color:#ffffff" version="1.1"
	xmlns="http://www.w3.org/2000/svg" xmlns:xlink="http://www.w3.org/1999/xlink" xml:space="preserve"
	x="0px" y="0px" width="50px" height="50px"
>
	<defs>
		<linearGradient id="gradient1" x1="50%" y1="0%" x2="50%" y2="100%">
			<stop stop-color="#6978b7" stop-opacity="1" offset="0%"/>
			<stop stop-color="#6978b7" stop-opacity="1" offset="1%"/>
			<stop stop-color="#292f54" stop-opacity="1" offset="99%"/>
			<stop stop-color="#292f54" stop-opacity="1" offset="100%"/>
		</linearGradient>
		<linearGradient id="gradient2" x1="50.0009%" y1="100%" x2="50.0009%" y2="0%">
			<stop stop-color="#525faa" stop-opacity="1" offset="0%"/>
			<stop stop-color="#525faa" stop-opacity="1" offset="1%"/>
			<stop stop-color="#292f54" stop-opacity="1" offset="99%"/>
			<stop stop-color="#292f54" stop-opacity="1" offset="100%"/>
		</linearGradient>
		<linearGradient id="gradient3" x1="49.9991%" y1="0%" x2="49.9991%" y2="100%">
			<stop stop-color="#525faa" stop-opacity="1" offset="0%"/>
			<stop stop-color="#525faa" stop-opacity="1" offset="1%"/>
			<stop stop-color="#323966" stop-opacity="1" offset="99%"/>
			<stop stop-color="#323966" stop-opacity="1" offset="100%"/>
		</linearGradient>
	</defs>
	<g id="%u30EC%u30A4%u30E4%u30FC%201">
		<rect x="0" y="0" width="50" height="50" stroke="#26b9eb" stroke-width="1" fill="#ffffff"/>
		<g>
			<path d="M 25.34 20.0729 C 25.34 21.0897 24.7126 22.449 25.204 23.2421 L 17.8873 30.4122 C 15.509 30.5454 15.3452 28.4717 15.3452 27.4554 L 15.3452 19.0923 C 15.3452 18.0756 16.1287 17.0295 17.0862 16.7677 L 23.598 14.5747 C 24.5562 14.3129 25.34 14.9296 25.34 15.9463 L 25.34 20.0729 Z" fill="#525faa"/>
			<path d="M 26.3868 20.0729 C 26.3868 21.0897 25.7598 22.449 24.9939 23.0941 L 17.7848 28.1302 C 17.0188 28.7754 16.3921 28.4717 16.3921 27.4554 L 16.3921 19.0923 C 16.3921 18.0756 17.1757 17.0295 18.1333 16.7677 L 24.645 14.5747 C 25.6033 14.3129 26.3868 14.9296 26.3868 15.9463 L 26.3868 20.0729 Z" fill="#323966"/>
			<path d="M 34.6327 18.5952 C 34.6327 19.6115 33.822 20.4432 32.8302 20.4432 L 24.1949 20.4432 C 23.2039 20.4432 23.0287 19.6115 23.0287 18.5952 L 26.2079 6.1538 C 26.5085 5.1371 27.019 4.3054 28.0101 4.3054 L 32.8302 4.3054 C 33.822 4.3054 34.6327 5.1371 34.6327 6.1538 L 34.6327 18.5952 Z" fill="url(#gradient1)"/>
			<path d="M 28.9105 23.4675 L 32.28 18.3734 L 23.0853 18.3734 L 17.6464 21.1589 C 17.1235 21.6422 16.3921 22.0477 16.3921 23.3599 L 16.3921 28.5857 C 16.3921 29.6019 17.203 30.434 18.194 30.434 L 28.498 30.434 C 29.4891 30.434 30.2998 29.6019 30.2998 28.5857 L 29.0282 25.3158 L 28.9105 23.4675 Z" fill="#525faa"/>
			<path d="M 34.6327 17.6178 C 34.6327 17.6178 34.6327 7.1321 34.6327 6.1538 C 34.6327 5.1753 33.8624 4.3054 33.5891 5.0835 L 32.3546 18.6499 L 32.3546 18.6499 " fill="#323966"/>
			<path d="M 23.0853 18.3734 L 17.6464 21.1589 L 29.5201 21.1228 L 31.076 18.3646 L 23.0853 18.3734 Z" fill="url(#gradient2)"/>
			<path d="M 18.194 30.434 C 17.1274 30.434 16.3921 29.4536 16.3921 28.5857 C 16.3921 27.7174 16.3921 24.6204 16.3921 24.6204 L 30.2417 24.6204 L 29.566 29.6324 C 29.566 29.6324 29.9435 30.434 28.2148 30.434 C 26.4861 30.434 18.194 30.434 18.194 30.434 Z" fill="url(#gradient3)"/>
			<path d="M 35.6133 22.5446 C 35.6133 23.5613 34.9601 25.2256 34.3018 25.9856 L 30.8843 30.0741 C 30.2261 30.834 28.5923 30.5298 28.5923 29.5132 L 28.5923 19.1942 C 28.5923 18.1779 29.3342 17.0103 30.2417 16.6001 L 33.3685 15.1918 C 35.5546 14.4404 35.8252 15.9764 35.8252 16.9927 L 35.6133 22.5446 Z" fill="#323966"/>
			<path d="M 35.9176 22.5446 C 35.9176 23.5613 35.3785 25.0144 34.7205 25.7743 L 31.0742 29.9803 C 30.4163 30.7397 29.8772 30.5298 29.8772 29.5132 L 29.8772 19.1942 C 29.8772 18.1779 30.619 17.0103 31.5262 16.6001 L 34.2686 15.3602 C 35.1755 14.9497 35.9176 15.4458 35.9176 16.4619 L 35.9176 22.5446 Z" fill="#525faa"/>
		</g>
		<path d="M 50 50 L 0 50 L 0 34 L 50 34 L 50 50 Z" fill="#26b9eb"/>
		<g>
			<path d="M 23.4531 47.3125 C 23.6094 47.5938 23.7188 47.8281 23.7969 48 L 24.625 47.7656 C 24.5 47.4688 24.25 47 23.875 46.3438 C 23.5 45.6875 23.2188 45.25 23.0625 45 L 22.2656 45.2344 C 22.4844 45.5469 22.7813 46.0156 23.1563 46.6406 L 21.2969 46.7813 L 21.2969 44 L 24.0156 44 L 24.0156 39 L 21.2969 39 L 21.2969 37 L 20.4063 37 L 20.4063 39 L 17.7813 39 L 17.7813 44 L 18.6563 44 L 20.4063 44 L 20.4063 46.8281 C 18.9531 46.9219 17.8594 46.9844 17.1406 47 L 17.2969 48 C 20.0938 47.7344 22.1406 47.5 23.4531 47.3125 L 23.4531 47.3125 ZM 18.6563 40 L 20.4063 40 L 20.4063 43 L 18.6563 43 L 18.6563 40 L 18.6563 40 ZM 21.2969 40 L 23.1563 40 L 23.1563 43 L 21.2969 43 L 21.2969 40 L 21.2969 40 ZM 15.9844 42.5156 C 16.0313 42.9531 16.0625 43.375 16.0625 43.8125 L 16.0625 43.9688 C 16.0469 44.5938 16.0156 45.0781 15.9844 45.4063 C 15.9531 45.75 15.8906 46.0313 15.7969 46.2813 C 15.7031 46.5313 15.5625 46.7031 15.3906 46.8281 C 15.2188 46.9531 15.0156 47 14.7656 47 L 13.7813 47 L 13.9063 48 L 15.1094 48 C 15.7344 48 16.1875 47.6719 16.5 47.0156 C 16.7969 46.3594 16.9531 45.3281 16.9531 43.9063 C 16.9531 42.3281 16.5938 40.8125 15.8906 39.3594 C 16.4531 38.5156 16.8438 37.8281 17.0781 37.2656 L 16.2031 37 C 16.0156 37.4531 15.7656 37.9531 15.4375 38.4844 C 15.1719 37.9688 14.875 37.4688 14.5469 37 L 13.8906 37.4219 C 14.3125 38.0469 14.6719 38.6406 14.9531 39.2188 C 14.3594 40.0469 13.7969 40.7188 13.2344 41.25 L 13.7344 42 C 14.2031 41.5938 14.7344 40.9531 15.3438 40.1094 C 15.5313 40.5156 15.6719 40.9531 15.7969 41.4063 C 15.1563 42.5313 14.3594 43.5781 13.3906 44.5469 L 13.875 45 C 14.7813 44.1875 15.4844 43.3594 15.9844 42.5156 L 15.9844 42.5156 Z" fill="#ffffff"/>
			<path d="M 36.0938 39 L 36.0938 38 L 31.4375 38 L 31.4375 36 L 30.4375 36 L 30.4375 38 L 25.8281 38 L 25.8281 39 L 36.0938 39 L 36.0938 39 ZM 36.4531 48 L 36.4531 47 L 32.5938 47 C 32.875 46.2656 33.2656 45.1563 33.75 43.6563 C 34.2188 42.1719 34.5625 41.0469 34.7656 40.2656 L 33.7344 40 C 33.5469 40.9219 33.2188 42.1094 32.7813 43.5781 C 32.3438 45.0469 31.9531 46.1875 31.6406 47 L 25.4375 47 L 25.4375 48 L 36.4531 48 L 36.4531 48 ZM 29.3594 45.6563 C 29.2344 45.0625 29 44.125 28.6875 42.8125 C 28.375 41.5 28.125 40.5625 27.9375 40 L 27.0313 40.3594 C 27.1875 40.8594 27.4219 41.7188 27.7344 42.9531 C 28.0313 44.1875 28.2656 45.2031 28.4219 46 L 29.3594 45.6563 L 29.3594 45.6563 Z" fill="#ffffff"/>
		</g>
	</g>
</svg>