<?xml version="1.0" standalone="no"?>
<!-- Generator: Adobe Fireworks 10, Export SVG Extension by Aaron Beall (http://fireworks.abeall.com) . Version: 0.6.1  -->
<!DOCTYPE svg PUBLIC "-//W3C//DTD SVG 1.1//EN" "http://www.w3.org/Graphics/SVG/1.1/DTD/svg11.dtd">
<svg id="Untitled-%u30DA%u30FC%u30B8%201" viewBox="0 0 50 50" style="background-color:#ffffff" version="1.1"
	xmlns="http://www.w3.org/2000/svg" xmlns:xlink="http://www.w3.org/1999/xlink" xml:space="preserve"
	x="0px" y="0px" width="50px" height="50px"
>
	<g id="%u30EC%u30A4%u30E4%u30FC%201">
		<rect x="0" y="0" width="50" height="50" stroke="#26b9eb" stroke-width="1" fill="#ffffff"/>
		<path d="M 50 50 L 0 50 L 0 34 L 50 34 L 50 50 Z" fill="#26b9eb"/>
		<g>
			<path d="M 34.8079 20.3839 C 34.8079 26.2584 30.1643 31.0201 24.4355 31.0201 C 18.7074 31.0201 14.0632 26.2584 14.0632 20.3839 L 14.0632 6.0392 L 34.8079 6.0392 L 34.8079 20.3839 ZM 24.4355 14.0022 C 20.9987 14.0022 18.2126 16.8593 18.2126 20.3839 C 18.2126 23.9087 20.9987 26.7657 24.4355 26.7657 C 27.8732 26.7657 30.6594 23.9087 30.6594 20.3839 C 30.6594 16.8593 27.8732 14.0022 24.4355 14.0022 Z" fill="#ffffe6"/>
			<path d="M 34.8079 11.2559 L 14.0632 11.2559 L 14.0632 9.979 L 34.8079 9.979 L 34.8079 11.2559 Z" fill="#ccccb8"/>
			<path d="M 34.8079 20.3839 C 34.8079 26.2584 30.1643 31.0201 24.4355 31.0201 C 18.7074 31.0201 14.0632 26.2584 14.0632 20.3839 L 14.0632 6.0392 L 34.8079 6.0392 L 34.8079 20.3839 ZM 24.4355 14.0022 C 20.9987 14.0022 18.2126 16.8593 18.2126 20.3839 C 18.2126 23.9087 20.9987 26.7657 24.4355 26.7657 C 27.8732 26.7657 30.6594 23.9087 30.6594 20.3839 C 30.6594 16.8593 27.8732 14.0022 24.4355 14.0022 Z" stroke="#99998a" stroke-width="1" fill="none"/>
		</g>
		<g>
			<path d="M 10.0156 39.75 L 10.0156 37 L 9 37 L 9 48 L 10 48 L 10 40.75 C 10.7969 41.0625 11.7031 41.5313 12.7344 42.1406 C 13.7656 42.75 14.6406 43.375 15.3906 44 L 16 43.25 C 14.125 41.7656 12.1406 40.5938 10.0156 39.75 L 10.0156 39.75 Z" fill="#ffffff"/>
			<path d="M 25 40.9844 C 26.375 39.7969 27.375 38.6094 28 37.4219 L 27.0469 37 C 26.3281 38.1563 25.25 39.2656 23.8281 40.3281 C 22.4063 41.4063 20.4688 42.2969 18 43 L 18.3125 44 C 20.3125 43.5 22.2188 42.75 24 41.7344 L 24 48 L 25 48 L 25 40.9844 L 25 40.9844 Z" fill="#ffffff"/>
			<path d="M 40.2813 42 C 39.4063 43.125 38.2344 44.1719 36.75 45.125 C 35.25 46.0938 33.6719 46.7656 32 47.1719 L 32 38 L 31 38 L 31 47.7188 L 31.6406 48.25 C 33.5469 47.8438 35.3906 47.0781 37.1719 45.9688 C 38.9531 44.8594 40.2344 43.7344 41 42.5938 L 40.2813 42 L 40.2813 42 Z" fill="#ffffff"/>
		</g>
	</g>
</svg>