<?xml version="1.0" standalone="no"?>
<!-- Generator: Adobe Fireworks 10, Export SVG Extension by Aaron Beall (http://fireworks.abeall.com) . Version: 0.6.1  -->
<!DOCTYPE svg PUBLIC "-//W3C//DTD SVG 1.1//EN" "http://www.w3.org/Graphics/SVG/1.1/DTD/svg11.dtd">
<svg id="Untitled-%u30DA%u30FC%u30B8%201" viewBox="0 0 50 50" style="background-color:#ffffff" version="1.1"
	xmlns="http://www.w3.org/2000/svg" xmlns:xlink="http://www.w3.org/1999/xlink" xml:space="preserve"
	x="0px" y="0px" width="50px" height="50px"
>
	<g id="%u30EC%u30A4%u30E4%u30FC%201">
		<rect x="0" y="0" width="50" height="50" stroke="#f8688f" stroke-width="1" fill="#ffffff"/>
		<path d="M 50 50 L 0 50 L 0 34 L 50 34 L 50 50 Z" fill="#f8688f"/>
		<g>
			<g>
				<path d="M 19.9445 7.0591 C 19.9445 8.2363 19.0142 9.1902 17.8667 9.1902 C 16.7194 9.1902 15.7891 8.2363 15.7891 7.0591 C 15.7891 5.8833 16.7194 4.9286 17.8667 4.9286 C 19.0142 4.9286 19.9445 5.8833 19.9445 7.0591 Z" fill="#f8688f"/>
				<path d="M 19.7194 12.1946 C 19.3414 10.4248 18.9231 8.9771 17.8672 8.9771 C 16.8105 8.9771 16.3927 10.4248 16.0145 12.1946 L 12.1689 23.891 L 23.5646 23.891 L 19.7194 12.1946 Z" fill="#f8688f"/>
				<g>
					<path d="M 17.2646 30.0725 C 17.2646 30.6761 16.9353 31.1705 16.5328 31.1705 C 16.1302 31.1705 15.8008 30.6761 15.8008 30.0725 L 15.8008 22.2933 C 15.8008 21.6895 16.1302 21.1958 16.5328 21.1958 C 16.9353 21.1958 17.2646 21.6895 17.2646 22.2933 L 17.2646 30.0725 Z" fill="#f8688f"/>
					<path d="M 19.9325 30.0725 C 19.9325 30.6761 19.603 31.1705 19.2008 31.1705 C 18.7986 31.1705 18.4688 30.6761 18.4688 30.0725 L 18.4688 22.2933 C 18.4688 21.6895 18.7986 21.1958 19.2008 21.1958 C 19.603 21.1958 19.9325 21.6895 19.9325 22.2933 L 19.9325 30.0725 Z" fill="#f8688f"/>
				</g>
				<path d="M 12.3112 16.1261 C 11.8945 16.5526 11.3212 16.6636 11.0364 16.3712 C 10.7521 16.0796 10.8596 15.491 11.2765 15.0646 L 16.6409 9.564 C 17.0566 9.1371 17.6305 9.0264 17.9147 9.3188 C 18.1996 9.6104 18.0918 10.1985 17.6755 10.6249 L 12.3112 16.1261 Z" fill="#f8688f"/>
				<path d="M 23.4169 16.1261 C 23.8326 16.5526 24.4065 16.6636 24.691 16.3712 C 24.9757 16.0796 24.8678 15.491 24.4515 15.0646 L 19.0872 9.564 C 18.6711 9.1371 18.0972 9.0264 17.8132 9.3188 C 17.528 9.6104 17.6357 10.1985 18.0524 10.6249 L 23.4169 16.1261 Z" fill="#f8688f"/>
			</g>
			<g>
				<path d="M 33.9445 7.0591 C 33.9445 8.2363 33.0142 9.1902 31.8667 9.1902 C 30.7194 9.1902 29.7891 8.2363 29.7891 7.0591 C 29.7891 5.8833 30.7194 4.9286 31.8667 4.9286 C 33.0142 4.9286 33.9445 5.8833 33.9445 7.0591 Z" fill="#f8688f"/>
				<path d="M 33.7194 12.1946 C 33.3414 10.4248 32.9231 8.9771 31.8672 8.9771 C 30.8105 8.9771 30.3927 10.4248 30.0145 12.1946 L 26.1689 23.891 L 37.5646 23.891 L 33.7194 12.1946 Z" fill="#f8688f"/>
				<g>
					<path d="M 31.2646 30.0725 C 31.2646 30.6761 30.9353 31.1705 30.5328 31.1705 C 30.1302 31.1705 29.8008 30.6761 29.8008 30.0725 L 29.8008 22.2933 C 29.8008 21.6895 30.1302 21.1958 30.5328 21.1958 C 30.9353 21.1958 31.2646 21.6895 31.2646 22.2933 L 31.2646 30.0725 Z" fill="#f8688f"/>
					<path d="M 33.9325 30.0725 C 33.9325 30.6761 33.603 31.1705 33.2008 31.1705 C 32.7986 31.1705 32.4688 30.6761 32.4688 30.0725 L 32.4688 22.2933 C 32.4688 21.6895 32.7986 21.1958 33.2008 21.1958 C 33.603 21.1958 33.9325 21.6895 33.9325 22.2933 L 33.9325 30.0725 Z" fill="#f8688f"/>
				</g>
				<path d="M 26.3112 16.1261 C 25.8945 16.5526 25.3212 16.6636 25.0364 16.3712 C 24.7521 16.0796 24.8596 15.491 25.2765 15.0646 L 30.6409 9.564 C 31.0566 9.1371 31.6305 9.0264 31.9147 9.3188 C 32.1996 9.6104 32.0918 10.1985 31.6755 10.6249 L 26.3112 16.1261 Z" fill="#f8688f"/>
				<path d="M 37.4169 16.1261 C 37.8326 16.5526 38.4065 16.6636 38.691 16.3712 C 38.9757 16.0796 38.8678 15.491 38.4515 15.0646 L 33.0872 9.564 C 32.6711 9.1371 32.0972 9.0264 31.8132 9.3188 C 31.528 9.6104 31.6357 10.1985 32.0524 10.6249 L 37.4169 16.1261 Z" fill="#f8688f"/>
			</g>
		</g>
		<g>
			<path d="M 9.9063 42.6875 C 10.2188 41.7031 10.3906 40.8125 10.4219 40 L 12.375 40 L 12.375 39 L 5.5313 39 C 5.9063 37.7344 6.1563 36.7813 6.3125 36.1563 L 5.3438 36 C 5.1875 36.7656 4.9375 37.7656 4.5938 39 L 1.6094 39 L 1.6094 40 L 4.3281 40 C 3.8281 41.4531 3.3906 42.5938 3.0156 43.4063 C 3 43.4375 3 43.4688 3 43.5 C 3 43.5625 3.0156 43.625 3.0625 43.6875 C 3.0938 43.75 3.125 43.7656 3.1563 43.7656 C 4.0781 44.0781 4.8906 44.375 5.5781 44.6563 C 6.2656 44.9375 6.7031 45.1094 6.8594 45.1875 L 6.9375 45.2344 C 5.625 46.1563 3.9219 46.75 1.8281 47 L 2.0781 48 C 4.4688 47.75 6.3906 47.0781 7.8281 46.0156 C 9.1719 46.6563 10.4063 47.3125 11.5 48 L 12.1094 47.25 C 11.1406 46.6563 9.9375 45.9688 8.5156 45.1875 C 9.1094 44.5 9.5781 43.6719 9.9063 42.6875 L 9.9063 42.6875 ZM 5.75 43.9531 C 4.7813 43.5938 4.2344 43.375 4.0781 43.2969 C 4.3281 42.6719 4.7188 41.5781 5.25 40 L 9.4531 40 C 9.4219 40.875 9.2344 41.75 8.9219 42.625 C 8.6094 43.5 8.1875 44.2188 7.6719 44.7813 C 7.1563 44.5313 6.5156 44.25 5.75 43.9531 L 5.75 43.9531 Z" fill="#ffffff"/>
			<path d="M 24.7031 48 L 24.7031 47 L 21.4375 47 L 21.4375 44 L 24.1563 44 L 24.1563 43 L 21.4375 43 L 21.4375 40 L 24.4375 40 L 24.4375 39 L 21.4375 39 L 21.4375 37 L 20.5 37 L 20.5 39 L 18.8594 39 C 19.1094 38.3281 19.2813 37.7031 19.4063 37.1406 L 18.4844 37 C 18.375 37.7188 18.1563 38.5313 17.8438 39.4375 C 17.5156 40.3438 17.1875 41.0625 16.8438 41.625 L 17.5625 42 C 17.9375 41.4219 18.2813 40.75 18.5781 40 L 20.5 40 L 20.5 43 L 17.625 43 L 17.625 44 L 20.5 44 L 20.5 47 L 17.0156 47 L 17.0156 48 L 24.7031 48 L 24.7031 48 ZM 15.8906 48 L 15.8906 37 L 15.0156 37 L 15.0156 48 L 15.8906 48 L 15.8906 48 ZM 17.25 40.7969 L 16.875 39 L 16.1875 39.1719 L 16.5625 41 L 17.25 40.7969 L 17.25 40.7969 ZM 14.2188 41.1094 C 14.3125 40.2656 14.3594 39.5625 14.375 39.0313 L 13.5938 39 C 13.5313 40.5469 13.3906 41.8125 13.1719 42.8125 L 13.9375 43 C 14.0313 42.5938 14.125 41.9688 14.2188 41.1094 L 14.2188 41.1094 Z" fill="#ffffff"/>
			<path d="M 35.9375 40 L 35.9375 38 L 31.4531 38 L 31.4531 36 L 30.4844 36 L 30.4844 38 L 25.9531 38 L 25.9531 40 L 26.8438 40 L 26.8438 39 L 35.0313 39 L 35.0313 40 L 35.9375 40 L 35.9375 40 ZM 34.3594 42 L 36.1719 42 L 36.1719 41 L 29.6875 41 C 29.9688 40.2188 30.1875 39.6094 30.3281 39.1719 L 29.375 39 C 29.2344 39.5156 29.0156 40.1875 28.7188 41 L 25.5781 41 L 25.5781 42 L 28.4063 42 C 27.9844 43.0313 27.6094 43.8594 27.2969 44.4688 C 27.2813 44.6563 27.3438 44.75 27.4688 44.7813 C 28.1563 44.9844 29.2031 45.3594 30.6406 45.9063 C 29.5156 46.4531 27.9375 46.8125 25.8906 47 L 26.125 48 C 28.375 47.7813 30.1875 47.2031 31.5938 46.2656 C 32.8438 46.7969 34.0781 47.375 35.3125 48 L 35.8594 47.25 C 34.9219 46.7813 33.7656 46.25 32.3906 45.6719 C 33.5 44.6563 34.1563 43.4375 34.3594 42 L 34.3594 42 ZM 28.3594 44.25 C 28.6094 43.7969 28.9531 43.0469 29.375 42 L 33.4063 42 C 33.2188 43.3125 32.5625 44.4219 31.4688 45.3438 C 30.2656 44.8906 29.2344 44.5313 28.3594 44.25 L 28.3594 44.25 Z" fill="#ffffff"/>
			<path d="M 44.8281 39.25 C 44.5156 38.9688 44.0313 38.5781 43.375 38.0781 C 42.7031 37.5781 42.1719 37.2188 41.7813 37 L 41.2188 37.75 C 42.7188 38.7813 43.7031 39.5313 44.1875 40 L 44.8281 39.25 L 44.8281 39.25 ZM 40.6094 46.7969 C 40.6094 47.125 40.6875 47.3906 40.8594 47.6094 C 41.0156 47.7969 41.3594 47.9219 41.8594 47.9531 C 42.3594 47.9844 42.8281 48 43.2344 48 C 43.7969 48 44.2969 47.9844 44.7344 47.9688 C 45.1719 47.9219 45.4531 47.8906 45.6094 47.8594 C 45.75 47.8125 45.8906 47.75 46.0156 47.6719 C 46.1406 47.5625 46.25 47.4531 46.3281 47.3281 C 46.4063 47.1875 46.4531 47.0313 46.4531 46.8594 L 46.4531 45.0938 L 45.625 45 C 45.6406 45.2656 45.625 45.5781 45.5938 45.9531 C 45.5625 46.3281 45.5156 46.5625 45.4688 46.6563 C 45.4219 46.75 45.3438 46.8125 45.25 46.8594 C 45.1406 46.9219 44.9219 46.9531 44.6094 46.9688 C 44.2813 47 43.8906 47 43.4531 47 C 42.5469 47 42 46.9688 41.8125 46.875 C 41.625 46.7969 41.5313 46.625 41.5313 46.3594 L 41.5313 40 L 40.6094 40 L 40.6094 46.7969 L 40.6094 46.7969 ZM 48.6094 44.7188 C 48.5 44.3438 48.2656 43.75 47.9063 42.9688 C 47.5313 42.1875 47.2031 41.5313 46.8906 41 L 46.0938 41.3125 C 46.3281 41.7188 46.625 42.2969 46.9688 43.0625 C 47.3125 43.8438 47.5781 44.4844 47.75 45 L 48.6094 44.7188 L 48.6094 44.7188 ZM 38.8594 44.6875 C 39.0625 43.625 39.1875 42.75 39.2344 42.0781 L 38.375 42 C 38.1406 44.125 37.8281 45.6719 37.4219 46.6406 L 38.2656 47 C 38.4531 46.5313 38.6563 45.7656 38.8594 44.6875 L 38.8594 44.6875 Z" fill="#ffffff"/>
		</g>
	</g>
</svg>