<?xml version="1.0" standalone="no"?>
<!-- Generator: Adobe Fireworks 10, Export SVG Extension by Aaron Beall (http://fireworks.abeall.com) . Version: 0.6.1  -->
<!DOCTYPE svg PUBLIC "-//W3C//DTD SVG 1.1//EN" "http://www.w3.org/Graphics/SVG/1.1/DTD/svg11.dtd">
<svg id="Untitled-%u30DA%u30FC%u30B8%201" viewBox="0 0 61 43" style="background-color:#ffffff00" version="1.1"
	xmlns="http://www.w3.org/2000/svg" xmlns:xlink="http://www.w3.org/1999/xlink" xml:space="preserve"
	x="0px" y="0px" width="61px" height="43px"
>
	<g id="%u30EC%u30A4%u30E4%u30FC%201">
		<g>
			<g>
				<path d="M 49.599 17.0751 C 48.0654 17.0751 46.8176 18.3236 46.8176 19.8582 C 46.8176 20.0714 46.9904 20.244 47.2034 20.244 C 47.4164 20.244 47.5891 20.0714 47.5891 19.8582 C 47.5891 18.7493 48.4907 17.847 49.599 17.847 C 49.812 17.847 49.9846 17.6744 49.9846 17.4613 C 49.9846 17.2479 49.812 17.0751 49.599 17.0751 Z" stroke="#ffffff" stroke-width="2" fill="#ffffff"/>
				<path d="M 55.2971 23.1354 C 55.9944 22.0417 56.3984 20.7441 56.3984 19.3533 C 56.3984 15.4638 53.2365 12.3 49.3492 12.3 C 47.9593 12.3 46.6624 12.7043 45.5692 13.4019 C 44.6983 13.9573 43.9571 14.6991 43.4019 15.5706 C 42.7046 16.6644 42.3 17.9626 42.3 19.3533 C 42.3 23.2424 45.4625 26.4067 49.3492 26.4067 C 50.7392 26.4067 52.0366 26.0019 53.1297 25.3043 C 54.0007 24.7485 54.7418 24.0071 55.2971 23.1354 ZM 51.6351 23.8087 C 50.9495 24.1625 50.1721 24.3622 49.3492 24.3622 C 46.5893 24.3622 44.3432 22.1151 44.3432 19.3533 C 44.3432 18.5298 44.543 17.7522 44.8965 17.066 C 45.3751 16.1368 46.1357 15.3763 47.0643 14.898 C 47.7498 14.5443 48.5268 14.3445 49.3492 14.3445 C 52.1096 14.3445 54.3551 16.5911 54.3551 19.3533 C 54.3551 20.1761 54.1554 20.9537 53.8019 21.6396 C 53.3239 22.5687 52.5637 23.3298 51.6351 23.8087 Z" fill="#ffffff"/>
				<path d="M 60.2513 28.0822 L 56.1818 24.0205 C 55.6025 24.8668 54.8603 25.6088 54.0144 26.1891 L 58.084 30.2508 C 58.3834 30.5503 58.7756 30.7 59.1675 30.7 C 59.5598 30.7 59.9521 30.5503 60.2515 30.2508 C 60.8495 29.6519 60.8495 28.6812 60.2513 28.0822 Z" fill="#ffffff"/>
			</g>
			<g>
				<path d="M 11.4349 10.3045 C 12.6426 10.3045 13.622 9.3522 13.622 8.1771 L 13.622 4.8299 C 13.622 3.6555 12.6426 2.7032 11.4349 2.7032 C 10.2265 2.7032 9.2471 3.6555 9.2471 4.8299 L 9.2471 8.1772 C 9.2471 9.3522 10.2265 10.3045 11.4349 10.3045 Z" fill="#ffffff"/>
				<path d="M 27.5658 10.3045 C 28.7735 10.3045 29.7529 9.3522 29.7529 8.1771 L 29.7529 4.8299 C 29.7529 3.6555 28.7735 2.7032 27.5658 2.7032 C 26.3574 2.7032 25.378 3.6555 25.378 4.8299 L 25.378 8.1772 C 25.378 9.3522 26.3574 10.3045 27.5658 10.3045 Z" fill="#ffffff"/>
				<path d="M 33.029 5.7347 L 31.6753 5.7347 L 31.6753 8.1771 C 31.6753 10.3812 29.8318 12.1738 27.5658 12.1738 C 25.2992 12.1738 23.4557 10.3812 23.4557 8.1771 L 23.4557 5.7347 L 15.5444 5.7347 L 15.5444 8.1771 C 15.5444 10.3812 13.7008 12.1738 11.4349 12.1738 C 9.1683 12.1738 7.3246 10.3812 7.3246 8.1771 L 7.3246 5.7347 L 5.9711 5.7347 C 3.0618 5.7347 0.7032 8.0281 0.7032 10.8571 L 0.7032 35.1744 C 0.7032 38.0033 3.0619 40.2968 5.9711 40.2968 L 33.029 40.2968 C 35.9383 40.2968 38.2968 38.0033 38.2968 35.1744 L 38.2968 10.8571 C 38.2968 8.0281 35.9381 5.7347 33.029 5.7347 ZM 34.151 34.2751 C 34.151 35.5839 33.0558 36.6487 31.7097 36.6487 L 7.2903 36.6487 C 5.9442 36.6487 4.8491 35.5839 4.8491 34.2751 L 4.8491 15.2498 L 34.1511 15.2498 L 34.1511 34.2751 L 34.151 34.2751 Z" fill="#ffffff"/>
				<path d="M 14.5713 30.0004 L 18.4368 30.0004 L 18.4368 33.7592 L 14.5713 33.7592 L 14.5713 30.0004 Z" fill="#ffffff"/>
				<path d="M 14.5713 24.1741 L 18.4368 24.1741 L 18.4368 27.9327 L 14.5713 27.9327 L 14.5713 24.1741 Z" fill="#ffffff"/>
				<path d="M 8.58 30.0004 L 12.4454 30.0004 L 12.4454 33.7592 L 8.58 33.7592 L 8.58 30.0004 Z" fill="#ffffff"/>
				<path d="M 8.58 24.1741 L 12.4454 24.1741 L 12.4454 27.9327 L 8.58 27.9327 L 8.58 24.1741 Z" fill="#ffffff"/>
				<path d="M 26.5545 18.3477 L 30.4199 18.3477 L 30.4199 22.1063 L 26.5545 22.1063 L 26.5545 18.3477 Z" fill="#ffffff"/>
				<path d="M 20.5633 18.3477 L 24.4293 18.3477 L 24.4293 22.1063 L 20.5633 22.1063 L 20.5633 18.3477 Z" fill="#ffffff"/>
				<path d="M 20.5633 24.1741 L 24.4293 24.1741 L 24.4293 27.9327 L 20.5633 27.9327 L 20.5633 24.1741 Z" fill="#ffffff"/>
				<path d="M 26.5545 30.0004 L 30.4199 30.0004 L 30.4199 33.7592 L 26.5545 33.7592 L 26.5545 30.0004 Z" fill="#ffffff"/>
				<path d="M 26.5545 24.1741 L 30.4199 24.1741 L 30.4199 27.9327 L 26.5545 27.9327 L 26.5545 24.1741 Z" fill="#ffffff"/>
				<path d="M 20.5633 30.0004 L 24.4293 30.0004 L 24.4293 33.7592 L 20.5633 33.7592 L 20.5633 30.0004 Z" fill="#ffffff"/>
				<path d="M 14.5713 18.3477 L 18.4368 18.3477 L 18.4368 22.1063 L 14.5713 22.1063 L 14.5713 18.3477 Z" fill="#ffffff"/>
				<path d="M 8.58 18.3477 L 12.4454 18.3477 L 12.4454 22.1063 L 8.58 22.1063 L 8.58 18.3477 Z" fill="#ffffff"/>
			</g>
		</g>
	</g>
</svg>