<?xml version="1.0" standalone="no"?>
<!-- Generator: Adobe Fireworks 10, Export SVG Extension by Aaron Beall (http://fireworks.abeall.com) . Version: 0.6.1  -->
<!DOCTYPE svg PUBLIC "-//W3C//DTD SVG 1.1//EN" "http://www.w3.org/Graphics/SVG/1.1/DTD/svg11.dtd">
<svg id="Untitled-%u30DA%u30FC%u30B8%201" viewBox="0 0 63 43" style="background-color:#ffffff00" version="1.1"
	xmlns="http://www.w3.org/2000/svg" xmlns:xlink="http://www.w3.org/1999/xlink" xml:space="preserve"
	x="0px" y="0px" width="63px" height="43px"
>
	<g id="%u30EC%u30A4%u30E4%u30FC%201">
		<g>
			<g>
				<path d="M 51.599 17.0751 C 50.0654 17.0751 48.8176 18.3236 48.8176 19.8582 C 48.8176 20.0714 48.9904 20.244 49.2034 20.244 C 49.4164 20.244 49.5891 20.0714 49.5891 19.8582 C 49.5891 18.7493 50.4907 17.847 51.599 17.847 C 51.812 17.847 51.9846 17.6744 51.9846 17.4613 C 51.9846 17.2479 51.812 17.0751 51.599 17.0751 Z" stroke="#ffffff" stroke-width="2" fill="#ffffff"/>
				<path d="M 57.2971 23.1354 C 57.9944 22.0417 58.3984 20.7441 58.3984 19.3533 C 58.3984 15.4638 55.2365 12.3 51.3492 12.3 C 49.9593 12.3 48.6624 12.7043 47.5692 13.4019 C 46.6983 13.9573 45.9571 14.6991 45.4019 15.5706 C 44.7046 16.6644 44.3 17.9626 44.3 19.3533 C 44.3 23.2424 47.4625 26.4067 51.3492 26.4067 C 52.7392 26.4067 54.0366 26.0019 55.1297 25.3043 C 56.0007 24.7485 56.7418 24.0071 57.2971 23.1354 ZM 53.6351 23.8087 C 52.9495 24.1625 52.1721 24.3622 51.3492 24.3622 C 48.5893 24.3622 46.3432 22.1151 46.3432 19.3533 C 46.3432 18.5298 46.543 17.7522 46.8965 17.066 C 47.3751 16.1368 48.1357 15.3763 49.0643 14.898 C 49.7498 14.5443 50.5268 14.3445 51.3492 14.3445 C 54.1096 14.3445 56.3551 16.5911 56.3551 19.3533 C 56.3551 20.1761 56.1554 20.9537 55.8019 21.6396 C 55.3239 22.5687 54.5637 23.3298 53.6351 23.8087 Z" fill="#ffffff"/>
				<path d="M 62.2513 28.0822 L 58.1818 24.0205 C 57.6025 24.8668 56.8603 25.6088 56.0144 26.1891 L 60.084 30.2508 C 60.3834 30.5503 60.7756 30.7 61.1675 30.7 C 61.5598 30.7 61.9521 30.5503 62.2515 30.2508 C 62.8495 29.6519 62.8495 28.6812 62.2513 28.0822 Z" fill="#ffffff"/>
			</g>
			<g>
				<path d="M 22.2709 38.6354 C 22.2709 39.7614 21.3267 40.6733 20.164 40.6733 L 15.7334 40.6733 C 14.5694 40.6733 13.6265 39.7614 13.6265 38.6354 L 13.6265 37.6946 C 13.6265 36.5686 14.5693 35.6566 15.7334 35.6566 L 20.164 35.6566 C 21.3267 35.6566 22.2709 36.5685 22.2709 37.6946 L 22.2709 38.6354 Z" fill="#ffffff"/>
				<path d="M 2.9772 30.712 L 2.6068 30.712 C 1.4442 30.712 0.5 31.6254 0.5 32.7501 L 0.5 35.5648 C 0.5 36.6908 1.0426 37.6041 1.9719 37.6041 L 2.2039 37.6041 C 3.2091 37.6041 2.9771 38.5161 2.9771 39.642 L 2.9771 40.9622 C 2.9772 42.0867 3.9214 43 5.084 43 L 8.3046 43 C 9.4686 43 10.4115 42.0867 10.4115 40.962 L 10.4115 37.604 L 10.4115 32.75 C 10.4115 31.6254 9.4687 30.712 8.3046 30.712 L 2.9772 30.712 L 2.9772 30.712 Z" fill="#ffffff"/>
				<path d="M 29.1475 13.5583 C 28.1558 13.5583 27.2984 14.2275 27.0895 15.1645 L 25.912 20.4161 C 25.7031 21.353 24.8442 22.0223 23.8526 22.0223 L 10.6597 22.0223 C 9.4971 22.0223 8.5529 22.9356 8.5529 24.0602 L 8.5529 25.6035 C 8.5529 26.7281 9.4971 27.6415 10.6597 27.6415 L 11.0924 27.6415 C 12.2551 27.6415 13.1992 28.5548 13.1992 29.6807 L 13.1992 30.6951 C 13.1992 31.8197 14.1434 32.733 15.3061 32.733 L 31.6396 32.733 C 32.6286 32.733 33.4845 32.0663 33.6975 31.1294 L 37.1108 16.0306 C 37.2479 15.4296 37.0945 14.7997 36.6943 14.3195 C 36.2942 13.8365 35.6904 13.5583 35.0515 13.5583 L 29.1475 13.5583 Z" fill="#ffffff"/>
				<path d="M 42.1383 9.1333 C 41.9483 10.0925 41.0815 10.7868 40.0681 10.7868 L 30.907 10.7868 C 30.2789 10.7868 29.682 10.5178 29.2845 10.0493 C 28.8829 9.5795 28.7187 8.9627 28.8368 8.3671 L 30.1608 1.6562 C 30.3508 0.6955 31.219 0 32.231 0 L 41.3935 0 C 42.0216 0 42.6158 0.2703 43.016 0.7402 C 43.4176 1.2086 43.5804 1.8254 43.4624 2.4224 L 42.1383 9.1333 Z" fill="#ffffff"/>
			</g>
		</g>
	</g>
</svg>